<?xml version="1.0" encoding="UTF-8" standalone="no"?>
<!DOCTYPE svg PUBLIC "-//W3C//DTD SVG 1.1//EN"
 "http://www.w3.org/Graphics/SVG/1.1/DTD/svg11.dtd">
<!-- Generated by graphviz version 2.40.1 (20161225.0304)
 -->
<!-- Title: snakemake_dag Pages: 1 -->
<svg width="3990pt" height="1413pt"
 viewBox="0.00 0.00 3990.00 1413.00" xmlns="http://www.w3.org/2000/svg" xmlns:xlink="http://www.w3.org/1999/xlink">
<g id="graph0" class="graph" transform="scale(1 1) rotate(0) translate(4 1409)">
<title>snakemake_dag</title>
<polygon fill="#ffffff" stroke="transparent" points="-4,4 -4,-1409 3986,-1409 3986,4 -4,4"/>
<!-- 0 -->
<g id="node1" class="node">
<title>0</title>
<path fill="none" stroke="#97d856" stroke-width="2" d="M2829,-41C2829,-41 2799,-41 2799,-41 2793,-41 2787,-35 2787,-29 2787,-29 2787,-12 2787,-12 2787,-6 2793,0 2799,0 2799,0 2829,0 2829,0 2835,0 2841,-6 2841,-12 2841,-12 2841,-29 2841,-29 2841,-35 2835,-41 2829,-41"/>
<text text-anchor="middle" x="2814" y="-13" font-family="sans" font-size="30.00" fill="#000000">all</text>
</g>
<!-- 1 -->
<g id="node2" class="node">
<title>1</title>
<path fill="none" stroke="#56b9d8" stroke-width="2" d="M1851,-794.5C1851,-794.5 1513,-794.5 1513,-794.5 1507,-794.5 1501,-788.5 1501,-782.5 1501,-782.5 1501,-765.5 1501,-765.5 1501,-759.5 1507,-753.5 1513,-753.5 1513,-753.5 1851,-753.5 1851,-753.5 1857,-753.5 1863,-759.5 1863,-765.5 1863,-765.5 1863,-782.5 1863,-782.5 1863,-788.5 1857,-794.5 1851,-794.5"/>
<text text-anchor="middle" x="1682" y="-766.5" font-family="sans" font-size="30.00" fill="#000000">combine_well_and_umi</text>
</g>
<!-- 1&#45;&gt;0 -->
<g id="edge1" class="edge">
<title>1&#45;&gt;0</title>
<path fill="none" stroke="#c0c0c0" stroke-width="2" d="M1500.8934,-757.4752C1262.963,-730.6608 875,-667.072 875,-537.5 875,-537.5 875,-537.5 875,-174.5 875,-130.3515 860.3439,-105.5719 894,-77 931.2595,-45.369 2511.2943,-24.2788 2776.434,-20.9593"/>
<polygon fill="#c0c0c0" stroke="#c0c0c0" stroke-width="2" points="2776.7385,-24.4559 2786.6941,-20.8315 2776.6513,-17.4564 2776.7385,-24.4559"/>
</g>
<!-- 43 -->
<g id="node44" class="node">
<title>43</title>
<path fill="none" stroke="#56a2d8" stroke-width="2" d="M2117.5,-701C2117.5,-701 1940.5,-701 1940.5,-701 1934.5,-701 1928.5,-695 1928.5,-689 1928.5,-689 1928.5,-672 1928.5,-672 1928.5,-666 1934.5,-660 1940.5,-660 1940.5,-660 2117.5,-660 2117.5,-660 2123.5,-660 2129.5,-666 2129.5,-672 2129.5,-672 2129.5,-689 2129.5,-689 2129.5,-695 2123.5,-701 2117.5,-701"/>
<text text-anchor="middle" x="2029" y="-673" font-family="sans" font-size="30.00" fill="#000000">cat_cell_info</text>
</g>
<!-- 1&#45;&gt;43 -->
<g id="edge81" class="edge">
<title>1&#45;&gt;43</title>
<path fill="none" stroke="#c0c0c0" stroke-width="2" d="M1758.1506,-753.481C1812.748,-738.7696 1886.3612,-718.9344 1943.0636,-703.6558"/>
<polygon fill="#c0c0c0" stroke="#c0c0c0" stroke-width="2" points="1943.9828,-707.033 1952.7278,-701.0517 1942.1615,-700.2741 1943.9828,-707.033"/>
</g>
<!-- 45 -->
<g id="node46" class="node">
<title>45</title>
<path fill="none" stroke="#d88556" stroke-width="2" d="M2574.5,-624C2574.5,-624 1613.5,-624 1613.5,-624 1607.5,-624 1601.5,-618 1601.5,-612 1601.5,-612 1601.5,-463 1601.5,-463 1601.5,-457 1607.5,-451 1613.5,-451 1613.5,-451 2574.5,-451 2574.5,-451 2580.5,-451 2586.5,-457 2586.5,-463 2586.5,-463 2586.5,-612 2586.5,-612 2586.5,-618 2580.5,-624 2574.5,-624"/>
<text text-anchor="middle" x="2094" y="-596" font-family="sans" font-size="30.00" fill="#000000">make_seurat_objs</text>
<text text-anchor="middle" x="2094" y="-563" font-family="sans" font-size="30.00" fill="#000000">combination: Mus_musculus_Macaca_fascicularis_Homo_sapiens</text>
<text text-anchor="middle" x="2094" y="-530" font-family="sans" font-size="30.00" fill="#000000">covariate: batch</text>
<text text-anchor="middle" x="2094" y="-497" font-family="sans" font-size="30.00" fill="#000000">partition: downsample</text>
<text text-anchor="middle" x="2094" y="-464" font-family="sans" font-size="30.00" fill="#000000">transform: SCT</text>
</g>
<!-- 1&#45;&gt;45 -->
<g id="edge86" class="edge">
<title>1&#45;&gt;45</title>
<path fill="none" stroke="#c0c0c0" stroke-width="2" d="M1717.8416,-753.4259C1766.006,-725.7781 1854.7333,-674.8461 1933.9217,-629.3896"/>
<polygon fill="#c0c0c0" stroke="#c0c0c0" stroke-width="2" points="1936.1017,-632.1739 1943.0319,-624.1601 1932.6168,-626.103 1936.1017,-632.1739"/>
</g>
<!-- 2 -->
<g id="node3" class="node">
<title>2</title>
<path fill="none" stroke="#56b9d8" stroke-width="2" d="M2382.5,-811C2382.5,-811 1933.5,-811 1933.5,-811 1927.5,-811 1921.5,-805 1921.5,-799 1921.5,-799 1921.5,-749 1921.5,-749 1921.5,-743 1927.5,-737 1933.5,-737 1933.5,-737 2382.5,-737 2382.5,-737 2388.5,-737 2394.5,-743 2394.5,-749 2394.5,-749 2394.5,-799 2394.5,-799 2394.5,-805 2388.5,-811 2382.5,-811"/>
<text text-anchor="middle" x="2158" y="-783" font-family="sans" font-size="30.00" fill="#000000">combine_well_and_umi</text>
<text text-anchor="middle" x="2158" y="-750" font-family="sans" font-size="30.00" fill="#000000">organism: Macaca_fascicularis</text>
</g>
<!-- 2&#45;&gt;0 -->
<g id="edge2" class="edge">
<title>2&#45;&gt;0</title>
<path fill="none" stroke="#c0c0c0" stroke-width="2" d="M2394.7549,-751.1904C2634.1327,-721.3844 2969,-658.1305 2969,-537.5 2969,-537.5 2969,-537.5 2969,-174.5 2969,-130.3515 2977.9232,-111.1963 2950,-77 2925.5192,-47.0194 2882.4328,-32.7391 2851.3068,-26.0744"/>
<polygon fill="#c0c0c0" stroke="#c0c0c0" stroke-width="2" points="2851.7416,-22.5928 2841.2537,-24.0944 2850.3889,-29.4609 2851.7416,-22.5928"/>
</g>
<!-- 2&#45;&gt;43 -->
<g id="edge82" class="edge">
<title>2&#45;&gt;43</title>
<path fill="none" stroke="#c0c0c0" stroke-width="2" d="M2106.6451,-736.7777C2093.0583,-726.9298 2078.6588,-716.493 2065.9985,-707.3168"/>
<polygon fill="#c0c0c0" stroke="#c0c0c0" stroke-width="2" points="2067.6939,-704.2229 2057.543,-701.1881 2063.5858,-709.8907 2067.6939,-704.2229"/>
</g>
<!-- 2&#45;&gt;45 -->
<g id="edge87" class="edge">
<title>2&#45;&gt;45</title>
<path fill="none" stroke="#c0c0c0" stroke-width="2" d="M2153.606,-736.9207C2150.5026,-714.4435 2145.696,-685.3138 2139,-660 2136.7236,-651.3943 2134.086,-642.5447 2131.2518,-633.7288"/>
<polygon fill="#c0c0c0" stroke="#c0c0c0" stroke-width="2" points="2134.5618,-632.5904 2128.1068,-624.189 2127.9137,-634.7821 2134.5618,-632.5904"/>
</g>
<!-- 3 -->
<g id="node4" class="node">
<title>3</title>
<path fill="none" stroke="#56b9d8" stroke-width="2" d="M2883,-794.5C2883,-794.5 2545,-794.5 2545,-794.5 2539,-794.5 2533,-788.5 2533,-782.5 2533,-782.5 2533,-765.5 2533,-765.5 2533,-759.5 2539,-753.5 2545,-753.5 2545,-753.5 2883,-753.5 2883,-753.5 2889,-753.5 2895,-759.5 2895,-765.5 2895,-765.5 2895,-782.5 2895,-782.5 2895,-788.5 2889,-794.5 2883,-794.5"/>
<text text-anchor="middle" x="2714" y="-766.5" font-family="sans" font-size="30.00" fill="#000000">combine_well_and_umi</text>
</g>
<!-- 3&#45;&gt;0 -->
<g id="edge3" class="edge">
<title>3&#45;&gt;0</title>
<path fill="none" stroke="#c0c0c0" stroke-width="2" d="M2840.0169,-753.4629C2900.1217,-741.0538 2963.2076,-723.3054 2983,-701 3031.7468,-646.064 3007,-610.9454 3007,-537.5 3007,-537.5 3007,-537.5 3007,-174.5 3007,-129.8732 3013.2478,-109.812 2983,-77 2965.0057,-57.4803 2895.1772,-38.7382 2851.1052,-28.5049"/>
<polygon fill="#c0c0c0" stroke="#c0c0c0" stroke-width="2" points="2851.8397,-25.0826 2841.3118,-26.272 2850.2836,-31.9074 2851.8397,-25.0826"/>
</g>
<!-- 3&#45;&gt;43 -->
<g id="edge83" class="edge">
<title>3&#45;&gt;43</title>
<path fill="none" stroke="#c0c0c0" stroke-width="2" d="M2563.6738,-753.481C2435.7971,-736.0263 2255.0767,-711.3586 2139.9674,-695.6466"/>
<polygon fill="#c0c0c0" stroke="#c0c0c0" stroke-width="2" points="2140.1091,-692.1336 2129.7276,-694.2489 2139.1623,-699.0693 2140.1091,-692.1336"/>
</g>
<!-- 3&#45;&gt;45 -->
<g id="edge88" class="edge">
<title>3&#45;&gt;45</title>
<path fill="none" stroke="#c0c0c0" stroke-width="2" d="M2660.0637,-753.4259C2586.6293,-725.4143 2450.5365,-673.5014 2330.1972,-627.5978"/>
<polygon fill="#c0c0c0" stroke="#c0c0c0" stroke-width="2" points="2331.4162,-624.3168 2320.8254,-624.0229 2328.9213,-630.8572 2331.4162,-624.3168"/>
</g>
<!-- 4 -->
<g id="node5" class="node">
<title>4</title>
<path fill="none" stroke="#5673d8" stroke-width="2" d="M1900.5,-118C1900.5,-118 1671.5,-118 1671.5,-118 1665.5,-118 1659.5,-112 1659.5,-106 1659.5,-106 1659.5,-89 1659.5,-89 1659.5,-83 1665.5,-77 1671.5,-77 1671.5,-77 1900.5,-77 1900.5,-77 1906.5,-77 1912.5,-83 1912.5,-89 1912.5,-89 1912.5,-106 1912.5,-106 1912.5,-112 1906.5,-118 1900.5,-118"/>
<text text-anchor="middle" x="1786" y="-90" font-family="sans" font-size="30.00" fill="#000000">plot_integration</text>
</g>
<!-- 4&#45;&gt;0 -->
<g id="edge4" class="edge">
<title>4&#45;&gt;0</title>
<path fill="none" stroke="#c0c0c0" stroke-width="2" d="M1912.6404,-78.0446C1915.7897,-77.6789 1918.9134,-77.3298 1922,-77 2252.2497,-41.7173 2653.8152,-25.9374 2776.581,-21.7124"/>
<polygon fill="#c0c0c0" stroke="#c0c0c0" stroke-width="2" points="2777.0497,-25.1986 2786.9251,-21.3613 2776.8121,-18.2027 2777.0497,-25.1986"/>
</g>
<!-- 5 -->
<g id="node6" class="node">
<title>5</title>
<path fill="none" stroke="#5673d8" stroke-width="2" d="M2928.5,-118C2928.5,-118 2699.5,-118 2699.5,-118 2693.5,-118 2687.5,-112 2687.5,-106 2687.5,-106 2687.5,-89 2687.5,-89 2687.5,-83 2693.5,-77 2699.5,-77 2699.5,-77 2928.5,-77 2928.5,-77 2934.5,-77 2940.5,-83 2940.5,-89 2940.5,-89 2940.5,-106 2940.5,-106 2940.5,-112 2934.5,-118 2928.5,-118"/>
<text text-anchor="middle" x="2814" y="-90" font-family="sans" font-size="30.00" fill="#000000">plot_integration</text>
</g>
<!-- 5&#45;&gt;0 -->
<g id="edge5" class="edge">
<title>5&#45;&gt;0</title>
<path fill="none" stroke="#c0c0c0" stroke-width="2" d="M2814,-76.8654C2814,-69.0111 2814,-59.8822 2814,-51.2879"/>
<polygon fill="#c0c0c0" stroke="#c0c0c0" stroke-width="2" points="2817.5001,-51.1915 2814,-41.1915 2810.5001,-51.1916 2817.5001,-51.1915"/>
</g>
<!-- 6 -->
<g id="node7" class="node">
<title>6</title>
<path fill="none" stroke="#56d892" stroke-width="2" d="M1629,-118C1629,-118 915,-118 915,-118 909,-118 903,-112 903,-106 903,-106 903,-89 903,-89 903,-83 909,-77 915,-77 915,-77 1629,-77 1629,-77 1635,-77 1641,-83 1641,-89 1641,-89 1641,-106 1641,-106 1641,-112 1635,-118 1629,-118"/>
<text text-anchor="middle" x="1272" y="-90" font-family="sans" font-size="30.00" fill="#000000">plot_integration_with_well_supported_cell_types</text>
</g>
<!-- 6&#45;&gt;0 -->
<g id="edge6" class="edge">
<title>6&#45;&gt;0</title>
<path fill="none" stroke="#c0c0c0" stroke-width="2" d="M1641.1018,-77.4582C1644.0799,-77.3045 1647.0464,-77.1518 1650,-77 2093.5238,-54.2092 2632.2437,-28.9625 2776.8215,-22.2277"/>
<polygon fill="#c0c0c0" stroke="#c0c0c0" stroke-width="2" points="2777.1011,-25.7185 2786.9275,-21.7572 2776.7755,-18.7261 2777.1011,-25.7185"/>
</g>
<!-- 7 -->
<g id="node8" class="node">
<title>7</title>
<path fill="none" stroke="#56d892" stroke-width="2" d="M2657,-118C2657,-118 1943,-118 1943,-118 1937,-118 1931,-112 1931,-106 1931,-106 1931,-89 1931,-89 1931,-83 1937,-77 1943,-77 1943,-77 2657,-77 2657,-77 2663,-77 2669,-83 2669,-89 2669,-89 2669,-106 2669,-106 2669,-112 2663,-118 2657,-118"/>
<text text-anchor="middle" x="2300" y="-90" font-family="sans" font-size="30.00" fill="#000000">plot_integration_with_well_supported_cell_types</text>
</g>
<!-- 7&#45;&gt;0 -->
<g id="edge7" class="edge">
<title>7&#45;&gt;0</title>
<path fill="none" stroke="#c0c0c0" stroke-width="2" d="M2437.0674,-76.9666C2551.3474,-59.8468 2706.412,-36.6173 2776.6666,-26.0927"/>
<polygon fill="#c0c0c0" stroke="#c0c0c0" stroke-width="2" points="2777.4276,-29.5179 2786.7987,-24.5749 2776.3905,-22.5951 2777.4276,-29.5179"/>
</g>
<!-- 8 -->
<g id="node9" class="node">
<title>8</title>
<path fill="none" stroke="#d8d356" stroke-width="2" d="M3970,-1108C3970,-1108 3710,-1108 3710,-1108 3704,-1108 3698,-1102 3698,-1096 3698,-1096 3698,-1046 3698,-1046 3698,-1040 3704,-1034 3710,-1034 3710,-1034 3970,-1034 3970,-1034 3976,-1034 3982,-1040 3982,-1046 3982,-1046 3982,-1096 3982,-1096 3982,-1102 3976,-1108 3970,-1108"/>
<text text-anchor="middle" x="3840" y="-1080" font-family="sans" font-size="30.00" fill="#000000">kallisto_quant</text>
<text text-anchor="middle" x="3840" y="-1047" font-family="sans" font-size="30.00" fill="#000000">SRS: SRS3732876</text>
</g>
<!-- 8&#45;&gt;0 -->
<g id="edge8" class="edge">
<title>8&#45;&gt;0</title>
<path fill="none" stroke="#c0c0c0" stroke-width="2" d="M3839.4161,-1033.867C3838.8258,-993.0735 3838,-925.6204 3838,-867.5 3838,-867.5 3838,-867.5 3838,-174.5 3838,-118.4239 4033.5952,-171.0266 3616,-77 3467.3597,-43.5318 2988.9895,-26.0568 2851.3627,-21.637"/>
<polygon fill="#c0c0c0" stroke="#c0c0c0" stroke-width="2" points="2851.4179,-18.137 2841.3119,-21.318 2851.1958,-25.1335 2851.4179,-18.137"/>
</g>
<!-- 21 -->
<g id="node22" class="node">
<title>21</title>
<path fill="none" stroke="#c6d856" stroke-width="2" d="M3759,-998C3759,-998 3235,-998 3235,-998 3229,-998 3223,-992 3223,-986 3223,-986 3223,-936 3223,-936 3223,-930 3229,-924 3235,-924 3235,-924 3759,-924 3759,-924 3765,-924 3771,-930 3771,-936 3771,-936 3771,-986 3771,-986 3771,-992 3765,-998 3759,-998"/>
<text text-anchor="middle" x="3497" y="-970" font-family="sans" font-size="30.00" fill="#000000">merge_nonUMI_quant_by_organism</text>
<text text-anchor="middle" x="3497" y="-937" font-family="sans" font-size="30.00" fill="#000000">organism: Homo_sapiens</text>
</g>
<!-- 8&#45;&gt;21 -->
<g id="edge43" class="edge">
<title>8&#45;&gt;21</title>
<path fill="none" stroke="#c0c0c0" stroke-width="2" d="M3724.354,-1033.9124C3691.5183,-1023.382 3655.616,-1011.8681 3622.2401,-1001.1645"/>
<polygon fill="#c0c0c0" stroke="#c0c0c0" stroke-width="2" points="3623.0267,-997.7412 3612.4355,-998.0201 3620.889,-1004.4068 3623.0267,-997.7412"/>
</g>
<!-- 9 -->
<g id="node10" class="node">
<title>9</title>
<path fill="none" stroke="#d8d356" stroke-width="2" d="M3366,-1108C3366,-1108 3106,-1108 3106,-1108 3100,-1108 3094,-1102 3094,-1096 3094,-1096 3094,-1046 3094,-1046 3094,-1040 3100,-1034 3106,-1034 3106,-1034 3366,-1034 3366,-1034 3372,-1034 3378,-1040 3378,-1046 3378,-1046 3378,-1096 3378,-1096 3378,-1102 3372,-1108 3366,-1108"/>
<text text-anchor="middle" x="3236" y="-1080" font-family="sans" font-size="30.00" fill="#000000">kallisto_quant</text>
<text text-anchor="middle" x="3236" y="-1047" font-family="sans" font-size="30.00" fill="#000000">SRS: SRS2166836</text>
</g>
<!-- 9&#45;&gt;0 -->
<g id="edge9" class="edge">
<title>9&#45;&gt;0</title>
<path fill="none" stroke="#c0c0c0" stroke-width="2" d="M3223.9204,-1033.9443C3211.8264,-993.4984 3195,-926.6052 3195,-867.5 3195,-867.5 3195,-867.5 3195,-174.5 3195,-123.1474 3175.6753,-105.5641 3133,-77 3087.3371,-46.4362 2925.5471,-29.6141 2851.4974,-23.3618"/>
<polygon fill="#c0c0c0" stroke="#c0c0c0" stroke-width="2" points="2851.4867,-19.8491 2841.2329,-22.5157 2850.9115,-26.8255 2851.4867,-19.8491"/>
</g>
<!-- 9&#45;&gt;21 -->
<g id="edge44" class="edge">
<title>9&#45;&gt;21</title>
<path fill="none" stroke="#c0c0c0" stroke-width="2" d="M3323.9988,-1033.9124C3348.2756,-1023.6808 3374.7553,-1012.5208 3399.5341,-1002.0776"/>
<polygon fill="#c0c0c0" stroke="#c0c0c0" stroke-width="2" points="3401.0837,-1005.2227 3408.9394,-998.1137 3398.365,-998.7722 3401.0837,-1005.2227"/>
</g>
<!-- 10 -->
<g id="node11" class="node">
<title>10</title>
<path fill="none" stroke="#d8d356" stroke-width="2" d="M3668,-1108C3668,-1108 3408,-1108 3408,-1108 3402,-1108 3396,-1102 3396,-1096 3396,-1096 3396,-1046 3396,-1046 3396,-1040 3402,-1034 3408,-1034 3408,-1034 3668,-1034 3668,-1034 3674,-1034 3680,-1040 3680,-1046 3680,-1046 3680,-1096 3680,-1096 3680,-1102 3674,-1108 3668,-1108"/>
<text text-anchor="middle" x="3538" y="-1080" font-family="sans" font-size="30.00" fill="#000000">kallisto_quant</text>
<text text-anchor="middle" x="3538" y="-1047" font-family="sans" font-size="30.00" fill="#000000">SRS: SRS3106664</text>
</g>
<!-- 10&#45;&gt;0 -->
<g id="edge10" class="edge">
<title>10&#45;&gt;0</title>
<path fill="none" stroke="#c0c0c0" stroke-width="2" d="M3680.0486,-1034.8258C3728.3958,-1021.2381 3772.3017,-1006.9347 3780,-998 3818.2583,-953.5972 3799,-926.1115 3799,-867.5 3799,-867.5 3799,-867.5 3799,-174.5 3799,-76.6552 3030.5129,-31.5106 2851.1228,-22.3052"/>
<polygon fill="#c0c0c0" stroke="#c0c0c0" stroke-width="2" points="2851.2788,-18.8087 2841.1143,-21.7978 2850.9242,-25.7998 2851.2788,-18.8087"/>
</g>
<!-- 10&#45;&gt;21 -->
<g id="edge45" class="edge">
<title>10&#45;&gt;21</title>
<path fill="none" stroke="#c0c0c0" stroke-width="2" d="M3524.1193,-1033.759C3521.0135,-1025.4266 3517.6807,-1016.4849 3514.4512,-1007.8203"/>
<polygon fill="#c0c0c0" stroke="#c0c0c0" stroke-width="2" points="3517.6387,-1006.3505 3510.8664,-998.2026 3511.0795,-1008.7953 3517.6387,-1006.3505"/>
</g>
<!-- 11 -->
<g id="node12" class="node">
<title>11</title>
<path fill="none" stroke="#d8d356" stroke-width="2" d="M272,-1108C272,-1108 12,-1108 12,-1108 6,-1108 0,-1102 0,-1096 0,-1096 0,-1046 0,-1046 0,-1040 6,-1034 12,-1034 12,-1034 272,-1034 272,-1034 278,-1034 284,-1040 284,-1046 284,-1046 284,-1096 284,-1096 284,-1102 278,-1108 272,-1108"/>
<text text-anchor="middle" x="142" y="-1080" font-family="sans" font-size="30.00" fill="#000000">kallisto_quant</text>
<text text-anchor="middle" x="142" y="-1047" font-family="sans" font-size="30.00" fill="#000000">SRS: SRS3675268</text>
</g>
<!-- 11&#45;&gt;0 -->
<g id="edge11" class="edge">
<title>11&#45;&gt;0</title>
<path fill="none" stroke="#c0c0c0" stroke-width="2" d="M161.8022,-1033.9125C181.2429,-993.9877 208,-928.0407 208,-867.5 208,-867.5 208,-867.5 208,-174.5 208,-124.3048 221.7412,-102.4603 265,-77 321.6097,-43.6819 2465.9037,-23.5652 2776.6196,-20.8227"/>
<polygon fill="#c0c0c0" stroke="#c0c0c0" stroke-width="2" points="2776.9239,-24.3202 2786.8927,-20.7324 2776.8623,-17.3205 2776.9239,-24.3202"/>
</g>
<!-- 17 -->
<g id="node18" class="node">
<title>17</title>
<path fill="none" stroke="#c6d856" stroke-width="2" d="M1401,-998C1401,-998 877,-998 877,-998 871,-998 865,-992 865,-986 865,-986 865,-936 865,-936 865,-930 871,-924 877,-924 877,-924 1401,-924 1401,-924 1407,-924 1413,-930 1413,-936 1413,-936 1413,-986 1413,-986 1413,-992 1407,-998 1401,-998"/>
<text text-anchor="middle" x="1139" y="-970" font-family="sans" font-size="30.00" fill="#000000">merge_nonUMI_quant_by_organism</text>
<text text-anchor="middle" x="1139" y="-937" font-family="sans" font-size="30.00" fill="#000000">organism: Mus_musculus</text>
</g>
<!-- 11&#45;&gt;17 -->
<g id="edge38" class="edge">
<title>11&#45;&gt;17</title>
<path fill="none" stroke="#c0c0c0" stroke-width="2" d="M284.0517,-1049.4349C322.5926,-1043.974 364.3504,-1038.4126 403,-1034 586.9422,-1012.9994 633.7997,-1016.6016 818,-998 830.0012,-996.7881 842.2509,-995.5187 854.6227,-994.2101"/>
<polygon fill="#c0c0c0" stroke="#c0c0c0" stroke-width="2" points="854.9946,-997.6903 864.5684,-993.1525 854.2544,-990.7296 854.9946,-997.6903"/>
</g>
<!-- 12 -->
<g id="node13" class="node">
<title>12</title>
<path fill="none" stroke="#d86e56" stroke-width="2" d="M3178,-1218C3178,-1218 2918,-1218 2918,-1218 2912,-1218 2906,-1212 2906,-1206 2906,-1206 2906,-1156 2906,-1156 2906,-1150 2912,-1144 2918,-1144 2918,-1144 3178,-1144 3178,-1144 3184,-1144 3190,-1150 3190,-1156 3190,-1156 3190,-1206 3190,-1206 3190,-1212 3184,-1218 3178,-1218"/>
<text text-anchor="middle" x="3048" y="-1190" font-family="sans" font-size="30.00" fill="#000000">kallisto_bus</text>
<text text-anchor="middle" x="3048" y="-1157" font-family="sans" font-size="30.00" fill="#000000">SRS: SRS4715841</text>
</g>
<!-- 12&#45;&gt;0 -->
<g id="edge12" class="edge">
<title>12&#45;&gt;0</title>
<path fill="none" stroke="#c0c0c0" stroke-width="2" d="M3050.3782,-1143.7412C3053.9403,-1112.1966 3062.8294,-1066.9788 3085,-1034 3100.0768,-1011.5732 3121.7956,-1022.1107 3134,-998 3148.8533,-968.6562 3135.6383,-956.8481 3134,-924 3130.6625,-857.084 3119,-840.9992 3119,-774 3119,-774 3119,-774 3119,-174.5 3119,-123.6189 3100.3253,-106.6835 3059,-77 3025.973,-53.2771 2911.2491,-34.1581 2851.2378,-25.507"/>
<polygon fill="#c0c0c0" stroke="#c0c0c0" stroke-width="2" points="2851.4417,-22.001 2841.0495,-24.0632 2850.4595,-28.9318 2851.4417,-22.001"/>
</g>
<!-- 32 -->
<g id="node33" class="node">
<title>32</title>
<path fill="none" stroke="#56d0d8" stroke-width="2" d="M3113,-981.5C3113,-981.5 2635,-981.5 2635,-981.5 2629,-981.5 2623,-975.5 2623,-969.5 2623,-969.5 2623,-952.5 2623,-952.5 2623,-946.5 2629,-940.5 2635,-940.5 2635,-940.5 3113,-940.5 3113,-940.5 3119,-940.5 3125,-946.5 3125,-952.5 3125,-952.5 3125,-969.5 3125,-969.5 3125,-975.5 3119,-981.5 3113,-981.5"/>
<text text-anchor="middle" x="2874" y="-953.5" font-family="sans" font-size="30.00" fill="#000000">bustools_whitelist_correct_count</text>
</g>
<!-- 12&#45;&gt;32 -->
<g id="edge67" class="edge">
<title>12&#45;&gt;32</title>
<path fill="none" stroke="#c0c0c0" stroke-width="2" d="M3041.5001,-1143.7343C3034.3627,-1111.7591 3020.2469,-1065.9211 2994,-1034 2977.5974,-1014.0514 2954.2283,-998.1145 2932.4642,-986.2841"/>
<polygon fill="#c0c0c0" stroke="#c0c0c0" stroke-width="2" points="2934.0641,-983.171 2923.5822,-981.6283 2930.8142,-989.3709 2934.0641,-983.171"/>
</g>
<!-- 41 -->
<g id="node42" class="node">
<title>41</title>
<path fill="none" stroke="#d85656" stroke-width="2" d="M2972.5,-1091.5C2972.5,-1091.5 2781.5,-1091.5 2781.5,-1091.5 2775.5,-1091.5 2769.5,-1085.5 2769.5,-1079.5 2769.5,-1079.5 2769.5,-1062.5 2769.5,-1062.5 2769.5,-1056.5 2775.5,-1050.5 2781.5,-1050.5 2781.5,-1050.5 2972.5,-1050.5 2972.5,-1050.5 2978.5,-1050.5 2984.5,-1056.5 2984.5,-1062.5 2984.5,-1062.5 2984.5,-1079.5 2984.5,-1079.5 2984.5,-1085.5 2978.5,-1091.5 2972.5,-1091.5"/>
<text text-anchor="middle" x="2877" y="-1063.5" font-family="sans" font-size="30.00" fill="#000000">bustools_sort</text>
</g>
<!-- 12&#45;&gt;41 -->
<g id="edge79" class="edge">
<title>12&#45;&gt;41</title>
<path fill="none" stroke="#c0c0c0" stroke-width="2" d="M2990.1072,-1143.759C2966.2628,-1128.4205 2939.2094,-1111.0177 2917.5405,-1097.0787"/>
<polygon fill="#c0c0c0" stroke="#c0c0c0" stroke-width="2" points="2919.2169,-1093.9954 2908.9131,-1091.5289 2915.4298,-1099.8826 2919.2169,-1093.9954"/>
</g>
<!-- 13 -->
<g id="node14" class="node">
<title>13</title>
<path fill="none" stroke="#d86e56" stroke-width="2" d="M2582,-1218C2582,-1218 2322,-1218 2322,-1218 2316,-1218 2310,-1212 2310,-1206 2310,-1206 2310,-1156 2310,-1156 2310,-1150 2316,-1144 2322,-1144 2322,-1144 2582,-1144 2582,-1144 2588,-1144 2594,-1150 2594,-1156 2594,-1156 2594,-1206 2594,-1206 2594,-1212 2588,-1218 2582,-1218"/>
<text text-anchor="middle" x="2452" y="-1190" font-family="sans" font-size="30.00" fill="#000000">kallisto_bus</text>
<text text-anchor="middle" x="2452" y="-1157" font-family="sans" font-size="30.00" fill="#000000">SRS: SRS3698218</text>
</g>
<!-- 13&#45;&gt;0 -->
<g id="edge13" class="edge">
<title>13&#45;&gt;0</title>
<path fill="none" stroke="#c0c0c0" stroke-width="2" d="M2530.4784,-1143.924C2545.028,-1134.0145 2558.8241,-1122.0623 2569,-1108 2640.6005,-1009.054 2555.071,-917.222 2655,-847 2746.4873,-782.7102 2804.6188,-862.2494 2904,-811 3025.5484,-748.3194 3045,-674.2584 3045,-537.5 3045,-537.5 3045,-537.5 3045,-174.5 3045,-128.1513 3042.0468,-108.4486 3008,-77 2985.1451,-55.8893 2900.8208,-36.9075 2851.1844,-27.2399"/>
<polygon fill="#c0c0c0" stroke="#c0c0c0" stroke-width="2" points="2851.6333,-23.7624 2841.1537,-25.3209 2850.3179,-30.6377 2851.6333,-23.7624"/>
</g>
<!-- 31 -->
<g id="node32" class="node">
<title>31</title>
<path fill="none" stroke="#56d0d8" stroke-width="2" d="M2555,-981.5C2555,-981.5 2077,-981.5 2077,-981.5 2071,-981.5 2065,-975.5 2065,-969.5 2065,-969.5 2065,-952.5 2065,-952.5 2065,-946.5 2071,-940.5 2077,-940.5 2077,-940.5 2555,-940.5 2555,-940.5 2561,-940.5 2567,-946.5 2567,-952.5 2567,-952.5 2567,-969.5 2567,-969.5 2567,-975.5 2561,-981.5 2555,-981.5"/>
<text text-anchor="middle" x="2316" y="-953.5" font-family="sans" font-size="30.00" fill="#000000">bustools_whitelist_correct_count</text>
</g>
<!-- 13&#45;&gt;31 -->
<g id="edge64" class="edge">
<title>13&#45;&gt;31</title>
<path fill="none" stroke="#c0c0c0" stroke-width="2" d="M2372.15,-1143.9835C2358.1436,-1134.1438 2345.1475,-1122.2036 2336,-1108 2313.4473,-1072.9817 2311.4071,-1023.5443 2312.9632,-991.8798"/>
<polygon fill="#c0c0c0" stroke="#c0c0c0" stroke-width="2" points="2316.4579,-992.0726 2313.6044,-981.8693 2309.4723,-991.6251 2316.4579,-992.0726"/>
</g>
<!-- 40 -->
<g id="node41" class="node">
<title>40</title>
<path fill="none" stroke="#d85656" stroke-width="2" d="M2547.5,-1091.5C2547.5,-1091.5 2356.5,-1091.5 2356.5,-1091.5 2350.5,-1091.5 2344.5,-1085.5 2344.5,-1079.5 2344.5,-1079.5 2344.5,-1062.5 2344.5,-1062.5 2344.5,-1056.5 2350.5,-1050.5 2356.5,-1050.5 2356.5,-1050.5 2547.5,-1050.5 2547.5,-1050.5 2553.5,-1050.5 2559.5,-1056.5 2559.5,-1062.5 2559.5,-1062.5 2559.5,-1079.5 2559.5,-1079.5 2559.5,-1085.5 2553.5,-1091.5 2547.5,-1091.5"/>
<text text-anchor="middle" x="2452" y="-1063.5" font-family="sans" font-size="30.00" fill="#000000">bustools_sort</text>
</g>
<!-- 13&#45;&gt;40 -->
<g id="edge78" class="edge">
<title>13&#45;&gt;40</title>
<path fill="none" stroke="#c0c0c0" stroke-width="2" d="M2452,-1143.759C2452,-1130.1248 2452,-1114.8595 2452,-1101.8457"/>
<polygon fill="#c0c0c0" stroke="#c0c0c0" stroke-width="2" points="2455.5001,-1101.5289 2452,-1091.5289 2448.5001,-1101.5289 2455.5001,-1101.5289"/>
</g>
<!-- 14 -->
<g id="node15" class="node">
<title>14</title>
<path fill="none" stroke="#d86e56" stroke-width="2" d="M1295,-1218C1295,-1218 1035,-1218 1035,-1218 1029,-1218 1023,-1212 1023,-1206 1023,-1206 1023,-1156 1023,-1156 1023,-1150 1029,-1144 1035,-1144 1035,-1144 1295,-1144 1295,-1144 1301,-1144 1307,-1150 1307,-1156 1307,-1156 1307,-1206 1307,-1206 1307,-1212 1301,-1218 1295,-1218"/>
<text text-anchor="middle" x="1165" y="-1190" font-family="sans" font-size="30.00" fill="#000000">kallisto_bus</text>
<text text-anchor="middle" x="1165" y="-1157" font-family="sans" font-size="30.00" fill="#000000">SRS: SRS3971246</text>
</g>
<!-- 14&#45;&gt;0 -->
<g id="edge14" class="edge">
<title>14&#45;&gt;0</title>
<path fill="none" stroke="#c0c0c0" stroke-width="2" d="M1022.5654,-1145.0401C934.0475,-1113.1811 837,-1056.4801 837,-961 837,-961 837,-961 837,-174.5 837,-128.8924 832.4553,-104.2861 869,-77 908.6934,-47.3629 2509.3585,-24.5924 2776.4078,-20.9961"/>
<polygon fill="#c0c0c0" stroke="#c0c0c0" stroke-width="2" points="2776.7842,-24.4915 2786.7364,-20.8577 2776.6903,-17.4921 2776.7842,-24.4915"/>
</g>
<!-- 29 -->
<g id="node30" class="node">
<title>29</title>
<path fill="none" stroke="#56d0d8" stroke-width="2" d="M1921,-981.5C1921,-981.5 1443,-981.5 1443,-981.5 1437,-981.5 1431,-975.5 1431,-969.5 1431,-969.5 1431,-952.5 1431,-952.5 1431,-946.5 1437,-940.5 1443,-940.5 1443,-940.5 1921,-940.5 1921,-940.5 1927,-940.5 1933,-946.5 1933,-952.5 1933,-952.5 1933,-969.5 1933,-969.5 1933,-975.5 1927,-981.5 1921,-981.5"/>
<text text-anchor="middle" x="1682" y="-953.5" font-family="sans" font-size="30.00" fill="#000000">bustools_whitelist_correct_count</text>
</g>
<!-- 14&#45;&gt;29 -->
<g id="edge58" class="edge">
<title>14&#45;&gt;29</title>
<path fill="none" stroke="#c0c0c0" stroke-width="2" d="M1307.1453,-1148.6257C1346.953,-1137.6675 1389.7732,-1124.0583 1428,-1108 1508.4824,-1074.191 1595.0101,-1019.7907 1643.4401,-987.5061"/>
<polygon fill="#c0c0c0" stroke="#c0c0c0" stroke-width="2" points="1645.6741,-990.2221 1652.0296,-981.7452 1641.775,-984.4086 1645.6741,-990.2221"/>
</g>
<!-- 38 -->
<g id="node39" class="node">
<title>38</title>
<path fill="none" stroke="#d85656" stroke-width="2" d="M1407.5,-1091.5C1407.5,-1091.5 1216.5,-1091.5 1216.5,-1091.5 1210.5,-1091.5 1204.5,-1085.5 1204.5,-1079.5 1204.5,-1079.5 1204.5,-1062.5 1204.5,-1062.5 1204.5,-1056.5 1210.5,-1050.5 1216.5,-1050.5 1216.5,-1050.5 1407.5,-1050.5 1407.5,-1050.5 1413.5,-1050.5 1419.5,-1056.5 1419.5,-1062.5 1419.5,-1062.5 1419.5,-1079.5 1419.5,-1079.5 1419.5,-1085.5 1413.5,-1091.5 1407.5,-1091.5"/>
<text text-anchor="middle" x="1312" y="-1063.5" font-family="sans" font-size="30.00" fill="#000000">bustools_sort</text>
</g>
<!-- 14&#45;&gt;38 -->
<g id="edge76" class="edge">
<title>14&#45;&gt;38</title>
<path fill="none" stroke="#c0c0c0" stroke-width="2" d="M1214.7675,-1143.759C1234.992,-1128.625 1257.9021,-1111.4815 1276.4018,-1097.6381"/>
<polygon fill="#c0c0c0" stroke="#c0c0c0" stroke-width="2" points="1278.6563,-1100.3225 1284.5659,-1091.5289 1274.4624,-1094.7179 1278.6563,-1100.3225"/>
</g>
<!-- 15 -->
<g id="node16" class="node">
<title>15</title>
<path fill="none" stroke="#d86e56" stroke-width="2" d="M718,-1218C718,-1218 458,-1218 458,-1218 452,-1218 446,-1212 446,-1206 446,-1206 446,-1156 446,-1156 446,-1150 452,-1144 458,-1144 458,-1144 718,-1144 718,-1144 724,-1144 730,-1150 730,-1156 730,-1156 730,-1206 730,-1206 730,-1212 724,-1218 718,-1218"/>
<text text-anchor="middle" x="588" y="-1190" font-family="sans" font-size="30.00" fill="#000000">kallisto_bus</text>
<text text-anchor="middle" x="588" y="-1157" font-family="sans" font-size="30.00" fill="#000000">SRS: SRS1467250</text>
</g>
<!-- 15&#45;&gt;0 -->
<g id="edge15" class="edge">
<title>15&#45;&gt;0</title>
<path fill="none" stroke="#c0c0c0" stroke-width="2" d="M471.6094,-1143.9923C447.9418,-1134.0521 423.9128,-1122.0703 403,-1108 346.9243,-1070.2717 327.6021,-1058.7587 298,-998 272.3287,-945.3095 279,-926.1115 279,-867.5 279,-867.5 279,-867.5 279,-174.5 279,76.8196 585.9592,-102.3208 836,-77 1233.0025,-36.7968 2538.2718,-23.0328 2776.5022,-20.8293"/>
<polygon fill="#c0c0c0" stroke="#c0c0c0" stroke-width="2" points="2776.7556,-24.3272 2786.7232,-20.7358 2776.6915,-17.3275 2776.7556,-24.3272"/>
</g>
<!-- 30 -->
<g id="node31" class="node">
<title>30</title>
<path fill="none" stroke="#56d0d8" stroke-width="2" d="M797,-981.5C797,-981.5 319,-981.5 319,-981.5 313,-981.5 307,-975.5 307,-969.5 307,-969.5 307,-952.5 307,-952.5 307,-946.5 313,-940.5 319,-940.5 319,-940.5 797,-940.5 797,-940.5 803,-940.5 809,-946.5 809,-952.5 809,-952.5 809,-969.5 809,-969.5 809,-975.5 803,-981.5 797,-981.5"/>
<text text-anchor="middle" x="558" y="-953.5" font-family="sans" font-size="30.00" fill="#000000">bustools_whitelist_correct_count</text>
</g>
<!-- 15&#45;&gt;30 -->
<g id="edge61" class="edge">
<title>15&#45;&gt;30</title>
<path fill="none" stroke="#c0c0c0" stroke-width="2" d="M618.4402,-1143.7121C625.6153,-1132.8354 632.2596,-1120.4966 636,-1108 645.4307,-1076.4922 649.0872,-1064.1729 636,-1034 628.1538,-1015.9104 613.3725,-1000.2558 598.7693,-988.1335"/>
<polygon fill="#c0c0c0" stroke="#c0c0c0" stroke-width="2" points="600.7351,-985.2259 590.72,-981.7693 596.3936,-990.717 600.7351,-985.2259"/>
</g>
<!-- 39 -->
<g id="node40" class="node">
<title>39</title>
<path fill="none" stroke="#d85656" stroke-width="2" d="M615.5,-1091.5C615.5,-1091.5 424.5,-1091.5 424.5,-1091.5 418.5,-1091.5 412.5,-1085.5 412.5,-1079.5 412.5,-1079.5 412.5,-1062.5 412.5,-1062.5 412.5,-1056.5 418.5,-1050.5 424.5,-1050.5 424.5,-1050.5 615.5,-1050.5 615.5,-1050.5 621.5,-1050.5 627.5,-1056.5 627.5,-1062.5 627.5,-1062.5 627.5,-1079.5 627.5,-1079.5 627.5,-1085.5 621.5,-1091.5 615.5,-1091.5"/>
<text text-anchor="middle" x="520" y="-1063.5" font-family="sans" font-size="30.00" fill="#000000">bustools_sort</text>
</g>
<!-- 15&#45;&gt;39 -->
<g id="edge77" class="edge">
<title>15&#45;&gt;39</title>
<path fill="none" stroke="#c0c0c0" stroke-width="2" d="M564.9783,-1143.759C556.2127,-1129.5794 546.3566,-1113.6357 538.1097,-1100.2951"/>
<polygon fill="#c0c0c0" stroke="#c0c0c0" stroke-width="2" points="540.9259,-1098.1945 532.6906,-1091.5289 534.9718,-1101.8753 540.9259,-1098.1945"/>
</g>
<!-- 16 -->
<g id="node17" class="node">
<title>16</title>
<path fill="none" stroke="#56d8a9" stroke-width="2" d="M2109.5,-1091.5C2109.5,-1091.5 1850.5,-1091.5 1850.5,-1091.5 1844.5,-1091.5 1838.5,-1085.5 1838.5,-1079.5 1838.5,-1079.5 1838.5,-1062.5 1838.5,-1062.5 1838.5,-1056.5 1844.5,-1050.5 1850.5,-1050.5 1850.5,-1050.5 2109.5,-1050.5 2109.5,-1050.5 2115.5,-1050.5 2121.5,-1056.5 2121.5,-1062.5 2121.5,-1062.5 2121.5,-1079.5 2121.5,-1079.5 2121.5,-1085.5 2115.5,-1091.5 2109.5,-1091.5"/>
<text text-anchor="middle" x="1980" y="-1063.5" font-family="sans" font-size="30.00" fill="#000000">tx_gene_mapping</text>
</g>
<!-- 16&#45;&gt;1 -->
<g id="edge16" class="edge">
<title>16&#45;&gt;1</title>
<path fill="none" stroke="#c0c0c0" stroke-width="2" d="M1978.2422,-1050.4095C1974.9473,-1020.6884 1965.868,-964.8546 1942,-924 1904.1967,-859.2926 1826.8202,-819.9497 1766.2596,-797.8935"/>
<polygon fill="#c0c0c0" stroke="#c0c0c0" stroke-width="2" points="1767.2878,-794.5446 1756.693,-794.5007 1764.948,-801.142 1767.2878,-794.5446"/>
</g>
<!-- 16&#45;&gt;2 -->
<g id="edge20" class="edge">
<title>16&#45;&gt;2</title>
<path fill="none" stroke="#c0c0c0" stroke-width="2" d="M1977.9373,-1050.4822C1974.7858,-1008.1142 1973.3152,-909.6851 2019,-847 2027.5438,-835.2769 2038.5424,-825.2731 2050.6059,-816.7805"/>
<polygon fill="#c0c0c0" stroke="#c0c0c0" stroke-width="2" points="2052.7115,-819.5838 2059.1107,-811.1398 2048.8425,-813.7503 2052.7115,-819.5838"/>
</g>
<!-- 16&#45;&gt;3 -->
<g id="edge22" class="edge">
<title>16&#45;&gt;3</title>
<path fill="none" stroke="#c0c0c0" stroke-width="2" d="M1984.1896,-1050.3009C1992.0195,-1017.4753 2012.208,-954.1199 2056,-924 2115.324,-883.1973 2307.7218,-903.6579 2378,-888 2477.5706,-865.8158 2588.9251,-824.6272 2655.1497,-798.3055"/>
<polygon fill="#c0c0c0" stroke="#c0c0c0" stroke-width="2" points="2656.5995,-801.4953 2664.5863,-794.5339 2654.0015,-794.9953 2656.5995,-801.4953"/>
</g>
<!-- 16&#45;&gt;17 -->
<g id="edge39" class="edge">
<title>16&#45;&gt;17</title>
<path fill="none" stroke="#c0c0c0" stroke-width="2" d="M1838.2868,-1052.4644C1725.1421,-1037.6654 1562.9862,-1016.456 1423.3066,-998.1864"/>
<polygon fill="#c0c0c0" stroke="#c0c0c0" stroke-width="2" points="1423.659,-994.7027 1413.2895,-996.8762 1422.7511,-1001.6436 1423.659,-994.7027"/>
</g>
<!-- 16&#45;&gt;21 -->
<g id="edge46" class="edge">
<title>16&#45;&gt;21</title>
<path fill="none" stroke="#c0c0c0" stroke-width="2" d="M2121.8814,-1054.332C2187.0352,-1047.1725 2265.3577,-1039.2599 2336,-1034 2690.0473,-1007.6381 2779.9267,-1024.0108 3134,-998 3159.4893,-996.1275 3185.9604,-993.9262 3212.4709,-991.5463"/>
<polygon fill="#c0c0c0" stroke="#c0c0c0" stroke-width="2" points="3212.9879,-995.0139 3222.6313,-990.6258 3212.3562,-988.0425 3212.9879,-995.0139"/>
</g>
<!-- 16&#45;&gt;29 -->
<g id="edge59" class="edge">
<title>16&#45;&gt;29</title>
<path fill="none" stroke="#c0c0c0" stroke-width="2" d="M1924.2981,-1050.4389C1874.1043,-1031.911 1800.2741,-1004.6582 1747.3162,-985.11"/>
<polygon fill="#c0c0c0" stroke="#c0c0c0" stroke-width="2" points="1748.2745,-981.7329 1737.6811,-981.5534 1745.8504,-988.2998 1748.2745,-981.7329"/>
</g>
<!-- 16&#45;&gt;30 -->
<g id="edge62" class="edge">
<title>16&#45;&gt;30</title>
<path fill="none" stroke="#c0c0c0" stroke-width="2" d="M1838.4839,-1061.355C1726.9775,-1053.7939 1567.5761,-1043.07 1428,-1034 1173.8109,-1017.4821 1109.6199,-1021.7039 856,-998 811.3619,-993.828 763.0862,-988.2837 718.654,-982.7599"/>
<polygon fill="#c0c0c0" stroke="#c0c0c0" stroke-width="2" points="718.999,-979.2759 708.6419,-981.5076 718.1301,-986.2218 718.999,-979.2759"/>
</g>
<!-- 16&#45;&gt;31 -->
<g id="edge65" class="edge">
<title>16&#45;&gt;31</title>
<path fill="none" stroke="#c0c0c0" stroke-width="2" d="M2042.8049,-1050.4389C2099.7515,-1031.7956 2183.6812,-1004.3187 2243.467,-984.7459"/>
<polygon fill="#c0c0c0" stroke="#c0c0c0" stroke-width="2" points="2244.8039,-987.9911 2253.2186,-981.5534 2242.6259,-981.3385 2244.8039,-987.9911"/>
</g>
<!-- 16&#45;&gt;32 -->
<g id="edge68" class="edge">
<title>16&#45;&gt;32</title>
<path fill="none" stroke="#c0c0c0" stroke-width="2" d="M2121.5029,-1053.735C2242.2676,-1038.9844 2420.5488,-1017.1706 2576,-998 2615.9131,-993.0778 2658.8302,-987.7625 2699.3169,-982.7379"/>
<polygon fill="#c0c0c0" stroke="#c0c0c0" stroke-width="2" points="2699.7863,-986.2066 2709.279,-981.5013 2698.924,-979.2599 2699.7863,-986.2066"/>
</g>
<!-- 17&#45;&gt;1 -->
<g id="edge17" class="edge">
<title>17&#45;&gt;1</title>
<path fill="none" stroke="#c0c0c0" stroke-width="2" d="M1246.6038,-923.9431C1355.2994,-886.5101 1520.0029,-829.789 1612.5531,-797.9163"/>
<polygon fill="#c0c0c0" stroke="#c0c0c0" stroke-width="2" points="1613.7869,-801.1933 1622.1022,-794.6278 1611.5075,-794.5747 1613.7869,-801.1933"/>
</g>
<!-- 18 -->
<g id="node19" class="node">
<title>18</title>
<path fill="none" stroke="#56d87b" stroke-width="2" d="M1840.5,-888C1840.5,-888 1523.5,-888 1523.5,-888 1517.5,-888 1511.5,-882 1511.5,-876 1511.5,-876 1511.5,-859 1511.5,-859 1511.5,-853 1517.5,-847 1523.5,-847 1523.5,-847 1840.5,-847 1840.5,-847 1846.5,-847 1852.5,-853 1852.5,-859 1852.5,-859 1852.5,-876 1852.5,-876 1852.5,-882 1846.5,-888 1840.5,-888"/>
<text text-anchor="middle" x="1682" y="-860" font-family="sans" font-size="30.00" fill="#000000">create_sparse_matrix</text>
</g>
<!-- 18&#45;&gt;1 -->
<g id="edge18" class="edge">
<title>18&#45;&gt;1</title>
<path fill="none" stroke="#c0c0c0" stroke-width="2" d="M1682,-846.7493C1682,-834.4021 1682,-818.5071 1682,-804.7257"/>
<polygon fill="#c0c0c0" stroke="#c0c0c0" stroke-width="2" points="1685.5001,-804.6926 1682,-794.6927 1678.5001,-804.6927 1685.5001,-804.6926"/>
</g>
<!-- 19 -->
<g id="node20" class="node">
<title>19</title>
<path fill="none" stroke="#56d87b" stroke-width="2" d="M1318.5,-888C1318.5,-888 1001.5,-888 1001.5,-888 995.5,-888 989.5,-882 989.5,-876 989.5,-876 989.5,-859 989.5,-859 989.5,-853 995.5,-847 1001.5,-847 1001.5,-847 1318.5,-847 1318.5,-847 1324.5,-847 1330.5,-853 1330.5,-859 1330.5,-859 1330.5,-876 1330.5,-876 1330.5,-882 1324.5,-888 1318.5,-888"/>
<text text-anchor="middle" x="1160" y="-860" font-family="sans" font-size="30.00" fill="#000000">create_sparse_matrix</text>
</g>
<!-- 19&#45;&gt;1 -->
<g id="edge19" class="edge">
<title>19&#45;&gt;1</title>
<path fill="none" stroke="#c0c0c0" stroke-width="2" d="M1274.5551,-846.981C1358.1296,-832.0113 1471.3236,-811.7361 1557.1942,-796.3551"/>
<polygon fill="#c0c0c0" stroke="#c0c0c0" stroke-width="2" points="1558.0358,-799.7601 1567.262,-794.5517 1556.8015,-792.8698 1558.0358,-799.7601"/>
</g>
<!-- 20 -->
<g id="node21" class="node">
<title>20</title>
<path fill="none" stroke="#56d87b" stroke-width="2" d="M2356.5,-888C2356.5,-888 2039.5,-888 2039.5,-888 2033.5,-888 2027.5,-882 2027.5,-876 2027.5,-876 2027.5,-859 2027.5,-859 2027.5,-853 2033.5,-847 2039.5,-847 2039.5,-847 2356.5,-847 2356.5,-847 2362.5,-847 2368.5,-853 2368.5,-859 2368.5,-859 2368.5,-876 2368.5,-876 2368.5,-882 2362.5,-888 2356.5,-888"/>
<text text-anchor="middle" x="2198" y="-860" font-family="sans" font-size="30.00" fill="#000000">create_sparse_matrix</text>
</g>
<!-- 20&#45;&gt;2 -->
<g id="edge21" class="edge">
<title>20&#45;&gt;2</title>
<path fill="none" stroke="#c0c0c0" stroke-width="2" d="M2189.1227,-846.7493C2185.8087,-839.0029 2181.8973,-829.86 2177.9866,-820.7187"/>
<polygon fill="#c0c0c0" stroke="#c0c0c0" stroke-width="2" points="2181.0878,-819.0691 2173.9366,-811.2517 2174.652,-821.8224 2181.0878,-819.0691"/>
</g>
<!-- 21&#45;&gt;3 -->
<g id="edge23" class="edge">
<title>21&#45;&gt;3</title>
<path fill="none" stroke="#c0c0c0" stroke-width="2" d="M3341.8366,-923.9431C3183.405,-886.1057 2942.4562,-828.5611 2809.8523,-796.8919"/>
<polygon fill="#c0c0c0" stroke="#c0c0c0" stroke-width="2" points="2810.6431,-793.4824 2800.1036,-794.5637 2809.017,-800.291 2810.6431,-793.4824"/>
</g>
<!-- 22 -->
<g id="node23" class="node">
<title>22</title>
<path fill="none" stroke="#56d87b" stroke-width="2" d="M2992.5,-888C2992.5,-888 2675.5,-888 2675.5,-888 2669.5,-888 2663.5,-882 2663.5,-876 2663.5,-876 2663.5,-859 2663.5,-859 2663.5,-853 2669.5,-847 2675.5,-847 2675.5,-847 2992.5,-847 2992.5,-847 2998.5,-847 3004.5,-853 3004.5,-859 3004.5,-859 3004.5,-876 3004.5,-876 3004.5,-882 2998.5,-888 2992.5,-888"/>
<text text-anchor="middle" x="2834" y="-860" font-family="sans" font-size="30.00" fill="#000000">create_sparse_matrix</text>
</g>
<!-- 22&#45;&gt;3 -->
<g id="edge24" class="edge">
<title>22&#45;&gt;3</title>
<path fill="none" stroke="#c0c0c0" stroke-width="2" d="M2807.6655,-846.981C2790.3571,-833.4949 2767.5224,-815.7029 2748.7327,-801.0625"/>
<polygon fill="#c0c0c0" stroke="#c0c0c0" stroke-width="2" points="2750.7272,-798.1796 2740.6878,-794.7942 2746.4248,-803.7014 2750.7272,-798.1796"/>
</g>
<!-- 23 -->
<g id="node24" class="node">
<title>23</title>
<path fill="none" stroke="#d8a456" stroke-width="2" d="M1479,-195C1479,-195 1279,-195 1279,-195 1273,-195 1267,-189 1267,-183 1267,-183 1267,-166 1267,-166 1267,-160 1273,-154 1279,-154 1279,-154 1479,-154 1479,-154 1485,-154 1491,-160 1491,-166 1491,-166 1491,-183 1491,-183 1491,-189 1485,-195 1479,-195"/>
<text text-anchor="middle" x="1379" y="-167" font-family="sans" font-size="30.00" fill="#000000">extract_umap</text>
</g>
<!-- 23&#45;&gt;4 -->
<g id="edge25" class="edge">
<title>23&#45;&gt;4</title>
<path fill="none" stroke="#c0c0c0" stroke-width="2" d="M1487.5339,-153.9666C1542.9593,-143.4807 1610.5003,-130.7027 1667.3047,-119.9559"/>
<polygon fill="#c0c0c0" stroke="#c0c0c0" stroke-width="2" points="1668.2404,-123.341 1677.4155,-118.043 1666.9392,-116.463 1668.2404,-123.341"/>
</g>
<!-- 23&#45;&gt;6 -->
<g id="edge27" class="edge">
<title>23&#45;&gt;6</title>
<path fill="none" stroke="#c0c0c0" stroke-width="2" d="M1350.326,-153.8654C1337.6125,-144.7165 1322.4957,-133.838 1308.9493,-124.0897"/>
<polygon fill="#c0c0c0" stroke="#c0c0c0" stroke-width="2" points="1310.9144,-121.1918 1300.7532,-118.1915 1306.8256,-126.8735 1310.9144,-121.1918"/>
</g>
<!-- 24 -->
<g id="node25" class="node">
<title>24</title>
<path fill="none" stroke="#d8a456" stroke-width="2" d="M2400,-195C2400,-195 2200,-195 2200,-195 2194,-195 2188,-189 2188,-183 2188,-183 2188,-166 2188,-166 2188,-160 2194,-154 2200,-154 2200,-154 2400,-154 2400,-154 2406,-154 2412,-160 2412,-166 2412,-166 2412,-183 2412,-183 2412,-189 2406,-195 2400,-195"/>
<text text-anchor="middle" x="2300" y="-167" font-family="sans" font-size="30.00" fill="#000000">extract_umap</text>
</g>
<!-- 24&#45;&gt;5 -->
<g id="edge26" class="edge">
<title>24&#45;&gt;5</title>
<path fill="none" stroke="#c0c0c0" stroke-width="2" d="M2412.0637,-157.7868C2484.7115,-146.9433 2581.6991,-132.4504 2677.1835,-118.1217"/>
<polygon fill="#c0c0c0" stroke="#c0c0c0" stroke-width="2" points="2677.9444,-121.5468 2687.3141,-116.6013 2676.9054,-114.6244 2677.9444,-121.5468"/>
</g>
<!-- 24&#45;&gt;7 -->
<g id="edge28" class="edge">
<title>24&#45;&gt;7</title>
<path fill="none" stroke="#c0c0c0" stroke-width="2" d="M2300,-153.8654C2300,-146.0111 2300,-136.8822 2300,-128.2879"/>
<polygon fill="#c0c0c0" stroke="#c0c0c0" stroke-width="2" points="2303.5001,-128.1915 2300,-118.1915 2296.5001,-128.1916 2303.5001,-128.1915"/>
</g>
<!-- 25 -->
<g id="node26" class="node">
<title>25</title>
<path fill="none" stroke="#78d856" stroke-width="2" d="M3530.5,-1328C3530.5,-1328 2945.5,-1328 2945.5,-1328 2939.5,-1328 2933.5,-1322 2933.5,-1316 2933.5,-1316 2933.5,-1266 2933.5,-1266 2933.5,-1260 2939.5,-1254 2945.5,-1254 2945.5,-1254 3530.5,-1254 3530.5,-1254 3536.5,-1254 3542.5,-1260 3542.5,-1266 3542.5,-1266 3542.5,-1316 3542.5,-1316 3542.5,-1322 3536.5,-1328 3530.5,-1328"/>
<text text-anchor="middle" x="3238" y="-1300" font-family="sans" font-size="30.00" fill="#000000">kallisto_index</text>
<text text-anchor="middle" x="3238" y="-1267" font-family="sans" font-size="30.00" fill="#000000">fasta: gencode.v31.pc_transcripts.fa.gz</text>
</g>
<!-- 25&#45;&gt;8 -->
<g id="edge29" class="edge">
<title>25&#45;&gt;8</title>
<path fill="none" stroke="#c0c0c0" stroke-width="2" d="M3339.4404,-1253.9288C3447.3764,-1214.4837 3617.6224,-1152.2676 3729.056,-1111.5443"/>
<polygon fill="#c0c0c0" stroke="#c0c0c0" stroke-width="2" points="3730.4555,-1114.7593 3738.6466,-1108.0394 3728.0528,-1108.1846 3730.4555,-1114.7593"/>
</g>
<!-- 25&#45;&gt;9 -->
<g id="edge30" class="edge">
<title>25&#45;&gt;9</title>
<path fill="none" stroke="#c0c0c0" stroke-width="2" d="M3237.6607,-1253.68C3237.3214,-1216.3515 3236.7983,-1158.8113 3236.43,-1118.3023"/>
<polygon fill="#c0c0c0" stroke="#c0c0c0" stroke-width="2" points="3239.9285,-1118.103 3236.3376,-1108.1353 3232.9287,-1118.1667 3239.9285,-1118.103"/>
</g>
<!-- 25&#45;&gt;10 -->
<g id="edge31" class="edge">
<title>25&#45;&gt;10</title>
<path fill="none" stroke="#c0c0c0" stroke-width="2" d="M3288.5517,-1253.9288C3341.2051,-1215.3162 3423.6132,-1154.8836 3479.1576,-1114.1511"/>
<polygon fill="#c0c0c0" stroke="#c0c0c0" stroke-width="2" points="3481.4974,-1116.7755 3487.4917,-1108.0394 3477.3578,-1111.1307 3481.4974,-1116.7755"/>
</g>
<!-- 25&#45;&gt;12 -->
<g id="edge33" class="edge">
<title>25&#45;&gt;12</title>
<path fill="none" stroke="#c0c0c0" stroke-width="2" d="M3173.9396,-1253.9124C3156.9675,-1244.0864 3138.5164,-1233.4042 3121.1034,-1223.323"/>
<polygon fill="#c0c0c0" stroke="#c0c0c0" stroke-width="2" points="3122.5134,-1220.0951 3112.1054,-1218.1137 3119.0061,-1226.1531 3122.5134,-1220.0951"/>
</g>
<!-- 26 -->
<g id="node27" class="node">
<title>26</title>
<path fill="none" stroke="#78d856" stroke-width="2" d="M1182.5,-1328C1182.5,-1328 571.5,-1328 571.5,-1328 565.5,-1328 559.5,-1322 559.5,-1316 559.5,-1316 559.5,-1266 559.5,-1266 559.5,-1260 565.5,-1254 571.5,-1254 571.5,-1254 1182.5,-1254 1182.5,-1254 1188.5,-1254 1194.5,-1260 1194.5,-1266 1194.5,-1266 1194.5,-1316 1194.5,-1316 1194.5,-1322 1188.5,-1328 1182.5,-1328"/>
<text text-anchor="middle" x="877" y="-1300" font-family="sans" font-size="30.00" fill="#000000">kallisto_index</text>
<text text-anchor="middle" x="877" y="-1267" font-family="sans" font-size="30.00" fill="#000000">fasta: gencode.vM22.pc_transcripts.fa.gz</text>
</g>
<!-- 26&#45;&gt;11 -->
<g id="edge32" class="edge">
<title>26&#45;&gt;11</title>
<path fill="none" stroke="#c0c0c0" stroke-width="2" d="M579.1376,-1253.9772C531.0332,-1244.4704 482.2104,-1232.6494 437,-1218 356.0979,-1191.7856 269.7051,-1146.4642 211.4638,-1113.0561"/>
<polygon fill="#c0c0c0" stroke="#c0c0c0" stroke-width="2" points="213.132,-1109.9778 202.7215,-1108.0095 209.6323,-1116.0402 213.132,-1109.9778"/>
</g>
<!-- 26&#45;&gt;14 -->
<g id="edge35" class="edge">
<title>26&#45;&gt;14</title>
<path fill="none" stroke="#c0c0c0" stroke-width="2" d="M974.1022,-1253.9124C1001.1264,-1243.5906 1030.6243,-1232.3241 1058.1736,-1221.8017"/>
<polygon fill="#c0c0c0" stroke="#c0c0c0" stroke-width="2" points="1059.7367,-1224.9514 1067.8296,-1218.1137 1057.239,-1218.4122 1059.7367,-1224.9514"/>
</g>
<!-- 26&#45;&gt;15 -->
<g id="edge36" class="edge">
<title>26&#45;&gt;15</title>
<path fill="none" stroke="#c0c0c0" stroke-width="2" d="M779.5607,-1253.9124C752.4427,-1243.5906 722.8423,-1232.3241 695.1973,-1221.8017"/>
<polygon fill="#c0c0c0" stroke="#c0c0c0" stroke-width="2" points="696.0987,-1218.3999 685.5078,-1218.1137 693.6086,-1224.9421 696.0987,-1218.3999"/>
</g>
<!-- 27 -->
<g id="node28" class="node">
<title>27</title>
<path fill="none" stroke="#78d856" stroke-width="2" d="M2903.5,-1328C2903.5,-1328 2000.5,-1328 2000.5,-1328 1994.5,-1328 1988.5,-1322 1988.5,-1316 1988.5,-1316 1988.5,-1266 1988.5,-1266 1988.5,-1260 1994.5,-1254 2000.5,-1254 2000.5,-1254 2903.5,-1254 2903.5,-1254 2909.5,-1254 2915.5,-1260 2915.5,-1266 2915.5,-1266 2915.5,-1316 2915.5,-1316 2915.5,-1322 2909.5,-1328 2903.5,-1328"/>
<text text-anchor="middle" x="2452" y="-1300" font-family="sans" font-size="30.00" fill="#000000">kallisto_index</text>
<text text-anchor="middle" x="2452" y="-1267" font-family="sans" font-size="30.00" fill="#000000">fasta: GCF_000364345.1_Macaca_fascicularis_5.0_rna.fna.gz</text>
</g>
<!-- 27&#45;&gt;13 -->
<g id="edge34" class="edge">
<title>27&#45;&gt;13</title>
<path fill="none" stroke="#c0c0c0" stroke-width="2" d="M2452,-1253.759C2452,-1245.6058 2452,-1236.8692 2452,-1228.3797"/>
<polygon fill="#c0c0c0" stroke="#c0c0c0" stroke-width="2" points="2455.5001,-1228.2026 2452,-1218.2026 2448.5001,-1228.2027 2455.5001,-1228.2026"/>
</g>
<!-- 28 -->
<g id="node29" class="node">
<title>28</title>
<path fill="none" stroke="#56d8c9" stroke-width="2" d="M2361.5,-1405C2361.5,-1405 2050.5,-1405 2050.5,-1405 2044.5,-1405 2038.5,-1399 2038.5,-1393 2038.5,-1393 2038.5,-1376 2038.5,-1376 2038.5,-1370 2044.5,-1364 2050.5,-1364 2050.5,-1364 2361.5,-1364 2361.5,-1364 2367.5,-1364 2373.5,-1370 2373.5,-1376 2373.5,-1376 2373.5,-1393 2373.5,-1393 2373.5,-1399 2367.5,-1405 2361.5,-1405"/>
<text text-anchor="middle" x="2206" y="-1377" font-family="sans" font-size="30.00" fill="#000000">download_references</text>
</g>
<!-- 28&#45;&gt;16 -->
<g id="edge37" class="edge">
<title>28&#45;&gt;16</title>
<path fill="none" stroke="#c0c0c0" stroke-width="2" d="M2066.1146,-1363.9445C2027.0777,-1355.1946 1992.0092,-1343.3811 1980,-1328 1928.2579,-1261.7299 1952.6889,-1153.7729 1969.1882,-1101.4055"/>
<polygon fill="#c0c0c0" stroke="#c0c0c0" stroke-width="2" points="1972.5797,-1102.2946 1972.3574,-1091.7021 1965.9257,-1100.1213 1972.5797,-1102.2946"/>
</g>
<!-- 28&#45;&gt;25 -->
<g id="edge54" class="edge">
<title>28&#45;&gt;25</title>
<path fill="none" stroke="#c0c0c0" stroke-width="2" d="M2373.5994,-1373.1991C2516.9311,-1363.0956 2728.9773,-1347.1107 2923.0972,-1328.1762"/>
<polygon fill="#c0c0c0" stroke="#c0c0c0" stroke-width="2" points="2923.5949,-1331.6443 2933.206,-1327.1859 2922.9123,-1324.6776 2923.5949,-1331.6443"/>
</g>
<!-- 28&#45;&gt;26 -->
<g id="edge55" class="edge">
<title>28&#45;&gt;26</title>
<path fill="none" stroke="#c0c0c0" stroke-width="2" d="M2038.3546,-1372.7055C1829.7742,-1358.0311 1468.9149,-1332.6434 1204.6674,-1314.0526"/>
<polygon fill="#c0c0c0" stroke="#c0c0c0" stroke-width="2" points="1204.7434,-1310.5494 1194.5224,-1313.3389 1204.252,-1317.5321 1204.7434,-1310.5494"/>
</g>
<!-- 28&#45;&gt;27 -->
<g id="edge56" class="edge">
<title>28&#45;&gt;27</title>
<path fill="none" stroke="#c0c0c0" stroke-width="2" d="M2259.9857,-1363.981C2284.9996,-1354.4737 2315.6438,-1342.8264 2345.0439,-1331.652"/>
<polygon fill="#c0c0c0" stroke="#c0c0c0" stroke-width="2" points="2346.4328,-1334.8685 2354.5369,-1328.0439 2343.9458,-1328.3251 2346.4328,-1334.8685"/>
</g>
<!-- 29&#45;&gt;18 -->
<g id="edge40" class="edge">
<title>29&#45;&gt;18</title>
<path fill="none" stroke="#c0c0c0" stroke-width="2" d="M1682,-940.2493C1682,-927.9021 1682,-912.0071 1682,-898.2257"/>
<polygon fill="#c0c0c0" stroke="#c0c0c0" stroke-width="2" points="1685.5001,-898.1926 1682,-888.1927 1678.5001,-898.1927 1685.5001,-898.1926"/>
</g>
<!-- 30&#45;&gt;19 -->
<g id="edge41" class="edge">
<title>30&#45;&gt;19</title>
<path fill="none" stroke="#c0c0c0" stroke-width="2" d="M690.1115,-940.481C787.0672,-925.4223 918.5891,-904.9949 1017.8294,-889.5813"/>
<polygon fill="#c0c0c0" stroke="#c0c0c0" stroke-width="2" points="1018.5929,-893.0048 1027.9373,-888.0114 1017.5185,-886.0877 1018.5929,-893.0048"/>
</g>
<!-- 31&#45;&gt;20 -->
<g id="edge42" class="edge">
<title>31&#45;&gt;20</title>
<path fill="none" stroke="#c0c0c0" stroke-width="2" d="M2290.1044,-940.481C2273.1608,-927.0554 2250.8316,-909.3624 2232.4026,-894.7597"/>
<polygon fill="#c0c0c0" stroke="#c0c0c0" stroke-width="2" points="2234.2544,-891.7615 2224.243,-888.2942 2229.9071,-897.2479 2234.2544,-891.7615"/>
</g>
<!-- 32&#45;&gt;22 -->
<g id="edge47" class="edge">
<title>32&#45;&gt;22</title>
<path fill="none" stroke="#c0c0c0" stroke-width="2" d="M2865.1227,-940.2493C2859.7369,-927.66 2852.7732,-911.3824 2846.7989,-897.4175"/>
<polygon fill="#c0c0c0" stroke="#c0c0c0" stroke-width="2" points="2850.0037,-896.01 2842.8525,-888.1927 2843.5679,-898.7633 2850.0037,-896.01"/>
</g>
<!-- 33 -->
<g id="node34" class="node">
<title>33</title>
<path fill="none" stroke="#568ad8" stroke-width="2" d="M2035,-305C2035,-305 1617,-305 1617,-305 1611,-305 1605,-299 1605,-293 1605,-293 1605,-243 1605,-243 1605,-237 1611,-231 1617,-231 1617,-231 2035,-231 2035,-231 2041,-231 2047,-237 2047,-243 2047,-243 2047,-293 2047,-293 2047,-299 2041,-305 2035,-305"/>
<text text-anchor="middle" x="1826" y="-277" font-family="sans" font-size="30.00" fill="#000000">calculate_umap_and_cluster</text>
<text text-anchor="middle" x="1826" y="-244" font-family="sans" font-size="30.00" fill="#000000">dims: 50</text>
</g>
<!-- 33&#45;&gt;23 -->
<g id="edge48" class="edge">
<title>33&#45;&gt;23</title>
<path fill="none" stroke="#c0c0c0" stroke-width="2" d="M1649.0128,-230.9792C1594.2517,-219.5247 1535.5926,-207.2548 1486.9858,-197.0876"/>
<polygon fill="#c0c0c0" stroke="#c0c0c0" stroke-width="2" points="1487.5922,-193.6388 1477.0874,-195.0172 1486.159,-200.4905 1487.5922,-193.6388"/>
</g>
<!-- 34 -->
<g id="node35" class="node">
<title>34</title>
<path fill="none" stroke="#d8bc56" stroke-width="2" d="M1590,-398.5C1590,-398.5 1168,-398.5 1168,-398.5 1162,-398.5 1156,-392.5 1156,-386.5 1156,-386.5 1156,-369.5 1156,-369.5 1156,-363.5 1162,-357.5 1168,-357.5 1168,-357.5 1590,-357.5 1590,-357.5 1596,-357.5 1602,-363.5 1602,-369.5 1602,-369.5 1602,-386.5 1602,-386.5 1602,-392.5 1596,-398.5 1590,-398.5"/>
<text text-anchor="middle" x="1379" y="-370.5" font-family="sans" font-size="30.00" fill="#000000">label_known_cells_with_type</text>
</g>
<!-- 34&#45;&gt;23 -->
<g id="edge49" class="edge">
<title>34&#45;&gt;23</title>
<path fill="none" stroke="#c0c0c0" stroke-width="2" d="M1260.5291,-357.4535C1204.2826,-345.0416 1145.7149,-327.2937 1129,-305 1109.2707,-278.6859 1108.4667,-256.6917 1129,-231 1145.7052,-210.0981 1201.889,-196.3656 1256.7717,-187.6793"/>
<polygon fill="#c0c0c0" stroke="#c0c0c0" stroke-width="2" points="1257.6388,-191.0875 1266.9946,-186.1155 1256.5803,-184.1679 1257.6388,-191.0875"/>
</g>
<!-- 34&#45;&gt;24 -->
<g id="edge52" class="edge">
<title>34&#45;&gt;24</title>
<path fill="none" stroke="#c0c0c0" stroke-width="2" d="M1283.4095,-357.4511C1232.3727,-344.335 1177.0198,-325.8997 1162,-305 1142.8064,-278.2926 1139.328,-254.8256 1162,-231 1179.3352,-212.7828 1887.5246,-187.8464 2177.8109,-178.3683"/>
<polygon fill="#c0c0c0" stroke="#c0c0c0" stroke-width="2" points="2178.0784,-181.8616 2187.9591,-178.0377 2177.8504,-174.8653 2178.0784,-181.8616"/>
</g>
<!-- 35 -->
<g id="node36" class="node">
<title>35</title>
<path fill="none" stroke="#56d863" stroke-width="2" d="M1575,-288.5C1575,-288.5 1183,-288.5 1183,-288.5 1177,-288.5 1171,-282.5 1171,-276.5 1171,-276.5 1171,-259.5 1171,-259.5 1171,-253.5 1177,-247.5 1183,-247.5 1183,-247.5 1575,-247.5 1575,-247.5 1581,-247.5 1587,-253.5 1587,-259.5 1587,-259.5 1587,-276.5 1587,-276.5 1587,-282.5 1581,-288.5 1575,-288.5"/>
<text text-anchor="middle" x="1379" y="-260.5" font-family="sans" font-size="30.00" fill="#000000">predict_missing_cell_types</text>
</g>
<!-- 34&#45;&gt;35 -->
<g id="edge72" class="edge">
<title>34&#45;&gt;35</title>
<path fill="none" stroke="#c0c0c0" stroke-width="2" d="M1379,-357.3098C1379,-340.7933 1379,-317.4036 1379,-298.7037"/>
<polygon fill="#c0c0c0" stroke="#c0c0c0" stroke-width="2" points="1382.5001,-298.5973 1379,-288.5974 1375.5001,-298.5974 1382.5001,-298.5973"/>
</g>
<!-- 37 -->
<g id="node38" class="node">
<title>37</title>
<path fill="none" stroke="#56d863" stroke-width="2" d="M2469,-288.5C2469,-288.5 2077,-288.5 2077,-288.5 2071,-288.5 2065,-282.5 2065,-276.5 2065,-276.5 2065,-259.5 2065,-259.5 2065,-253.5 2071,-247.5 2077,-247.5 2077,-247.5 2469,-247.5 2469,-247.5 2475,-247.5 2481,-253.5 2481,-259.5 2481,-259.5 2481,-276.5 2481,-276.5 2481,-282.5 2475,-288.5 2469,-288.5"/>
<text text-anchor="middle" x="2273" y="-260.5" font-family="sans" font-size="30.00" fill="#000000">predict_missing_cell_types</text>
</g>
<!-- 34&#45;&gt;37 -->
<g id="edge75" class="edge">
<title>34&#45;&gt;37</title>
<path fill="none" stroke="#c0c0c0" stroke-width="2" d="M1537.4218,-357.4691C1582.4931,-351.8619 1631.6546,-345.9676 1677,-341 1845.1963,-322.5739 1888.2647,-327.2352 2056,-305 2087.2803,-300.8535 2120.9555,-295.5329 2152.2271,-290.227"/>
<polygon fill="#c0c0c0" stroke="#c0c0c0" stroke-width="2" points="2153.0227,-293.6418 2162.2897,-288.5063 2151.8428,-286.742 2153.0227,-293.6418"/>
</g>
<!-- 35&#45;&gt;23 -->
<g id="edge50" class="edge">
<title>35&#45;&gt;23</title>
<path fill="none" stroke="#c0c0c0" stroke-width="2" d="M1379,-247.2493C1379,-234.9021 1379,-219.0071 1379,-205.2257"/>
<polygon fill="#c0c0c0" stroke="#c0c0c0" stroke-width="2" points="1382.5001,-205.1926 1379,-195.1927 1375.5001,-205.1927 1382.5001,-205.1926"/>
</g>
<!-- 36 -->
<g id="node37" class="node">
<title>36</title>
<path fill="none" stroke="#568ad8" stroke-width="2" d="M2929,-305C2929,-305 2511,-305 2511,-305 2505,-305 2499,-299 2499,-293 2499,-293 2499,-243 2499,-243 2499,-237 2505,-231 2511,-231 2511,-231 2929,-231 2929,-231 2935,-231 2941,-237 2941,-243 2941,-243 2941,-293 2941,-293 2941,-299 2935,-305 2929,-305"/>
<text text-anchor="middle" x="2720" y="-277" font-family="sans" font-size="30.00" fill="#000000">calculate_umap_and_cluster</text>
<text text-anchor="middle" x="2720" y="-244" font-family="sans" font-size="30.00" fill="#000000">dims: 50</text>
</g>
<!-- 36&#45;&gt;24 -->
<g id="edge51" class="edge">
<title>36&#45;&gt;24</title>
<path fill="none" stroke="#c0c0c0" stroke-width="2" d="M2553.7033,-230.9792C2502.4648,-219.5725 2447.5942,-207.3573 2402.0357,-197.2151"/>
<polygon fill="#c0c0c0" stroke="#c0c0c0" stroke-width="2" points="2402.6843,-193.7739 2392.1627,-195.0172 2401.1631,-200.6066 2402.6843,-193.7739"/>
</g>
<!-- 37&#45;&gt;24 -->
<g id="edge53" class="edge">
<title>37&#45;&gt;24</title>
<path fill="none" stroke="#c0c0c0" stroke-width="2" d="M2278.9922,-247.2493C2282.5926,-234.7811 2287.2378,-218.6951 2291.2442,-204.8209"/>
<polygon fill="#c0c0c0" stroke="#c0c0c0" stroke-width="2" points="2294.6128,-205.7712 2294.0246,-195.1927 2287.8876,-203.8291 2294.6128,-205.7712"/>
</g>
<!-- 38&#45;&gt;29 -->
<g id="edge57" class="edge">
<title>38&#45;&gt;29</title>
<path fill="none" stroke="#c0c0c0" stroke-width="2" d="M1381.1601,-1050.4389C1444.1278,-1031.7188 1537.0546,-1004.0919 1602.9405,-984.5042"/>
<polygon fill="#c0c0c0" stroke="#c0c0c0" stroke-width="2" points="1604.2778,-987.7581 1612.8657,-981.5534 1602.2829,-981.0483 1604.2778,-987.7581"/>
</g>
<!-- 39&#45;&gt;30 -->
<g id="edge60" class="edge">
<title>39&#45;&gt;30</title>
<path fill="none" stroke="#c0c0c0" stroke-width="2" d="M527.1475,-1050.3098C532.9063,-1033.6396 541.0838,-1009.9678 547.5731,-991.183"/>
<polygon fill="#c0c0c0" stroke="#c0c0c0" stroke-width="2" points="550.9274,-992.1921 550.8845,-981.5974 544.3111,-989.9064 550.9274,-992.1921"/>
</g>
<!-- 40&#45;&gt;31 -->
<g id="edge63" class="edge">
<title>40&#45;&gt;31</title>
<path fill="none" stroke="#c0c0c0" stroke-width="2" d="M2426.4194,-1050.3098C2404.6692,-1032.7178 2373.2787,-1007.3283 2349.5221,-988.1135"/>
<polygon fill="#c0c0c0" stroke="#c0c0c0" stroke-width="2" points="2351.442,-985.1648 2341.4659,-981.5974 2347.0399,-990.6074 2351.442,-985.1648"/>
</g>
<!-- 41&#45;&gt;32 -->
<g id="edge66" class="edge">
<title>41&#45;&gt;32</title>
<path fill="none" stroke="#c0c0c0" stroke-width="2" d="M2876.4357,-1050.3098C2875.9853,-1033.7933 2875.3474,-1010.4036 2874.8374,-991.7037"/>
<polygon fill="#c0c0c0" stroke="#c0c0c0" stroke-width="2" points="2878.3332,-991.4982 2874.5617,-981.5974 2871.3358,-991.6891 2878.3332,-991.4982"/>
</g>
<!-- 42 -->
<g id="node43" class="node">
<title>42</title>
<path fill="none" stroke="#afd856" stroke-width="2" d="M1954,-415C1954,-415 1698,-415 1698,-415 1692,-415 1686,-409 1686,-403 1686,-403 1686,-353 1686,-353 1686,-347 1692,-341 1698,-341 1698,-341 1954,-341 1954,-341 1960,-341 1966,-347 1966,-353 1966,-353 1966,-403 1966,-403 1966,-409 1960,-415 1954,-415"/>
<text text-anchor="middle" x="1826" y="-387" font-family="sans" font-size="30.00" fill="#000000">integrate</text>
<text text-anchor="middle" x="1826" y="-354" font-family="sans" font-size="30.00" fill="#000000">method: fastMNN</text>
</g>
<!-- 42&#45;&gt;33 -->
<g id="edge69" class="edge">
<title>42&#45;&gt;33</title>
<path fill="none" stroke="#c0c0c0" stroke-width="2" d="M1826,-340.759C1826,-332.6058 1826,-323.8692 1826,-315.3797"/>
<polygon fill="#c0c0c0" stroke="#c0c0c0" stroke-width="2" points="1829.5001,-315.2026 1826,-305.2026 1822.5001,-315.2027 1829.5001,-315.2026"/>
</g>
<!-- 42&#45;&gt;35 -->
<g id="edge71" class="edge">
<title>42&#45;&gt;35</title>
<path fill="none" stroke="#c0c0c0" stroke-width="2" d="M1685.7928,-343.4971C1616.1635,-326.3624 1533.9481,-306.1304 1472.161,-290.9255"/>
<polygon fill="#c0c0c0" stroke="#c0c0c0" stroke-width="2" points="1472.9717,-287.5207 1462.4251,-288.5297 1471.299,-294.3179 1472.9717,-287.5207"/>
</g>
<!-- 43&#45;&gt;34 -->
<g id="edge70" class="edge">
<title>43&#45;&gt;34</title>
<path fill="none" stroke="#c0c0c0" stroke-width="2" d="M1928.1721,-675.7505C1817.6003,-669.1033 1648.3585,-654.2693 1592,-624 1496.9261,-572.9372 1425.1375,-461.101 1394.8228,-407.6245"/>
<polygon fill="#c0c0c0" stroke="#c0c0c0" stroke-width="2" points="1397.7439,-405.6763 1389.8149,-398.649 1391.631,-409.0871 1397.7439,-405.6763"/>
</g>
<!-- 43&#45;&gt;45 -->
<g id="edge85" class="edge">
<title>43&#45;&gt;45</title>
<path fill="none" stroke="#c0c0c0" stroke-width="2" d="M2038.4516,-659.7066C2041.8752,-652.1746 2046.0019,-643.0959 2050.4411,-633.3296"/>
<polygon fill="#c0c0c0" stroke="#c0c0c0" stroke-width="2" points="2053.6428,-634.7439 2054.5946,-624.1919 2047.2702,-631.8472 2053.6428,-634.7439"/>
</g>
<!-- 44 -->
<g id="node45" class="node">
<title>44</title>
<path fill="none" stroke="#afd856" stroke-width="2" d="M2368,-415C2368,-415 2178,-415 2178,-415 2172,-415 2166,-409 2166,-403 2166,-403 2166,-353 2166,-353 2166,-347 2172,-341 2178,-341 2178,-341 2368,-341 2368,-341 2374,-341 2380,-347 2380,-353 2380,-353 2380,-403 2380,-403 2380,-409 2374,-415 2368,-415"/>
<text text-anchor="middle" x="2273" y="-387" font-family="sans" font-size="30.00" fill="#000000">integrate</text>
<text text-anchor="middle" x="2273" y="-354" font-family="sans" font-size="30.00" fill="#000000">method: CCA</text>
</g>
<!-- 44&#45;&gt;36 -->
<g id="edge73" class="edge">
<title>44&#45;&gt;36</title>
<path fill="none" stroke="#c0c0c0" stroke-width="2" d="M2380.0676,-351.6523C2433.7711,-338.4366 2499.9179,-322.1589 2559.5446,-307.4857"/>
<polygon fill="#c0c0c0" stroke="#c0c0c0" stroke-width="2" points="2560.5651,-310.8391 2569.439,-305.0508 2558.8923,-304.0418 2560.5651,-310.8391"/>
</g>
<!-- 44&#45;&gt;37 -->
<g id="edge74" class="edge">
<title>44&#45;&gt;37</title>
<path fill="none" stroke="#c0c0c0" stroke-width="2" d="M2273,-340.759C2273,-327.1248 2273,-311.8595 2273,-298.8457"/>
<polygon fill="#c0c0c0" stroke="#c0c0c0" stroke-width="2" points="2276.5001,-298.5289 2273,-288.5289 2269.5001,-298.5289 2276.5001,-298.5289"/>
</g>
<!-- 45&#45;&gt;42 -->
<g id="edge80" class="edge">
<title>45&#45;&gt;42</title>
<path fill="none" stroke="#c0c0c0" stroke-width="2" d="M1948.6274,-450.9816C1930.7696,-440.3535 1913.1831,-429.8869 1897.1488,-420.3442"/>
<polygon fill="#c0c0c0" stroke="#c0c0c0" stroke-width="2" points="1898.792,-417.2492 1888.4088,-415.1425 1895.212,-423.2645 1898.792,-417.2492"/>
</g>
<!-- 45&#45;&gt;44 -->
<g id="edge84" class="edge">
<title>45&#45;&gt;44</title>
<path fill="none" stroke="#c0c0c0" stroke-width="2" d="M2191.0959,-450.9816C2202.3607,-440.944 2213.4638,-431.0504 2223.6846,-421.9431"/>
<polygon fill="#c0c0c0" stroke="#c0c0c0" stroke-width="2" points="2226.1789,-424.4084 2231.3165,-415.1425 2221.522,-419.1821 2226.1789,-424.4084"/>
</g>
</g>
</svg>
