<?xml version="1.0" encoding="UTF-8" standalone="no"?>
<!DOCTYPE svg PUBLIC "-//W3C//DTD SVG 1.1//EN"
 "http://www.w3.org/Graphics/SVG/1.1/DTD/svg11.dtd">
<!-- Generated by graphviz version 2.40.1 (20161225.0304)
 -->
<!-- Title: snakemake_dag Pages: 1 -->
<svg width="6356pt" height="1963pt"
 viewBox="0.00 0.00 6356.00 1963.00" xmlns="http://www.w3.org/2000/svg" xmlns:xlink="http://www.w3.org/1999/xlink">
<g id="graph0" class="graph" transform="scale(1 1) rotate(0) translate(4 1959)">
<title>snakemake_dag</title>
<polygon fill="#ffffff" stroke="transparent" points="-4,4 -4,-1959 6352,-1959 6352,4 -4,4"/>
<!-- 0 -->
<g id="node1" class="node">
<title>0</title>
<path fill="none" stroke="#d8bc56" stroke-width="2" d="M4570.5,-63C4570.5,-63 4518.5,-63 4518.5,-63 4512.5,-63 4506.5,-57 4506.5,-51 4506.5,-51 4506.5,-12 4506.5,-12 4506.5,-6 4512.5,0 4518.5,0 4518.5,0 4570.5,0 4570.5,0 4576.5,0 4582.5,-6 4582.5,-12 4582.5,-12 4582.5,-51 4582.5,-51 4582.5,-57 4576.5,-63 4570.5,-63"/>
<text text-anchor="middle" x="4544.5" y="-19" font-family="sans" font-size="50.00" fill="#000000">all</text>
</g>
<!-- 1 -->
<g id="node2" class="node">
<title>1</title>
<path fill="none" stroke="#56d8a9" stroke-width="2" d="M3001,-1113.5C3001,-1113.5 2426,-1113.5 2426,-1113.5 2420,-1113.5 2414,-1107.5 2414,-1101.5 2414,-1101.5 2414,-1062.5 2414,-1062.5 2414,-1056.5 2420,-1050.5 2426,-1050.5 2426,-1050.5 3001,-1050.5 3001,-1050.5 3007,-1050.5 3013,-1056.5 3013,-1062.5 3013,-1062.5 3013,-1101.5 3013,-1101.5 3013,-1107.5 3007,-1113.5 3001,-1113.5"/>
<text text-anchor="middle" x="2713.5" y="-1069.5" font-family="sans" font-size="50.00" fill="#000000">combine_well_and_umi</text>
</g>
<!-- 1&#45;&gt;0 -->
<g id="edge1" class="edge">
<title>1&#45;&gt;0</title>
<path fill="none" stroke="#c0c0c0" stroke-width="2" d="M2413.8359,-1066.7642C2019.1275,-1038.3411 1374.5,-959.3403 1374.5,-746.5 1374.5,-746.5 1374.5,-746.5 1374.5,-229.5 1374.5,-170.8885 1349.5834,-137.8155 1393.5,-99 1454.2364,-45.3184 4103.7457,-33.1775 4496.1424,-31.6727"/>
<polygon fill="#c0c0c0" stroke="#c0c0c0" stroke-width="2" points="4496.3202,-35.1722 4506.3068,-31.6342 4496.2936,-28.1722 4496.3202,-35.1722"/>
</g>
<!-- 43 -->
<g id="node44" class="node">
<title>43</title>
<path fill="none" stroke="#78d856" stroke-width="2" d="M3424,-987C3424,-987 3121,-987 3121,-987 3115,-987 3109,-981 3109,-975 3109,-975 3109,-936 3109,-936 3109,-930 3115,-924 3121,-924 3121,-924 3424,-924 3424,-924 3430,-924 3436,-930 3436,-936 3436,-936 3436,-975 3436,-975 3436,-981 3430,-987 3424,-987"/>
<text text-anchor="middle" x="3272.5" y="-943" font-family="sans" font-size="50.00" fill="#000000">cat_cell_info</text>
</g>
<!-- 1&#45;&gt;43 -->
<g id="edge81" class="edge">
<title>1&#45;&gt;43</title>
<path fill="none" stroke="#c0c0c0" stroke-width="2" d="M2852.7575,-1050.4864C2935.0305,-1031.8683 3039.1857,-1008.2983 3123.1592,-989.2954"/>
<polygon fill="#c0c0c0" stroke="#c0c0c0" stroke-width="2" points="3124.0554,-992.6811 3133.0362,-987.0602 3122.5103,-985.8538 3124.0554,-992.6811"/>
</g>
<!-- 45 -->
<g id="node46" class="node">
<title>45</title>
<path fill="none" stroke="#56d863" stroke-width="2" d="M4176.5,-888C4176.5,-888 2558.5,-888 2558.5,-888 2552.5,-888 2546.5,-882 2546.5,-876 2546.5,-876 2546.5,-617 2546.5,-617 2546.5,-611 2552.5,-605 2558.5,-605 2558.5,-605 4176.5,-605 4176.5,-605 4182.5,-605 4188.5,-611 4188.5,-617 4188.5,-617 4188.5,-876 4188.5,-876 4188.5,-882 4182.5,-888 4176.5,-888"/>
<text text-anchor="middle" x="3367.5" y="-844" font-family="sans" font-size="50.00" fill="#000000">make_seurat_objs</text>
<text text-anchor="middle" x="3367.5" y="-789" font-family="sans" font-size="50.00" fill="#000000">combination: Mus_musculus_Macaca_fascicularis_Homo_sapiens</text>
<text text-anchor="middle" x="3367.5" y="-734" font-family="sans" font-size="50.00" fill="#000000">covariate: batch</text>
<text text-anchor="middle" x="3367.5" y="-679" font-family="sans" font-size="50.00" fill="#000000">partition: downsample</text>
<text text-anchor="middle" x="3367.5" y="-624" font-family="sans" font-size="50.00" fill="#000000">transform: SCT</text>
</g>
<!-- 1&#45;&gt;45 -->
<g id="edge86" class="edge">
<title>1&#45;&gt;45</title>
<path fill="none" stroke="#c0c0c0" stroke-width="2" d="M2775.0267,-1050.437C2845.9946,-1014.0307 2967.6713,-951.6109 3082.3628,-892.7745"/>
<polygon fill="#c0c0c0" stroke="#c0c0c0" stroke-width="2" points="3084.0115,-895.8625 3091.3115,-888.1839 3080.8164,-889.6342 3084.0115,-895.8625"/>
</g>
<!-- 2 -->
<g id="node3" class="node">
<title>2</title>
<path fill="none" stroke="#56d8a9" stroke-width="2" d="M3843.5,-1141C3843.5,-1141 3083.5,-1141 3083.5,-1141 3077.5,-1141 3071.5,-1135 3071.5,-1129 3071.5,-1129 3071.5,-1035 3071.5,-1035 3071.5,-1029 3077.5,-1023 3083.5,-1023 3083.5,-1023 3843.5,-1023 3843.5,-1023 3849.5,-1023 3855.5,-1029 3855.5,-1035 3855.5,-1035 3855.5,-1129 3855.5,-1129 3855.5,-1135 3849.5,-1141 3843.5,-1141"/>
<text text-anchor="middle" x="3463.5" y="-1097" font-family="sans" font-size="50.00" fill="#000000">combine_well_and_umi</text>
<text text-anchor="middle" x="3463.5" y="-1042" font-family="sans" font-size="50.00" fill="#000000">organism: Macaca_fascicularis</text>
</g>
<!-- 2&#45;&gt;0 -->
<g id="edge2" class="edge">
<title>2&#45;&gt;0</title>
<path fill="none" stroke="#c0c0c0" stroke-width="2" d="M3837.5322,-1022.9624C4226.5765,-956.2836 4779.5,-844.3119 4779.5,-746.5 4779.5,-746.5 4779.5,-746.5 4779.5,-229.5 4779.5,-170.9509 4799.359,-143.662 4761.5,-99 4739.5992,-73.1638 4649.4687,-51.6214 4592.4786,-40.2344"/>
<polygon fill="#c0c0c0" stroke="#c0c0c0" stroke-width="2" points="4593.0805,-36.7858 4582.5937,-38.2944 4591.7324,-43.6548 4593.0805,-36.7858"/>
</g>
<!-- 2&#45;&gt;43 -->
<g id="edge82" class="edge">
<title>2&#45;&gt;43</title>
<path fill="none" stroke="#c0c0c0" stroke-width="2" d="M3374.1515,-1022.8242C3358.7143,-1012.6 3343.0618,-1002.2333 3328.8165,-992.7986"/>
<polygon fill="#c0c0c0" stroke="#c0c0c0" stroke-width="2" points="3330.4131,-989.6581 3320.1432,-987.0543 3326.5478,-995.4941 3330.4131,-989.6581"/>
</g>
<!-- 2&#45;&gt;45 -->
<g id="edge87" class="edge">
<title>2&#45;&gt;45</title>
<path fill="none" stroke="#c0c0c0" stroke-width="2" d="M3460.9697,-1022.6837C3458.6313,-992.6999 3454.1365,-955.9841 3445.5,-924 3443.1479,-915.2895 3440.4333,-906.4571 3437.4578,-897.6238"/>
<polygon fill="#c0c0c0" stroke="#c0c0c0" stroke-width="2" points="3440.718,-896.3427 3434.1315,-888.0441 3434.1053,-898.6389 3440.718,-896.3427"/>
</g>
<!-- 3 -->
<g id="node4" class="node">
<title>3</title>
<path fill="none" stroke="#56d8a9" stroke-width="2" d="M4658,-1113.5C4658,-1113.5 4083,-1113.5 4083,-1113.5 4077,-1113.5 4071,-1107.5 4071,-1101.5 4071,-1101.5 4071,-1062.5 4071,-1062.5 4071,-1056.5 4077,-1050.5 4083,-1050.5 4083,-1050.5 4658,-1050.5 4658,-1050.5 4664,-1050.5 4670,-1056.5 4670,-1062.5 4670,-1062.5 4670,-1101.5 4670,-1101.5 4670,-1107.5 4664,-1113.5 4658,-1113.5"/>
<text text-anchor="middle" x="4370.5" y="-1069.5" font-family="sans" font-size="50.00" fill="#000000">combine_well_and_umi</text>
</g>
<!-- 3&#45;&gt;0 -->
<g id="edge3" class="edge">
<title>3&#45;&gt;0</title>
<path fill="none" stroke="#c0c0c0" stroke-width="2" d="M4622.7857,-1050.4968C4698.7264,-1035.7847 4768.5845,-1015.1416 4793.5,-987 4864.7073,-906.5728 4817.5,-853.9198 4817.5,-746.5 4817.5,-746.5 4817.5,-746.5 4817.5,-229.5 4817.5,-170.5273 4833.4374,-142.3911 4793.5,-99 4766.5436,-69.7125 4656.9873,-48.555 4592.5241,-38.3564"/>
<polygon fill="#c0c0c0" stroke="#c0c0c0" stroke-width="2" points="4593.0033,-34.8889 4582.5848,-36.8141 4591.9299,-41.8061 4593.0033,-34.8889"/>
</g>
<!-- 3&#45;&gt;43 -->
<g id="edge83" class="edge">
<title>3&#45;&gt;43</title>
<path fill="none" stroke="#c0c0c0" stroke-width="2" d="M4101.3483,-1050.4878C4024.8157,-1041.5623 3941.3777,-1031.8648 3864.5,-1023 3723.8328,-1006.7796 3564.3369,-988.6064 3446.3666,-975.2065"/>
<polygon fill="#c0c0c0" stroke="#c0c0c0" stroke-width="2" points="3446.4901,-971.6981 3436.1589,-974.0471 3445.7001,-978.6533 3446.4901,-971.6981"/>
</g>
<!-- 3&#45;&gt;45 -->
<g id="edge88" class="edge">
<title>3&#45;&gt;45</title>
<path fill="none" stroke="#c0c0c0" stroke-width="2" d="M4276.1402,-1050.437C4166.3687,-1013.7188 3977.4901,-950.5396 3800.2796,-891.2633"/>
<polygon fill="#c0c0c0" stroke="#c0c0c0" stroke-width="2" points="3801.3729,-887.9384 3790.779,-888.0854 3799.1523,-894.5769 3801.3729,-887.9384"/>
</g>
<!-- 4 -->
<g id="node5" class="node">
<title>4</title>
<path fill="none" stroke="#568ad8" stroke-width="2" d="M3056,-162C3056,-162 2665,-162 2665,-162 2659,-162 2653,-156 2653,-150 2653,-150 2653,-111 2653,-111 2653,-105 2659,-99 2665,-99 2665,-99 3056,-99 3056,-99 3062,-99 3068,-105 3068,-111 3068,-111 3068,-150 3068,-150 3068,-156 3062,-162 3056,-162"/>
<text text-anchor="middle" x="2860.5" y="-118" font-family="sans" font-size="50.00" fill="#000000">plot_integration</text>
</g>
<!-- 4&#45;&gt;0 -->
<g id="edge4" class="edge">
<title>4&#45;&gt;0</title>
<path fill="none" stroke="#c0c0c0" stroke-width="2" d="M3068.0538,-99.9337C3071.2232,-99.6097 3074.3735,-99.2981 3077.5,-99 3633.3311,-45.999 4311.7525,-34.2811 4496.254,-32.0011"/>
<polygon fill="#c0c0c0" stroke="#c0c0c0" stroke-width="2" points="4496.4789,-35.4987 4506.4361,-31.8787 4496.3947,-28.4992 4496.4789,-35.4987"/>
</g>
<!-- 5 -->
<g id="node6" class="node">
<title>5</title>
<path fill="none" stroke="#568ad8" stroke-width="2" d="M4740,-162C4740,-162 4349,-162 4349,-162 4343,-162 4337,-156 4337,-150 4337,-150 4337,-111 4337,-111 4337,-105 4343,-99 4349,-99 4349,-99 4740,-99 4740,-99 4746,-99 4752,-105 4752,-111 4752,-111 4752,-150 4752,-150 4752,-156 4746,-162 4740,-162"/>
<text text-anchor="middle" x="4544.5" y="-118" font-family="sans" font-size="50.00" fill="#000000">plot_integration</text>
</g>
<!-- 5&#45;&gt;0 -->
<g id="edge5" class="edge">
<title>5&#45;&gt;0</title>
<path fill="none" stroke="#c0c0c0" stroke-width="2" d="M4544.5,-98.9036C4544.5,-90.777 4544.5,-81.9064 4544.5,-73.3485"/>
<polygon fill="#c0c0c0" stroke="#c0c0c0" stroke-width="2" points="4548.0001,-73.1358 4544.5,-63.1358 4541.0001,-73.1358 4548.0001,-73.1358"/>
</g>
<!-- 6 -->
<g id="node7" class="node">
<title>6</title>
<path fill="none" stroke="#56d892" stroke-width="2" d="M2622.5,-162C2622.5,-162 1414.5,-162 1414.5,-162 1408.5,-162 1402.5,-156 1402.5,-150 1402.5,-150 1402.5,-111 1402.5,-111 1402.5,-105 1408.5,-99 1414.5,-99 1414.5,-99 2622.5,-99 2622.5,-99 2628.5,-99 2634.5,-105 2634.5,-111 2634.5,-111 2634.5,-150 2634.5,-150 2634.5,-156 2628.5,-162 2622.5,-162"/>
<text text-anchor="middle" x="2018.5" y="-118" font-family="sans" font-size="50.00" fill="#000000">plot_integration_with_well_supported_cell_types</text>
</g>
<!-- 6&#45;&gt;0 -->
<g id="edge6" class="edge">
<title>6&#45;&gt;0</title>
<path fill="none" stroke="#c0c0c0" stroke-width="2" d="M2634.5216,-99.3872C2637.5221,-99.2573 2640.515,-99.1282 2643.5,-99 3381.2038,-67.3146 4280.4063,-39.4868 4496.2743,-32.9483"/>
<polygon fill="#c0c0c0" stroke="#c0c0c0" stroke-width="2" points="4496.4371,-36.4451 4506.3267,-32.6443 4496.2254,-29.4483 4496.4371,-36.4451"/>
</g>
<!-- 7 -->
<g id="node8" class="node">
<title>7</title>
<path fill="none" stroke="#56d892" stroke-width="2" d="M4306.5,-162C4306.5,-162 3098.5,-162 3098.5,-162 3092.5,-162 3086.5,-156 3086.5,-150 3086.5,-150 3086.5,-111 3086.5,-111 3086.5,-105 3092.5,-99 3098.5,-99 3098.5,-99 4306.5,-99 4306.5,-99 4312.5,-99 4318.5,-105 4318.5,-111 4318.5,-111 4318.5,-150 4318.5,-150 4318.5,-156 4312.5,-162 4306.5,-162"/>
<text text-anchor="middle" x="3702.5" y="-118" font-family="sans" font-size="50.00" fill="#000000">plot_integration_with_well_supported_cell_types</text>
</g>
<!-- 7&#45;&gt;0 -->
<g id="edge7" class="edge">
<title>7&#45;&gt;0</title>
<path fill="none" stroke="#c0c0c0" stroke-width="2" d="M3970.6499,-98.9717C4159.6558,-76.7489 4396.2202,-48.9343 4496.272,-37.1705"/>
<polygon fill="#c0c0c0" stroke="#c0c0c0" stroke-width="2" points="4496.8503,-40.6267 4506.3732,-35.9828 4496.0329,-33.6746 4496.8503,-40.6267"/>
</g>
<!-- 8 -->
<g id="node9" class="node">
<title>8</title>
<path fill="none" stroke="#d8d356" stroke-width="2" d="M6336,-1548C6336,-1548 5885,-1548 5885,-1548 5879,-1548 5873,-1542 5873,-1536 5873,-1536 5873,-1442 5873,-1442 5873,-1436 5879,-1430 5885,-1430 5885,-1430 6336,-1430 6336,-1430 6342,-1430 6348,-1436 6348,-1442 6348,-1442 6348,-1536 6348,-1536 6348,-1542 6342,-1548 6336,-1548"/>
<text text-anchor="middle" x="6110.5" y="-1504" font-family="sans" font-size="50.00" fill="#000000">kallisto_quant</text>
<text text-anchor="middle" x="6110.5" y="-1449" font-family="sans" font-size="50.00" fill="#000000">SRS: SRS3732876</text>
</g>
<!-- 8&#45;&gt;0 -->
<g id="edge8" class="edge">
<title>8&#45;&gt;0</title>
<path fill="none" stroke="#c0c0c0" stroke-width="2" d="M6100.8031,-1429.8118C6092.3726,-1373.1684 6081.5,-1285.2409 6081.5,-1208.5 6081.5,-1208.5 6081.5,-1208.5 6081.5,-229.5 6081.5,-139.2152 6214.5087,-189.4341 5798.5,-99 5562.1188,-47.6142 4793.32,-34.595 4592.7275,-32.0386"/>
<polygon fill="#c0c0c0" stroke="#c0c0c0" stroke-width="2" points="4592.555,-28.5363 4582.5121,-31.9112 4592.4677,-35.5357 4592.555,-28.5363"/>
</g>
<!-- 21 -->
<g id="node22" class="node">
<title>21</title>
<path fill="none" stroke="#56d87b" stroke-width="2" d="M5996,-1394C5996,-1394 5107,-1394 5107,-1394 5101,-1394 5095,-1388 5095,-1382 5095,-1382 5095,-1288 5095,-1288 5095,-1282 5101,-1276 5107,-1276 5107,-1276 5996,-1276 5996,-1276 6002,-1276 6008,-1282 6008,-1288 6008,-1288 6008,-1382 6008,-1382 6008,-1388 6002,-1394 5996,-1394"/>
<text text-anchor="middle" x="5551.5" y="-1350" font-family="sans" font-size="50.00" fill="#000000">merge_nonUMI_quant_by_organism</text>
<text text-anchor="middle" x="5551.5" y="-1295" font-family="sans" font-size="50.00" fill="#000000">organism: Homo_sapiens</text>
</g>
<!-- 8&#45;&gt;21 -->
<g id="edge43" class="edge">
<title>8&#45;&gt;21</title>
<path fill="none" stroke="#c0c0c0" stroke-width="2" d="M5895.9747,-1429.9C5856.5798,-1419.047 5815.3618,-1407.6918 5775.6921,-1396.7631"/>
<polygon fill="#c0c0c0" stroke="#c0c0c0" stroke-width="2" points="5776.4834,-1393.3508 5765.913,-1394.069 5774.6242,-1400.0994 5776.4834,-1393.3508"/>
</g>
<!-- 9 -->
<g id="node10" class="node">
<title>9</title>
<path fill="none" stroke="#d8d356" stroke-width="2" d="M5350,-1548C5350,-1548 4899,-1548 4899,-1548 4893,-1548 4887,-1542 4887,-1536 4887,-1536 4887,-1442 4887,-1442 4887,-1436 4893,-1430 4899,-1430 4899,-1430 5350,-1430 5350,-1430 5356,-1430 5362,-1436 5362,-1442 5362,-1442 5362,-1536 5362,-1536 5362,-1542 5356,-1548 5350,-1548"/>
<text text-anchor="middle" x="5124.5" y="-1504" font-family="sans" font-size="50.00" fill="#000000">kallisto_quant</text>
<text text-anchor="middle" x="5124.5" y="-1449" font-family="sans" font-size="50.00" fill="#000000">SRS: SRS2166836</text>
</g>
<!-- 9&#45;&gt;0 -->
<g id="edge9" class="edge">
<title>9&#45;&gt;0</title>
<path fill="none" stroke="#c0c0c0" stroke-width="2" d="M5097.9361,-1429.7679C5093.526,-1418.0983 5089.4391,-1405.8078 5086.5,-1394 5066.4708,-1313.533 5066.5,-1291.4222 5066.5,-1208.5 5066.5,-1208.5 5066.5,-1208.5 5066.5,-229.5 5066.5,-165.287 5056.1395,-137.1664 5004.5,-99 4939.8613,-51.2259 4697.3877,-36.9319 4592.9012,-32.9397"/>
<polygon fill="#c0c0c0" stroke="#c0c0c0" stroke-width="2" points="4592.7583,-29.4322 4582.6369,-32.5639 4592.5021,-36.4275 4592.7583,-29.4322"/>
</g>
<!-- 9&#45;&gt;21 -->
<g id="edge44" class="edge">
<title>9&#45;&gt;21</title>
<path fill="none" stroke="#c0c0c0" stroke-width="2" d="M5288.3682,-1429.9C5317.7607,-1419.2994 5348.4818,-1408.2197 5378.1317,-1397.5263"/>
<polygon fill="#c0c0c0" stroke="#c0c0c0" stroke-width="2" points="5379.4982,-1400.7542 5387.7177,-1394.069 5377.1233,-1394.1693 5379.4982,-1400.7542"/>
</g>
<!-- 10 -->
<g id="node11" class="node">
<title>10</title>
<path fill="none" stroke="#d8d356" stroke-width="2" d="M5843,-1548C5843,-1548 5392,-1548 5392,-1548 5386,-1548 5380,-1542 5380,-1536 5380,-1536 5380,-1442 5380,-1442 5380,-1436 5386,-1430 5392,-1430 5392,-1430 5843,-1430 5843,-1430 5849,-1430 5855,-1436 5855,-1442 5855,-1442 5855,-1536 5855,-1536 5855,-1542 5849,-1548 5843,-1548"/>
<text text-anchor="middle" x="5617.5" y="-1504" font-family="sans" font-size="50.00" fill="#000000">kallisto_quant</text>
<text text-anchor="middle" x="5617.5" y="-1449" font-family="sans" font-size="50.00" fill="#000000">SRS: SRS3106664</text>
</g>
<!-- 10&#45;&gt;0 -->
<g id="edge10" class="edge">
<title>10&#45;&gt;0</title>
<path fill="none" stroke="#c0c0c0" stroke-width="2" d="M5855.1073,-1432.2278C5858.2577,-1431.4803 5861.3898,-1430.7374 5864.5,-1430 5932.4728,-1413.885 5971.3908,-1446.478 6017.5,-1394 6072.2023,-1331.7421 6036.5,-1291.3758 6036.5,-1208.5 6036.5,-1208.5 6036.5,-1208.5 6036.5,-229.5 6036.5,-80.2604 4848.2643,-39.7 4592.5918,-32.7"/>
<polygon fill="#c0c0c0" stroke="#c0c0c0" stroke-width="2" points="4592.5937,-29.1989 4582.503,-32.4281 4592.405,-36.1964 4592.5937,-29.1989"/>
</g>
<!-- 10&#45;&gt;21 -->
<g id="edge45" class="edge">
<title>10&#45;&gt;21</title>
<path fill="none" stroke="#c0c0c0" stroke-width="2" d="M5592.1714,-1429.9C5588.4874,-1421.3038 5584.6682,-1412.3926 5580.9119,-1403.6277"/>
<polygon fill="#c0c0c0" stroke="#c0c0c0" stroke-width="2" points="5584.0261,-1402.009 5576.8698,-1394.1963 5577.5921,-1404.7665 5584.0261,-1402.009"/>
</g>
<!-- 11 -->
<g id="node12" class="node">
<title>11</title>
<path fill="none" stroke="#d8d356" stroke-width="2" d="M463,-1548C463,-1548 12,-1548 12,-1548 6,-1548 0,-1542 0,-1536 0,-1536 0,-1442 0,-1442 0,-1436 6,-1430 12,-1430 12,-1430 463,-1430 463,-1430 469,-1430 475,-1436 475,-1442 475,-1442 475,-1536 475,-1536 475,-1542 469,-1548 463,-1548"/>
<text text-anchor="middle" x="237.5" y="-1504" font-family="sans" font-size="50.00" fill="#000000">kallisto_quant</text>
<text text-anchor="middle" x="237.5" y="-1449" font-family="sans" font-size="50.00" fill="#000000">SRS: SRS3675268</text>
</g>
<!-- 11&#45;&gt;0 -->
<g id="edge11" class="edge">
<title>11&#45;&gt;0</title>
<path fill="none" stroke="#c0c0c0" stroke-width="2" d="M277.0517,-1429.9827C309.9777,-1375.0675 351.5,-1289.7147 351.5,-1208.5 351.5,-1208.5 351.5,-1208.5 351.5,-229.5 351.5,-161.2358 373.119,-132.6735 432.5,-99 525.4388,-46.2967 4041.3666,-33.1329 4496.2005,-31.6494"/>
<polygon fill="#c0c0c0" stroke="#c0c0c0" stroke-width="2" points="4496.3835,-35.1489 4506.3721,-31.6165 4496.3608,-28.149 4496.3835,-35.1489"/>
</g>
<!-- 17 -->
<g id="node18" class="node">
<title>17</title>
<path fill="none" stroke="#56d87b" stroke-width="2" d="M2266,-1394C2266,-1394 1377,-1394 1377,-1394 1371,-1394 1365,-1388 1365,-1382 1365,-1382 1365,-1288 1365,-1288 1365,-1282 1371,-1276 1377,-1276 1377,-1276 2266,-1276 2266,-1276 2272,-1276 2278,-1282 2278,-1288 2278,-1288 2278,-1382 2278,-1382 2278,-1388 2272,-1394 2266,-1394"/>
<text text-anchor="middle" x="1821.5" y="-1350" font-family="sans" font-size="50.00" fill="#000000">merge_nonUMI_quant_by_organism</text>
<text text-anchor="middle" x="1821.5" y="-1295" font-family="sans" font-size="50.00" fill="#000000">organism: Mus_musculus</text>
</g>
<!-- 11&#45;&gt;17 -->
<g id="edge38" class="edge">
<title>11&#45;&gt;17</title>
<path fill="none" stroke="#c0c0c0" stroke-width="2" d="M475.0869,-1450.7778C530.2574,-1442.9301 588.8347,-1435.4206 643.5,-1430 942.0185,-1400.3992 1018.5991,-1419.4521 1317.5,-1394 1329.7943,-1392.9531 1342.252,-1391.8442 1354.8183,-1390.6831"/>
<polygon fill="#c0c0c0" stroke="#c0c0c0" stroke-width="2" points="1355.2868,-1394.1547 1364.9185,-1389.741 1354.6366,-1387.1849 1355.2868,-1394.1547"/>
</g>
<!-- 12 -->
<g id="node13" class="node">
<title>12</title>
<path fill="none" stroke="#afd856" stroke-width="2" d="M5061,-1702C5061,-1702 4610,-1702 4610,-1702 4604,-1702 4598,-1696 4598,-1690 4598,-1690 4598,-1596 4598,-1596 4598,-1590 4604,-1584 4610,-1584 4610,-1584 5061,-1584 5061,-1584 5067,-1584 5073,-1590 5073,-1596 5073,-1596 5073,-1690 5073,-1690 5073,-1696 5067,-1702 5061,-1702"/>
<text text-anchor="middle" x="4835.5" y="-1658" font-family="sans" font-size="50.00" fill="#000000">kallisto_bus</text>
<text text-anchor="middle" x="4835.5" y="-1603" font-family="sans" font-size="50.00" fill="#000000">SRS: SRS4715841</text>
</g>
<!-- 12&#45;&gt;0 -->
<g id="edge12" class="edge">
<title>12&#45;&gt;0</title>
<path fill="none" stroke="#c0c0c0" stroke-width="2" d="M4831.9893,-1583.836C4832.4539,-1536.5517 4840.9013,-1471.5306 4878.5,-1430 4915.0141,-1389.6674 4963.1774,-1437.7635 4995.5,-1394 5026.6573,-1351.8142 4996.1757,-1328.4401 4995.5,-1276 4994.3888,-1189.7563 4990.5,-1168.2509 4990.5,-1082 4990.5,-1082 4990.5,-1082 4990.5,-229.5 4990.5,-150.4048 4938.3762,-137.886 4869.5,-99 4822.6747,-72.5634 4671.4067,-48.7996 4592.8552,-37.8608"/>
<polygon fill="#c0c0c0" stroke="#c0c0c0" stroke-width="2" points="4593.1147,-34.3636 4582.7305,-36.4659 4592.1592,-41.2981 4593.1147,-34.3636"/>
</g>
<!-- 32 -->
<g id="node33" class="node">
<title>32</title>
<path fill="none" stroke="#61d856" stroke-width="2" d="M4974.5,-1366.5C4974.5,-1366.5 4164.5,-1366.5 4164.5,-1366.5 4158.5,-1366.5 4152.5,-1360.5 4152.5,-1354.5 4152.5,-1354.5 4152.5,-1315.5 4152.5,-1315.5 4152.5,-1309.5 4158.5,-1303.5 4164.5,-1303.5 4164.5,-1303.5 4974.5,-1303.5 4974.5,-1303.5 4980.5,-1303.5 4986.5,-1309.5 4986.5,-1315.5 4986.5,-1315.5 4986.5,-1354.5 4986.5,-1354.5 4986.5,-1360.5 4980.5,-1366.5 4974.5,-1366.5"/>
<text text-anchor="middle" x="4569.5" y="-1322.5" font-family="sans" font-size="50.00" fill="#000000">bustools_whitelist_correct_count</text>
</g>
<!-- 12&#45;&gt;32 -->
<g id="edge67" class="edge">
<title>12&#45;&gt;32</title>
<path fill="none" stroke="#c0c0c0" stroke-width="2" d="M4832.463,-1583.8705C4827.1902,-1537.2376 4813.1938,-1473.0919 4776.5,-1430 4754.3343,-1403.9693 4723.5276,-1384.6852 4692.4457,-1370.5598"/>
<polygon fill="#c0c0c0" stroke="#c0c0c0" stroke-width="2" points="4693.8051,-1367.3342 4683.2412,-1366.526 4690.9954,-1373.7456 4693.8051,-1367.3342"/>
</g>
<!-- 41 -->
<g id="node42" class="node">
<title>41</title>
<path fill="none" stroke="#56d0d8" stroke-width="2" d="M4755,-1520.5C4755,-1520.5 4428,-1520.5 4428,-1520.5 4422,-1520.5 4416,-1514.5 4416,-1508.5 4416,-1508.5 4416,-1469.5 4416,-1469.5 4416,-1463.5 4422,-1457.5 4428,-1457.5 4428,-1457.5 4755,-1457.5 4755,-1457.5 4761,-1457.5 4767,-1463.5 4767,-1469.5 4767,-1469.5 4767,-1508.5 4767,-1508.5 4767,-1514.5 4761,-1520.5 4755,-1520.5"/>
<text text-anchor="middle" x="4591.5" y="-1476.5" font-family="sans" font-size="50.00" fill="#000000">bustools_sort</text>
</g>
<!-- 12&#45;&gt;41 -->
<g id="edge79" class="edge">
<title>12&#45;&gt;41</title>
<path fill="none" stroke="#c0c0c0" stroke-width="2" d="M4741.8611,-1583.9C4711.0588,-1564.4592 4677.7031,-1543.4068 4650.2524,-1526.0814"/>
<polygon fill="#c0c0c0" stroke="#c0c0c0" stroke-width="2" points="4651.8827,-1522.9716 4641.558,-1520.594 4648.1465,-1528.8912 4651.8827,-1522.9716"/>
</g>
<!-- 13 -->
<g id="node14" class="node">
<title>13</title>
<path fill="none" stroke="#afd856" stroke-width="2" d="M4109,-1702C4109,-1702 3658,-1702 3658,-1702 3652,-1702 3646,-1696 3646,-1690 3646,-1690 3646,-1596 3646,-1596 3646,-1590 3652,-1584 3658,-1584 3658,-1584 4109,-1584 4109,-1584 4115,-1584 4121,-1590 4121,-1596 4121,-1596 4121,-1690 4121,-1690 4121,-1696 4115,-1702 4109,-1702"/>
<text text-anchor="middle" x="3883.5" y="-1658" font-family="sans" font-size="50.00" fill="#000000">kallisto_bus</text>
<text text-anchor="middle" x="3883.5" y="-1603" font-family="sans" font-size="50.00" fill="#000000">SRS: SRS3698218</text>
</g>
<!-- 13&#45;&gt;0 -->
<g id="edge13" class="edge">
<title>13&#45;&gt;0</title>
<path fill="none" stroke="#c0c0c0" stroke-width="2" d="M4029.3208,-1583.715C4043.9503,-1573.4341 4057.4521,-1561.5861 4068.5,-1548 4180.1929,-1410.646 4059.5342,-1264.3839 4213.5,-1177 4303.8297,-1125.733 4585.8091,-1185.8305 4679.5,-1141 4852.6859,-1058.1317 4855.5,-938.4909 4855.5,-746.5 4855.5,-746.5 4855.5,-746.5 4855.5,-229.5 4855.5,-169.4502 4863.4298,-140.9882 4820.5,-99 4788.4423,-67.6454 4662.7127,-46.7813 4592.5298,-37.3215"/>
<polygon fill="#c0c0c0" stroke="#c0c0c0" stroke-width="2" points="4592.9681,-33.8491 4582.5957,-36.0086 4592.0509,-40.7887 4592.9681,-33.8491"/>
</g>
<!-- 31 -->
<g id="node32" class="node">
<title>31</title>
<path fill="none" stroke="#61d856" stroke-width="2" d="M4084.5,-1366.5C4084.5,-1366.5 3274.5,-1366.5 3274.5,-1366.5 3268.5,-1366.5 3262.5,-1360.5 3262.5,-1354.5 3262.5,-1354.5 3262.5,-1315.5 3262.5,-1315.5 3262.5,-1309.5 3268.5,-1303.5 3274.5,-1303.5 3274.5,-1303.5 4084.5,-1303.5 4084.5,-1303.5 4090.5,-1303.5 4096.5,-1309.5 4096.5,-1315.5 4096.5,-1315.5 4096.5,-1354.5 4096.5,-1354.5 4096.5,-1360.5 4090.5,-1366.5 4084.5,-1366.5"/>
<text text-anchor="middle" x="3679.5" y="-1322.5" font-family="sans" font-size="50.00" fill="#000000">bustools_whitelist_correct_count</text>
</g>
<!-- 13&#45;&gt;31 -->
<g id="edge64" class="edge">
<title>13&#45;&gt;31</title>
<path fill="none" stroke="#c0c0c0" stroke-width="2" d="M3733.8699,-1583.7676C3720.6239,-1573.553 3708.7544,-1561.7056 3699.5,-1548 3665.008,-1496.918 3666.8299,-1422.5571 3672.3795,-1376.5633"/>
<polygon fill="#c0c0c0" stroke="#c0c0c0" stroke-width="2" points="3675.8509,-1377.0086 3673.6885,-1366.6368 3668.911,-1376.0934 3675.8509,-1377.0086"/>
</g>
<!-- 40 -->
<g id="node41" class="node">
<title>40</title>
<path fill="none" stroke="#56d0d8" stroke-width="2" d="M4047,-1520.5C4047,-1520.5 3720,-1520.5 3720,-1520.5 3714,-1520.5 3708,-1514.5 3708,-1508.5 3708,-1508.5 3708,-1469.5 3708,-1469.5 3708,-1463.5 3714,-1457.5 3720,-1457.5 3720,-1457.5 4047,-1457.5 4047,-1457.5 4053,-1457.5 4059,-1463.5 4059,-1469.5 4059,-1469.5 4059,-1508.5 4059,-1508.5 4059,-1514.5 4053,-1520.5 4047,-1520.5"/>
<text text-anchor="middle" x="3883.5" y="-1476.5" font-family="sans" font-size="50.00" fill="#000000">bustools_sort</text>
</g>
<!-- 13&#45;&gt;40 -->
<g id="edge78" class="edge">
<title>13&#45;&gt;40</title>
<path fill="none" stroke="#c0c0c0" stroke-width="2" d="M3883.5,-1583.9C3883.5,-1566.2266 3883.5,-1547.2212 3883.5,-1530.8949"/>
<polygon fill="#c0c0c0" stroke="#c0c0c0" stroke-width="2" points="3887.0001,-1530.594 3883.5,-1520.594 3880.0001,-1530.594 3887.0001,-1530.594"/>
</g>
<!-- 14 -->
<g id="node15" class="node">
<title>14</title>
<path fill="none" stroke="#afd856" stroke-width="2" d="M1876,-1702C1876,-1702 1425,-1702 1425,-1702 1419,-1702 1413,-1696 1413,-1690 1413,-1690 1413,-1596 1413,-1596 1413,-1590 1419,-1584 1425,-1584 1425,-1584 1876,-1584 1876,-1584 1882,-1584 1888,-1590 1888,-1596 1888,-1596 1888,-1690 1888,-1690 1888,-1696 1882,-1702 1876,-1702"/>
<text text-anchor="middle" x="1650.5" y="-1658" font-family="sans" font-size="50.00" fill="#000000">kallisto_bus</text>
<text text-anchor="middle" x="1650.5" y="-1603" font-family="sans" font-size="50.00" fill="#000000">SRS: SRS3971246</text>
</g>
<!-- 14&#45;&gt;0 -->
<g id="edge14" class="edge">
<title>14&#45;&gt;0</title>
<path fill="none" stroke="#c0c0c0" stroke-width="2" d="M1527.7503,-1583.8218C1439.6825,-1531.8559 1336.5,-1447.0602 1336.5,-1335 1336.5,-1335 1336.5,-1335 1336.5,-229.5 1336.5,-170.2716 1317.9714,-136.8834 1363.5,-99 1426.4194,-46.6461 4101.1821,-33.3694 4496.0181,-31.6935"/>
<polygon fill="#c0c0c0" stroke="#c0c0c0" stroke-width="2" points="4496.2583,-35.1927 4506.2435,-31.6506 4496.2288,-28.1927 4496.2583,-35.1927"/>
</g>
<!-- 29 -->
<g id="node30" class="node">
<title>29</title>
<path fill="none" stroke="#61d856" stroke-width="2" d="M3118.5,-1366.5C3118.5,-1366.5 2308.5,-1366.5 2308.5,-1366.5 2302.5,-1366.5 2296.5,-1360.5 2296.5,-1354.5 2296.5,-1354.5 2296.5,-1315.5 2296.5,-1315.5 2296.5,-1309.5 2302.5,-1303.5 2308.5,-1303.5 2308.5,-1303.5 3118.5,-1303.5 3118.5,-1303.5 3124.5,-1303.5 3130.5,-1309.5 3130.5,-1315.5 3130.5,-1315.5 3130.5,-1354.5 3130.5,-1354.5 3130.5,-1360.5 3124.5,-1366.5 3118.5,-1366.5"/>
<text text-anchor="middle" x="2713.5" y="-1322.5" font-family="sans" font-size="50.00" fill="#000000">bustools_whitelist_correct_count</text>
</g>
<!-- 14&#45;&gt;29 -->
<g id="edge58" class="edge">
<title>14&#45;&gt;29</title>
<path fill="none" stroke="#c0c0c0" stroke-width="2" d="M1888.1799,-1595.9573C1952.2643,-1581.9199 2021.3313,-1565.5507 2084.5,-1548 2277.6933,-1494.3233 2498.6916,-1415.2731 2620.5523,-1370.0977"/>
<polygon fill="#c0c0c0" stroke="#c0c0c0" stroke-width="2" points="2622.076,-1373.2655 2630.2321,-1366.5032 2619.6392,-1366.7033 2622.076,-1373.2655"/>
</g>
<!-- 38 -->
<g id="node39" class="node">
<title>38</title>
<path fill="none" stroke="#56d0d8" stroke-width="2" d="M2064,-1520.5C2064,-1520.5 1737,-1520.5 1737,-1520.5 1731,-1520.5 1725,-1514.5 1725,-1508.5 1725,-1508.5 1725,-1469.5 1725,-1469.5 1725,-1463.5 1731,-1457.5 1737,-1457.5 1737,-1457.5 2064,-1457.5 2064,-1457.5 2070,-1457.5 2076,-1463.5 2076,-1469.5 2076,-1469.5 2076,-1508.5 2076,-1508.5 2076,-1514.5 2070,-1520.5 2064,-1520.5"/>
<text text-anchor="middle" x="1900.5" y="-1476.5" font-family="sans" font-size="50.00" fill="#000000">bustools_sort</text>
</g>
<!-- 14&#45;&gt;38 -->
<g id="edge76" class="edge">
<title>14&#45;&gt;38</title>
<path fill="none" stroke="#c0c0c0" stroke-width="2" d="M1746.4415,-1583.9C1778.1379,-1564.3751 1812.4731,-1543.2245 1840.6678,-1525.8566"/>
<polygon fill="#c0c0c0" stroke="#c0c0c0" stroke-width="2" points="1842.5325,-1528.8188 1849.211,-1520.594 1838.8611,-1522.8588 1842.5325,-1528.8188"/>
</g>
<!-- 15 -->
<g id="node16" class="node">
<title>15</title>
<path fill="none" stroke="#afd856" stroke-width="2" d="M1156,-1702C1156,-1702 705,-1702 705,-1702 699,-1702 693,-1696 693,-1690 693,-1690 693,-1596 693,-1596 693,-1590 699,-1584 705,-1584 705,-1584 1156,-1584 1156,-1584 1162,-1584 1168,-1590 1168,-1596 1168,-1596 1168,-1690 1168,-1690 1168,-1696 1162,-1702 1156,-1702"/>
<text text-anchor="middle" x="930.5" y="-1658" font-family="sans" font-size="50.00" fill="#000000">kallisto_bus</text>
<text text-anchor="middle" x="930.5" y="-1603" font-family="sans" font-size="50.00" fill="#000000">SRS: SRS1467250</text>
</g>
<!-- 15&#45;&gt;0 -->
<g id="edge15" class="edge">
<title>15&#45;&gt;0</title>
<path fill="none" stroke="#c0c0c0" stroke-width="2" d="M719.8045,-1583.9908C693.4151,-1573.5128 667.3469,-1561.5415 643.5,-1548 552.5335,-1496.3444 513.7895,-1486.7973 465.5,-1394 427.2432,-1320.4826 446.5,-1291.3758 446.5,-1208.5 446.5,-1208.5 446.5,-1208.5 446.5,-229.5 446.5,-31.1464 1131.8434,-115.6146 1329.5,-99 1983.1739,-44.0535 4145.8974,-33.1054 4496.3382,-31.6789"/>
<polygon fill="#c0c0c0" stroke="#c0c0c0" stroke-width="2" points="4496.423,-35.1787 4506.4088,-31.6385 4496.3948,-28.1788 4496.423,-35.1787"/>
</g>
<!-- 30 -->
<g id="node31" class="node">
<title>30</title>
<path fill="none" stroke="#61d856" stroke-width="2" d="M1296.5,-1366.5C1296.5,-1366.5 486.5,-1366.5 486.5,-1366.5 480.5,-1366.5 474.5,-1360.5 474.5,-1354.5 474.5,-1354.5 474.5,-1315.5 474.5,-1315.5 474.5,-1309.5 480.5,-1303.5 486.5,-1303.5 486.5,-1303.5 1296.5,-1303.5 1296.5,-1303.5 1302.5,-1303.5 1308.5,-1309.5 1308.5,-1315.5 1308.5,-1315.5 1308.5,-1354.5 1308.5,-1354.5 1308.5,-1360.5 1302.5,-1366.5 1296.5,-1366.5"/>
<text text-anchor="middle" x="891.5" y="-1322.5" font-family="sans" font-size="50.00" fill="#000000">bustools_whitelist_correct_count</text>
</g>
<!-- 15&#45;&gt;30 -->
<g id="edge61" class="edge">
<title>15&#45;&gt;30</title>
<path fill="none" stroke="#c0c0c0" stroke-width="2" d="M992.2886,-1583.8304C1000.554,-1572.7615 1007.7915,-1560.661 1012.5,-1548 1030.7804,-1498.8447 1035.434,-1477.1641 1012.5,-1430 1001.1582,-1406.6755 981.0099,-1387.3766 960.3683,-1372.4054"/>
<polygon fill="#c0c0c0" stroke="#c0c0c0" stroke-width="2" points="962.3471,-1369.5184 952.1415,-1366.673 958.3452,-1375.2617 962.3471,-1369.5184"/>
</g>
<!-- 39 -->
<g id="node40" class="node">
<title>39</title>
<path fill="none" stroke="#56d0d8" stroke-width="2" d="M992,-1520.5C992,-1520.5 665,-1520.5 665,-1520.5 659,-1520.5 653,-1514.5 653,-1508.5 653,-1508.5 653,-1469.5 653,-1469.5 653,-1463.5 659,-1457.5 665,-1457.5 665,-1457.5 992,-1457.5 992,-1457.5 998,-1457.5 1004,-1463.5 1004,-1469.5 1004,-1469.5 1004,-1508.5 1004,-1508.5 1004,-1514.5 998,-1520.5 992,-1520.5"/>
<text text-anchor="middle" x="828.5" y="-1476.5" font-family="sans" font-size="50.00" fill="#000000">bustools_sort</text>
</g>
<!-- 15&#45;&gt;39 -->
<g id="edge77" class="edge">
<title>15&#45;&gt;39</title>
<path fill="none" stroke="#c0c0c0" stroke-width="2" d="M891.3559,-1583.9C879.2041,-1565.5533 866.1018,-1545.7713 855.0206,-1529.041"/>
<polygon fill="#c0c0c0" stroke="#c0c0c0" stroke-width="2" points="857.8659,-1526.9984 849.4259,-1520.594 852.0299,-1530.8639 857.8659,-1526.9984"/>
</g>
<!-- 16 -->
<g id="node17" class="node">
<title>16</title>
<path fill="none" stroke="#5673d8" stroke-width="2" d="M3397.5,-1520.5C3397.5,-1520.5 2957.5,-1520.5 2957.5,-1520.5 2951.5,-1520.5 2945.5,-1514.5 2945.5,-1508.5 2945.5,-1508.5 2945.5,-1469.5 2945.5,-1469.5 2945.5,-1463.5 2951.5,-1457.5 2957.5,-1457.5 2957.5,-1457.5 3397.5,-1457.5 3397.5,-1457.5 3403.5,-1457.5 3409.5,-1463.5 3409.5,-1469.5 3409.5,-1469.5 3409.5,-1508.5 3409.5,-1508.5 3409.5,-1514.5 3403.5,-1520.5 3397.5,-1520.5"/>
<text text-anchor="middle" x="3177.5" y="-1476.5" font-family="sans" font-size="50.00" fill="#000000">tx_gene_mapping</text>
</g>
<!-- 16&#45;&gt;1 -->
<g id="edge16" class="edge">
<title>16&#45;&gt;1</title>
<path fill="none" stroke="#c0c0c0" stroke-width="2" d="M3174.7774,-1457.4019C3169.8457,-1405.6863 3158.1797,-1305.742 3139.5,-1276 3086.5375,-1191.6726 2986.676,-1143.6252 2896.9464,-1116.447"/>
<polygon fill="#c0c0c0" stroke="#c0c0c0" stroke-width="2" points="2897.7631,-1113.0387 2887.181,-1113.5584 2895.7775,-1119.7512 2897.7631,-1113.0387"/>
</g>
<!-- 16&#45;&gt;2 -->
<g id="edge20" class="edge">
<title>16&#45;&gt;2</title>
<path fill="none" stroke="#c0c0c0" stroke-width="2" d="M3177.449,-1457.4424C3177.9543,-1387.07 3182.7752,-1220.0979 3216.5,-1177 3225.2717,-1165.7903 3235.5378,-1155.9025 3246.808,-1147.1807"/>
<polygon fill="#c0c0c0" stroke="#c0c0c0" stroke-width="2" points="3249.1933,-1149.7717 3255.1849,-1141.0338 3245.052,-1144.1281 3249.1933,-1149.7717"/>
</g>
<!-- 16&#45;&gt;3 -->
<g id="edge22" class="edge">
<title>16&#45;&gt;3</title>
<path fill="none" stroke="#c0c0c0" stroke-width="2" d="M3184.3104,-1457.4653C3196.5832,-1403.8096 3223.9027,-1298.3751 3253.5,-1276 3301.4684,-1239.7367 3734.2026,-1249.9911 3793.5,-1240 3962.6794,-1211.4948 4153.7678,-1153.9918 4268.0526,-1116.7812"/>
<polygon fill="#c0c0c0" stroke="#c0c0c0" stroke-width="2" points="4269.429,-1120.0137 4277.8472,-1113.5806 4267.2546,-1113.3599 4269.429,-1120.0137"/>
</g>
<!-- 16&#45;&gt;17 -->
<g id="edge39" class="edge">
<title>16&#45;&gt;17</title>
<path fill="none" stroke="#c0c0c0" stroke-width="2" d="M2945.4605,-1465.4894C2768.412,-1447.2507 2518.1775,-1420.8293 2288.2886,-1394.0872"/>
<polygon fill="#c0c0c0" stroke="#c0c0c0" stroke-width="2" points="2288.3875,-1390.5751 2278.0497,-1392.8943 2287.5774,-1397.5281 2288.3875,-1390.5751"/>
</g>
<!-- 16&#45;&gt;21 -->
<g id="edge46" class="edge">
<title>16&#45;&gt;21</title>
<path fill="none" stroke="#c0c0c0" stroke-width="2" d="M3409.6804,-1458.487C3499.993,-1447.739 3604.4283,-1436.6812 3699.5,-1430 4274.3046,-1389.6055 4420.5609,-1432.4314 4995.5,-1394 5024.5419,-1392.0587 5054.4085,-1389.7627 5084.5081,-1387.2218"/>
<polygon fill="#c0c0c0" stroke="#c0c0c0" stroke-width="2" points="5085.0573,-1390.6878 5094.7238,-1386.3509 5084.4626,-1383.7131 5085.0573,-1390.6878"/>
</g>
<!-- 16&#45;&gt;29 -->
<g id="edge59" class="edge">
<title>16&#45;&gt;29</title>
<path fill="none" stroke="#c0c0c0" stroke-width="2" d="M3082.483,-1457.4642C3005.6673,-1431.9693 2897.6368,-1396.1144 2818.3148,-1369.7877"/>
<polygon fill="#c0c0c0" stroke="#c0c0c0" stroke-width="2" points="2819.3812,-1366.4539 2808.7877,-1366.6257 2817.1761,-1373.0976 2819.3812,-1366.4539"/>
</g>
<!-- 16&#45;&gt;30 -->
<g id="edge62" class="edge">
<title>16&#45;&gt;30</title>
<path fill="none" stroke="#c0c0c0" stroke-width="2" d="M2945.3734,-1476.1607C2724.1271,-1463.9964 2381.6242,-1445.3557 2084.5,-1430 1760.5375,-1413.2573 1678.6422,-1422.4807 1355.5,-1394 1279.1496,-1387.2707 1196.024,-1377.4832 1121.4982,-1367.8073"/>
<polygon fill="#c0c0c0" stroke="#c0c0c0" stroke-width="2" points="1121.8822,-1364.3278 1111.5135,-1366.505 1120.9768,-1371.269 1121.8822,-1364.3278"/>
</g>
<!-- 16&#45;&gt;31 -->
<g id="edge65" class="edge">
<title>16&#45;&gt;31</title>
<path fill="none" stroke="#c0c0c0" stroke-width="2" d="M3280.2986,-1457.4642C3363.5741,-1431.9175 3480.7583,-1395.9686 3566.6241,-1369.6273"/>
<polygon fill="#c0c0c0" stroke="#c0c0c0" stroke-width="2" points="3567.8748,-1372.9047 3576.4085,-1366.6257 3565.8218,-1366.2125 3567.8748,-1372.9047"/>
</g>
<!-- 16&#45;&gt;32 -->
<g id="edge68" class="edge">
<title>16&#45;&gt;32</title>
<path fill="none" stroke="#c0c0c0" stroke-width="2" d="M3409.6151,-1461.5505C3500.0349,-1451.1759 3604.5613,-1439.573 3699.5,-1430 3879.7385,-1411.8259 3925.3925,-1413.4288 4105.5,-1394 4177.0186,-1386.2851 4254.5997,-1376.8449 4325.4845,-1367.7972"/>
<polygon fill="#c0c0c0" stroke="#c0c0c0" stroke-width="2" points="4325.9659,-1371.2642 4335.4408,-1366.5233 4325.0775,-1364.3208 4325.9659,-1371.2642"/>
</g>
<!-- 17&#45;&gt;1 -->
<g id="edge17" class="edge">
<title>17&#45;&gt;1</title>
<path fill="none" stroke="#c0c0c0" stroke-width="2" d="M2031.4038,-1275.9187C2073.4998,-1264.0445 2117.4138,-1251.6394 2158.5,-1240 2308.3555,-1197.5472 2480.8878,-1148.3851 2593.285,-1116.32"/>
<polygon fill="#c0c0c0" stroke="#c0c0c0" stroke-width="2" points="2594.3014,-1119.6697 2602.9574,-1113.5604 2592.3809,-1112.9383 2594.3014,-1119.6697"/>
</g>
<!-- 18 -->
<g id="node19" class="node">
<title>18</title>
<path fill="none" stroke="#97d856" stroke-width="2" d="M2981,-1240C2981,-1240 2446,-1240 2446,-1240 2440,-1240 2434,-1234 2434,-1228 2434,-1228 2434,-1189 2434,-1189 2434,-1183 2440,-1177 2446,-1177 2446,-1177 2981,-1177 2981,-1177 2987,-1177 2993,-1183 2993,-1189 2993,-1189 2993,-1228 2993,-1228 2993,-1234 2987,-1240 2981,-1240"/>
<text text-anchor="middle" x="2713.5" y="-1196" font-family="sans" font-size="50.00" fill="#000000">create_sparse_matrix</text>
</g>
<!-- 18&#45;&gt;1 -->
<g id="edge18" class="edge">
<title>18&#45;&gt;1</title>
<path fill="none" stroke="#c0c0c0" stroke-width="2" d="M2713.5,-1176.905C2713.5,-1160.9059 2713.5,-1141.266 2713.5,-1124.0117"/>
<polygon fill="#c0c0c0" stroke="#c0c0c0" stroke-width="2" points="2717.0001,-1123.6306 2713.5,-1113.6306 2710.0001,-1123.6307 2717.0001,-1123.6306"/>
</g>
<!-- 19 -->
<g id="node20" class="node">
<title>19</title>
<path fill="none" stroke="#97d856" stroke-width="2" d="M2138,-1240C2138,-1240 1603,-1240 1603,-1240 1597,-1240 1591,-1234 1591,-1228 1591,-1228 1591,-1189 1591,-1189 1591,-1183 1597,-1177 1603,-1177 1603,-1177 2138,-1177 2138,-1177 2144,-1177 2150,-1183 2150,-1189 2150,-1189 2150,-1228 2150,-1228 2150,-1234 2144,-1240 2138,-1240"/>
<text text-anchor="middle" x="1870.5" y="-1196" font-family="sans" font-size="50.00" fill="#000000">create_sparse_matrix</text>
</g>
<!-- 19&#45;&gt;1 -->
<g id="edge19" class="edge">
<title>19&#45;&gt;1</title>
<path fill="none" stroke="#c0c0c0" stroke-width="2" d="M2080.5073,-1176.9864C2206.3354,-1158.1048 2366.1038,-1134.13 2493.646,-1114.9911"/>
<polygon fill="#c0c0c0" stroke="#c0c0c0" stroke-width="2" points="2494.1776,-1118.4506 2503.5475,-1113.5053 2493.1388,-1111.5281 2494.1776,-1118.4506"/>
</g>
<!-- 20 -->
<g id="node21" class="node">
<title>20</title>
<path fill="none" stroke="#97d856" stroke-width="2" d="M3772,-1240C3772,-1240 3237,-1240 3237,-1240 3231,-1240 3225,-1234 3225,-1228 3225,-1228 3225,-1189 3225,-1189 3225,-1183 3231,-1177 3237,-1177 3237,-1177 3772,-1177 3772,-1177 3778,-1177 3784,-1183 3784,-1189 3784,-1189 3784,-1228 3784,-1228 3784,-1234 3778,-1240 3772,-1240"/>
<text text-anchor="middle" x="3504.5" y="-1196" font-family="sans" font-size="50.00" fill="#000000">create_sparse_matrix</text>
</g>
<!-- 20&#45;&gt;2 -->
<g id="edge21" class="edge">
<title>20&#45;&gt;2</title>
<path fill="none" stroke="#c0c0c0" stroke-width="2" d="M3494.2597,-1176.905C3491.6544,-1168.8666 3488.7512,-1159.9091 3485.7978,-1150.7969"/>
<polygon fill="#c0c0c0" stroke="#c0c0c0" stroke-width="2" points="3489.1251,-1149.7107 3482.7123,-1141.277 3482.4661,-1151.869 3489.1251,-1149.7107"/>
</g>
<!-- 21&#45;&gt;3 -->
<g id="edge23" class="edge">
<title>21&#45;&gt;3</title>
<path fill="none" stroke="#c0c0c0" stroke-width="2" d="M5275.7261,-1275.9223C5043.0718,-1226.0819 4718.3263,-1156.5132 4527.6626,-1115.6682"/>
<polygon fill="#c0c0c0" stroke="#c0c0c0" stroke-width="2" points="4528.3515,-1112.2364 4517.8402,-1113.564 4526.8851,-1119.0811 4528.3515,-1112.2364"/>
</g>
<!-- 22 -->
<g id="node23" class="node">
<title>22</title>
<path fill="none" stroke="#97d856" stroke-width="2" d="M4769,-1240C4769,-1240 4234,-1240 4234,-1240 4228,-1240 4222,-1234 4222,-1228 4222,-1228 4222,-1189 4222,-1189 4222,-1183 4228,-1177 4234,-1177 4234,-1177 4769,-1177 4769,-1177 4775,-1177 4781,-1183 4781,-1189 4781,-1189 4781,-1228 4781,-1228 4781,-1234 4775,-1240 4769,-1240"/>
<text text-anchor="middle" x="4501.5" y="-1196" font-family="sans" font-size="50.00" fill="#000000">create_sparse_matrix</text>
</g>
<!-- 22&#45;&gt;3 -->
<g id="edge24" class="edge">
<title>22&#45;&gt;3</title>
<path fill="none" stroke="#c0c0c0" stroke-width="2" d="M4468.7811,-1176.905C4451.1187,-1159.8494 4429.1716,-1138.6562 4410.5004,-1120.6264"/>
<polygon fill="#c0c0c0" stroke="#c0c0c0" stroke-width="2" points="4412.8807,-1118.0593 4403.2558,-1113.6306 4408.0181,-1123.0948 4412.8807,-1118.0593"/>
</g>
<!-- 23 -->
<g id="node24" class="node">
<title>23</title>
<path fill="none" stroke="#d85656" stroke-width="2" d="M2375.5,-261C2375.5,-261 2035.5,-261 2035.5,-261 2029.5,-261 2023.5,-255 2023.5,-249 2023.5,-249 2023.5,-210 2023.5,-210 2023.5,-204 2029.5,-198 2035.5,-198 2035.5,-198 2375.5,-198 2375.5,-198 2381.5,-198 2387.5,-204 2387.5,-210 2387.5,-210 2387.5,-249 2387.5,-249 2387.5,-255 2381.5,-261 2375.5,-261"/>
<text text-anchor="middle" x="2205.5" y="-217" font-family="sans" font-size="50.00" fill="#000000">extract_umap</text>
</g>
<!-- 23&#45;&gt;4 -->
<g id="edge25" class="edge">
<title>23&#45;&gt;4</title>
<path fill="none" stroke="#c0c0c0" stroke-width="2" d="M2387.519,-201.9887C2466.6411,-190.0298 2559.982,-175.9218 2642.7484,-163.4121"/>
<polygon fill="#c0c0c0" stroke="#c0c0c0" stroke-width="2" points="2643.4232,-166.8499 2652.7878,-161.8947 2642.377,-159.9285 2643.4232,-166.8499"/>
</g>
<!-- 23&#45;&gt;6 -->
<g id="edge27" class="edge">
<title>23&#45;&gt;6</title>
<path fill="none" stroke="#c0c0c0" stroke-width="2" d="M2145.8179,-197.9036C2127.1784,-188.0356 2106.4666,-177.0706 2087.2564,-166.9004"/>
<polygon fill="#c0c0c0" stroke="#c0c0c0" stroke-width="2" points="2088.732,-163.7215 2078.2565,-162.1358 2085.4568,-169.908 2088.732,-163.7215"/>
</g>
<!-- 24 -->
<g id="node25" class="node">
<title>24</title>
<path fill="none" stroke="#d85656" stroke-width="2" d="M3872.5,-261C3872.5,-261 3532.5,-261 3532.5,-261 3526.5,-261 3520.5,-255 3520.5,-249 3520.5,-249 3520.5,-210 3520.5,-210 3520.5,-204 3526.5,-198 3532.5,-198 3532.5,-198 3872.5,-198 3872.5,-198 3878.5,-198 3884.5,-204 3884.5,-210 3884.5,-210 3884.5,-249 3884.5,-249 3884.5,-255 3878.5,-261 3872.5,-261"/>
<text text-anchor="middle" x="3702.5" y="-217" font-family="sans" font-size="50.00" fill="#000000">extract_umap</text>
</g>
<!-- 24&#45;&gt;5 -->
<g id="edge26" class="edge">
<title>24&#45;&gt;5</title>
<path fill="none" stroke="#c0c0c0" stroke-width="2" d="M3884.5749,-211.6099C4006.6869,-199.186 4171.3704,-181.6128 4326.6991,-162.0852"/>
<polygon fill="#c0c0c0" stroke="#c0c0c0" stroke-width="2" points="4327.433,-165.5205 4336.9162,-160.7962 4326.5567,-158.5755 4327.433,-165.5205"/>
</g>
<!-- 24&#45;&gt;7 -->
<g id="edge28" class="edge">
<title>24&#45;&gt;7</title>
<path fill="none" stroke="#c0c0c0" stroke-width="2" d="M3702.5,-197.9036C3702.5,-189.777 3702.5,-180.9064 3702.5,-172.3485"/>
<polygon fill="#c0c0c0" stroke="#c0c0c0" stroke-width="2" points="3706.0001,-172.1358 3702.5,-162.1358 3699.0001,-172.1358 3706.0001,-172.1358"/>
</g>
<!-- 25 -->
<g id="node26" class="node">
<title>25</title>
<path fill="none" stroke="#56a2d8" stroke-width="2" d="M5676,-1856C5676,-1856 4689,-1856 4689,-1856 4683,-1856 4677,-1850 4677,-1844 4677,-1844 4677,-1750 4677,-1750 4677,-1744 4683,-1738 4689,-1738 4689,-1738 5676,-1738 5676,-1738 5682,-1738 5688,-1744 5688,-1750 5688,-1750 5688,-1844 5688,-1844 5688,-1850 5682,-1856 5676,-1856"/>
<text text-anchor="middle" x="5182.5" y="-1812" font-family="sans" font-size="50.00" fill="#000000">kallisto_index</text>
<text text-anchor="middle" x="5182.5" y="-1757" font-family="sans" font-size="50.00" fill="#000000">fasta: gencode.v31.pc_transcripts.fa.gz</text>
</g>
<!-- 25&#45;&gt;8 -->
<g id="edge29" class="edge">
<title>25&#45;&gt;8</title>
<path fill="none" stroke="#c0c0c0" stroke-width="2" d="M5360.3297,-1737.9789C5521.5831,-1684.4595 5758.4889,-1605.8313 5922.7538,-1551.3123"/>
<polygon fill="#c0c0c0" stroke="#c0c0c0" stroke-width="2" points="5924.0944,-1554.5552 5932.4828,-1548.0833 5921.8894,-1547.9115 5924.0944,-1554.5552"/>
</g>
<!-- 25&#45;&gt;9 -->
<g id="edge30" class="edge">
<title>25&#45;&gt;9</title>
<path fill="none" stroke="#c0c0c0" stroke-width="2" d="M5171.3856,-1737.9789C5161.7088,-1686.5917 5147.673,-1612.0566 5137.4822,-1557.9402"/>
<polygon fill="#c0c0c0" stroke="#c0c0c0" stroke-width="2" points="5140.9163,-1557.2628 5135.6261,-1548.0833 5134.0372,-1558.5583 5140.9163,-1557.2628"/>
</g>
<!-- 25&#45;&gt;10 -->
<g id="edge31" class="edge">
<title>25&#45;&gt;10</title>
<path fill="none" stroke="#c0c0c0" stroke-width="2" d="M5265.8577,-1737.9789C5340.2406,-1685.3124 5448.9644,-1608.331 5525.7871,-1553.937"/>
<polygon fill="#c0c0c0" stroke="#c0c0c0" stroke-width="2" points="5527.9156,-1556.7184 5534.0544,-1548.0833 5523.8705,-1551.0055 5527.9156,-1556.7184"/>
</g>
<!-- 25&#45;&gt;12 -->
<g id="edge33" class="edge">
<title>25&#45;&gt;12</title>
<path fill="none" stroke="#c0c0c0" stroke-width="2" d="M5049.3331,-1737.9C5025.9644,-1727.5289 5001.5622,-1716.6991 4977.9529,-1706.2212"/>
<polygon fill="#c0c0c0" stroke="#c0c0c0" stroke-width="2" points="4979.1572,-1702.9265 4968.5971,-1702.069 4976.3176,-1709.3247 4979.1572,-1702.9265"/>
</g>
<!-- 26 -->
<g id="node27" class="node">
<title>26</title>
<path fill="none" stroke="#56a2d8" stroke-width="2" d="M1857,-1856C1857,-1856 826,-1856 826,-1856 820,-1856 814,-1850 814,-1844 814,-1844 814,-1750 814,-1750 814,-1744 820,-1738 826,-1738 826,-1738 1857,-1738 1857,-1738 1863,-1738 1869,-1744 1869,-1750 1869,-1750 1869,-1844 1869,-1844 1869,-1850 1863,-1856 1857,-1856"/>
<text text-anchor="middle" x="1341.5" y="-1812" font-family="sans" font-size="50.00" fill="#000000">kallisto_index</text>
<text text-anchor="middle" x="1341.5" y="-1757" font-family="sans" font-size="50.00" fill="#000000">fasta: gencode.vM22.pc_transcripts.fa.gz</text>
</g>
<!-- 26&#45;&gt;11 -->
<g id="edge32" class="edge">
<title>26&#45;&gt;11</title>
<path fill="none" stroke="#c0c0c0" stroke-width="2" d="M826.312,-1737.9602C777.606,-1727.7931 729.3378,-1715.9019 683.5,-1702 563.6245,-1665.6435 435.432,-1601.4856 347.3912,-1553.0573"/>
<polygon fill="#c0c0c0" stroke="#c0c0c0" stroke-width="2" points="348.9099,-1549.8978 338.4644,-1548.1252 345.5246,-1556.0248 348.9099,-1549.8978"/>
</g>
<!-- 26&#45;&gt;14 -->
<g id="edge35" class="edge">
<title>26&#45;&gt;14</title>
<path fill="none" stroke="#c0c0c0" stroke-width="2" d="M1460.0837,-1737.9C1480.6171,-1727.6665 1502.0465,-1716.9865 1522.8095,-1706.6386"/>
<polygon fill="#c0c0c0" stroke="#c0c0c0" stroke-width="2" points="1524.5895,-1709.6622 1531.9783,-1702.069 1521.4671,-1703.3971 1524.5895,-1709.6622"/>
</g>
<!-- 26&#45;&gt;15 -->
<g id="edge36" class="edge">
<title>26&#45;&gt;15</title>
<path fill="none" stroke="#c0c0c0" stroke-width="2" d="M1183.7721,-1737.9C1155.6034,-1727.3453 1126.1669,-1716.3156 1097.7427,-1705.6652"/>
<polygon fill="#c0c0c0" stroke="#c0c0c0" stroke-width="2" points="1098.7376,-1702.3004 1088.1453,-1702.069 1096.2815,-1708.8553 1098.7376,-1702.3004"/>
</g>
<!-- 27 -->
<g id="node28" class="node">
<title>27</title>
<path fill="none" stroke="#56a2d8" stroke-width="2" d="M4647,-1856C4647,-1856 3120,-1856 3120,-1856 3114,-1856 3108,-1850 3108,-1844 3108,-1844 3108,-1750 3108,-1750 3108,-1744 3114,-1738 3120,-1738 3120,-1738 4647,-1738 4647,-1738 4653,-1738 4659,-1744 4659,-1750 4659,-1750 4659,-1844 4659,-1844 4659,-1850 4653,-1856 4647,-1856"/>
<text text-anchor="middle" x="3883.5" y="-1812" font-family="sans" font-size="50.00" fill="#000000">kallisto_index</text>
<text text-anchor="middle" x="3883.5" y="-1757" font-family="sans" font-size="50.00" fill="#000000">fasta: GCF_000364345.1_Macaca_fascicularis_5.0_rna.fna.gz</text>
</g>
<!-- 27&#45;&gt;13 -->
<g id="edge34" class="edge">
<title>27&#45;&gt;13</title>
<path fill="none" stroke="#c0c0c0" stroke-width="2" d="M3883.5,-1737.9C3883.5,-1729.5782 3883.5,-1720.9611 3883.5,-1712.4674"/>
<polygon fill="#c0c0c0" stroke="#c0c0c0" stroke-width="2" points="3887.0001,-1712.1963 3883.5,-1702.1963 3880.0001,-1712.1963 3887.0001,-1712.1963"/>
</g>
<!-- 28 -->
<g id="node29" class="node">
<title>28</title>
<path fill="none" stroke="#d8a456" stroke-width="2" d="M3746,-1955C3746,-1955 3217,-1955 3217,-1955 3211,-1955 3205,-1949 3205,-1943 3205,-1943 3205,-1904 3205,-1904 3205,-1898 3211,-1892 3217,-1892 3217,-1892 3746,-1892 3746,-1892 3752,-1892 3758,-1898 3758,-1904 3758,-1904 3758,-1943 3758,-1943 3758,-1949 3752,-1955 3746,-1955"/>
<text text-anchor="middle" x="3481.5" y="-1911" font-family="sans" font-size="50.00" fill="#000000">download_references</text>
</g>
<!-- 28&#45;&gt;16 -->
<g id="edge37" class="edge">
<title>28&#45;&gt;16</title>
<path fill="none" stroke="#c0c0c0" stroke-width="2" d="M3204.9051,-1899.3959C3156.2954,-1889.5221 3115.9465,-1875.6074 3099.5,-1856 3019.4505,-1760.5655 3102.5138,-1602.9284 3149.6721,-1529.2671"/>
<polygon fill="#c0c0c0" stroke="#c0c0c0" stroke-width="2" points="3152.7184,-1531.0025 3155.2317,-1520.7101 3146.8485,-1527.1887 3152.7184,-1531.0025"/>
</g>
<!-- 28&#45;&gt;25 -->
<g id="edge54" class="edge">
<title>28&#45;&gt;25</title>
<path fill="none" stroke="#c0c0c0" stroke-width="2" d="M3758.2394,-1912.2693C3996.4249,-1901.5387 4349.5088,-1883.0976 4666.5976,-1856.1526"/>
<polygon fill="#c0c0c0" stroke="#c0c0c0" stroke-width="2" points="4667.2484,-1859.6099 4676.9143,-1855.2718 4666.6528,-1852.6352 4667.2484,-1859.6099"/>
</g>
<!-- 28&#45;&gt;26 -->
<g id="edge55" class="edge">
<title>28&#45;&gt;26</title>
<path fill="none" stroke="#c0c0c0" stroke-width="2" d="M3204.7472,-1907.1405C2870.6049,-1887.3887 2301.0471,-1853.7209 1879.3856,-1828.7956"/>
<polygon fill="#c0c0c0" stroke="#c0c0c0" stroke-width="2" points="1879.3299,-1825.2863 1869.1408,-1828.19 1878.9168,-1832.2741 1879.3299,-1825.2863"/>
</g>
<!-- 28&#45;&gt;27 -->
<g id="edge56" class="edge">
<title>28&#45;&gt;27</title>
<path fill="none" stroke="#c0c0c0" stroke-width="2" d="M3581.6458,-1891.9864C3613.4529,-1881.9775 3649.8079,-1870.5374 3686.0109,-1859.1452"/>
<polygon fill="#c0c0c0" stroke="#c0c0c0" stroke-width="2" points="3687.2211,-1862.4336 3695.7094,-1856.0933 3685.1199,-1855.7564 3687.2211,-1862.4336"/>
</g>
<!-- 29&#45;&gt;18 -->
<g id="edge40" class="edge">
<title>29&#45;&gt;18</title>
<path fill="none" stroke="#c0c0c0" stroke-width="2" d="M2713.5,-1303.405C2713.5,-1287.4059 2713.5,-1267.766 2713.5,-1250.5117"/>
<polygon fill="#c0c0c0" stroke="#c0c0c0" stroke-width="2" points="2717.0001,-1250.1306 2713.5,-1240.1306 2710.0001,-1250.1307 2717.0001,-1250.1306"/>
</g>
<!-- 30&#45;&gt;19 -->
<g id="edge41" class="edge">
<title>30&#45;&gt;19</title>
<path fill="none" stroke="#c0c0c0" stroke-width="2" d="M1135.3875,-1303.4864C1281.9545,-1284.548 1468.1747,-1260.4858 1616.512,-1241.3187"/>
<polygon fill="#c0c0c0" stroke="#c0c0c0" stroke-width="2" points="1617.2071,-1244.758 1626.6761,-1240.0053 1616.31,-1237.8158 1617.2071,-1244.758"/>
</g>
<!-- 31&#45;&gt;20 -->
<g id="edge42" class="edge">
<title>31&#45;&gt;20</title>
<path fill="none" stroke="#c0c0c0" stroke-width="2" d="M3635.7915,-1303.405C3611.7792,-1286.0475 3581.8385,-1264.4047 3556.6155,-1246.172"/>
<polygon fill="#c0c0c0" stroke="#c0c0c0" stroke-width="2" points="3558.4126,-1243.1524 3548.2578,-1240.1306 3554.3117,-1248.8255 3558.4126,-1243.1524"/>
</g>
<!-- 32&#45;&gt;22 -->
<g id="edge47" class="edge">
<title>32&#45;&gt;22</title>
<path fill="none" stroke="#c0c0c0" stroke-width="2" d="M4552.5161,-1303.405C4543.6724,-1286.9531 4532.7593,-1266.6514 4523.299,-1249.0526"/>
<polygon fill="#c0c0c0" stroke="#c0c0c0" stroke-width="2" points="4526.3207,-1247.2815 4518.503,-1240.1306 4520.155,-1250.5959 4526.3207,-1247.2815"/>
</g>
<!-- 33 -->
<g id="node34" class="node">
<title>33</title>
<path fill="none" stroke="#c6d856" stroke-width="2" d="M3285,-415C3285,-415 2580,-415 2580,-415 2574,-415 2568,-409 2568,-403 2568,-403 2568,-309 2568,-309 2568,-303 2574,-297 2580,-297 2580,-297 3285,-297 3285,-297 3291,-297 3297,-303 3297,-309 3297,-309 3297,-403 3297,-403 3297,-409 3291,-415 3285,-415"/>
<text text-anchor="middle" x="2932.5" y="-371" font-family="sans" font-size="50.00" fill="#000000">calculate_umap_and_cluster</text>
<text text-anchor="middle" x="2932.5" y="-316" font-family="sans" font-size="50.00" fill="#000000">dims: 50</text>
</g>
<!-- 33&#45;&gt;23 -->
<g id="edge48" class="edge">
<title>33&#45;&gt;23</title>
<path fill="none" stroke="#c0c0c0" stroke-width="2" d="M2593.2115,-296.9629C2525.7386,-285.2224 2457.1482,-273.2875 2396.7949,-262.7858"/>
<polygon fill="#c0c0c0" stroke="#c0c0c0" stroke-width="2" points="2397.2454,-259.3117 2386.7934,-261.0456 2396.0454,-266.2081 2397.2454,-259.3117"/>
</g>
<!-- 34 -->
<g id="node35" class="node">
<title>34</title>
<path fill="none" stroke="#56b9d8" stroke-width="2" d="M2562,-541.5C2562,-541.5 1849,-541.5 1849,-541.5 1843,-541.5 1837,-535.5 1837,-529.5 1837,-529.5 1837,-490.5 1837,-490.5 1837,-484.5 1843,-478.5 1849,-478.5 1849,-478.5 2562,-478.5 2562,-478.5 2568,-478.5 2574,-484.5 2574,-490.5 2574,-490.5 2574,-529.5 2574,-529.5 2574,-535.5 2568,-541.5 2562,-541.5"/>
<text text-anchor="middle" x="2205.5" y="-497.5" font-family="sans" font-size="50.00" fill="#000000">label_known_cells_with_type</text>
</g>
<!-- 34&#45;&gt;23 -->
<g id="edge49" class="edge">
<title>34&#45;&gt;23</title>
<path fill="none" stroke="#c0c0c0" stroke-width="2" d="M1978.0158,-478.4771C1906.4556,-463.5864 1840.3261,-442.8319 1818.5,-415 1786.1371,-373.7319 1784.7522,-337.1436 1818.5,-297 1844.5156,-266.054 1929.4347,-249.294 2013.1203,-240.2177"/>
<polygon fill="#c0c0c0" stroke="#c0c0c0" stroke-width="2" points="2013.7354,-243.6725 2023.3158,-239.1485 2013.0052,-236.7107 2013.7354,-243.6725"/>
</g>
<!-- 34&#45;&gt;24 -->
<g id="edge52" class="edge">
<title>34&#45;&gt;24</title>
<path fill="none" stroke="#c0c0c0" stroke-width="2" d="M2006.872,-478.4752C1937.7667,-463.1389 1872.2676,-442.0757 1851.5,-415 1819.5818,-373.3869 1815.0982,-334.7535 1851.5,-297 1880.0007,-267.441 3041.9318,-242.0707 3510.0348,-233.0297"/>
<polygon fill="#c0c0c0" stroke="#c0c0c0" stroke-width="2" points="3510.3514,-236.5244 3520.2821,-232.8323 3510.2165,-229.5257 3510.3514,-236.5244"/>
</g>
<!-- 35 -->
<g id="node36" class="node">
<title>35</title>
<path fill="none" stroke="#56d8c9" stroke-width="2" d="M2538,-387.5C2538,-387.5 1873,-387.5 1873,-387.5 1867,-387.5 1861,-381.5 1861,-375.5 1861,-375.5 1861,-336.5 1861,-336.5 1861,-330.5 1867,-324.5 1873,-324.5 1873,-324.5 2538,-324.5 2538,-324.5 2544,-324.5 2550,-330.5 2550,-336.5 2550,-336.5 2550,-375.5 2550,-375.5 2550,-381.5 2544,-387.5 2538,-387.5"/>
<text text-anchor="middle" x="2205.5" y="-343.5" font-family="sans" font-size="50.00" fill="#000000">predict_missing_cell_types</text>
</g>
<!-- 34&#45;&gt;35 -->
<g id="edge72" class="edge">
<title>34&#45;&gt;35</title>
<path fill="none" stroke="#c0c0c0" stroke-width="2" d="M2205.5,-478.4642C2205.5,-455.1844 2205.5,-423.2665 2205.5,-397.8524"/>
<polygon fill="#c0c0c0" stroke="#c0c0c0" stroke-width="2" points="2209.0001,-397.7579 2205.5,-387.7579 2202.0001,-397.7579 2209.0001,-397.7579"/>
</g>
<!-- 37 -->
<g id="node38" class="node">
<title>37</title>
<path fill="none" stroke="#56d8c9" stroke-width="2" d="M3992,-387.5C3992,-387.5 3327,-387.5 3327,-387.5 3321,-387.5 3315,-381.5 3315,-375.5 3315,-375.5 3315,-336.5 3315,-336.5 3315,-330.5 3321,-324.5 3327,-324.5 3327,-324.5 3992,-324.5 3992,-324.5 3998,-324.5 4004,-330.5 4004,-336.5 4004,-336.5 4004,-375.5 4004,-375.5 4004,-381.5 3998,-387.5 3992,-387.5"/>
<text text-anchor="middle" x="3659.5" y="-343.5" font-family="sans" font-size="50.00" fill="#000000">predict_missing_cell_types</text>
</g>
<!-- 34&#45;&gt;37 -->
<g id="edge75" class="edge">
<title>34&#45;&gt;37</title>
<path fill="none" stroke="#c0c0c0" stroke-width="2" d="M2442.5841,-478.4981C2522.786,-468.6293 2612.9315,-458.3965 2695.5,-451 2966.4416,-426.7291 3036.1849,-445.4655 3306.5,-415 3364.3099,-408.4846 3427.0517,-398.8431 3483.3851,-389.2335"/>
<polygon fill="#c0c0c0" stroke="#c0c0c0" stroke-width="2" points="3484.1969,-392.6455 3493.4604,-387.5037 3483.0123,-385.7464 3484.1969,-392.6455"/>
</g>
<!-- 35&#45;&gt;23 -->
<g id="edge50" class="edge">
<title>35&#45;&gt;23</title>
<path fill="none" stroke="#c0c0c0" stroke-width="2" d="M2205.5,-324.405C2205.5,-308.4059 2205.5,-288.766 2205.5,-271.5117"/>
<polygon fill="#c0c0c0" stroke="#c0c0c0" stroke-width="2" points="2209.0001,-271.1306 2205.5,-261.1306 2202.0001,-271.1307 2209.0001,-271.1306"/>
</g>
<!-- 36 -->
<g id="node37" class="node">
<title>36</title>
<path fill="none" stroke="#c6d856" stroke-width="2" d="M4739,-415C4739,-415 4034,-415 4034,-415 4028,-415 4022,-409 4022,-403 4022,-403 4022,-309 4022,-309 4022,-303 4028,-297 4034,-297 4034,-297 4739,-297 4739,-297 4745,-297 4751,-303 4751,-309 4751,-309 4751,-403 4751,-403 4751,-409 4745,-415 4739,-415"/>
<text text-anchor="middle" x="4386.5" y="-371" font-family="sans" font-size="50.00" fill="#000000">calculate_umap_and_cluster</text>
<text text-anchor="middle" x="4386.5" y="-316" font-family="sans" font-size="50.00" fill="#000000">dims: 50</text>
</g>
<!-- 36&#45;&gt;24 -->
<g id="edge51" class="edge">
<title>36&#45;&gt;24</title>
<path fill="none" stroke="#c0c0c0" stroke-width="2" d="M4067.0294,-296.9166C4003.836,-285.2295 3939.6122,-273.3519 3883.0387,-262.8891"/>
<polygon fill="#c0c0c0" stroke="#c0c0c0" stroke-width="2" points="3883.4029,-259.3972 3872.9331,-261.0202 3882.1298,-266.2804 3883.4029,-259.3972"/>
</g>
<!-- 37&#45;&gt;24 -->
<g id="edge53" class="edge">
<title>37&#45;&gt;24</title>
<path fill="none" stroke="#c0c0c0" stroke-width="2" d="M3670.2398,-324.405C3675.7295,-308.255 3682.4803,-288.3951 3688.3851,-271.024"/>
<polygon fill="#c0c0c0" stroke="#c0c0c0" stroke-width="2" points="3691.8435,-271.725 3691.7481,-261.1306 3685.2159,-269.4721 3691.8435,-271.725"/>
</g>
<!-- 38&#45;&gt;29 -->
<g id="edge57" class="edge">
<title>38&#45;&gt;29</title>
<path fill="none" stroke="#c0c0c0" stroke-width="2" d="M2066.9845,-1457.4642C2203.8795,-1431.5333 2397.3544,-1394.8849 2536.9346,-1368.4453"/>
<polygon fill="#c0c0c0" stroke="#c0c0c0" stroke-width="2" points="2537.7159,-1371.8597 2546.8897,-1366.5596 2536.413,-1364.982 2537.7159,-1371.8597"/>
</g>
<!-- 39&#45;&gt;30 -->
<g id="edge60" class="edge">
<title>39&#45;&gt;30</title>
<path fill="none" stroke="#c0c0c0" stroke-width="2" d="M841.401,-1457.4642C851.0092,-1433.9774 864.2143,-1401.6984 874.6552,-1376.1762"/>
<polygon fill="#c0c0c0" stroke="#c0c0c0" stroke-width="2" points="877.9612,-1377.3386 878.5081,-1366.7579 871.4823,-1374.6881 877.9612,-1377.3386"/>
</g>
<!-- 40&#45;&gt;31 -->
<g id="edge63" class="edge">
<title>40&#45;&gt;31</title>
<path fill="none" stroke="#c0c0c0" stroke-width="2" d="M3841.7253,-1457.4642C3809.2424,-1432.9428 3764.0638,-1398.8374 3729.6309,-1372.8439"/>
<polygon fill="#c0c0c0" stroke="#c0c0c0" stroke-width="2" points="3731.6589,-1369.9895 3721.5689,-1366.7579 3727.4413,-1375.5764 3731.6589,-1369.9895"/>
</g>
<!-- 41&#45;&gt;32 -->
<g id="edge66" class="edge">
<title>41&#45;&gt;32</title>
<path fill="none" stroke="#c0c0c0" stroke-width="2" d="M4586.9949,-1457.4642C4583.6692,-1434.1844 4579.1095,-1402.2665 4575.4789,-1376.8524"/>
<polygon fill="#c0c0c0" stroke="#c0c0c0" stroke-width="2" points="4578.916,-1376.1624 4574.0368,-1366.7579 4571.9863,-1377.1524 4578.916,-1376.1624"/>
</g>
<!-- 42 -->
<g id="node43" class="node">
<title>42</title>
<path fill="none" stroke="#d88556" stroke-width="2" d="M3148.5,-569C3148.5,-569 2716.5,-569 2716.5,-569 2710.5,-569 2704.5,-563 2704.5,-557 2704.5,-557 2704.5,-463 2704.5,-463 2704.5,-457 2710.5,-451 2716.5,-451 2716.5,-451 3148.5,-451 3148.5,-451 3154.5,-451 3160.5,-457 3160.5,-463 3160.5,-463 3160.5,-557 3160.5,-557 3160.5,-563 3154.5,-569 3148.5,-569"/>
<text text-anchor="middle" x="2932.5" y="-525" font-family="sans" font-size="50.00" fill="#000000">integrate</text>
<text text-anchor="middle" x="2932.5" y="-470" font-family="sans" font-size="50.00" fill="#000000">method: fastMNN</text>
</g>
<!-- 42&#45;&gt;33 -->
<g id="edge69" class="edge">
<title>42&#45;&gt;33</title>
<path fill="none" stroke="#c0c0c0" stroke-width="2" d="M2932.5,-450.9C2932.5,-442.5782 2932.5,-433.9611 2932.5,-425.4674"/>
<polygon fill="#c0c0c0" stroke="#c0c0c0" stroke-width="2" points="2936.0001,-425.1963 2932.5,-415.1963 2929.0001,-425.1963 2936.0001,-425.1963"/>
</g>
<!-- 42&#45;&gt;35 -->
<g id="edge71" class="edge">
<title>42&#45;&gt;35</title>
<path fill="none" stroke="#c0c0c0" stroke-width="2" d="M2704.4673,-461.696C2593.9454,-438.2842 2463.926,-410.7422 2364.323,-389.6434"/>
<polygon fill="#c0c0c0" stroke="#c0c0c0" stroke-width="2" points="2364.984,-386.2058 2354.4758,-387.5575 2363.5333,-393.0539 2364.984,-386.2058"/>
</g>
<!-- 43&#45;&gt;34 -->
<g id="edge70" class="edge">
<title>43&#45;&gt;34</title>
<path fill="none" stroke="#c0c0c0" stroke-width="2" d="M3108.5661,-946.8683C2907.4901,-935.287 2587.069,-913.2317 2537.5,-888 2385.3496,-810.5523 2271.9908,-631.001 2226.8887,-550.4187"/>
<polygon fill="#c0c0c0" stroke="#c0c0c0" stroke-width="2" points="2229.8864,-548.607 2221.9799,-541.5544 2223.7626,-551.9982 2229.8864,-548.607"/>
</g>
<!-- 43&#45;&gt;45 -->
<g id="edge85" class="edge">
<title>43&#45;&gt;45</title>
<path fill="none" stroke="#c0c0c0" stroke-width="2" d="M3286.9285,-923.7574C3290.4686,-915.969 3294.4953,-907.1103 3298.8162,-897.6045"/>
<polygon fill="#c0c0c0" stroke="#c0c0c0" stroke-width="2" points="3302.0908,-898.8582 3303.0426,-888.3062 3295.7183,-895.9615 3302.0908,-898.8582"/>
</g>
<!-- 44 -->
<g id="node45" class="node">
<title>44</title>
<path fill="none" stroke="#d88556" stroke-width="2" d="M3821.5,-569C3821.5,-569 3497.5,-569 3497.5,-569 3491.5,-569 3485.5,-563 3485.5,-557 3485.5,-557 3485.5,-463 3485.5,-463 3485.5,-457 3491.5,-451 3497.5,-451 3497.5,-451 3821.5,-451 3821.5,-451 3827.5,-451 3833.5,-457 3833.5,-463 3833.5,-463 3833.5,-557 3833.5,-557 3833.5,-563 3827.5,-569 3821.5,-569"/>
<text text-anchor="middle" x="3659.5" y="-525" font-family="sans" font-size="50.00" fill="#000000">integrate</text>
<text text-anchor="middle" x="3659.5" y="-470" font-family="sans" font-size="50.00" fill="#000000">method: CCA</text>
</g>
<!-- 44&#45;&gt;36 -->
<g id="edge73" class="edge">
<title>44&#45;&gt;36</title>
<path fill="none" stroke="#c0c0c0" stroke-width="2" d="M3833.6346,-473.1132C3912.69,-456.3669 4008.3246,-436.1087 4097.6695,-417.1828"/>
<polygon fill="#c0c0c0" stroke="#c0c0c0" stroke-width="2" points="4098.6321,-420.5566 4107.6897,-415.0602 4097.1814,-413.7086 4098.6321,-420.5566"/>
</g>
<!-- 44&#45;&gt;37 -->
<g id="edge74" class="edge">
<title>44&#45;&gt;37</title>
<path fill="none" stroke="#c0c0c0" stroke-width="2" d="M3659.5,-450.9C3659.5,-433.2266 3659.5,-414.2212 3659.5,-397.8949"/>
<polygon fill="#c0c0c0" stroke="#c0c0c0" stroke-width="2" points="3663.0001,-397.594 3659.5,-387.594 3656.0001,-397.594 3663.0001,-397.594"/>
</g>
<!-- 45&#45;&gt;42 -->
<g id="edge80" class="edge">
<title>45&#45;&gt;42</title>
<path fill="none" stroke="#c0c0c0" stroke-width="2" d="M3106.9247,-604.8309C3087.3559,-594.1918 3068.2718,-583.8161 3050.3406,-574.0674"/>
<polygon fill="#c0c0c0" stroke="#c0c0c0" stroke-width="2" points="3051.5297,-570.73 3041.0724,-569.0284 3048.1861,-576.8799 3051.5297,-570.73"/>
</g>
<!-- 45&#45;&gt;44 -->
<g id="edge84" class="edge">
<title>45&#45;&gt;44</title>
<path fill="none" stroke="#c0c0c0" stroke-width="2" d="M3542.4149,-604.8309C3554.9482,-594.6798 3567.1853,-584.7686 3578.7366,-575.4128"/>
<polygon fill="#c0c0c0" stroke="#c0c0c0" stroke-width="2" points="3581.0512,-578.0422 3586.6192,-569.0284 3576.6454,-572.6025 3581.0512,-578.0422"/>
</g>
</g>
</svg>
