<?xml version="1.0" encoding="UTF-8" standalone="no"?>
<!DOCTYPE svg PUBLIC "-//W3C//DTD SVG 1.1//EN"
 "http://www.w3.org/Graphics/SVG/1.1/DTD/svg11.dtd">
<!-- Generated by graphviz version 2.40.1 (20161225.0304)
 -->
<!-- Title: snakemake_dag Pages: 1 -->
<svg width="1531pt" height="620pt"
 viewBox="0.00 0.00 1531.00 620.00" xmlns="http://www.w3.org/2000/svg" xmlns:xlink="http://www.w3.org/1999/xlink">
<g id="graph0" class="graph" transform="scale(1 1) rotate(0) translate(4 616)">
<title>snakemake_dag</title>
<polygon fill="#ffffff" stroke="transparent" points="-4,4 -4,-616 1527,-616 1527,4 -4,4"/>
<!-- 0 -->
<g id="node1" class="node">
<title>0</title>
<path fill="none" stroke="#56d8a9" stroke-width="2" d="M765,-36C765,-36 735,-36 735,-36 729,-36 723,-30 723,-24 723,-24 723,-12 723,-12 723,-6 729,0 735,0 735,0 765,0 765,0 771,0 777,-6 777,-12 777,-12 777,-24 777,-24 777,-30 771,-36 765,-36"/>
<text text-anchor="middle" x="750" y="-15.5" font-family="sans" font-size="10.00" fill="#000000">all</text>
</g>
<!-- 1 -->
<g id="node2" class="node">
<title>1</title>
<path fill="none" stroke="#56a9d8" stroke-width="2" d="M631,-108C631,-108 541,-108 541,-108 535,-108 529,-102 529,-96 529,-96 529,-84 529,-84 529,-78 535,-72 541,-72 541,-72 631,-72 631,-72 637,-72 643,-78 643,-84 643,-84 643,-96 643,-96 643,-102 637,-108 631,-108"/>
<text text-anchor="middle" x="586" y="-87.5" font-family="sans" font-size="10.00" fill="#000000">seurat_sct_combine</text>
</g>
<!-- 1&#45;&gt;0 -->
<g id="edge1" class="edge">
<title>1&#45;&gt;0</title>
<path fill="none" stroke="#c0c0c0" stroke-width="2" d="M627.3841,-71.8314C653.8043,-60.2323 687.7503,-45.3291 713.2238,-34.1457"/>
<polygon fill="#c0c0c0" stroke="#c0c0c0" stroke-width="2" points="714.7891,-37.281 722.5385,-30.0563 711.9751,-30.8715 714.7891,-37.281"/>
</g>
<!-- 2 -->
<g id="node3" class="node">
<title>2</title>
<path fill="none" stroke="#56a9d8" stroke-width="2" d="M896,-108C896,-108 806,-108 806,-108 800,-108 794,-102 794,-96 794,-96 794,-84 794,-84 794,-78 800,-72 806,-72 806,-72 896,-72 896,-72 902,-72 908,-78 908,-84 908,-84 908,-96 908,-96 908,-102 902,-108 896,-108"/>
<text text-anchor="middle" x="851" y="-87.5" font-family="sans" font-size="10.00" fill="#000000">seurat_sct_combine</text>
</g>
<!-- 2&#45;&gt;0 -->
<g id="edge2" class="edge">
<title>2&#45;&gt;0</title>
<path fill="none" stroke="#c0c0c0" stroke-width="2" d="M825.5134,-71.8314C812.8341,-62.7927 797.3404,-51.7476 783.6945,-42.0198"/>
<polygon fill="#c0c0c0" stroke="#c0c0c0" stroke-width="2" points="785.6529,-39.1176 775.4784,-36.1628 781.5895,-44.8176 785.6529,-39.1176"/>
</g>
<!-- 3 -->
<g id="node4" class="node">
<title>3</title>
<path fill="none" stroke="#59d856" stroke-width="2" d="M648,-180C648,-180 560,-180 560,-180 554,-180 548,-174 548,-168 548,-168 548,-156 548,-156 548,-150 554,-144 560,-144 560,-144 648,-144 648,-144 654,-144 660,-150 660,-156 660,-156 660,-168 660,-168 660,-174 654,-180 648,-180"/>
<text text-anchor="middle" x="604" y="-159.5" font-family="sans" font-size="10.00" fill="#000000">seurat_scTransform</text>
</g>
<!-- 3&#45;&gt;0 -->
<g id="edge3" class="edge">
<title>3&#45;&gt;0</title>
<path fill="none" stroke="#c0c0c0" stroke-width="2" d="M622.455,-143.7087C640.8257,-125.5103 669.8349,-96.7979 695,-72 704.457,-62.681 714.8452,-52.4741 724.0221,-43.4673"/>
<polygon fill="#c0c0c0" stroke="#c0c0c0" stroke-width="2" points="726.712,-45.7316 731.3989,-36.2298 721.8096,-40.7349 726.712,-45.7316"/>
</g>
<!-- 3&#45;&gt;1 -->
<g id="edge16" class="edge">
<title>3&#45;&gt;1</title>
<path fill="none" stroke="#c0c0c0" stroke-width="2" d="M599.4578,-143.8314C597.5116,-136.0463 595.1932,-126.7729 593.0337,-118.1347"/>
<polygon fill="#c0c0c0" stroke="#c0c0c0" stroke-width="2" points="596.4242,-117.2658 590.6033,-108.4133 589.6332,-118.9636 596.4242,-117.2658"/>
</g>
<!-- 4 -->
<g id="node5" class="node">
<title>4</title>
<path fill="none" stroke="#59d856" stroke-width="2" d="M1173,-180C1173,-180 1085,-180 1085,-180 1079,-180 1073,-174 1073,-168 1073,-168 1073,-156 1073,-156 1073,-150 1079,-144 1085,-144 1085,-144 1173,-144 1173,-144 1179,-144 1185,-150 1185,-156 1185,-156 1185,-168 1185,-168 1185,-174 1179,-180 1173,-180"/>
<text text-anchor="middle" x="1129" y="-159.5" font-family="sans" font-size="10.00" fill="#000000">seurat_scTransform</text>
</g>
<!-- 4&#45;&gt;0 -->
<g id="edge4" class="edge">
<title>4&#45;&gt;0</title>
<path fill="none" stroke="#c0c0c0" stroke-width="2" d="M1120.1746,-143.8547C1108.9925,-122.9397 1087.6692,-89.2391 1059,-72 1013.6269,-44.7168 858.9238,-27.7268 787.1421,-21.1331"/>
<polygon fill="#c0c0c0" stroke="#c0c0c0" stroke-width="2" points="787.4496,-17.6468 777.176,-20.2358 786.8218,-24.6185 787.4496,-17.6468"/>
</g>
<!-- 5 -->
<g id="node6" class="node">
<title>5</title>
<path fill="none" stroke="#59d856" stroke-width="2" d="M1005,-180C1005,-180 917,-180 917,-180 911,-180 905,-174 905,-168 905,-168 905,-156 905,-156 905,-150 911,-144 917,-144 917,-144 1005,-144 1005,-144 1011,-144 1017,-150 1017,-156 1017,-156 1017,-168 1017,-168 1017,-174 1011,-180 1005,-180"/>
<text text-anchor="middle" x="961" y="-159.5" font-family="sans" font-size="10.00" fill="#000000">seurat_scTransform</text>
</g>
<!-- 5&#45;&gt;0 -->
<g id="edge5" class="edge">
<title>5&#45;&gt;0</title>
<path fill="none" stroke="#c0c0c0" stroke-width="2" d="M956.7,-143.83C950.9816,-123.5312 938.9431,-91.0296 917,-72 880.2291,-40.1114 824.3286,-26.9936 787.4861,-21.6372"/>
<polygon fill="#c0c0c0" stroke="#c0c0c0" stroke-width="2" points="787.5433,-18.1142 777.1695,-20.2673 786.6218,-25.0533 787.5433,-18.1142"/>
</g>
<!-- 5&#45;&gt;2 -->
<g id="edge18" class="edge">
<title>5&#45;&gt;2</title>
<path fill="none" stroke="#c0c0c0" stroke-width="2" d="M933.2424,-143.8314C919.303,-134.7074 902.2402,-123.539 887.2769,-113.7449"/>
<polygon fill="#c0c0c0" stroke="#c0c0c0" stroke-width="2" points="889.0326,-110.711 878.7488,-108.1628 885.199,-116.5679 889.0326,-110.711"/>
</g>
<!-- 6 -->
<g id="node7" class="node">
<title>6</title>
<path fill="none" stroke="#59d856" stroke-width="2" d="M837,-180C837,-180 749,-180 749,-180 743,-180 737,-174 737,-168 737,-168 737,-156 737,-156 737,-150 743,-144 749,-144 749,-144 837,-144 837,-144 843,-144 849,-150 849,-156 849,-156 849,-168 849,-168 849,-174 843,-180 837,-180"/>
<text text-anchor="middle" x="793" y="-159.5" font-family="sans" font-size="10.00" fill="#000000">seurat_scTransform</text>
</g>
<!-- 6&#45;&gt;0 -->
<g id="edge6" class="edge">
<title>6&#45;&gt;0</title>
<path fill="none" stroke="#c0c0c0" stroke-width="2" d="M787.554,-143.7623C780.1874,-119.0928 766.979,-74.8598 758.3531,-45.9731"/>
<polygon fill="#c0c0c0" stroke="#c0c0c0" stroke-width="2" points="761.6168,-44.6701 755.4018,-36.0896 754.9094,-46.673 761.6168,-44.6701"/>
</g>
<!-- 6&#45;&gt;2 -->
<g id="edge19" class="edge">
<title>6&#45;&gt;2</title>
<path fill="none" stroke="#c0c0c0" stroke-width="2" d="M807.6358,-143.8314C814.3161,-135.5386 822.3568,-125.557 829.6904,-116.4533"/>
<polygon fill="#c0c0c0" stroke="#c0c0c0" stroke-width="2" points="832.6194,-118.3965 836.1671,-108.4133 827.1681,-114.0052 832.6194,-118.3965"/>
</g>
<!-- 7 -->
<g id="node8" class="node">
<title>7</title>
<path fill="none" stroke="#afd856" stroke-width="2" d="M550,-252C550,-252 452,-252 452,-252 446,-252 440,-246 440,-240 440,-240 440,-228 440,-228 440,-222 446,-216 452,-216 452,-216 550,-216 550,-216 556,-216 562,-222 562,-228 562,-228 562,-240 562,-240 562,-246 556,-252 550,-252"/>
<text text-anchor="middle" x="501" y="-231.5" font-family="sans" font-size="10.00" fill="#000000">create_sparse_matrix</text>
</g>
<!-- 7&#45;&gt;0 -->
<g id="edge7" class="edge">
<title>7&#45;&gt;0</title>
<path fill="none" stroke="#c0c0c0" stroke-width="2" d="M497.0887,-215.7776C491.1386,-182.6732 483.9927,-112.3593 520,-72 545.256,-43.6914 654.1075,-28.0982 712.5543,-21.6255"/>
<polygon fill="#c0c0c0" stroke="#c0c0c0" stroke-width="2" points="713.2794,-25.0679 722.8495,-20.522 712.5334,-18.1078 713.2794,-25.0679"/>
</g>
<!-- 7&#45;&gt;3 -->
<g id="edge21" class="edge">
<title>7&#45;&gt;3</title>
<path fill="none" stroke="#c0c0c0" stroke-width="2" d="M526.9912,-215.8314C539.9216,-206.7927 555.7222,-195.7476 569.6383,-186.0198"/>
<polygon fill="#c0c0c0" stroke="#c0c0c0" stroke-width="2" points="571.8263,-188.7608 578.0171,-180.1628 567.8157,-183.0235 571.8263,-188.7608"/>
</g>
<!-- 8 -->
<g id="node9" class="node">
<title>8</title>
<path fill="none" stroke="#afd856" stroke-width="2" d="M1457,-252C1457,-252 1359,-252 1359,-252 1353,-252 1347,-246 1347,-240 1347,-240 1347,-228 1347,-228 1347,-222 1353,-216 1359,-216 1359,-216 1457,-216 1457,-216 1463,-216 1469,-222 1469,-228 1469,-228 1469,-240 1469,-240 1469,-246 1463,-252 1457,-252"/>
<text text-anchor="middle" x="1408" y="-231.5" font-family="sans" font-size="10.00" fill="#000000">create_sparse_matrix</text>
</g>
<!-- 8&#45;&gt;0 -->
<g id="edge8" class="edge">
<title>8&#45;&gt;0</title>
<path fill="none" stroke="#c0c0c0" stroke-width="2" d="M1405.5319,-215.9322C1399.7703,-181.4443 1381.9902,-106.5905 1333,-72 1288.4665,-40.5563 909.172,-23.8913 787.4417,-19.3169"/>
<polygon fill="#c0c0c0" stroke="#c0c0c0" stroke-width="2" points="787.2626,-15.8079 777.1399,-18.9357 787.0036,-22.8032 787.2626,-15.8079"/>
</g>
<!-- 8&#45;&gt;4 -->
<g id="edge23" class="edge">
<title>8&#45;&gt;4</title>
<path fill="none" stroke="#c0c0c0" stroke-width="2" d="M1346.7723,-218.1993C1301.9398,-206.6296 1241.1603,-190.9446 1195.2038,-179.0848"/>
<polygon fill="#c0c0c0" stroke="#c0c0c0" stroke-width="2" points="1195.8965,-175.649 1185.3391,-176.5391 1194.1473,-182.427 1195.8965,-175.649"/>
</g>
<!-- 9 -->
<g id="node10" class="node">
<title>9</title>
<path fill="none" stroke="#afd856" stroke-width="2" d="M1015,-252C1015,-252 917,-252 917,-252 911,-252 905,-246 905,-240 905,-240 905,-228 905,-228 905,-222 911,-216 917,-216 917,-216 1015,-216 1015,-216 1021,-216 1027,-222 1027,-228 1027,-228 1027,-240 1027,-240 1027,-246 1021,-252 1015,-252"/>
<text text-anchor="middle" x="966" y="-231.5" font-family="sans" font-size="10.00" fill="#000000">create_sparse_matrix</text>
</g>
<!-- 9&#45;&gt;0 -->
<g id="edge9" class="edge">
<title>9&#45;&gt;0</title>
<path fill="none" stroke="#c0c0c0" stroke-width="2" d="M995.2184,-215.8172C1007.1119,-206.6828 1019.5573,-194.4662 1026,-180 1032.5094,-165.384 1032.6426,-158.5559 1026,-144 984.4663,-52.9876 852.6451,-27.667 787.3662,-20.6594"/>
<polygon fill="#c0c0c0" stroke="#c0c0c0" stroke-width="2" points="787.4041,-17.1463 777.1097,-19.6511 786.7193,-24.1128 787.4041,-17.1463"/>
</g>
<!-- 9&#45;&gt;5 -->
<g id="edge25" class="edge">
<title>9&#45;&gt;5</title>
<path fill="none" stroke="#c0c0c0" stroke-width="2" d="M964.7383,-215.8314C964.2035,-208.131 963.5677,-198.9743 962.9734,-190.4166"/>
<polygon fill="#c0c0c0" stroke="#c0c0c0" stroke-width="2" points="966.4632,-190.1467 962.2787,-180.4133 959.48,-190.6317 966.4632,-190.1467"/>
</g>
<!-- 10 -->
<g id="node11" class="node">
<title>10</title>
<path fill="none" stroke="#afd856" stroke-width="2" d="M761,-252C761,-252 663,-252 663,-252 657,-252 651,-246 651,-240 651,-240 651,-228 651,-228 651,-222 657,-216 663,-216 663,-216 761,-216 761,-216 767,-216 773,-222 773,-228 773,-228 773,-240 773,-240 773,-246 767,-252 761,-252"/>
<text text-anchor="middle" x="712" y="-231.5" font-family="sans" font-size="10.00" fill="#000000">create_sparse_matrix</text>
</g>
<!-- 10&#45;&gt;0 -->
<g id="edge10" class="edge">
<title>10&#45;&gt;0</title>
<path fill="none" stroke="#c0c0c0" stroke-width="2" d="M715.1745,-215.9555C721.7965,-178.3144 737.1246,-91.1867 745.0522,-46.1246"/>
<polygon fill="#c0c0c0" stroke="#c0c0c0" stroke-width="2" points="748.5221,-46.6003 746.8078,-36.1451 741.628,-45.3874 748.5221,-46.6003"/>
</g>
<!-- 10&#45;&gt;6 -->
<g id="edge27" class="edge">
<title>10&#45;&gt;6</title>
<path fill="none" stroke="#c0c0c0" stroke-width="2" d="M732.4397,-215.8314C742.3205,-207.0485 754.3324,-196.3712 765.045,-186.8489"/>
<polygon fill="#c0c0c0" stroke="#c0c0c0" stroke-width="2" points="767.418,-189.4224 772.5668,-180.1628 762.7674,-184.1906 767.418,-189.4224"/>
</g>
<!-- 11 -->
<g id="node12" class="node">
<title>11</title>
<path fill="none" stroke="#56d882" stroke-width="2" d="M90,-396C90,-396 12,-396 12,-396 6,-396 0,-390 0,-384 0,-384 0,-372 0,-372 0,-366 6,-360 12,-360 12,-360 90,-360 90,-360 96,-360 102,-366 102,-372 102,-372 102,-384 102,-384 102,-390 96,-396 90,-396"/>
<text text-anchor="middle" x="51" y="-381" font-family="sans" font-size="10.00" fill="#000000">kallisto_quant</text>
<text text-anchor="middle" x="51" y="-370" font-family="sans" font-size="10.00" fill="#000000">SRS: SRS3732876</text>
</g>
<!-- 11&#45;&gt;0 -->
<g id="edge11" class="edge">
<title>11&#45;&gt;0</title>
<path fill="none" stroke="#c0c0c0" stroke-width="2" d="M51,-359.8146C51,-332.4983 51,-279.25 51,-234 51,-234 51,-234 51,-162 51,-115.3524 65.4022,-96.658 105,-72 156.6669,-39.8265 582.8713,-23.4331 712.6451,-19.1544"/>
<polygon fill="#c0c0c0" stroke="#c0c0c0" stroke-width="2" points="712.9911,-22.6451 722.8722,-18.8222 712.7638,-15.6488 712.9911,-22.6451"/>
</g>
<!-- 15 -->
<g id="node16" class="node">
<title>15</title>
<path fill="none" stroke="#d85656" stroke-width="2" d="M334.5,-324C334.5,-324 167.5,-324 167.5,-324 161.5,-324 155.5,-318 155.5,-312 155.5,-312 155.5,-300 155.5,-300 155.5,-294 161.5,-288 167.5,-288 167.5,-288 334.5,-288 334.5,-288 340.5,-288 346.5,-294 346.5,-300 346.5,-300 346.5,-312 346.5,-312 346.5,-318 340.5,-324 334.5,-324"/>
<text text-anchor="middle" x="251" y="-309" font-family="sans" font-size="10.00" fill="#000000">merge_nonUMI_quant_by_organism</text>
<text text-anchor="middle" x="251" y="-298" font-family="sans" font-size="10.00" fill="#000000">organism: Homo_sapiens</text>
</g>
<!-- 11&#45;&gt;15 -->
<g id="edge36" class="edge">
<title>11&#45;&gt;15</title>
<path fill="none" stroke="#c0c0c0" stroke-width="2" d="M101.2103,-359.9243C128.5515,-350.0815 162.5594,-337.8386 191.2575,-327.5073"/>
<polygon fill="#c0c0c0" stroke="#c0c0c0" stroke-width="2" points="192.5457,-330.7635 200.7691,-324.0831 190.1746,-324.1773 192.5457,-330.7635"/>
</g>
<!-- 12 -->
<g id="node13" class="node">
<title>12</title>
<path fill="none" stroke="#56d882" stroke-width="2" d="M210,-396C210,-396 132,-396 132,-396 126,-396 120,-390 120,-384 120,-384 120,-372 120,-372 120,-366 126,-360 132,-360 132,-360 210,-360 210,-360 216,-360 222,-366 222,-372 222,-372 222,-384 222,-384 222,-390 216,-396 210,-396"/>
<text text-anchor="middle" x="171" y="-381" font-family="sans" font-size="10.00" fill="#000000">kallisto_quant</text>
<text text-anchor="middle" x="171" y="-370" font-family="sans" font-size="10.00" fill="#000000">SRS: SRS2166836</text>
</g>
<!-- 12&#45;&gt;0 -->
<g id="edge12" class="edge">
<title>12&#45;&gt;0</title>
<path fill="none" stroke="#c0c0c0" stroke-width="2" d="M152.3929,-359.8719C128.1995,-334.2662 89,-284.9215 89,-234 89,-234 89,-234 89,-162 89,-109.3582 119.2499,-96.1988 166,-72 214.4416,-46.9256 590.9611,-25.9933 712.3886,-19.837"/>
<polygon fill="#c0c0c0" stroke="#c0c0c0" stroke-width="2" points="712.8582,-23.3179 722.6699,-19.3203 712.5068,-16.3268 712.8582,-23.3179"/>
</g>
<!-- 12&#45;&gt;15 -->
<g id="edge37" class="edge">
<title>12&#45;&gt;15</title>
<path fill="none" stroke="#c0c0c0" stroke-width="2" d="M191.1874,-359.8314C200.8514,-351.1337 212.5796,-340.5783 223.0816,-331.1265"/>
<polygon fill="#c0c0c0" stroke="#c0c0c0" stroke-width="2" points="225.7275,-333.454 230.8191,-324.1628 221.0447,-328.251 225.7275,-333.454"/>
</g>
<!-- 13 -->
<g id="node14" class="node">
<title>13</title>
<path fill="none" stroke="#56d882" stroke-width="2" d="M330,-396C330,-396 252,-396 252,-396 246,-396 240,-390 240,-384 240,-384 240,-372 240,-372 240,-366 246,-360 252,-360 252,-360 330,-360 330,-360 336,-360 342,-366 342,-372 342,-372 342,-384 342,-384 342,-390 336,-396 330,-396"/>
<text text-anchor="middle" x="291" y="-381" font-family="sans" font-size="10.00" fill="#000000">kallisto_quant</text>
<text text-anchor="middle" x="291" y="-370" font-family="sans" font-size="10.00" fill="#000000">SRS: SRS3106664</text>
</g>
<!-- 13&#45;&gt;0 -->
<g id="edge13" class="edge">
<title>13&#45;&gt;0</title>
<path fill="none" stroke="#c0c0c0" stroke-width="2" d="M239.9973,-361.6879C200.903,-348.7446 152.5533,-331.6062 146,-324 119.3155,-293.0283 127,-274.8816 127,-234 127,-234 127,-234 127,-162 127,-41.0807 578.1538,-21.6812 712.6176,-18.5846"/>
<polygon fill="#c0c0c0" stroke="#c0c0c0" stroke-width="2" points="712.9067,-22.0793 722.8299,-18.3672 712.7576,-15.0809 712.9067,-22.0793"/>
</g>
<!-- 13&#45;&gt;15 -->
<g id="edge38" class="edge">
<title>13&#45;&gt;15</title>
<path fill="none" stroke="#c0c0c0" stroke-width="2" d="M280.9063,-359.8314C276.4403,-351.7925 271.0925,-342.1666 266.1621,-333.2918"/>
<polygon fill="#c0c0c0" stroke="#c0c0c0" stroke-width="2" points="269.1456,-331.4551 261.2296,-324.4133 263.0265,-334.8546 269.1456,-331.4551"/>
</g>
<!-- 14 -->
<g id="node15" class="node">
<title>14</title>
<path fill="none" stroke="#56d882" stroke-width="2" d="M1244,-396C1244,-396 1166,-396 1166,-396 1160,-396 1154,-390 1154,-384 1154,-384 1154,-372 1154,-372 1154,-366 1160,-360 1166,-360 1166,-360 1244,-360 1244,-360 1250,-360 1256,-366 1256,-372 1256,-372 1256,-384 1256,-384 1256,-390 1250,-396 1244,-396"/>
<text text-anchor="middle" x="1205" y="-381" font-family="sans" font-size="10.00" fill="#000000">kallisto_quant</text>
<text text-anchor="middle" x="1205" y="-370" font-family="sans" font-size="10.00" fill="#000000">SRS: SRS3675268</text>
</g>
<!-- 14&#45;&gt;0 -->
<g id="edge14" class="edge">
<title>14&#45;&gt;0</title>
<path fill="none" stroke="#c0c0c0" stroke-width="2" d="M1254.3802,-359.8492C1271.1838,-351.3711 1288.5842,-339.6247 1300,-324 1324.1178,-290.9903 1319,-274.8816 1319,-234 1319,-234 1319,-234 1319,-162 1319,-51.9715 914.0866,-25.1044 787.4114,-19.3914"/>
<polygon fill="#c0c0c0" stroke="#c0c0c0" stroke-width="2" points="787.203,-15.8792 777.0613,-18.9442 786.9008,-22.8727 787.203,-15.8792"/>
</g>
<!-- 16 -->
<g id="node17" class="node">
<title>16</title>
<path fill="none" stroke="#d85656" stroke-width="2" d="M1084.5,-324C1084.5,-324 917.5,-324 917.5,-324 911.5,-324 905.5,-318 905.5,-312 905.5,-312 905.5,-300 905.5,-300 905.5,-294 911.5,-288 917.5,-288 917.5,-288 1084.5,-288 1084.5,-288 1090.5,-288 1096.5,-294 1096.5,-300 1096.5,-300 1096.5,-312 1096.5,-312 1096.5,-318 1090.5,-324 1084.5,-324"/>
<text text-anchor="middle" x="1001" y="-309" font-family="sans" font-size="10.00" fill="#000000">merge_nonUMI_quant_by_organism</text>
<text text-anchor="middle" x="1001" y="-298" font-family="sans" font-size="10.00" fill="#000000">organism: Mus_musculus</text>
</g>
<!-- 14&#45;&gt;16 -->
<g id="edge40" class="edge">
<title>14&#45;&gt;16</title>
<path fill="none" stroke="#c0c0c0" stroke-width="2" d="M1153.7855,-359.9243C1125.8975,-350.0815 1091.2094,-337.8386 1061.9373,-327.5073"/>
<polygon fill="#c0c0c0" stroke="#c0c0c0" stroke-width="2" points="1062.8304,-324.1109 1052.2356,-324.0831 1060.5006,-330.7119 1062.8304,-324.1109"/>
</g>
<!-- 15&#45;&gt;1 -->
<g id="edge15" class="edge">
<title>15&#45;&gt;1</title>
<path fill="none" stroke="#c0c0c0" stroke-width="2" d="M278.9857,-287.9555C339.3348,-249.0438 481.7029,-157.2483 549.2297,-113.7086"/>
<polygon fill="#c0c0c0" stroke="#c0c0c0" stroke-width="2" points="551.3505,-116.5057 557.8583,-108.1451 547.5572,-110.6225 551.3505,-116.5057"/>
</g>
<!-- 16&#45;&gt;2 -->
<g id="edge17" class="edge">
<title>16&#45;&gt;2</title>
<path fill="none" stroke="#c0c0c0" stroke-width="2" d="M945.9669,-287.9899C927.796,-279.6126 908.943,-267.8957 896,-252 879.2927,-231.4812 863.68,-158.7748 855.991,-118.0903"/>
<polygon fill="#c0c0c0" stroke="#c0c0c0" stroke-width="2" points="859.3869,-117.2061 854.1244,-108.0107 852.5039,-118.4808 859.3869,-117.2061"/>
</g>
<!-- 17 -->
<g id="node18" class="node">
<title>17</title>
<path fill="none" stroke="#d88556" stroke-width="2" d="M879,-396C879,-396 799,-396 799,-396 793,-396 787,-390 787,-384 787,-384 787,-372 787,-372 787,-366 793,-360 799,-360 799,-360 879,-360 879,-360 885,-360 891,-366 891,-372 891,-372 891,-384 891,-384 891,-390 885,-396 879,-396"/>
<text text-anchor="middle" x="839" y="-375.5" font-family="sans" font-size="10.00" fill="#000000">tx_gene_mapping</text>
</g>
<!-- 17&#45;&gt;3 -->
<g id="edge20" class="edge">
<title>17&#45;&gt;3</title>
<path fill="none" stroke="#c0c0c0" stroke-width="2" d="M823.961,-359.7456C806.5678,-339.6765 776.1749,-307.6751 744,-288 702.9865,-262.9201 677.0015,-284.9546 642,-252 624.5194,-235.5417 614.7519,-209.7659 609.5123,-190.0095"/>
<polygon fill="#c0c0c0" stroke="#c0c0c0" stroke-width="2" points="612.8529,-188.9316 607.1076,-180.0298 606.0476,-190.5715 612.8529,-188.9316"/>
</g>
<!-- 17&#45;&gt;4 -->
<g id="edge22" class="edge">
<title>17&#45;&gt;4</title>
<path fill="none" stroke="#c0c0c0" stroke-width="2" d="M845.8768,-359.8922C854.6214,-339.337 871.6907,-306.2942 897,-288 948.7196,-250.6158 980.3428,-283.2212 1036,-252 1064.9345,-235.7691 1091.4302,-208.3206 1108.6746,-187.9944"/>
<polygon fill="#c0c0c0" stroke="#c0c0c0" stroke-width="2" points="1111.5742,-189.9804 1115.2576,-180.0464 1106.1833,-185.5152 1111.5742,-189.9804"/>
</g>
<!-- 17&#45;&gt;5 -->
<g id="edge24" class="edge">
<title>17&#45;&gt;5</title>
<path fill="none" stroke="#c0c0c0" stroke-width="2" d="M841.5854,-359.9646C846.9172,-328.0698 861.6424,-260.8528 896,-216 904.3889,-205.0485 915.3847,-194.8567 925.9406,-186.3441"/>
<polygon fill="#c0c0c0" stroke="#c0c0c0" stroke-width="2" points="928.1281,-189.0768 933.8765,-180.1769 923.8327,-183.5495 928.1281,-189.0768"/>
</g>
<!-- 17&#45;&gt;6 -->
<g id="edge26" class="edge">
<title>17&#45;&gt;6</title>
<path fill="none" stroke="#c0c0c0" stroke-width="2" d="M833.9362,-359.5712C831.1487,-349.1645 827.7148,-335.8972 825,-324 814.342,-277.2929 803.9629,-222.5341 798.0401,-190.1377"/>
<polygon fill="#c0c0c0" stroke="#c0c0c0" stroke-width="2" points="801.4391,-189.266 796.2084,-180.0524 794.5518,-190.5169 801.4391,-189.266"/>
</g>
<!-- 17&#45;&gt;15 -->
<g id="edge39" class="edge">
<title>17&#45;&gt;15</title>
<path fill="none" stroke="#c0c0c0" stroke-width="2" d="M786.766,-371.1136C759.9489,-367.6454 726.7443,-363.4549 697,-360 548.8723,-342.7945 508.673,-344.7889 356.7026,-324.0454"/>
<polygon fill="#c0c0c0" stroke="#c0c0c0" stroke-width="2" points="356.9124,-320.5413 346.5286,-322.6457 355.9583,-327.476 356.9124,-320.5413"/>
</g>
<!-- 17&#45;&gt;16 -->
<g id="edge41" class="edge">
<title>17&#45;&gt;16</title>
<path fill="none" stroke="#c0c0c0" stroke-width="2" d="M879.8794,-359.8314C901.546,-350.2018 928.3363,-338.295 951.2078,-328.1299"/>
<polygon fill="#c0c0c0" stroke="#c0c0c0" stroke-width="2" points="952.6979,-331.2978 960.4145,-324.038 949.8549,-324.9011 952.6979,-331.2978"/>
</g>
<!-- 18 -->
<g id="node19" class="node">
<title>18</title>
<path fill="none" stroke="#56d8d8" stroke-width="2" d="M529,-324C529,-324 377,-324 377,-324 371,-324 365,-318 365,-312 365,-312 365,-300 365,-300 365,-294 371,-288 377,-288 377,-288 529,-288 529,-288 535,-288 541,-294 541,-300 541,-300 541,-312 541,-312 541,-318 535,-324 529,-324"/>
<text text-anchor="middle" x="453" y="-303.5" font-family="sans" font-size="10.00" fill="#000000">bustools_whitelist_correct_count</text>
</g>
<!-- 17&#45;&gt;18 -->
<g id="edge45" class="edge">
<title>17&#45;&gt;18</title>
<path fill="none" stroke="#c0c0c0" stroke-width="2" d="M786.9423,-368.2898C726.6781,-357.0488 626.1019,-338.2884 551.0445,-324.2881"/>
<polygon fill="#c0c0c0" stroke="#c0c0c0" stroke-width="2" points="551.5673,-320.8253 541.095,-322.4322 550.2837,-327.7066 551.5673,-320.8253"/>
</g>
<!-- 19 -->
<g id="node20" class="node">
<title>19</title>
<path fill="none" stroke="#56d8d8" stroke-width="2" d="M1511,-324C1511,-324 1359,-324 1359,-324 1353,-324 1347,-318 1347,-312 1347,-312 1347,-300 1347,-300 1347,-294 1353,-288 1359,-288 1359,-288 1511,-288 1511,-288 1517,-288 1523,-294 1523,-300 1523,-300 1523,-312 1523,-312 1523,-318 1517,-324 1511,-324"/>
<text text-anchor="middle" x="1435" y="-303.5" font-family="sans" font-size="10.00" fill="#000000">bustools_whitelist_correct_count</text>
</g>
<!-- 17&#45;&gt;19 -->
<g id="edge48" class="edge">
<title>17&#45;&gt;19</title>
<path fill="none" stroke="#c0c0c0" stroke-width="2" d="M891.2298,-372.1566C976.7283,-362.5293 1151.8789,-342.5488 1300,-324 1311.8225,-322.5195 1324.2214,-320.9244 1336.5116,-319.3172"/>
<polygon fill="#c0c0c0" stroke="#c0c0c0" stroke-width="2" points="1337.3359,-322.7391 1346.7949,-317.9666 1336.4242,-315.7987 1337.3359,-322.7391"/>
</g>
<!-- 20 -->
<g id="node21" class="node">
<title>20</title>
<path fill="none" stroke="#56d8d8" stroke-width="2" d="M1279,-324C1279,-324 1127,-324 1127,-324 1121,-324 1115,-318 1115,-312 1115,-312 1115,-300 1115,-300 1115,-294 1121,-288 1127,-288 1127,-288 1279,-288 1279,-288 1285,-288 1291,-294 1291,-300 1291,-300 1291,-312 1291,-312 1291,-318 1285,-324 1279,-324"/>
<text text-anchor="middle" x="1203" y="-303.5" font-family="sans" font-size="10.00" fill="#000000">bustools_whitelist_correct_count</text>
</g>
<!-- 17&#45;&gt;20 -->
<g id="edge51" class="edge">
<title>17&#45;&gt;20</title>
<path fill="none" stroke="#c0c0c0" stroke-width="2" d="M891.1523,-367.6842C946.7063,-356.6955 1035.9397,-339.0449 1104.7486,-325.4343"/>
<polygon fill="#c0c0c0" stroke="#c0c0c0" stroke-width="2" points="1105.6153,-328.8308 1114.7461,-323.4568 1104.2569,-321.9639 1105.6153,-328.8308"/>
</g>
<!-- 21 -->
<g id="node22" class="node">
<title>21</title>
<path fill="none" stroke="#56d8d8" stroke-width="2" d="M723,-324C723,-324 571,-324 571,-324 565,-324 559,-318 559,-312 559,-312 559,-300 559,-300 559,-294 565,-288 571,-288 571,-288 723,-288 723,-288 729,-288 735,-294 735,-300 735,-300 735,-312 735,-312 735,-318 729,-324 723,-324"/>
<text text-anchor="middle" x="647" y="-303.5" font-family="sans" font-size="10.00" fill="#000000">bustools_whitelist_correct_count</text>
</g>
<!-- 17&#45;&gt;21 -->
<g id="edge54" class="edge">
<title>17&#45;&gt;21</title>
<path fill="none" stroke="#c0c0c0" stroke-width="2" d="M790.5503,-359.8314C764.4149,-350.0306 731.9891,-337.8709 704.5717,-327.5894"/>
<polygon fill="#c0c0c0" stroke="#c0c0c0" stroke-width="2" points="705.6936,-324.2721 695.1013,-324.038 703.2357,-330.8264 705.6936,-324.2721"/>
</g>
<!-- 18&#45;&gt;7 -->
<g id="edge28" class="edge">
<title>18&#45;&gt;7</title>
<path fill="none" stroke="#c0c0c0" stroke-width="2" d="M465.1124,-287.8314C470.5281,-279.7079 477.0242,-269.9637 482.9921,-261.0118"/>
<polygon fill="#c0c0c0" stroke="#c0c0c0" stroke-width="2" points="486.0896,-262.6753 488.7245,-252.4133 480.2653,-258.7923 486.0896,-262.6753"/>
</g>
<!-- 19&#45;&gt;8 -->
<g id="edge29" class="edge">
<title>19&#45;&gt;8</title>
<path fill="none" stroke="#c0c0c0" stroke-width="2" d="M1428.1868,-287.8314C1425.2356,-279.9617 1421.7142,-270.5712 1418.445,-261.8533"/>
<polygon fill="#c0c0c0" stroke="#c0c0c0" stroke-width="2" points="1421.6934,-260.5476 1414.905,-252.4133 1415.1391,-263.0055 1421.6934,-260.5476"/>
</g>
<!-- 20&#45;&gt;9 -->
<g id="edge30" class="edge">
<title>20&#45;&gt;9</title>
<path fill="none" stroke="#c0c0c0" stroke-width="2" d="M1143.5008,-287.9243C1110.6789,-277.9531 1069.7494,-265.5188 1035.4674,-255.104"/>
<polygon fill="#c0c0c0" stroke="#c0c0c0" stroke-width="2" points="1036.1093,-251.6411 1025.5237,-252.0831 1034.0745,-258.3389 1036.1093,-251.6411"/>
</g>
<!-- 21&#45;&gt;10 -->
<g id="edge31" class="edge">
<title>21&#45;&gt;10</title>
<path fill="none" stroke="#c0c0c0" stroke-width="2" d="M663.4022,-287.8314C671.0415,-279.3694 680.2683,-269.1489 688.6207,-259.8971"/>
<polygon fill="#c0c0c0" stroke="#c0c0c0" stroke-width="2" points="691.2738,-262.1813 695.3769,-252.4133 686.0779,-257.4906 691.2738,-262.1813"/>
</g>
<!-- 22 -->
<g id="node23" class="node">
<title>22</title>
<path fill="none" stroke="#d8ac56" stroke-width="2" d="M383,-540C383,-540 199,-540 199,-540 193,-540 187,-534 187,-528 187,-528 187,-516 187,-516 187,-510 193,-504 199,-504 199,-504 383,-504 383,-504 389,-504 395,-510 395,-516 395,-516 395,-528 395,-528 395,-534 389,-540 383,-540"/>
<text text-anchor="middle" x="291" y="-525" font-family="sans" font-size="10.00" fill="#000000">kallisto_index</text>
<text text-anchor="middle" x="291" y="-514" font-family="sans" font-size="10.00" fill="#000000">fasta: gencode.v31.pc_transcripts.fa.gz</text>
</g>
<!-- 22&#45;&gt;11 -->
<g id="edge32" class="edge">
<title>22&#45;&gt;11</title>
<path fill="none" stroke="#c0c0c0" stroke-width="2" d="M260.6038,-503.7623C217.2339,-477.7404 137.5847,-429.9508 89.9435,-401.3661"/>
<polygon fill="#c0c0c0" stroke="#c0c0c0" stroke-width="2" points="91.5251,-398.2334 81.1494,-396.0896 87.9236,-404.2359 91.5251,-398.2334"/>
</g>
<!-- 22&#45;&gt;12 -->
<g id="edge33" class="edge">
<title>22&#45;&gt;12</title>
<path fill="none" stroke="#c0c0c0" stroke-width="2" d="M275.8019,-503.7623C254.7932,-478.5518 216.7586,-432.9103 192.746,-404.0952"/>
<polygon fill="#c0c0c0" stroke="#c0c0c0" stroke-width="2" points="195.1653,-401.5312 186.0747,-396.0896 189.7878,-406.0125 195.1653,-401.5312"/>
</g>
<!-- 22&#45;&gt;13 -->
<g id="edge34" class="edge">
<title>22&#45;&gt;13</title>
<path fill="none" stroke="#c0c0c0" stroke-width="2" d="M291,-503.7623C291,-479.201 291,-435.2474 291,-406.3541"/>
<polygon fill="#c0c0c0" stroke="#c0c0c0" stroke-width="2" points="294.5001,-406.0896 291,-396.0896 287.5001,-406.0897 294.5001,-406.0896"/>
</g>
<!-- 26 -->
<g id="node27" class="node">
<title>26</title>
<path fill="none" stroke="#80d856" stroke-width="2" d="M440,-468C440,-468 362,-468 362,-468 356,-468 350,-462 350,-456 350,-456 350,-444 350,-444 350,-438 356,-432 362,-432 362,-432 440,-432 440,-432 446,-432 452,-438 452,-444 452,-444 452,-456 452,-456 452,-462 446,-468 440,-468"/>
<text text-anchor="middle" x="401" y="-453" font-family="sans" font-size="10.00" fill="#000000">kallisto_bus</text>
<text text-anchor="middle" x="401" y="-442" font-family="sans" font-size="10.00" fill="#000000">SRS: SRS4715841</text>
</g>
<!-- 22&#45;&gt;26 -->
<g id="edge58" class="edge">
<title>22&#45;&gt;26</title>
<path fill="none" stroke="#c0c0c0" stroke-width="2" d="M318.7576,-503.8314C332.697,-494.7074 349.7598,-483.539 364.7231,-473.7449"/>
<polygon fill="#c0c0c0" stroke="#c0c0c0" stroke-width="2" points="366.801,-476.5679 373.2512,-468.1628 362.9674,-470.711 366.801,-476.5679"/>
</g>
<!-- 23 -->
<g id="node24" class="node">
<title>23</title>
<path fill="none" stroke="#d8ac56" stroke-width="2" d="M1109,-540C1109,-540 917,-540 917,-540 911,-540 905,-534 905,-528 905,-528 905,-516 905,-516 905,-510 911,-504 917,-504 917,-504 1109,-504 1109,-504 1115,-504 1121,-510 1121,-516 1121,-516 1121,-528 1121,-528 1121,-534 1115,-540 1109,-540"/>
<text text-anchor="middle" x="1013" y="-525" font-family="sans" font-size="10.00" fill="#000000">kallisto_index</text>
<text text-anchor="middle" x="1013" y="-514" font-family="sans" font-size="10.00" fill="#000000">fasta: gencode.vM22.pc_transcripts.fa.gz</text>
</g>
<!-- 23&#45;&gt;14 -->
<g id="edge35" class="edge">
<title>23&#45;&gt;14</title>
<path fill="none" stroke="#c0c0c0" stroke-width="2" d="M1037.7151,-503.8184C1051.8768,-493.3752 1069.968,-479.9916 1086,-468 1115.6877,-445.7942 1149.3758,-420.2866 1173.3117,-402.11"/>
<polygon fill="#c0c0c0" stroke="#c0c0c0" stroke-width="2" points="1175.5035,-404.8404 1181.3488,-396.004 1171.2688,-399.2665 1175.5035,-404.8404"/>
</g>
<!-- 30 -->
<g id="node31" class="node">
<title>30</title>
<path fill="none" stroke="#80d856" stroke-width="2" d="M1065,-468C1065,-468 987,-468 987,-468 981,-468 975,-462 975,-456 975,-456 975,-444 975,-444 975,-438 981,-432 987,-432 987,-432 1065,-432 1065,-432 1071,-432 1077,-438 1077,-444 1077,-444 1077,-456 1077,-456 1077,-462 1071,-468 1065,-468"/>
<text text-anchor="middle" x="1026" y="-453" font-family="sans" font-size="10.00" fill="#000000">kallisto_bus</text>
<text text-anchor="middle" x="1026" y="-442" font-family="sans" font-size="10.00" fill="#000000">SRS: SRS3971246</text>
</g>
<!-- 23&#45;&gt;30 -->
<g id="edge62" class="edge">
<title>23&#45;&gt;30</title>
<path fill="none" stroke="#c0c0c0" stroke-width="2" d="M1016.2804,-503.8314C1017.6708,-496.131 1019.3241,-486.9743 1020.8692,-478.4166"/>
<polygon fill="#c0c0c0" stroke="#c0c0c0" stroke-width="2" points="1024.3428,-478.8761 1022.6754,-468.4133 1017.4542,-477.6322 1024.3428,-478.8761"/>
</g>
<!-- 32 -->
<g id="node33" class="node">
<title>32</title>
<path fill="none" stroke="#80d856" stroke-width="2" d="M755,-468C755,-468 677,-468 677,-468 671,-468 665,-462 665,-456 665,-456 665,-444 665,-444 665,-438 671,-432 677,-432 677,-432 755,-432 755,-432 761,-432 767,-438 767,-444 767,-444 767,-456 767,-456 767,-462 761,-468 755,-468"/>
<text text-anchor="middle" x="716" y="-453" font-family="sans" font-size="10.00" fill="#000000">kallisto_bus</text>
<text text-anchor="middle" x="716" y="-442" font-family="sans" font-size="10.00" fill="#000000">SRS: SRS1467250</text>
</g>
<!-- 23&#45;&gt;32 -->
<g id="edge64" class="edge">
<title>23&#45;&gt;32</title>
<path fill="none" stroke="#c0c0c0" stroke-width="2" d="M938.4377,-503.9243C888.6516,-491.8549 823.9795,-476.1768 777.2129,-464.8395"/>
<polygon fill="#c0c0c0" stroke="#c0c0c0" stroke-width="2" points="777.7637,-461.3717 767.2205,-462.4171 776.1144,-468.1746 777.7637,-461.3717"/>
</g>
<!-- 24 -->
<g id="node25" class="node">
<title>24</title>
<path fill="none" stroke="#5682d8" stroke-width="2" d="M1031.5,-612C1031.5,-612 934.5,-612 934.5,-612 928.5,-612 922.5,-606 922.5,-600 922.5,-600 922.5,-588 922.5,-588 922.5,-582 928.5,-576 934.5,-576 934.5,-576 1031.5,-576 1031.5,-576 1037.5,-576 1043.5,-582 1043.5,-588 1043.5,-588 1043.5,-600 1043.5,-600 1043.5,-606 1037.5,-612 1031.5,-612"/>
<text text-anchor="middle" x="983" y="-591.5" font-family="sans" font-size="10.00" fill="#000000">download_references</text>
</g>
<!-- 24&#45;&gt;17 -->
<g id="edge42" class="edge">
<title>24&#45;&gt;17</title>
<path fill="none" stroke="#c0c0c0" stroke-width="2" d="M941.8904,-575.9749C925.7097,-567.1378 908.1361,-555.1058 896,-540 863.931,-500.0836 849.2369,-440.8184 843.038,-406.1274"/>
<polygon fill="#c0c0c0" stroke="#c0c0c0" stroke-width="2" points="846.4791,-405.4843 841.3771,-396.1988 839.575,-406.6393 846.4791,-405.4843"/>
</g>
<!-- 24&#45;&gt;22 -->
<g id="edge55" class="edge">
<title>24&#45;&gt;22</title>
<path fill="none" stroke="#c0c0c0" stroke-width="2" d="M922.4984,-587.705C807.0094,-575.6888 553.46,-549.308 405.1596,-533.8779"/>
<polygon fill="#c0c0c0" stroke="#c0c0c0" stroke-width="2" points="405.4153,-530.3857 395.1068,-532.8319 404.6908,-537.3481 405.4153,-530.3857"/>
</g>
<!-- 24&#45;&gt;23 -->
<g id="edge56" class="edge">
<title>24&#45;&gt;23</title>
<path fill="none" stroke="#c0c0c0" stroke-width="2" d="M990.5703,-575.8314C993.8493,-567.9617 997.762,-558.5712 1001.3945,-549.8533"/>
<polygon fill="#c0c0c0" stroke="#c0c0c0" stroke-width="2" points="1004.7124,-550.9902 1005.3278,-540.4133 998.2508,-548.2979 1004.7124,-550.9902"/>
</g>
<!-- 33 -->
<g id="node34" class="node">
<title>33</title>
<path fill="none" stroke="#d8ac56" stroke-width="2" d="M1481,-540C1481,-540 1193,-540 1193,-540 1187,-540 1181,-534 1181,-528 1181,-528 1181,-516 1181,-516 1181,-510 1187,-504 1193,-504 1193,-504 1481,-504 1481,-504 1487,-504 1493,-510 1493,-516 1493,-516 1493,-528 1493,-528 1493,-534 1487,-540 1481,-540"/>
<text text-anchor="middle" x="1337" y="-525" font-family="sans" font-size="10.00" fill="#000000">kallisto_index</text>
<text text-anchor="middle" x="1337" y="-514" font-family="sans" font-size="10.00" fill="#000000">fasta: GCF_000364345.1_Macaca_fascicularis_5.0_rna.fna.gz</text>
</g>
<!-- 24&#45;&gt;33 -->
<g id="edge65" class="edge">
<title>24&#45;&gt;33</title>
<path fill="none" stroke="#c0c0c0" stroke-width="2" d="M1043.8548,-581.6228C1097.3335,-570.7457 1176.1386,-554.7176 1238.5765,-542.0183"/>
<polygon fill="#c0c0c0" stroke="#c0c0c0" stroke-width="2" points="1239.3487,-545.433 1248.4504,-540.0101 1237.9534,-538.5735 1239.3487,-545.433"/>
</g>
<!-- 25 -->
<g id="node26" class="node">
<title>25</title>
<path fill="none" stroke="#d6d856" stroke-width="2" d="M430,-396C430,-396 372,-396 372,-396 366,-396 360,-390 360,-384 360,-384 360,-372 360,-372 360,-366 366,-360 372,-360 372,-360 430,-360 430,-360 436,-360 442,-366 442,-372 442,-372 442,-384 442,-384 442,-390 436,-396 430,-396"/>
<text text-anchor="middle" x="401" y="-375.5" font-family="sans" font-size="10.00" fill="#000000">bustools_sort</text>
</g>
<!-- 25&#45;&gt;18 -->
<g id="edge43" class="edge">
<title>25&#45;&gt;18</title>
<path fill="none" stroke="#c0c0c0" stroke-width="2" d="M414.1218,-359.8314C420.0499,-351.6232 427.1729,-341.7606 433.6933,-332.7323"/>
<polygon fill="#c0c0c0" stroke="#c0c0c0" stroke-width="2" points="436.684,-334.5693 439.7015,-324.4133 431.0092,-330.4708 436.684,-334.5693"/>
</g>
<!-- 26&#45;&gt;18 -->
<g id="edge44" class="edge">
<title>26&#45;&gt;18</title>
<path fill="none" stroke="#c0c0c0" stroke-width="2" d="M424.2544,-431.7836C434.4658,-422.3269 445.3916,-409.8567 451,-396 458.8916,-376.5022 459.0383,-352.6305 457.4024,-334.3728"/>
<polygon fill="#c0c0c0" stroke="#c0c0c0" stroke-width="2" points="460.8708,-333.8949 456.2783,-324.3472 453.9144,-334.6749 460.8708,-333.8949"/>
</g>
<!-- 26&#45;&gt;25 -->
<g id="edge57" class="edge">
<title>26&#45;&gt;25</title>
<path fill="none" stroke="#c0c0c0" stroke-width="2" d="M401,-431.8314C401,-424.131 401,-414.9743 401,-406.4166"/>
<polygon fill="#c0c0c0" stroke="#c0c0c0" stroke-width="2" points="404.5001,-406.4132 401,-396.4133 397.5001,-406.4133 404.5001,-406.4132"/>
</g>
<!-- 27 -->
<g id="node28" class="node">
<title>27</title>
<path fill="none" stroke="#d6d856" stroke-width="2" d="M1395,-396C1395,-396 1337,-396 1337,-396 1331,-396 1325,-390 1325,-384 1325,-384 1325,-372 1325,-372 1325,-366 1331,-360 1337,-360 1337,-360 1395,-360 1395,-360 1401,-360 1407,-366 1407,-372 1407,-372 1407,-384 1407,-384 1407,-390 1401,-396 1395,-396"/>
<text text-anchor="middle" x="1366" y="-375.5" font-family="sans" font-size="10.00" fill="#000000">bustools_sort</text>
</g>
<!-- 27&#45;&gt;19 -->
<g id="edge46" class="edge">
<title>27&#45;&gt;19</title>
<path fill="none" stroke="#c0c0c0" stroke-width="2" d="M1383.4116,-359.8314C1391.521,-351.3694 1401.3156,-341.1489 1410.182,-331.8971"/>
<polygon fill="#c0c0c0" stroke="#c0c0c0" stroke-width="2" points="1412.9618,-334.0549 1417.354,-324.4133 1407.9079,-329.2115 1412.9618,-334.0549"/>
</g>
<!-- 28 -->
<g id="node29" class="node">
<title>28</title>
<path fill="none" stroke="#80d856" stroke-width="2" d="M1405,-468C1405,-468 1327,-468 1327,-468 1321,-468 1315,-462 1315,-456 1315,-456 1315,-444 1315,-444 1315,-438 1321,-432 1327,-432 1327,-432 1405,-432 1405,-432 1411,-432 1417,-438 1417,-444 1417,-444 1417,-456 1417,-456 1417,-462 1411,-468 1405,-468"/>
<text text-anchor="middle" x="1366" y="-453" font-family="sans" font-size="10.00" fill="#000000">kallisto_bus</text>
<text text-anchor="middle" x="1366" y="-442" font-family="sans" font-size="10.00" fill="#000000">SRS: SRS3698218</text>
</g>
<!-- 28&#45;&gt;19 -->
<g id="edge47" class="edge">
<title>28&#45;&gt;19</title>
<path fill="none" stroke="#c0c0c0" stroke-width="2" d="M1387.629,-431.7589C1397.7174,-422.1213 1409.0127,-409.5035 1416,-396 1425.9386,-376.793 1430.6791,-352.7217 1432.9399,-334.3073"/>
<polygon fill="#c0c0c0" stroke="#c0c0c0" stroke-width="2" points="1436.4378,-334.5101 1434.0051,-324.1984 1429.4764,-333.7766 1436.4378,-334.5101"/>
</g>
<!-- 28&#45;&gt;27 -->
<g id="edge59" class="edge">
<title>28&#45;&gt;27</title>
<path fill="none" stroke="#c0c0c0" stroke-width="2" d="M1366,-431.8314C1366,-424.131 1366,-414.9743 1366,-406.4166"/>
<polygon fill="#c0c0c0" stroke="#c0c0c0" stroke-width="2" points="1369.5001,-406.4132 1366,-396.4133 1362.5001,-406.4133 1369.5001,-406.4132"/>
</g>
<!-- 29 -->
<g id="node30" class="node">
<title>29</title>
<path fill="none" stroke="#d6d856" stroke-width="2" d="M1124,-396C1124,-396 1066,-396 1066,-396 1060,-396 1054,-390 1054,-384 1054,-384 1054,-372 1054,-372 1054,-366 1060,-360 1066,-360 1066,-360 1124,-360 1124,-360 1130,-360 1136,-366 1136,-372 1136,-372 1136,-384 1136,-384 1136,-390 1130,-396 1124,-396"/>
<text text-anchor="middle" x="1095" y="-375.5" font-family="sans" font-size="10.00" fill="#000000">bustools_sort</text>
</g>
<!-- 29&#45;&gt;20 -->
<g id="edge49" class="edge">
<title>29&#45;&gt;20</title>
<path fill="none" stroke="#c0c0c0" stroke-width="2" d="M1122.253,-359.8314C1135.9389,-350.7074 1152.6915,-339.539 1167.3827,-329.7449"/>
<polygon fill="#c0c0c0" stroke="#c0c0c0" stroke-width="2" points="1169.3767,-332.6221 1175.7558,-324.1628 1165.4938,-326.7977 1169.3767,-332.6221"/>
</g>
<!-- 30&#45;&gt;20 -->
<g id="edge50" class="edge">
<title>30&#45;&gt;20</title>
<path fill="none" stroke="#c0c0c0" stroke-width="2" d="M1024.8774,-431.8091C1024.654,-411.7968 1027.4255,-379.8463 1045,-360 1055.624,-348.0027 1086.5422,-336.296 1118.2434,-326.8666"/>
<polygon fill="#c0c0c0" stroke="#c0c0c0" stroke-width="2" points="1119.454,-330.1599 1128.0852,-324.0156 1117.5063,-323.4363 1119.454,-330.1599"/>
</g>
<!-- 30&#45;&gt;29 -->
<g id="edge61" class="edge">
<title>30&#45;&gt;29</title>
<path fill="none" stroke="#c0c0c0" stroke-width="2" d="M1043.4116,-431.8314C1051.521,-423.3694 1061.3156,-413.1489 1070.182,-403.8971"/>
<polygon fill="#c0c0c0" stroke="#c0c0c0" stroke-width="2" points="1072.9618,-406.0549 1077.354,-396.4133 1067.9079,-401.2115 1072.9618,-406.0549"/>
</g>
<!-- 31 -->
<g id="node32" class="node">
<title>31</title>
<path fill="none" stroke="#d6d856" stroke-width="2" d="M676,-396C676,-396 618,-396 618,-396 612,-396 606,-390 606,-384 606,-384 606,-372 606,-372 606,-366 612,-360 618,-360 618,-360 676,-360 676,-360 682,-360 688,-366 688,-372 688,-372 688,-384 688,-384 688,-390 682,-396 676,-396"/>
<text text-anchor="middle" x="647" y="-375.5" font-family="sans" font-size="10.00" fill="#000000">bustools_sort</text>
</g>
<!-- 31&#45;&gt;21 -->
<g id="edge52" class="edge">
<title>31&#45;&gt;21</title>
<path fill="none" stroke="#c0c0c0" stroke-width="2" d="M647,-359.8314C647,-352.131 647,-342.9743 647,-334.4166"/>
<polygon fill="#c0c0c0" stroke="#c0c0c0" stroke-width="2" points="650.5001,-334.4132 647,-324.4133 643.5001,-334.4133 650.5001,-334.4132"/>
</g>
<!-- 32&#45;&gt;21 -->
<g id="edge53" class="edge">
<title>32&#45;&gt;21</title>
<path fill="none" stroke="#c0c0c0" stroke-width="2" d="M715.0051,-431.8016C713.3397,-412.9141 708.8891,-382.9767 697,-360 691.6503,-349.6614 683.7754,-339.8419 675.8503,-331.4817"/>
<polygon fill="#c0c0c0" stroke="#c0c0c0" stroke-width="2" points="678.1688,-328.85 668.629,-324.2411 673.2125,-333.7932 678.1688,-328.85"/>
</g>
<!-- 32&#45;&gt;31 -->
<g id="edge63" class="edge">
<title>32&#45;&gt;31</title>
<path fill="none" stroke="#c0c0c0" stroke-width="2" d="M698.5884,-431.8314C690.479,-423.3694 680.6844,-413.1489 671.818,-403.8971"/>
<polygon fill="#c0c0c0" stroke="#c0c0c0" stroke-width="2" points="674.0921,-401.2115 664.646,-396.4133 669.0382,-406.0549 674.0921,-401.2115"/>
</g>
<!-- 33&#45;&gt;28 -->
<g id="edge60" class="edge">
<title>33&#45;&gt;28</title>
<path fill="none" stroke="#c0c0c0" stroke-width="2" d="M1344.3179,-503.8314C1347.4876,-495.9617 1351.27,-486.5712 1354.7813,-477.8533"/>
<polygon fill="#c0c0c0" stroke="#c0c0c0" stroke-width="2" points="1358.0939,-478.9968 1358.5835,-468.4133 1351.6008,-476.3815 1358.0939,-478.9968"/>
</g>
</g>
</svg>
