<?xml version="1.0" encoding="UTF-8" standalone="no"?>
<!DOCTYPE svg PUBLIC "-//W3C//DTD SVG 1.1//EN"
 "http://www.w3.org/Graphics/SVG/1.1/DTD/svg11.dtd">
<!-- Generated by graphviz version 2.40.1 (20161225.0304)
 -->
<!-- Title: snakemake_dag Pages: 1 -->
<svg width="2649pt" height="1136pt"
 viewBox="0.00 0.00 2649.00 1136.00" xmlns="http://www.w3.org/2000/svg" xmlns:xlink="http://www.w3.org/1999/xlink">
<g id="graph0" class="graph" transform="scale(1 1) rotate(0) translate(4 1132)">
<title>snakemake_dag</title>
<polygon fill="#ffffff" stroke="transparent" points="-4,4 -4,-1132 2645,-1132 2645,4 -4,4"/>
<!-- 0 -->
<g id="node1" class="node">
<title>0</title>
<path fill="none" stroke="#61d856" stroke-width="2" d="M1831,-36C1831,-36 1801,-36 1801,-36 1795,-36 1789,-30 1789,-24 1789,-24 1789,-12 1789,-12 1789,-6 1795,0 1801,0 1801,0 1831,0 1831,0 1837,0 1843,-6 1843,-12 1843,-12 1843,-24 1843,-24 1843,-30 1837,-36 1831,-36"/>
<text text-anchor="middle" x="1816" y="-13.6" font-family="sans" font-size="18.00" fill="#000000">all</text>
</g>
<!-- 1 -->
<g id="node2" class="node">
<title>1</title>
<path fill="none" stroke="#56d8a9" stroke-width="2" d="M1191.5,-642C1191.5,-642 990.5,-642 990.5,-642 984.5,-642 978.5,-636 978.5,-630 978.5,-630 978.5,-618 978.5,-618 978.5,-612 984.5,-606 990.5,-606 990.5,-606 1191.5,-606 1191.5,-606 1197.5,-606 1203.5,-612 1203.5,-618 1203.5,-618 1203.5,-630 1203.5,-630 1203.5,-636 1197.5,-642 1191.5,-642"/>
<text text-anchor="middle" x="1091" y="-619.6" font-family="sans" font-size="18.00" fill="#000000">combine_well_and_umi</text>
</g>
<!-- 1&#45;&gt;0 -->
<g id="edge1" class="edge">
<title>1&#45;&gt;0</title>
<path fill="none" stroke="#c0c0c0" stroke-width="2" d="M981.0534,-605.9486C833.5759,-578.5659 590,-520.8061 590,-438 590,-438 590,-438 590,-162 590,-121.1184 577.8303,-98.453 609,-72 654.6638,-33.2463 1579.7962,-20.6582 1778.5867,-18.3958"/>
<polygon fill="#c0c0c0" stroke="#c0c0c0" stroke-width="2" points="1778.8515,-21.8931 1788.8116,-18.2813 1778.773,-14.8936 1778.8515,-21.8931"/>
</g>
<!-- 43 -->
<g id="node44" class="node">
<title>43</title>
<path fill="none" stroke="#5673d8" stroke-width="2" d="M1367,-564C1367,-564 1263,-564 1263,-564 1257,-564 1251,-558 1251,-552 1251,-552 1251,-540 1251,-540 1251,-534 1257,-528 1263,-528 1263,-528 1367,-528 1367,-528 1373,-528 1379,-534 1379,-540 1379,-540 1379,-552 1379,-552 1379,-558 1373,-564 1367,-564"/>
<text text-anchor="middle" x="1315" y="-541.6" font-family="sans" font-size="18.00" fill="#000000">cat_cell_info</text>
</g>
<!-- 1&#45;&gt;43 -->
<g id="edge81" class="edge">
<title>1&#45;&gt;43</title>
<path fill="none" stroke="#c0c0c0" stroke-width="2" d="M1142.9531,-605.9092C1175.9128,-594.4321 1218.7228,-579.5251 1253.3931,-567.4524"/>
<polygon fill="#c0c0c0" stroke="#c0c0c0" stroke-width="2" points="1254.6483,-570.7215 1262.9411,-564.1277 1252.3463,-564.1109 1254.6483,-570.7215"/>
</g>
<!-- 45 -->
<g id="node46" class="node">
<title>45</title>
<path fill="none" stroke="#56d8c9" stroke-width="2" d="M1650,-492C1650,-492 1072,-492 1072,-492 1066,-492 1060,-486 1060,-480 1060,-480 1060,-396 1060,-396 1060,-390 1066,-384 1072,-384 1072,-384 1650,-384 1650,-384 1656,-384 1662,-390 1662,-396 1662,-396 1662,-480 1662,-480 1662,-486 1656,-492 1650,-492"/>
<text text-anchor="middle" x="1361" y="-473.6" font-family="sans" font-size="18.00" fill="#000000">make_seurat_objs</text>
<text text-anchor="middle" x="1361" y="-453.6" font-family="sans" font-size="18.00" fill="#000000">combination: Mus_musculus_Macaca_fascicularis_Homo_sapiens</text>
<text text-anchor="middle" x="1361" y="-433.6" font-family="sans" font-size="18.00" fill="#000000">covariate: batch</text>
<text text-anchor="middle" x="1361" y="-413.6" font-family="sans" font-size="18.00" fill="#000000">partition: downsample</text>
<text text-anchor="middle" x="1361" y="-393.6" font-family="sans" font-size="18.00" fill="#000000">transform: SCT</text>
</g>
<!-- 1&#45;&gt;45 -->
<g id="edge86" class="edge">
<title>1&#45;&gt;45</title>
<path fill="none" stroke="#c0c0c0" stroke-width="2" d="M1117.3803,-605.8269C1153.4145,-581.0033 1219.7578,-535.3002 1274.1221,-497.8492"/>
<polygon fill="#c0c0c0" stroke="#c0c0c0" stroke-width="2" points="1276.1444,-500.7062 1282.394,-492.1508 1272.1733,-494.9416 1276.1444,-500.7062"/>
</g>
<!-- 2 -->
<g id="node3" class="node">
<title>2</title>
<path fill="none" stroke="#56d8a9" stroke-width="2" d="M1541.5,-648C1541.5,-648 1272.5,-648 1272.5,-648 1266.5,-648 1260.5,-642 1260.5,-636 1260.5,-636 1260.5,-612 1260.5,-612 1260.5,-606 1266.5,-600 1272.5,-600 1272.5,-600 1541.5,-600 1541.5,-600 1547.5,-600 1553.5,-606 1553.5,-612 1553.5,-612 1553.5,-636 1553.5,-636 1553.5,-642 1547.5,-648 1541.5,-648"/>
<text text-anchor="middle" x="1407" y="-629.6" font-family="sans" font-size="18.00" fill="#000000">combine_well_and_umi</text>
<text text-anchor="middle" x="1407" y="-609.6" font-family="sans" font-size="18.00" fill="#000000">organism: Macaca_fascicularis</text>
</g>
<!-- 2&#45;&gt;0 -->
<g id="edge2" class="edge">
<title>2&#45;&gt;0</title>
<path fill="none" stroke="#c0c0c0" stroke-width="2" d="M1553.8294,-600.4386C1706.3635,-571.6983 1923,-516.9778 1923,-438 1923,-438 1923,-438 1923,-162 1923,-121.2078 1928.4158,-105.4021 1905,-72 1892.19,-53.7268 1871.0321,-40.5184 1852.5594,-31.74"/>
<polygon fill="#c0c0c0" stroke="#c0c0c0" stroke-width="2" points="1853.7597,-28.4427 1843.2025,-27.55 1850.8988,-34.8313 1853.7597,-28.4427"/>
</g>
<!-- 2&#45;&gt;43 -->
<g id="edge82" class="edge">
<title>2&#45;&gt;43</title>
<path fill="none" stroke="#c0c0c0" stroke-width="2" d="M1378.6463,-599.961C1367.6852,-590.6679 1355.1486,-580.039 1344.1164,-570.6856"/>
<polygon fill="#c0c0c0" stroke="#c0c0c0" stroke-width="2" points="1346.2841,-567.9349 1336.3931,-564.1376 1341.7573,-573.2742 1346.2841,-567.9349"/>
</g>
<!-- 2&#45;&gt;45 -->
<g id="edge87" class="edge">
<title>2&#45;&gt;45</title>
<path fill="none" stroke="#c0c0c0" stroke-width="2" d="M1402.8736,-599.7918C1399.391,-580.2948 1394.0197,-552.2389 1388,-528 1385.886,-519.4878 1383.469,-510.5813 1380.9696,-501.8215"/>
<polygon fill="#c0c0c0" stroke="#c0c0c0" stroke-width="2" points="1384.2741,-500.65 1378.1244,-492.0227 1377.5517,-502.602 1384.2741,-500.65"/>
</g>
<!-- 3 -->
<g id="node4" class="node">
<title>3</title>
<path fill="none" stroke="#56d8a9" stroke-width="2" d="M1818.5,-642C1818.5,-642 1617.5,-642 1617.5,-642 1611.5,-642 1605.5,-636 1605.5,-630 1605.5,-630 1605.5,-618 1605.5,-618 1605.5,-612 1611.5,-606 1617.5,-606 1617.5,-606 1818.5,-606 1818.5,-606 1824.5,-606 1830.5,-612 1830.5,-618 1830.5,-618 1830.5,-630 1830.5,-630 1830.5,-636 1824.5,-642 1818.5,-642"/>
<text text-anchor="middle" x="1718" y="-619.6" font-family="sans" font-size="18.00" fill="#000000">combine_well_and_umi</text>
</g>
<!-- 3&#45;&gt;0 -->
<g id="edge3" class="edge">
<title>3&#45;&gt;0</title>
<path fill="none" stroke="#c0c0c0" stroke-width="2" d="M1823.865,-605.9657C1871.6218,-595.7032 1920.9164,-581.4105 1937,-564 1975.6827,-522.126 1961,-495.0068 1961,-438 1961,-438 1961,-438 1961,-162 1961,-120.6022 1963.853,-103.507 1937,-72 1915.5652,-46.8503 1880.0872,-32.9223 1853.0751,-25.5411"/>
<polygon fill="#c0c0c0" stroke="#c0c0c0" stroke-width="2" points="1853.7383,-22.0984 1843.1839,-23.0231 1852.0113,-28.882 1853.7383,-22.0984"/>
</g>
<!-- 3&#45;&gt;43 -->
<g id="edge83" class="edge">
<title>3&#45;&gt;43</title>
<path fill="none" stroke="#c0c0c0" stroke-width="2" d="M1624.7843,-605.9583C1553.1366,-592.091 1455.5056,-573.1946 1389.1285,-560.3475"/>
<polygon fill="#c0c0c0" stroke="#c0c0c0" stroke-width="2" points="1389.644,-556.8823 1379.161,-558.4183 1388.3137,-563.7548 1389.644,-556.8823"/>
</g>
<!-- 3&#45;&gt;45 -->
<g id="edge88" class="edge">
<title>3&#45;&gt;45</title>
<path fill="none" stroke="#c0c0c0" stroke-width="2" d="M1683.445,-605.9965C1635.4514,-580.9915 1546.349,-534.5684 1473.9523,-496.8491"/>
<polygon fill="#c0c0c0" stroke="#c0c0c0" stroke-width="2" points="1475.2451,-493.5761 1464.7594,-492.0595 1472.0107,-499.7841 1475.2451,-493.5761"/>
</g>
<!-- 4 -->
<g id="node5" class="node">
<title>4</title>
<path fill="none" stroke="#568ad8" stroke-width="2" d="M1235.5,-108C1235.5,-108 1100.5,-108 1100.5,-108 1094.5,-108 1088.5,-102 1088.5,-96 1088.5,-96 1088.5,-84 1088.5,-84 1088.5,-78 1094.5,-72 1100.5,-72 1100.5,-72 1235.5,-72 1235.5,-72 1241.5,-72 1247.5,-78 1247.5,-84 1247.5,-84 1247.5,-96 1247.5,-96 1247.5,-102 1241.5,-108 1235.5,-108"/>
<text text-anchor="middle" x="1168" y="-85.6" font-family="sans" font-size="18.00" fill="#000000">plot_integration</text>
</g>
<!-- 4&#45;&gt;0 -->
<g id="edge4" class="edge">
<title>4&#45;&gt;0</title>
<path fill="none" stroke="#c0c0c0" stroke-width="2" d="M1247.5047,-73.4972C1250.7072,-72.9666 1253.8816,-72.4647 1257,-72 1452.4974,-42.8675 1688.9122,-26.0117 1778.8466,-20.2576"/>
<polygon fill="#c0c0c0" stroke="#c0c0c0" stroke-width="2" points="1779.0695,-23.7506 1788.8286,-19.6263 1778.6276,-16.7646 1779.0695,-23.7506"/>
</g>
<!-- 5 -->
<g id="node6" class="node">
<title>5</title>
<path fill="none" stroke="#568ad8" stroke-width="2" d="M1883.5,-108C1883.5,-108 1748.5,-108 1748.5,-108 1742.5,-108 1736.5,-102 1736.5,-96 1736.5,-96 1736.5,-84 1736.5,-84 1736.5,-78 1742.5,-72 1748.5,-72 1748.5,-72 1883.5,-72 1883.5,-72 1889.5,-72 1895.5,-78 1895.5,-84 1895.5,-84 1895.5,-96 1895.5,-96 1895.5,-102 1889.5,-108 1883.5,-108"/>
<text text-anchor="middle" x="1816" y="-85.6" font-family="sans" font-size="18.00" fill="#000000">plot_integration</text>
</g>
<!-- 5&#45;&gt;0 -->
<g id="edge5" class="edge">
<title>5&#45;&gt;0</title>
<path fill="none" stroke="#c0c0c0" stroke-width="2" d="M1816,-71.8314C1816,-64.131 1816,-54.9743 1816,-46.4166"/>
<polygon fill="#c0c0c0" stroke="#c0c0c0" stroke-width="2" points="1819.5001,-46.4132 1816,-36.4133 1812.5001,-46.4133 1819.5001,-46.4132"/>
</g>
<!-- 6 -->
<g id="node7" class="node">
<title>6</title>
<path fill="none" stroke="#78d856" stroke-width="2" d="M1058,-108C1058,-108 630,-108 630,-108 624,-108 618,-102 618,-96 618,-96 618,-84 618,-84 618,-78 624,-72 630,-72 630,-72 1058,-72 1058,-72 1064,-72 1070,-78 1070,-84 1070,-84 1070,-96 1070,-96 1070,-102 1064,-108 1058,-108"/>
<text text-anchor="middle" x="844" y="-85.6" font-family="sans" font-size="18.00" fill="#000000">plot_integration_with_well_supported_cell_types</text>
</g>
<!-- 6&#45;&gt;0 -->
<g id="edge6" class="edge">
<title>6&#45;&gt;0</title>
<path fill="none" stroke="#c0c0c0" stroke-width="2" d="M1070.0936,-72.7422C1073.4181,-72.4928 1076.7219,-72.2453 1080,-72 1348.0043,-51.9479 1670.9616,-28.501 1778.8757,-20.6857"/>
<polygon fill="#c0c0c0" stroke="#c0c0c0" stroke-width="2" points="1779.2098,-24.1708 1788.9309,-19.9577 1778.7043,-17.1891 1779.2098,-24.1708"/>
</g>
<!-- 7 -->
<g id="node8" class="node">
<title>7</title>
<path fill="none" stroke="#78d856" stroke-width="2" d="M1706,-108C1706,-108 1278,-108 1278,-108 1272,-108 1266,-102 1266,-96 1266,-96 1266,-84 1266,-84 1266,-78 1272,-72 1278,-72 1278,-72 1706,-72 1706,-72 1712,-72 1718,-78 1718,-84 1718,-84 1718,-96 1718,-96 1718,-102 1712,-108 1706,-108"/>
<text text-anchor="middle" x="1492" y="-85.6" font-family="sans" font-size="18.00" fill="#000000">plot_integration_with_well_supported_cell_types</text>
</g>
<!-- 7&#45;&gt;0 -->
<g id="edge7" class="edge">
<title>7&#45;&gt;0</title>
<path fill="none" stroke="#c0c0c0" stroke-width="2" d="M1573.3407,-71.9243C1639.1419,-57.3018 1728.7795,-37.3823 1778.6382,-26.3026"/>
<polygon fill="#c0c0c0" stroke="#c0c0c0" stroke-width="2" points="1779.6482,-29.6636 1788.6508,-24.0776 1778.1297,-22.8303 1779.6482,-29.6636"/>
</g>
<!-- 8 -->
<g id="node9" class="node">
<title>8</title>
<path fill="none" stroke="#56d863" stroke-width="2" d="M2629,-888C2629,-888 2475,-888 2475,-888 2469,-888 2463,-882 2463,-876 2463,-876 2463,-852 2463,-852 2463,-846 2469,-840 2475,-840 2475,-840 2629,-840 2629,-840 2635,-840 2641,-846 2641,-852 2641,-852 2641,-876 2641,-876 2641,-882 2635,-888 2629,-888"/>
<text text-anchor="middle" x="2552" y="-869.6" font-family="sans" font-size="18.00" fill="#000000">kallisto_quant</text>
<text text-anchor="middle" x="2552" y="-849.6" font-family="sans" font-size="18.00" fill="#000000">SRS: SRS3732876</text>
</g>
<!-- 8&#45;&gt;0 -->
<g id="edge8" class="edge">
<title>8&#45;&gt;0</title>
<path fill="none" stroke="#c0c0c0" stroke-width="2" d="M2552,-839.8473C2552,-808.1906 2552,-750.9375 2552,-702 2552,-702 2552,-702 2552,-162 2552,-113.4926 2784.5888,-177.5656 2336,-72 2158.5301,-30.2363 1939.4098,-20.7659 1853.267,-18.6238"/>
<polygon fill="#c0c0c0" stroke="#c0c0c0" stroke-width="2" points="1853.2727,-15.1231 1843.1949,-18.3922 1853.1117,-22.1213 1853.2727,-15.1231"/>
</g>
<!-- 21 -->
<g id="node22" class="node">
<title>21</title>
<path fill="none" stroke="#56b9d8" stroke-width="2" d="M2474,-804C2474,-804 2160,-804 2160,-804 2154,-804 2148,-798 2148,-792 2148,-792 2148,-768 2148,-768 2148,-762 2154,-756 2160,-756 2160,-756 2474,-756 2474,-756 2480,-756 2486,-762 2486,-768 2486,-768 2486,-792 2486,-792 2486,-798 2480,-804 2474,-804"/>
<text text-anchor="middle" x="2317" y="-785.6" font-family="sans" font-size="18.00" fill="#000000">merge_nonUMI_quant_by_organism</text>
<text text-anchor="middle" x="2317" y="-765.6" font-family="sans" font-size="18.00" fill="#000000">organism: Homo_sapiens</text>
</g>
<!-- 8&#45;&gt;21 -->
<g id="edge43" class="edge">
<title>8&#45;&gt;21</title>
<path fill="none" stroke="#c0c0c0" stroke-width="2" d="M2484.6584,-839.929C2456.3883,-829.8239 2423.3492,-818.0142 2394.1095,-807.5625"/>
<polygon fill="#c0c0c0" stroke="#c0c0c0" stroke-width="2" points="2394.946,-804.1447 2384.3514,-804.0745 2392.5898,-810.7363 2394.946,-804.1447"/>
</g>
<!-- 9 -->
<g id="node10" class="node">
<title>9</title>
<path fill="none" stroke="#56d863" stroke-width="2" d="M2237,-888C2237,-888 2083,-888 2083,-888 2077,-888 2071,-882 2071,-876 2071,-876 2071,-852 2071,-852 2071,-846 2077,-840 2083,-840 2083,-840 2237,-840 2237,-840 2243,-840 2249,-846 2249,-852 2249,-852 2249,-876 2249,-876 2249,-882 2243,-888 2237,-888"/>
<text text-anchor="middle" x="2160" y="-869.6" font-family="sans" font-size="18.00" fill="#000000">kallisto_quant</text>
<text text-anchor="middle" x="2160" y="-849.6" font-family="sans" font-size="18.00" fill="#000000">SRS: SRS2166836</text>
</g>
<!-- 9&#45;&gt;0 -->
<g id="edge9" class="edge">
<title>9&#45;&gt;0</title>
<path fill="none" stroke="#c0c0c0" stroke-width="2" d="M2150.1124,-839.7598C2138.2672,-808.4803 2120,-752.1175 2120,-702 2120,-702 2120,-702 2120,-162 2120,-113.4273 2098.2647,-99.1673 2058,-72 2024.8419,-49.6276 1912.2928,-31.2797 1853.0938,-22.9033"/>
<polygon fill="#c0c0c0" stroke="#c0c0c0" stroke-width="2" points="1853.4233,-19.4155 1843.0363,-21.5037 1852.4584,-26.3487 1853.4233,-19.4155"/>
</g>
<!-- 9&#45;&gt;21 -->
<g id="edge44" class="edge">
<title>9&#45;&gt;21</title>
<path fill="none" stroke="#c0c0c0" stroke-width="2" d="M2204.9899,-839.929C2223.1377,-830.2193 2244.2271,-818.9358 2263.1798,-808.7955"/>
<polygon fill="#c0c0c0" stroke="#c0c0c0" stroke-width="2" points="2264.8374,-811.8782 2272.0035,-804.0745 2261.5351,-805.7061 2264.8374,-811.8782"/>
</g>
<!-- 10 -->
<g id="node11" class="node">
<title>10</title>
<path fill="none" stroke="#56d863" stroke-width="2" d="M2433,-888C2433,-888 2279,-888 2279,-888 2273,-888 2267,-882 2267,-876 2267,-876 2267,-852 2267,-852 2267,-846 2273,-840 2279,-840 2279,-840 2433,-840 2433,-840 2439,-840 2445,-846 2445,-852 2445,-852 2445,-876 2445,-876 2445,-882 2439,-888 2433,-888"/>
<text text-anchor="middle" x="2356" y="-869.6" font-family="sans" font-size="18.00" fill="#000000">kallisto_quant</text>
<text text-anchor="middle" x="2356" y="-849.6" font-family="sans" font-size="18.00" fill="#000000">SRS: SRS3106664</text>
</g>
<!-- 10&#45;&gt;0 -->
<g id="edge10" class="edge">
<title>10&#45;&gt;0</title>
<path fill="none" stroke="#c0c0c0" stroke-width="2" d="M2445.2395,-840.7209C2464.0786,-832.0021 2482.1269,-820.1247 2495,-804 2523.7703,-767.9627 2514,-748.1131 2514,-702 2514,-702 2514,-702 2514,-162 2514,-93.9488 1998.5344,-36.5153 1853.5381,-21.7058"/>
<polygon fill="#c0c0c0" stroke="#c0c0c0" stroke-width="2" points="1853.6644,-18.2008 1843.3624,-20.6746 1852.9585,-25.1651 1853.6644,-18.2008"/>
</g>
<!-- 10&#45;&gt;21 -->
<g id="edge45" class="edge">
<title>10&#45;&gt;21</title>
<path fill="none" stroke="#c0c0c0" stroke-width="2" d="M2344.7196,-839.7037C2340.9198,-831.5196 2336.6103,-822.2376 2332.541,-813.4729"/>
<polygon fill="#c0c0c0" stroke="#c0c0c0" stroke-width="2" points="2335.6408,-811.8379 2328.2551,-804.2417 2329.2917,-814.7857 2335.6408,-811.8379"/>
</g>
<!-- 11 -->
<g id="node12" class="node">
<title>11</title>
<path fill="none" stroke="#56d863" stroke-width="2" d="M166,-888C166,-888 12,-888 12,-888 6,-888 0,-882 0,-876 0,-876 0,-852 0,-852 0,-846 6,-840 12,-840 12,-840 166,-840 166,-840 172,-840 178,-846 178,-852 178,-852 178,-876 178,-876 178,-882 172,-888 166,-888"/>
<text text-anchor="middle" x="89" y="-869.6" font-family="sans" font-size="18.00" fill="#000000">kallisto_quant</text>
<text text-anchor="middle" x="89" y="-849.6" font-family="sans" font-size="18.00" fill="#000000">SRS: SRS3675268</text>
</g>
<!-- 11&#45;&gt;0 -->
<g id="edge11" class="edge">
<title>11&#45;&gt;0</title>
<path fill="none" stroke="#c0c0c0" stroke-width="2" d="M98.6405,-839.7373C110.1895,-808.4341 128,-752.0464 128,-702 128,-702 128,-702 128,-162 128,-117.4756 134.6223,-96.1936 172,-72 241.6508,-26.9169 1540.0093,-19.1843 1778.5222,-18.1425"/>
<polygon fill="#c0c0c0" stroke="#c0c0c0" stroke-width="2" points="1778.7752,-21.6415 1788.7602,-18.0991 1778.7455,-14.6416 1778.7752,-21.6415"/>
</g>
<!-- 17 -->
<g id="node18" class="node">
<title>17</title>
<path fill="none" stroke="#56b9d8" stroke-width="2" d="M906,-804C906,-804 592,-804 592,-804 586,-804 580,-798 580,-792 580,-792 580,-768 580,-768 580,-762 586,-756 592,-756 592,-756 906,-756 906,-756 912,-756 918,-762 918,-768 918,-768 918,-792 918,-792 918,-798 912,-804 906,-804"/>
<text text-anchor="middle" x="749" y="-785.6" font-family="sans" font-size="18.00" fill="#000000">merge_nonUMI_quant_by_organism</text>
<text text-anchor="middle" x="749" y="-765.6" font-family="sans" font-size="18.00" fill="#000000">organism: Mus_musculus</text>
</g>
<!-- 11&#45;&gt;17 -->
<g id="edge38" class="edge">
<title>11&#45;&gt;17</title>
<path fill="none" stroke="#c0c0c0" stroke-width="2" d="M178.0707,-850.0642C200.8491,-846.6353 225.3149,-843.0697 248,-840 354.5846,-825.577 474.1738,-811.1873 569.7762,-800.1166"/>
<polygon fill="#c0c0c0" stroke="#c0c0c0" stroke-width="2" points="570.3024,-803.5792 579.8343,-798.9539 569.4985,-796.6255 570.3024,-803.5792"/>
</g>
<!-- 12 -->
<g id="node13" class="node">
<title>12</title>
<path fill="none" stroke="#c6d856" stroke-width="2" d="M2101,-972C2101,-972 1947,-972 1947,-972 1941,-972 1935,-966 1935,-960 1935,-960 1935,-936 1935,-936 1935,-930 1941,-924 1947,-924 1947,-924 2101,-924 2101,-924 2107,-924 2113,-930 2113,-936 2113,-936 2113,-960 2113,-960 2113,-966 2107,-972 2101,-972"/>
<text text-anchor="middle" x="2024" y="-953.6" font-family="sans" font-size="18.00" fill="#000000">kallisto_bus</text>
<text text-anchor="middle" x="2024" y="-933.6" font-family="sans" font-size="18.00" fill="#000000">SRS: SRS4715841</text>
</g>
<!-- 12&#45;&gt;0 -->
<g id="edge12" class="edge">
<title>12&#45;&gt;0</title>
<path fill="none" stroke="#c0c0c0" stroke-width="2" d="M2032.623,-923.9417C2042.2595,-895.6697 2057.2624,-847.1332 2063,-804 2073.6073,-724.258 2044,-704.4444 2044,-624 2044,-624 2044,-624 2044,-162 2044,-115.1222 2025.964,-100.8304 1989,-72 1948.9738,-40.7812 1890.6889,-27.4643 1853.0553,-21.8844"/>
<polygon fill="#c0c0c0" stroke="#c0c0c0" stroke-width="2" points="1853.4037,-18.3995 1843.0206,-20.5073 1852.4519,-25.3345 1853.4037,-18.3995"/>
</g>
<!-- 32 -->
<g id="node33" class="node">
<title>32</title>
<path fill="none" stroke="#56d892" stroke-width="2" d="M2042,-798C2042,-798 1756,-798 1756,-798 1750,-798 1744,-792 1744,-786 1744,-786 1744,-774 1744,-774 1744,-768 1750,-762 1756,-762 1756,-762 2042,-762 2042,-762 2048,-762 2054,-768 2054,-774 2054,-774 2054,-786 2054,-786 2054,-792 2048,-798 2042,-798"/>
<text text-anchor="middle" x="1899" y="-775.6" font-family="sans" font-size="18.00" fill="#000000">bustools_whitelist_correct_count</text>
</g>
<!-- 12&#45;&gt;32 -->
<g id="edge67" class="edge">
<title>12&#45;&gt;32</title>
<path fill="none" stroke="#c0c0c0" stroke-width="2" d="M2018.2161,-923.7464C2011.778,-900.4868 1999.6147,-865.2701 1980,-840 1969.1588,-826.033 1954.2587,-813.7452 1940.1921,-803.9865"/>
<polygon fill="#c0c0c0" stroke="#c0c0c0" stroke-width="2" points="1941.8462,-800.8827 1931.585,-798.2448 1937.9616,-806.7059 1941.8462,-800.8827"/>
</g>
<!-- 41 -->
<g id="node42" class="node">
<title>41</title>
<path fill="none" stroke="#d8bc56" stroke-width="2" d="M1958.5,-882C1958.5,-882 1845.5,-882 1845.5,-882 1839.5,-882 1833.5,-876 1833.5,-870 1833.5,-870 1833.5,-858 1833.5,-858 1833.5,-852 1839.5,-846 1845.5,-846 1845.5,-846 1958.5,-846 1958.5,-846 1964.5,-846 1970.5,-852 1970.5,-858 1970.5,-858 1970.5,-870 1970.5,-870 1970.5,-876 1964.5,-882 1958.5,-882"/>
<text text-anchor="middle" x="1902" y="-859.6" font-family="sans" font-size="18.00" fill="#000000">bustools_sort</text>
</g>
<!-- 12&#45;&gt;41 -->
<g id="edge79" class="edge">
<title>12&#45;&gt;41</title>
<path fill="none" stroke="#c0c0c0" stroke-width="2" d="M1989.0397,-923.929C1972.6107,-912.6172 1953.0793,-899.1694 1936.6852,-887.8816"/>
<polygon fill="#c0c0c0" stroke="#c0c0c0" stroke-width="2" points="1938.6525,-884.9867 1928.4311,-882.1985 1934.6827,-890.7523 1938.6525,-884.9867"/>
</g>
<!-- 13 -->
<g id="node14" class="node">
<title>13</title>
<path fill="none" stroke="#c6d856" stroke-width="2" d="M1696,-972C1696,-972 1542,-972 1542,-972 1536,-972 1530,-966 1530,-960 1530,-960 1530,-936 1530,-936 1530,-930 1536,-924 1542,-924 1542,-924 1696,-924 1696,-924 1702,-924 1708,-930 1708,-936 1708,-936 1708,-960 1708,-960 1708,-966 1702,-972 1696,-972"/>
<text text-anchor="middle" x="1619" y="-953.6" font-family="sans" font-size="18.00" fill="#000000">kallisto_bus</text>
<text text-anchor="middle" x="1619" y="-933.6" font-family="sans" font-size="18.00" fill="#000000">SRS: SRS3698218</text>
</g>
<!-- 13&#45;&gt;0 -->
<g id="edge13" class="edge">
<title>13&#45;&gt;0</title>
<path fill="none" stroke="#c0c0c0" stroke-width="2" d="M1660.2875,-923.755C1673.6605,-914.1222 1687.4819,-901.9815 1697,-888 1751.4478,-808.0198 1704.839,-752.6692 1773,-684 1796.8141,-660.0083 1811.1462,-665.6118 1840,-648 1896.1914,-613.7019 1923.3903,-617.3209 1962,-564 1996.2302,-516.7272 1999,-496.3645 1999,-438 1999,-438 1999,-438 1999,-162 1999,-118.5807 1992.3552,-102.0347 1961,-72 1931.33,-43.5795 1885.3554,-29.8436 1853.1492,-23.3902"/>
<polygon fill="#c0c0c0" stroke="#c0c0c0" stroke-width="2" points="1853.6861,-19.9301 1843.2146,-21.5414 1852.4054,-26.8119 1853.6861,-19.9301"/>
</g>
<!-- 31 -->
<g id="node32" class="node">
<title>31</title>
<path fill="none" stroke="#56d892" stroke-width="2" d="M1676,-798C1676,-798 1390,-798 1390,-798 1384,-798 1378,-792 1378,-786 1378,-786 1378,-774 1378,-774 1378,-768 1384,-762 1390,-762 1390,-762 1676,-762 1676,-762 1682,-762 1688,-768 1688,-774 1688,-774 1688,-786 1688,-786 1688,-792 1682,-798 1676,-798"/>
<text text-anchor="middle" x="1533" y="-775.6" font-family="sans" font-size="18.00" fill="#000000">bustools_whitelist_correct_count</text>
</g>
<!-- 13&#45;&gt;31 -->
<g id="edge64" class="edge">
<title>13&#45;&gt;31</title>
<path fill="none" stroke="#c0c0c0" stroke-width="2" d="M1575.4369,-923.7526C1562.5066,-914.3236 1549.7428,-902.3089 1542,-888 1528.7044,-863.4293 1527.8043,-831.0281 1529.3935,-808.1461"/>
<polygon fill="#c0c0c0" stroke="#c0c0c0" stroke-width="2" points="1532.8908,-808.3321 1530.2965,-798.0598 1525.9187,-807.7078 1532.8908,-808.3321"/>
</g>
<!-- 40 -->
<g id="node41" class="node">
<title>40</title>
<path fill="none" stroke="#d8bc56" stroke-width="2" d="M1675.5,-882C1675.5,-882 1562.5,-882 1562.5,-882 1556.5,-882 1550.5,-876 1550.5,-870 1550.5,-870 1550.5,-858 1550.5,-858 1550.5,-852 1556.5,-846 1562.5,-846 1562.5,-846 1675.5,-846 1675.5,-846 1681.5,-846 1687.5,-852 1687.5,-858 1687.5,-858 1687.5,-870 1687.5,-870 1687.5,-876 1681.5,-882 1675.5,-882"/>
<text text-anchor="middle" x="1619" y="-859.6" font-family="sans" font-size="18.00" fill="#000000">bustools_sort</text>
</g>
<!-- 13&#45;&gt;40 -->
<g id="edge78" class="edge">
<title>13&#45;&gt;40</title>
<path fill="none" stroke="#c0c0c0" stroke-width="2" d="M1619,-923.7037C1619,-913.8502 1619,-902.4053 1619,-892.1877"/>
<polygon fill="#c0c0c0" stroke="#c0c0c0" stroke-width="2" points="1622.5001,-892.1023 1619,-882.1023 1615.5001,-892.1024 1622.5001,-892.1023"/>
</g>
<!-- 14 -->
<g id="node15" class="node">
<title>14</title>
<path fill="none" stroke="#c6d856" stroke-width="2" d="M731,-972C731,-972 577,-972 577,-972 571,-972 565,-966 565,-960 565,-960 565,-936 565,-936 565,-930 571,-924 577,-924 577,-924 731,-924 731,-924 737,-924 743,-930 743,-936 743,-936 743,-960 743,-960 743,-966 737,-972 731,-972"/>
<text text-anchor="middle" x="654" y="-953.6" font-family="sans" font-size="18.00" fill="#000000">kallisto_bus</text>
<text text-anchor="middle" x="654" y="-933.6" font-family="sans" font-size="18.00" fill="#000000">SRS: SRS3971246</text>
</g>
<!-- 14&#45;&gt;0 -->
<g id="edge14" class="edge">
<title>14&#45;&gt;0</title>
<path fill="none" stroke="#c0c0c0" stroke-width="2" d="M627.467,-923.7668C597.2448,-893.3815 552,-838.1772 552,-780 552,-780 552,-780 552,-162 552,-119.3959 550.6148,-97.1549 585,-72 634.3747,-35.8794 1578.6495,-21.1915 1778.8863,-18.4765"/>
<polygon fill="#c0c0c0" stroke="#c0c0c0" stroke-width="2" points="1778.9584,-21.976 1788.9106,-18.3423 1778.8646,-14.9766 1778.9584,-21.976"/>
</g>
<!-- 29 -->
<g id="node30" class="node">
<title>29</title>
<path fill="none" stroke="#56d892" stroke-width="2" d="M1234,-798C1234,-798 948,-798 948,-798 942,-798 936,-792 936,-786 936,-786 936,-774 936,-774 936,-768 942,-762 948,-762 948,-762 1234,-762 1234,-762 1240,-762 1246,-768 1246,-774 1246,-774 1246,-786 1246,-786 1246,-792 1240,-798 1234,-798"/>
<text text-anchor="middle" x="1091" y="-775.6" font-family="sans" font-size="18.00" fill="#000000">bustools_whitelist_correct_count</text>
</g>
<!-- 14&#45;&gt;29 -->
<g id="edge58" class="edge">
<title>14&#45;&gt;29</title>
<path fill="none" stroke="#c0c0c0" stroke-width="2" d="M718.2656,-923.9107C747.2367,-913.0096 781.8648,-899.9221 813,-888 890.2498,-858.42 979.3488,-823.6992 1035.4234,-801.7735"/>
<polygon fill="#c0c0c0" stroke="#c0c0c0" stroke-width="2" points="1036.7771,-805.0024 1044.8151,-798.1002 1034.2272,-798.4833 1036.7771,-805.0024"/>
</g>
<!-- 38 -->
<g id="node39" class="node">
<title>38</title>
<path fill="none" stroke="#d8bc56" stroke-width="2" d="M792.5,-882C792.5,-882 679.5,-882 679.5,-882 673.5,-882 667.5,-876 667.5,-870 667.5,-870 667.5,-858 667.5,-858 667.5,-852 673.5,-846 679.5,-846 679.5,-846 792.5,-846 792.5,-846 798.5,-846 804.5,-852 804.5,-858 804.5,-858 804.5,-870 804.5,-870 804.5,-876 798.5,-882 792.5,-882"/>
<text text-anchor="middle" x="736" y="-859.6" font-family="sans" font-size="18.00" fill="#000000">bustools_sort</text>
</g>
<!-- 14&#45;&gt;38 -->
<g id="edge76" class="edge">
<title>14&#45;&gt;38</title>
<path fill="none" stroke="#c0c0c0" stroke-width="2" d="M677.7178,-923.7037C688.248,-912.9167 700.6399,-900.2226 711.2836,-889.3192"/>
<polygon fill="#c0c0c0" stroke="#c0c0c0" stroke-width="2" points="713.8478,-891.703 718.3287,-882.1023 708.8387,-886.8132 713.8478,-891.703"/>
</g>
<!-- 15 -->
<g id="node16" class="node">
<title>15</title>
<path fill="none" stroke="#c6d856" stroke-width="2" d="M452,-972C452,-972 298,-972 298,-972 292,-972 286,-966 286,-960 286,-960 286,-936 286,-936 286,-930 292,-924 298,-924 298,-924 452,-924 452,-924 458,-924 464,-930 464,-936 464,-936 464,-960 464,-960 464,-966 458,-972 452,-972"/>
<text text-anchor="middle" x="375" y="-953.6" font-family="sans" font-size="18.00" fill="#000000">kallisto_bus</text>
<text text-anchor="middle" x="375" y="-933.6" font-family="sans" font-size="18.00" fill="#000000">SRS: SRS1467250</text>
</g>
<!-- 15&#45;&gt;0 -->
<g id="edge15" class="edge">
<title>15&#45;&gt;0</title>
<path fill="none" stroke="#c0c0c0" stroke-width="2" d="M303.2773,-923.9917C283.6875,-914.9535 263.5882,-903.1007 248,-888 185.413,-827.3703 186,-789.1383 186,-702 186,-702 186,-702 186,-162 186,5.9441 386.7369,-95.7028 553,-72 798.7842,-36.9606 1596.5871,-21.6783 1778.7357,-18.5989"/>
<polygon fill="#c0c0c0" stroke="#c0c0c0" stroke-width="2" points="1778.9389,-22.0961 1788.879,-18.4294 1778.8218,-15.0971 1778.9389,-22.0961"/>
</g>
<!-- 30 -->
<g id="node31" class="node">
<title>30</title>
<path fill="none" stroke="#56d892" stroke-width="2" d="M512,-798C512,-798 226,-798 226,-798 220,-798 214,-792 214,-786 214,-786 214,-774 214,-774 214,-768 220,-762 226,-762 226,-762 512,-762 512,-762 518,-762 524,-768 524,-774 524,-774 524,-786 524,-786 524,-792 518,-798 512,-798"/>
<text text-anchor="middle" x="369" y="-775.6" font-family="sans" font-size="18.00" fill="#000000">bustools_whitelist_correct_count</text>
</g>
<!-- 15&#45;&gt;30 -->
<g id="edge61" class="edge">
<title>15&#45;&gt;30</title>
<path fill="none" stroke="#c0c0c0" stroke-width="2" d="M389.2614,-923.7589C394.7066,-913.1583 400.2614,-900.3445 403,-888 407.6204,-867.173 408.4385,-860.6285 403,-840 399.9387,-828.3883 394.0573,-816.6655 388.0354,-806.701"/>
<polygon fill="#c0c0c0" stroke="#c0c0c0" stroke-width="2" points="390.874,-804.6428 382.5426,-798.0978 384.974,-808.4098 390.874,-804.6428"/>
</g>
<!-- 39 -->
<g id="node40" class="node">
<title>39</title>
<path fill="none" stroke="#d8bc56" stroke-width="2" d="M382.5,-882C382.5,-882 269.5,-882 269.5,-882 263.5,-882 257.5,-876 257.5,-870 257.5,-870 257.5,-858 257.5,-858 257.5,-852 263.5,-846 269.5,-846 269.5,-846 382.5,-846 382.5,-846 388.5,-846 394.5,-852 394.5,-858 394.5,-858 394.5,-870 394.5,-870 394.5,-876 388.5,-882 382.5,-882"/>
<text text-anchor="middle" x="326" y="-859.6" font-family="sans" font-size="18.00" fill="#000000">bustools_sort</text>
</g>
<!-- 15&#45;&gt;39 -->
<g id="edge77" class="edge">
<title>15&#45;&gt;39</title>
<path fill="none" stroke="#c0c0c0" stroke-width="2" d="M360.8272,-923.7037C354.8372,-913.4353 347.8393,-901.4387 341.6939,-890.9038"/>
<polygon fill="#c0c0c0" stroke="#c0c0c0" stroke-width="2" points="344.6217,-888.9766 336.5597,-882.1023 338.5752,-892.5037 344.6217,-888.9766"/>
</g>
<!-- 16 -->
<g id="node17" class="node">
<title>16</title>
<path fill="none" stroke="#d86e56" stroke-width="2" d="M1387,-882C1387,-882 1235,-882 1235,-882 1229,-882 1223,-876 1223,-870 1223,-870 1223,-858 1223,-858 1223,-852 1229,-846 1235,-846 1235,-846 1387,-846 1387,-846 1393,-846 1399,-852 1399,-858 1399,-858 1399,-870 1399,-870 1399,-876 1393,-882 1387,-882"/>
<text text-anchor="middle" x="1311" y="-859.6" font-family="sans" font-size="18.00" fill="#000000">tx_gene_mapping</text>
</g>
<!-- 16&#45;&gt;1 -->
<g id="edge16" class="edge">
<title>16&#45;&gt;1</title>
<path fill="none" stroke="#c0c0c0" stroke-width="2" d="M1304.8345,-845.9243C1291.8703,-810.376 1258.573,-730.7712 1206,-684 1188.861,-668.7524 1167.1529,-656.1391 1147.2256,-646.4778"/>
<polygon fill="#c0c0c0" stroke="#c0c0c0" stroke-width="2" points="1148.457,-643.1895 1137.9172,-642.111 1145.484,-649.5268 1148.457,-643.1895"/>
</g>
<!-- 16&#45;&gt;2 -->
<g id="edge20" class="edge">
<title>16&#45;&gt;2</title>
<path fill="none" stroke="#c0c0c0" stroke-width="2" d="M1308.7906,-845.7815C1305.5458,-811.6672 1302.7166,-736.8345 1332,-684 1338.2508,-672.7221 1347.5684,-662.7829 1357.5299,-654.4028"/>
<polygon fill="#c0c0c0" stroke="#c0c0c0" stroke-width="2" points="1359.9323,-656.9653 1365.6105,-648.0205 1355.5936,-651.4721 1359.9323,-656.9653"/>
</g>
<!-- 16&#45;&gt;3 -->
<g id="edge22" class="edge">
<title>16&#45;&gt;3</title>
<path fill="none" stroke="#c0c0c0" stroke-width="2" d="M1315.4755,-845.8479C1322.5098,-821.3571 1338.5979,-778.2437 1369,-756 1439.0686,-704.7343 1479.9636,-751.1589 1561,-720 1607.7468,-702.0256 1656.1135,-670.0671 1686.5874,-647.9907"/>
<polygon fill="#c0c0c0" stroke="#c0c0c0" stroke-width="2" points="1688.6987,-650.7827 1694.692,-642.0459 1684.5585,-645.1383 1688.6987,-650.7827"/>
</g>
<!-- 16&#45;&gt;17 -->
<g id="edge39" class="edge">
<title>16&#45;&gt;17</title>
<path fill="none" stroke="#c0c0c0" stroke-width="2" d="M1222.8786,-850.8288C1141.9349,-838.7305 1019.7285,-820.4648 919.6927,-805.5128"/>
<polygon fill="#c0c0c0" stroke="#c0c0c0" stroke-width="2" points="920.1829,-802.0473 909.7753,-804.0305 919.1481,-808.9704 920.1829,-802.0473"/>
</g>
<!-- 16&#45;&gt;21 -->
<g id="edge46" class="edge">
<title>16&#45;&gt;21</title>
<path fill="none" stroke="#c0c0c0" stroke-width="2" d="M1399.2341,-854.1106C1442.2642,-849.4722 1494.8001,-844.0814 1542,-840 1773.2448,-820.004 1831.6646,-822.9186 2063,-804 2087.2606,-802.016 2112.8102,-799.7778 2137.9774,-797.486"/>
<polygon fill="#c0c0c0" stroke="#c0c0c0" stroke-width="2" points="2138.3362,-800.9678 2147.9756,-796.5709 2137.6982,-793.997 2138.3362,-800.9678"/>
</g>
<!-- 16&#45;&gt;29 -->
<g id="edge59" class="edge">
<title>16&#45;&gt;29</title>
<path fill="none" stroke="#c0c0c0" stroke-width="2" d="M1263.8045,-845.9799C1229.846,-833.0139 1183.8781,-815.4625 1147.8897,-801.7215"/>
<polygon fill="#c0c0c0" stroke="#c0c0c0" stroke-width="2" points="1149.0872,-798.4324 1138.4965,-798.135 1146.5902,-804.9719 1149.0872,-798.4324"/>
</g>
<!-- 16&#45;&gt;30 -->
<g id="edge62" class="edge">
<title>16&#45;&gt;30</title>
<path fill="none" stroke="#c0c0c0" stroke-width="2" d="M1222.9079,-857.9267C1084.1342,-848.1182 806.1881,-827.4979 571,-804 556.1542,-802.5167 540.7073,-800.8694 525.2618,-799.1526"/>
<polygon fill="#c0c0c0" stroke="#c0c0c0" stroke-width="2" points="525.4461,-795.6515 515.1184,-798.0154 524.6662,-802.6079 525.4461,-795.6515"/>
</g>
<!-- 16&#45;&gt;31 -->
<g id="edge65" class="edge">
<title>16&#45;&gt;31</title>
<path fill="none" stroke="#c0c0c0" stroke-width="2" d="M1358.6246,-845.9799C1392.8918,-833.0139 1439.2776,-815.4625 1475.5931,-801.7215"/>
<polygon fill="#c0c0c0" stroke="#c0c0c0" stroke-width="2" points="1476.9575,-804.9475 1485.0717,-798.135 1474.4802,-798.4005 1476.9575,-804.9475"/>
</g>
<!-- 16&#45;&gt;32 -->
<g id="edge68" class="edge">
<title>16&#45;&gt;32</title>
<path fill="none" stroke="#c0c0c0" stroke-width="2" d="M1399.0295,-851.4244C1495.2808,-837.6742 1650.7216,-815.4683 1762.7486,-799.4645"/>
<polygon fill="#c0c0c0" stroke="#c0c0c0" stroke-width="2" points="1763.3659,-802.9119 1772.7704,-798.0328 1762.3759,-795.9823 1763.3659,-802.9119"/>
</g>
<!-- 17&#45;&gt;1 -->
<g id="edge17" class="edge">
<title>17&#45;&gt;1</title>
<path fill="none" stroke="#c0c0c0" stroke-width="2" d="M801.688,-755.9669C867.1845,-726.0913 978.1012,-675.4977 1041.8902,-646.401"/>
<polygon fill="#c0c0c0" stroke="#c0c0c0" stroke-width="2" points="1043.6832,-649.4301 1051.3289,-642.0956 1040.7781,-643.0613 1043.6832,-649.4301"/>
</g>
<!-- 18 -->
<g id="node19" class="node">
<title>18</title>
<path fill="none" stroke="#d88556" stroke-width="2" d="M1184.5,-720C1184.5,-720 997.5,-720 997.5,-720 991.5,-720 985.5,-714 985.5,-708 985.5,-708 985.5,-696 985.5,-696 985.5,-690 991.5,-684 997.5,-684 997.5,-684 1184.5,-684 1184.5,-684 1190.5,-684 1196.5,-690 1196.5,-696 1196.5,-696 1196.5,-708 1196.5,-708 1196.5,-714 1190.5,-720 1184.5,-720"/>
<text text-anchor="middle" x="1091" y="-697.6" font-family="sans" font-size="18.00" fill="#000000">create_sparse_matrix</text>
</g>
<!-- 18&#45;&gt;1 -->
<g id="edge18" class="edge">
<title>18&#45;&gt;1</title>
<path fill="none" stroke="#c0c0c0" stroke-width="2" d="M1091,-683.9092C1091,-674.5259 1091,-662.8499 1091,-652.3046"/>
<polygon fill="#c0c0c0" stroke="#c0c0c0" stroke-width="2" points="1094.5001,-652.2629 1091,-642.2629 1087.5001,-652.2629 1094.5001,-652.2629"/>
</g>
<!-- 19 -->
<g id="node20" class="node">
<title>19</title>
<path fill="none" stroke="#d88556" stroke-width="2" d="M814.5,-720C814.5,-720 627.5,-720 627.5,-720 621.5,-720 615.5,-714 615.5,-708 615.5,-708 615.5,-696 615.5,-696 615.5,-690 621.5,-684 627.5,-684 627.5,-684 814.5,-684 814.5,-684 820.5,-684 826.5,-690 826.5,-696 826.5,-696 826.5,-708 826.5,-708 826.5,-714 820.5,-720 814.5,-720"/>
<text text-anchor="middle" x="721" y="-697.6" font-family="sans" font-size="18.00" fill="#000000">create_sparse_matrix</text>
</g>
<!-- 19&#45;&gt;1 -->
<g id="edge19" class="edge">
<title>19&#45;&gt;1</title>
<path fill="none" stroke="#c0c0c0" stroke-width="2" d="M806.8154,-683.9092C863.22,-672.0185 937.089,-656.4461 995.3768,-644.1584"/>
<polygon fill="#c0c0c0" stroke="#c0c0c0" stroke-width="2" points="996.2671,-647.5477 1005.3301,-642.0601 994.8232,-640.6983 996.2671,-647.5477"/>
</g>
<!-- 20 -->
<g id="node21" class="node">
<title>20</title>
<path fill="none" stroke="#d88556" stroke-width="2" d="M1539.5,-720C1539.5,-720 1352.5,-720 1352.5,-720 1346.5,-720 1340.5,-714 1340.5,-708 1340.5,-708 1340.5,-696 1340.5,-696 1340.5,-690 1346.5,-684 1352.5,-684 1352.5,-684 1539.5,-684 1539.5,-684 1545.5,-684 1551.5,-690 1551.5,-696 1551.5,-696 1551.5,-708 1551.5,-708 1551.5,-714 1545.5,-720 1539.5,-720"/>
<text text-anchor="middle" x="1446" y="-697.6" font-family="sans" font-size="18.00" fill="#000000">create_sparse_matrix</text>
</g>
<!-- 20&#45;&gt;2 -->
<g id="edge21" class="edge">
<title>20&#45;&gt;2</title>
<path fill="none" stroke="#c0c0c0" stroke-width="2" d="M1436.9546,-683.9092C1432.9717,-675.9435 1428.1628,-666.3255 1423.5749,-657.1497"/>
<polygon fill="#c0c0c0" stroke="#c0c0c0" stroke-width="2" points="1426.7021,-655.5778 1419.0994,-648.1988 1420.4411,-658.7084 1426.7021,-655.5778"/>
</g>
<!-- 21&#45;&gt;3 -->
<g id="edge23" class="edge">
<title>21&#45;&gt;3</title>
<path fill="none" stroke="#c0c0c0" stroke-width="2" d="M2244.6305,-755.9685C2181.1121,-735.3517 2086.0163,-705.6331 2002,-684 1943.3084,-668.8877 1877.0836,-654.7326 1823.3566,-643.9706"/>
<polygon fill="#c0c0c0" stroke="#c0c0c0" stroke-width="2" points="1823.9659,-640.5233 1813.4747,-642.0011 1822.5977,-647.3882 1823.9659,-640.5233"/>
</g>
<!-- 22 -->
<g id="node23" class="node">
<title>22</title>
<path fill="none" stroke="#d88556" stroke-width="2" d="M1980.5,-720C1980.5,-720 1793.5,-720 1793.5,-720 1787.5,-720 1781.5,-714 1781.5,-708 1781.5,-708 1781.5,-696 1781.5,-696 1781.5,-690 1787.5,-684 1793.5,-684 1793.5,-684 1980.5,-684 1980.5,-684 1986.5,-684 1992.5,-690 1992.5,-696 1992.5,-696 1992.5,-708 1992.5,-708 1992.5,-714 1986.5,-720 1980.5,-720"/>
<text text-anchor="middle" x="1887" y="-697.6" font-family="sans" font-size="18.00" fill="#000000">create_sparse_matrix</text>
</g>
<!-- 22&#45;&gt;3 -->
<g id="edge24" class="edge">
<title>22&#45;&gt;3</title>
<path fill="none" stroke="#c0c0c0" stroke-width="2" d="M1847.8032,-683.9092C1823.5739,-672.7264 1792.2892,-658.2873 1766.5042,-646.3866"/>
<polygon fill="#c0c0c0" stroke="#c0c0c0" stroke-width="2" points="1767.8229,-643.1404 1757.2766,-642.1277 1764.8895,-649.4962 1767.8229,-643.1404"/>
</g>
<!-- 23 -->
<g id="node24" class="node">
<title>23</title>
<path fill="none" stroke="#d8d356" stroke-width="2" d="M968,-180C968,-180 852,-180 852,-180 846,-180 840,-174 840,-168 840,-168 840,-156 840,-156 840,-150 846,-144 852,-144 852,-144 968,-144 968,-144 974,-144 980,-150 980,-156 980,-156 980,-168 980,-168 980,-174 974,-180 968,-180"/>
<text text-anchor="middle" x="910" y="-157.6" font-family="sans" font-size="18.00" fill="#000000">extract_umap</text>
</g>
<!-- 23&#45;&gt;4 -->
<g id="edge25" class="edge">
<title>23&#45;&gt;4</title>
<path fill="none" stroke="#c0c0c0" stroke-width="2" d="M974.7713,-143.9243C1010.8081,-133.8675 1055.8232,-121.3052 1093.3367,-110.8363"/>
<polygon fill="#c0c0c0" stroke="#c0c0c0" stroke-width="2" points="1094.5109,-114.1424 1103.2021,-108.0831 1092.6293,-107.4 1094.5109,-114.1424"/>
</g>
<!-- 23&#45;&gt;6 -->
<g id="edge27" class="edge">
<title>23&#45;&gt;6</title>
<path fill="none" stroke="#c0c0c0" stroke-width="2" d="M893.3454,-143.8314C885.5886,-135.3694 876.2198,-125.1489 867.739,-115.8971"/>
<polygon fill="#c0c0c0" stroke="#c0c0c0" stroke-width="2" points="870.2162,-113.4198 860.8788,-108.4133 865.0561,-118.1499 870.2162,-113.4198"/>
</g>
<!-- 24 -->
<g id="node25" class="node">
<title>24</title>
<path fill="none" stroke="#d8d356" stroke-width="2" d="M1550,-180C1550,-180 1434,-180 1434,-180 1428,-180 1422,-174 1422,-168 1422,-168 1422,-156 1422,-156 1422,-150 1428,-144 1434,-144 1434,-144 1550,-144 1550,-144 1556,-144 1562,-150 1562,-156 1562,-156 1562,-168 1562,-168 1562,-174 1556,-180 1550,-180"/>
<text text-anchor="middle" x="1492" y="-157.6" font-family="sans" font-size="18.00" fill="#000000">extract_umap</text>
</g>
<!-- 24&#45;&gt;5 -->
<g id="edge26" class="edge">
<title>24&#45;&gt;5</title>
<path fill="none" stroke="#c0c0c0" stroke-width="2" d="M1562.3032,-146.3771C1610.4734,-135.6726 1674.7718,-121.384 1726.5833,-109.8704"/>
<polygon fill="#c0c0c0" stroke="#c0c0c0" stroke-width="2" points="1727.435,-113.2666 1736.4376,-107.6805 1725.9165,-106.4333 1727.435,-113.2666"/>
</g>
<!-- 24&#45;&gt;7 -->
<g id="edge28" class="edge">
<title>24&#45;&gt;7</title>
<path fill="none" stroke="#c0c0c0" stroke-width="2" d="M1492,-143.8314C1492,-136.131 1492,-126.9743 1492,-118.4166"/>
<polygon fill="#c0c0c0" stroke="#c0c0c0" stroke-width="2" points="1495.5001,-118.4132 1492,-108.4133 1488.5001,-118.4133 1495.5001,-118.4132"/>
</g>
<!-- 25 -->
<g id="node26" class="node">
<title>25</title>
<path fill="none" stroke="#d8a456" stroke-width="2" d="M2334.5,-1056C2334.5,-1056 1985.5,-1056 1985.5,-1056 1979.5,-1056 1973.5,-1050 1973.5,-1044 1973.5,-1044 1973.5,-1020 1973.5,-1020 1973.5,-1014 1979.5,-1008 1985.5,-1008 1985.5,-1008 2334.5,-1008 2334.5,-1008 2340.5,-1008 2346.5,-1014 2346.5,-1020 2346.5,-1020 2346.5,-1044 2346.5,-1044 2346.5,-1050 2340.5,-1056 2334.5,-1056"/>
<text text-anchor="middle" x="2160" y="-1037.6" font-family="sans" font-size="18.00" fill="#000000">kallisto_index</text>
<text text-anchor="middle" x="2160" y="-1017.6" font-family="sans" font-size="18.00" fill="#000000">fasta: gencode.v31.pc_transcripts.fa.gz</text>
</g>
<!-- 25&#45;&gt;8 -->
<g id="edge29" class="edge">
<title>25&#45;&gt;8</title>
<path fill="none" stroke="#c0c0c0" stroke-width="2" d="M2216.164,-1007.9297C2287.6267,-977.3028 2410.8393,-924.4975 2486.5008,-892.0711"/>
<polygon fill="#c0c0c0" stroke="#c0c0c0" stroke-width="2" points="2488.1274,-895.1819 2495.9401,-888.0257 2485.3699,-888.7479 2488.1274,-895.1819"/>
</g>
<!-- 25&#45;&gt;9 -->
<g id="edge30" class="edge">
<title>25&#45;&gt;9</title>
<path fill="none" stroke="#c0c0c0" stroke-width="2" d="M2160,-1007.9297C2160,-979.2365 2160,-931.0769 2160,-898.446"/>
<polygon fill="#c0c0c0" stroke="#c0c0c0" stroke-width="2" points="2163.5001,-898.0256 2160,-888.0257 2156.5001,-898.0257 2163.5001,-898.0256"/>
</g>
<!-- 25&#45;&gt;10 -->
<g id="edge31" class="edge">
<title>25&#45;&gt;10</title>
<path fill="none" stroke="#c0c0c0" stroke-width="2" d="M2188.082,-1007.9297C2222.8673,-978.1137 2282.1755,-927.2781 2320.1964,-894.6888"/>
<polygon fill="#c0c0c0" stroke="#c0c0c0" stroke-width="2" points="2322.6553,-897.191 2327.9701,-888.0257 2318.0997,-891.8762 2322.6553,-897.191"/>
</g>
<!-- 25&#45;&gt;12 -->
<g id="edge33" class="edge">
<title>25&#45;&gt;12</title>
<path fill="none" stroke="#c0c0c0" stroke-width="2" d="M2121.0279,-1007.929C2105.6631,-998.439 2087.8643,-987.4456 2071.7384,-977.4855"/>
<polygon fill="#c0c0c0" stroke="#c0c0c0" stroke-width="2" points="2073.3251,-974.3517 2062.9778,-972.0745 2069.6466,-980.3073 2073.3251,-974.3517"/>
</g>
<!-- 26 -->
<g id="node27" class="node">
<title>26</title>
<path fill="none" stroke="#d8a456" stroke-width="2" d="M656.5,-1056C656.5,-1056 291.5,-1056 291.5,-1056 285.5,-1056 279.5,-1050 279.5,-1044 279.5,-1044 279.5,-1020 279.5,-1020 279.5,-1014 285.5,-1008 291.5,-1008 291.5,-1008 656.5,-1008 656.5,-1008 662.5,-1008 668.5,-1014 668.5,-1020 668.5,-1020 668.5,-1044 668.5,-1044 668.5,-1050 662.5,-1056 656.5,-1056"/>
<text text-anchor="middle" x="474" y="-1037.6" font-family="sans" font-size="18.00" fill="#000000">kallisto_index</text>
<text text-anchor="middle" x="474" y="-1017.6" font-family="sans" font-size="18.00" fill="#000000">fasta: gencode.vM22.pc_transcripts.fa.gz</text>
</g>
<!-- 26&#45;&gt;11 -->
<g id="edge32" class="edge">
<title>26&#45;&gt;11</title>
<path fill="none" stroke="#c0c0c0" stroke-width="2" d="M379.7479,-1007.9907C346.6749,-998.3429 309.6461,-986.1323 277,-972 225.8326,-949.8499 170.9363,-917.1748 133.7568,-893.5702"/>
<polygon fill="#c0c0c0" stroke="#c0c0c0" stroke-width="2" points="135.478,-890.5165 125.1676,-888.0781 131.7071,-896.414 135.478,-890.5165"/>
</g>
<!-- 26&#45;&gt;14 -->
<g id="edge35" class="edge">
<title>26&#45;&gt;14</title>
<path fill="none" stroke="#c0c0c0" stroke-width="2" d="M525.5808,-1007.929C546.6696,-998.0875 571.2232,-986.6292 593.1788,-976.3832"/>
<polygon fill="#c0c0c0" stroke="#c0c0c0" stroke-width="2" points="594.83,-979.4751 602.4117,-972.0745 591.8697,-973.1318 594.83,-979.4751"/>
</g>
<!-- 26&#45;&gt;15 -->
<g id="edge36" class="edge">
<title>26&#45;&gt;15</title>
<path fill="none" stroke="#c0c0c0" stroke-width="2" d="M445.6306,-1007.929C434.8602,-998.7905 422.4467,-988.2578 411.0599,-978.5963"/>
<polygon fill="#c0c0c0" stroke="#c0c0c0" stroke-width="2" points="413.2631,-975.8756 403.3736,-972.0745 408.7343,-981.2131 413.2631,-975.8756"/>
</g>
<!-- 27 -->
<g id="node28" class="node">
<title>27</title>
<path fill="none" stroke="#d8a456" stroke-width="2" d="M1891,-1056C1891,-1056 1349,-1056 1349,-1056 1343,-1056 1337,-1050 1337,-1044 1337,-1044 1337,-1020 1337,-1020 1337,-1014 1343,-1008 1349,-1008 1349,-1008 1891,-1008 1891,-1008 1897,-1008 1903,-1014 1903,-1020 1903,-1020 1903,-1044 1903,-1044 1903,-1050 1897,-1056 1891,-1056"/>
<text text-anchor="middle" x="1620" y="-1037.6" font-family="sans" font-size="18.00" fill="#000000">kallisto_index</text>
<text text-anchor="middle" x="1620" y="-1017.6" font-family="sans" font-size="18.00" fill="#000000">fasta: GCF_000364345.1_Macaca_fascicularis_5.0_rna.fna.gz</text>
</g>
<!-- 27&#45;&gt;13 -->
<g id="edge34" class="edge">
<title>27&#45;&gt;13</title>
<path fill="none" stroke="#c0c0c0" stroke-width="2" d="M1619.7108,-1007.7037C1619.6164,-999.7808 1619.5099,-990.829 1619.4085,-982.3136"/>
<polygon fill="#c0c0c0" stroke="#c0c0c0" stroke-width="2" points="1622.9075,-982.1993 1619.2886,-972.2417 1615.908,-982.2827 1622.9075,-982.1993"/>
</g>
<!-- 28 -->
<g id="node29" class="node">
<title>28</title>
<path fill="none" stroke="#afd856" stroke-width="2" d="M1556.5,-1128C1556.5,-1128 1371.5,-1128 1371.5,-1128 1365.5,-1128 1359.5,-1122 1359.5,-1116 1359.5,-1116 1359.5,-1104 1359.5,-1104 1359.5,-1098 1365.5,-1092 1371.5,-1092 1371.5,-1092 1556.5,-1092 1556.5,-1092 1562.5,-1092 1568.5,-1098 1568.5,-1104 1568.5,-1104 1568.5,-1116 1568.5,-1116 1568.5,-1122 1562.5,-1128 1556.5,-1128"/>
<text text-anchor="middle" x="1464" y="-1105.6" font-family="sans" font-size="18.00" fill="#000000">download_references</text>
</g>
<!-- 28&#45;&gt;16 -->
<g id="edge37" class="edge">
<title>28&#45;&gt;16</title>
<path fill="none" stroke="#c0c0c0" stroke-width="2" d="M1377.4709,-1091.9259C1358.4292,-1083.962 1340.2981,-1072.4981 1328,-1056 1292.0162,-1007.7274 1298.2154,-932.4692 1305.0779,-892.0019"/>
<polygon fill="#c0c0c0" stroke="#c0c0c0" stroke-width="2" points="1308.5453,-892.4977 1306.9039,-882.0308 1301.6598,-891.2368 1308.5453,-892.4977"/>
</g>
<!-- 28&#45;&gt;25 -->
<g id="edge54" class="edge">
<title>28&#45;&gt;25</title>
<path fill="none" stroke="#c0c0c0" stroke-width="2" d="M1568.5748,-1098.2804C1672.6882,-1086.6125 1835.0401,-1068.4179 1963.3228,-1054.0414"/>
<polygon fill="#c0c0c0" stroke="#c0c0c0" stroke-width="2" points="1963.7299,-1057.5178 1973.2779,-1052.9258 1962.9503,-1050.5613 1963.7299,-1057.5178"/>
</g>
<!-- 28&#45;&gt;26 -->
<g id="edge55" class="edge">
<title>28&#45;&gt;26</title>
<path fill="none" stroke="#c0c0c0" stroke-width="2" d="M1359.4573,-1101.7633C1198.3217,-1089.0678 886.2431,-1064.4798 678.9741,-1048.1495"/>
<polygon fill="#c0c0c0" stroke="#c0c0c0" stroke-width="2" points="679.1201,-1044.6502 668.8761,-1047.3539 678.5702,-1051.6286 679.1201,-1044.6502"/>
</g>
<!-- 28&#45;&gt;27 -->
<g id="edge56" class="edge">
<title>28&#45;&gt;27</title>
<path fill="none" stroke="#c0c0c0" stroke-width="2" d="M1500.1816,-1091.9092C1518.7637,-1082.6182 1541.8413,-1071.0793 1562.7679,-1060.616"/>
<polygon fill="#c0c0c0" stroke="#c0c0c0" stroke-width="2" points="1564.5163,-1063.655 1571.8953,-1056.0523 1561.3858,-1057.394 1564.5163,-1063.655"/>
</g>
<!-- 29&#45;&gt;18 -->
<g id="edge40" class="edge">
<title>29&#45;&gt;18</title>
<path fill="none" stroke="#c0c0c0" stroke-width="2" d="M1091,-761.9092C1091,-752.5259 1091,-740.8499 1091,-730.3046"/>
<polygon fill="#c0c0c0" stroke="#c0c0c0" stroke-width="2" points="1094.5001,-730.2629 1091,-720.2629 1087.5001,-730.2629 1094.5001,-730.2629"/>
</g>
<!-- 30&#45;&gt;19 -->
<g id="edge41" class="edge">
<title>30&#45;&gt;19</title>
<path fill="none" stroke="#c0c0c0" stroke-width="2" d="M450.6406,-761.9092C504.1903,-750.0431 574.2862,-734.5104 629.6849,-722.2346"/>
<polygon fill="#c0c0c0" stroke="#c0c0c0" stroke-width="2" points="630.4919,-725.6408 639.4978,-720.0601 628.9774,-718.8065 630.4919,-725.6408"/>
</g>
<!-- 31&#45;&gt;20 -->
<g id="edge42" class="edge">
<title>31&#45;&gt;20</title>
<path fill="none" stroke="#c0c0c0" stroke-width="2" d="M1512.8218,-761.9092C1501.2656,-751.5484 1486.5916,-738.3925 1473.9402,-727.0498"/>
<polygon fill="#c0c0c0" stroke="#c0c0c0" stroke-width="2" points="1476.1523,-724.3324 1466.3702,-720.2629 1471.4795,-729.5444 1476.1523,-724.3324"/>
</g>
<!-- 32&#45;&gt;22 -->
<g id="edge47" class="edge">
<title>32&#45;&gt;22</title>
<path fill="none" stroke="#c0c0c0" stroke-width="2" d="M1896.2168,-761.9092C1894.7732,-752.5259 1892.9769,-740.8499 1891.3545,-730.3046"/>
<polygon fill="#c0c0c0" stroke="#c0c0c0" stroke-width="2" points="1894.7896,-729.6144 1889.8097,-720.2629 1887.871,-730.6789 1894.7896,-729.6144"/>
</g>
<!-- 33 -->
<g id="node34" class="node">
<title>33</title>
<path fill="none" stroke="#56a2d8" stroke-width="2" d="M1317,-264C1317,-264 1069,-264 1069,-264 1063,-264 1057,-258 1057,-252 1057,-252 1057,-228 1057,-228 1057,-222 1063,-216 1069,-216 1069,-216 1317,-216 1317,-216 1323,-216 1329,-222 1329,-228 1329,-228 1329,-252 1329,-252 1329,-258 1323,-264 1317,-264"/>
<text text-anchor="middle" x="1193" y="-245.6" font-family="sans" font-size="18.00" fill="#000000">calculate_umap_and_cluster</text>
<text text-anchor="middle" x="1193" y="-225.6" font-family="sans" font-size="18.00" fill="#000000">dims: 50</text>
</g>
<!-- 33&#45;&gt;23 -->
<g id="edge48" class="edge">
<title>33&#45;&gt;23</title>
<path fill="none" stroke="#c0c0c0" stroke-width="2" d="M1105.7815,-215.961C1067.1687,-205.3186 1022.1997,-192.9243 985.1038,-182.7"/>
<polygon fill="#c0c0c0" stroke="#c0c0c0" stroke-width="2" points="985.9282,-179.2968 975.3577,-180.0138 984.0682,-186.0451 985.9282,-179.2968"/>
</g>
<!-- 34 -->
<g id="node35" class="node">
<title>34</title>
<path fill="none" stroke="#56d0d8" stroke-width="2" d="M1035.5,-342C1035.5,-342 784.5,-342 784.5,-342 778.5,-342 772.5,-336 772.5,-330 772.5,-330 772.5,-318 772.5,-318 772.5,-312 778.5,-306 784.5,-306 784.5,-306 1035.5,-306 1035.5,-306 1041.5,-306 1047.5,-312 1047.5,-318 1047.5,-318 1047.5,-330 1047.5,-330 1047.5,-336 1041.5,-342 1035.5,-342"/>
<text text-anchor="middle" x="910" y="-319.6" font-family="sans" font-size="18.00" fill="#000000">label_known_cells_with_type</text>
</g>
<!-- 34&#45;&gt;23 -->
<g id="edge49" class="edge">
<title>34&#45;&gt;23</title>
<path fill="none" stroke="#c0c0c0" stroke-width="2" d="M831.8319,-305.9355C792.3972,-295.0751 750.5084,-280.2343 739,-264 726.6625,-246.5961 726.3892,-233.207 739,-216 750.4518,-200.3744 791.1828,-187.1792 830.0185,-177.7443"/>
<polygon fill="#c0c0c0" stroke="#c0c0c0" stroke-width="2" points="830.904,-181.1315 839.8322,-175.4274 829.2956,-174.3188 830.904,-181.1315"/>
</g>
<!-- 34&#45;&gt;24 -->
<g id="edge52" class="edge">
<title>34&#45;&gt;24</title>
<path fill="none" stroke="#c0c0c0" stroke-width="2" d="M827.7993,-305.9844C806.0078,-297.0632 784.9635,-283.7722 772,-264 760.3029,-246.1594 757.4901,-231.6389 772,-216 793.5073,-192.8193 1228.5472,-172.628 1411.7628,-165.1185"/>
<polygon fill="#c0c0c0" stroke="#c0c0c0" stroke-width="2" points="1412.0304,-168.6106 1421.8796,-164.7063 1411.7454,-161.6164 1412.0304,-168.6106"/>
</g>
<!-- 35 -->
<g id="node36" class="node">
<title>35</title>
<path fill="none" stroke="#d85656" stroke-width="2" d="M1026.5,-258C1026.5,-258 793.5,-258 793.5,-258 787.5,-258 781.5,-252 781.5,-246 781.5,-246 781.5,-234 781.5,-234 781.5,-228 787.5,-222 793.5,-222 793.5,-222 1026.5,-222 1026.5,-222 1032.5,-222 1038.5,-228 1038.5,-234 1038.5,-234 1038.5,-246 1038.5,-246 1038.5,-252 1032.5,-258 1026.5,-258"/>
<text text-anchor="middle" x="910" y="-235.6" font-family="sans" font-size="18.00" fill="#000000">predict_missing_cell_types</text>
</g>
<!-- 34&#45;&gt;35 -->
<g id="edge72" class="edge">
<title>34&#45;&gt;35</title>
<path fill="none" stroke="#c0c0c0" stroke-width="2" d="M910,-305.7733C910,-294.8758 910,-280.7946 910,-268.4587"/>
<polygon fill="#c0c0c0" stroke="#c0c0c0" stroke-width="2" points="913.5001,-268.1911 910,-258.1912 906.5001,-268.1912 913.5001,-268.1911"/>
</g>
<!-- 37 -->
<g id="node38" class="node">
<title>37</title>
<path fill="none" stroke="#d85656" stroke-width="2" d="M1592.5,-258C1592.5,-258 1359.5,-258 1359.5,-258 1353.5,-258 1347.5,-252 1347.5,-246 1347.5,-246 1347.5,-234 1347.5,-234 1347.5,-228 1353.5,-222 1359.5,-222 1359.5,-222 1592.5,-222 1592.5,-222 1598.5,-222 1604.5,-228 1604.5,-234 1604.5,-234 1604.5,-246 1604.5,-246 1604.5,-252 1598.5,-258 1592.5,-258"/>
<text text-anchor="middle" x="1476" y="-235.6" font-family="sans" font-size="18.00" fill="#000000">predict_missing_cell_types</text>
</g>
<!-- 34&#45;&gt;37 -->
<g id="edge75" class="edge">
<title>34&#45;&gt;37</title>
<path fill="none" stroke="#c0c0c0" stroke-width="2" d="M1047.0248,-305.9591C1131.0989,-294.5998 1240.8974,-279.2457 1338,-264 1346.6401,-262.6435 1355.5762,-261.1944 1364.5546,-259.7056"/>
<polygon fill="#c0c0c0" stroke="#c0c0c0" stroke-width="2" points="1365.4098,-263.1112 1374.696,-258.0105 1364.2558,-256.207 1365.4098,-263.1112"/>
</g>
<!-- 35&#45;&gt;23 -->
<g id="edge50" class="edge">
<title>35&#45;&gt;23</title>
<path fill="none" stroke="#c0c0c0" stroke-width="2" d="M910,-221.9092C910,-212.5259 910,-200.8499 910,-190.3046"/>
<polygon fill="#c0c0c0" stroke="#c0c0c0" stroke-width="2" points="913.5001,-190.2629 910,-180.2629 906.5001,-190.2629 913.5001,-190.2629"/>
</g>
<!-- 36 -->
<g id="node37" class="node">
<title>36</title>
<path fill="none" stroke="#56a2d8" stroke-width="2" d="M1883,-264C1883,-264 1635,-264 1635,-264 1629,-264 1623,-258 1623,-252 1623,-252 1623,-228 1623,-228 1623,-222 1629,-216 1635,-216 1635,-216 1883,-216 1883,-216 1889,-216 1895,-222 1895,-228 1895,-228 1895,-252 1895,-252 1895,-258 1889,-264 1883,-264"/>
<text text-anchor="middle" x="1759" y="-245.6" font-family="sans" font-size="18.00" fill="#000000">calculate_umap_and_cluster</text>
<text text-anchor="middle" x="1759" y="-225.6" font-family="sans" font-size="18.00" fill="#000000">dims: 50</text>
</g>
<!-- 36&#45;&gt;24 -->
<g id="edge51" class="edge">
<title>36&#45;&gt;24</title>
<path fill="none" stroke="#c0c0c0" stroke-width="2" d="M1676.7126,-215.961C1640.4379,-205.3639 1598.2172,-193.0297 1563.3048,-182.8306"/>
<polygon fill="#c0c0c0" stroke="#c0c0c0" stroke-width="2" points="1564.2428,-179.4584 1553.6625,-180.0138 1562.2799,-186.1776 1564.2428,-179.4584"/>
</g>
<!-- 37&#45;&gt;24 -->
<g id="edge53" class="edge">
<title>37&#45;&gt;24</title>
<path fill="none" stroke="#c0c0c0" stroke-width="2" d="M1479.7109,-221.9092C1481.6357,-212.5259 1484.0308,-200.8499 1486.1939,-190.3046"/>
<polygon fill="#c0c0c0" stroke="#c0c0c0" stroke-width="2" points="1489.6729,-190.7623 1488.2538,-180.2629 1482.8156,-189.3556 1489.6729,-190.7623"/>
</g>
<!-- 38&#45;&gt;29 -->
<g id="edge57" class="edge">
<title>38&#45;&gt;29</title>
<path fill="none" stroke="#c0c0c0" stroke-width="2" d="M804.8685,-847.7044C861.8819,-834.2139 943.1911,-814.9745 1004.5719,-800.4506"/>
<polygon fill="#c0c0c0" stroke="#c0c0c0" stroke-width="2" points="1005.7049,-803.7792 1014.6303,-798.0706 1004.093,-796.9673 1005.7049,-803.7792"/>
</g>
<!-- 39&#45;&gt;30 -->
<g id="edge60" class="edge">
<title>39&#45;&gt;30</title>
<path fill="none" stroke="#c0c0c0" stroke-width="2" d="M335.3304,-845.7733C341.0779,-834.5456 348.5554,-819.9383 355.0034,-807.3422"/>
<polygon fill="#c0c0c0" stroke="#c0c0c0" stroke-width="2" points="358.2466,-808.6875 359.6878,-798.1912 352.0156,-805.4978 358.2466,-808.6875"/>
</g>
<!-- 40&#45;&gt;31 -->
<g id="edge63" class="edge">
<title>40&#45;&gt;31</title>
<path fill="none" stroke="#c0c0c0" stroke-width="2" d="M1600.3393,-845.7733C1588.2808,-833.9952 1572.4147,-818.4981 1559.1122,-805.5049"/>
<polygon fill="#c0c0c0" stroke="#c0c0c0" stroke-width="2" points="1561.2237,-802.6748 1551.6243,-798.1912 1556.3325,-807.6824 1561.2237,-802.6748"/>
</g>
<!-- 41&#45;&gt;32 -->
<g id="edge66" class="edge">
<title>41&#45;&gt;32</title>
<path fill="none" stroke="#c0c0c0" stroke-width="2" d="M1901.349,-845.7733C1900.9599,-834.8758 1900.457,-820.7946 1900.0164,-808.4587"/>
<polygon fill="#c0c0c0" stroke="#c0c0c0" stroke-width="2" points="1903.5045,-808.0599 1899.6497,-798.1912 1896.5089,-808.3098 1903.5045,-808.0599"/>
</g>
<!-- 42 -->
<g id="node43" class="node">
<title>42</title>
<path fill="none" stroke="#56d87b" stroke-width="2" d="M1268,-348C1268,-348 1118,-348 1118,-348 1112,-348 1106,-342 1106,-336 1106,-336 1106,-312 1106,-312 1106,-306 1112,-300 1118,-300 1118,-300 1268,-300 1268,-300 1274,-300 1280,-306 1280,-312 1280,-312 1280,-336 1280,-336 1280,-342 1274,-348 1268,-348"/>
<text text-anchor="middle" x="1193" y="-329.6" font-family="sans" font-size="18.00" fill="#000000">integrate</text>
<text text-anchor="middle" x="1193" y="-309.6" font-family="sans" font-size="18.00" fill="#000000">method: fastMNN</text>
</g>
<!-- 42&#45;&gt;33 -->
<g id="edge69" class="edge">
<title>42&#45;&gt;33</title>
<path fill="none" stroke="#c0c0c0" stroke-width="2" d="M1193,-299.7037C1193,-291.7808 1193,-282.829 1193,-274.3136"/>
<polygon fill="#c0c0c0" stroke="#c0c0c0" stroke-width="2" points="1196.5001,-274.2416 1193,-264.2417 1189.5001,-274.2417 1196.5001,-274.2416"/>
</g>
<!-- 42&#45;&gt;35 -->
<g id="edge71" class="edge">
<title>42&#45;&gt;35</title>
<path fill="none" stroke="#c0c0c0" stroke-width="2" d="M1111.9036,-299.929C1070.4086,-287.6125 1020.3821,-272.7636 980.5071,-260.9279"/>
<polygon fill="#c0c0c0" stroke="#c0c0c0" stroke-width="2" points="981.4439,-257.5551 970.8613,-258.0648 979.452,-264.2657 981.4439,-257.5551"/>
</g>
<!-- 43&#45;&gt;34 -->
<g id="edge70" class="edge">
<title>43&#45;&gt;34</title>
<path fill="none" stroke="#c0c0c0" stroke-width="2" d="M1250.9057,-537.8246C1183.9425,-528.4224 1084.1096,-511.7192 1051,-492 992.4909,-457.1535 946.9161,-389.0021 924.7592,-351.0869"/>
<polygon fill="#c0c0c0" stroke="#c0c0c0" stroke-width="2" points="927.6422,-349.078 919.637,-342.1376 921.5669,-352.5552 927.6422,-349.078"/>
</g>
<!-- 43&#45;&gt;45 -->
<g id="edge85" class="edge">
<title>43&#45;&gt;45</title>
<path fill="none" stroke="#c0c0c0" stroke-width="2" d="M1322.8033,-527.6793C1325.989,-520.1999 1329.8787,-511.0675 1333.9429,-501.5253"/>
<polygon fill="#c0c0c0" stroke="#c0c0c0" stroke-width="2" points="1337.1772,-502.8635 1337.8758,-492.2917 1330.737,-500.1204 1337.1772,-502.8635"/>
</g>
<!-- 44 -->
<g id="node45" class="node">
<title>44</title>
<path fill="none" stroke="#56d87b" stroke-width="2" d="M1531.5,-348C1531.5,-348 1420.5,-348 1420.5,-348 1414.5,-348 1408.5,-342 1408.5,-336 1408.5,-336 1408.5,-312 1408.5,-312 1408.5,-306 1414.5,-300 1420.5,-300 1420.5,-300 1531.5,-300 1531.5,-300 1537.5,-300 1543.5,-306 1543.5,-312 1543.5,-312 1543.5,-336 1543.5,-336 1543.5,-342 1537.5,-348 1531.5,-348"/>
<text text-anchor="middle" x="1476" y="-329.6" font-family="sans" font-size="18.00" fill="#000000">integrate</text>
<text text-anchor="middle" x="1476" y="-309.6" font-family="sans" font-size="18.00" fill="#000000">method: CCA</text>
</g>
<!-- 44&#45;&gt;36 -->
<g id="edge73" class="edge">
<title>44&#45;&gt;36</title>
<path fill="none" stroke="#c0c0c0" stroke-width="2" d="M1543.7856,-303.8799C1581.102,-292.8036 1627.9081,-278.9107 1668.3313,-266.9123"/>
<polygon fill="#c0c0c0" stroke="#c0c0c0" stroke-width="2" points="1669.3314,-270.2664 1677.9221,-264.0655 1667.3395,-263.5558 1669.3314,-270.2664"/>
</g>
<!-- 44&#45;&gt;37 -->
<g id="edge74" class="edge">
<title>44&#45;&gt;37</title>
<path fill="none" stroke="#c0c0c0" stroke-width="2" d="M1476,-299.7037C1476,-289.8502 1476,-278.4053 1476,-268.1877"/>
<polygon fill="#c0c0c0" stroke="#c0c0c0" stroke-width="2" points="1479.5001,-268.1023 1476,-258.1023 1472.5001,-268.1024 1479.5001,-268.1023"/>
</g>
<!-- 45&#45;&gt;42 -->
<g id="edge80" class="edge">
<title>45&#45;&gt;42</title>
<path fill="none" stroke="#c0c0c0" stroke-width="2" d="M1280.9362,-383.671C1265.8231,-373.4157 1250.5397,-363.0448 1237.0486,-353.8901"/>
<polygon fill="#c0c0c0" stroke="#c0c0c0" stroke-width="2" points="1238.7017,-350.7822 1228.4617,-348.0633 1234.7712,-356.5745 1238.7017,-350.7822"/>
</g>
<!-- 45&#45;&gt;44 -->
<g id="edge84" class="edge">
<title>45&#45;&gt;44</title>
<path fill="none" stroke="#c0c0c0" stroke-width="2" d="M1415.8056,-383.671C1425.6582,-373.904 1435.6166,-364.0322 1444.5202,-355.206"/>
<polygon fill="#c0c0c0" stroke="#c0c0c0" stroke-width="2" points="1447.0878,-357.5891 1451.7257,-348.0633 1442.1597,-352.6178 1447.0878,-357.5891"/>
</g>
</g>
</svg>
