<?xml version="1.0" encoding="UTF-8" standalone="no"?>
<!DOCTYPE svg PUBLIC "-//W3C//DTD SVG 1.1//EN"
 "http://www.w3.org/Graphics/SVG/1.1/DTD/svg11.dtd">
<!-- Generated by graphviz version 2.40.1 (20161225.0304)
 -->
<!-- Title: snakemake_dag Pages: 1 -->
<svg width="1145pt" height="404pt"
 viewBox="0.00 0.00 1145.00 404.00" xmlns="http://www.w3.org/2000/svg" xmlns:xlink="http://www.w3.org/1999/xlink">
<g id="graph0" class="graph" transform="scale(1 1) rotate(0) translate(4 400)">
<title>snakemake_dag</title>
<polygon fill="#ffffff" stroke="transparent" points="-4,4 -4,-400 1141,-400 1141,4 -4,4"/>
<!-- 0 -->
<g id="node1" class="node">
<title>0</title>
<path fill="none" stroke="#56d8d8" stroke-width="2" d="M501,-36C501,-36 471,-36 471,-36 465,-36 459,-30 459,-24 459,-24 459,-12 459,-12 459,-6 465,0 471,0 471,0 501,0 501,0 507,0 513,-6 513,-12 513,-12 513,-24 513,-24 513,-30 507,-36 501,-36"/>
<text text-anchor="middle" x="486" y="-15.5" font-family="sans" font-size="10.00" fill="#000000">all</text>
</g>
<!-- 1 -->
<g id="node2" class="node">
<title>1</title>
<path fill="none" stroke="#d85656" stroke-width="2" d="M363,-108C363,-108 205,-108 205,-108 199,-108 193,-102 193,-96 193,-96 193,-84 193,-84 193,-78 199,-72 205,-72 205,-72 363,-72 363,-72 369,-72 375,-78 375,-84 375,-84 375,-96 375,-96 375,-102 369,-108 363,-108"/>
<text text-anchor="middle" x="284" y="-87.5" font-family="sans" font-size="10.00" fill="#000000">bustools_whitelist_correct_count</text>
</g>
<!-- 1&#45;&gt;0 -->
<g id="edge1" class="edge">
<title>1&#45;&gt;0</title>
<path fill="none" stroke="#c0c0c0" stroke-width="2" d="M334.7124,-71.9243C370.4045,-59.2023 417.3456,-42.4709 449.4161,-31.0398"/>
<polygon fill="#c0c0c0" stroke="#c0c0c0" stroke-width="2" points="450.6183,-34.3271 458.8627,-27.6727 448.268,-27.7334 450.6183,-34.3271"/>
</g>
<!-- 2 -->
<g id="node3" class="node">
<title>2</title>
<path fill="none" stroke="#d85656" stroke-width="2" d="M1125,-108C1125,-108 967,-108 967,-108 961,-108 955,-102 955,-96 955,-96 955,-84 955,-84 955,-78 961,-72 967,-72 967,-72 1125,-72 1125,-72 1131,-72 1137,-78 1137,-84 1137,-84 1137,-96 1137,-96 1137,-102 1131,-108 1125,-108"/>
<text text-anchor="middle" x="1046" y="-87.5" font-family="sans" font-size="10.00" fill="#000000">bustools_whitelist_correct_count</text>
</g>
<!-- 2&#45;&gt;0 -->
<g id="edge2" class="edge">
<title>2&#45;&gt;0</title>
<path fill="none" stroke="#c0c0c0" stroke-width="2" d="M954.7523,-73.3377C951.8023,-72.875 948.879,-72.4277 946,-72 789.5147,-48.7536 601.8593,-29.3435 523.3732,-21.6036"/>
<polygon fill="#c0c0c0" stroke="#c0c0c0" stroke-width="2" points="523.3316,-18.0828 513.0377,-20.5897 522.6482,-25.0493 523.3316,-18.0828"/>
</g>
<!-- 3 -->
<g id="node4" class="node">
<title>3</title>
<path fill="none" stroke="#d85656" stroke-width="2" d="M725,-108C725,-108 567,-108 567,-108 561,-108 555,-102 555,-96 555,-96 555,-84 555,-84 555,-78 561,-72 567,-72 567,-72 725,-72 725,-72 731,-72 737,-78 737,-84 737,-84 737,-96 737,-96 737,-102 731,-108 725,-108"/>
<text text-anchor="middle" x="646" y="-87.5" font-family="sans" font-size="10.00" fill="#000000">bustools_whitelist_correct_count</text>
</g>
<!-- 3&#45;&gt;0 -->
<g id="edge3" class="edge">
<title>3&#45;&gt;0</title>
<path fill="none" stroke="#c0c0c0" stroke-width="2" d="M605.6252,-71.8314C580.1265,-60.3569 547.4424,-45.6491 522.6833,-34.5075"/>
<polygon fill="#c0c0c0" stroke="#c0c0c0" stroke-width="2" points="523.8333,-31.187 513.2778,-30.275 520.9607,-37.5704 523.8333,-31.187"/>
</g>
<!-- 4 -->
<g id="node5" class="node">
<title>4</title>
<path fill="none" stroke="#d85656" stroke-width="2" d="M925,-108C925,-108 767,-108 767,-108 761,-108 755,-102 755,-96 755,-96 755,-84 755,-84 755,-78 761,-72 767,-72 767,-72 925,-72 925,-72 931,-72 937,-78 937,-84 937,-84 937,-96 937,-96 937,-102 931,-108 925,-108"/>
<text text-anchor="middle" x="846" y="-87.5" font-family="sans" font-size="10.00" fill="#000000">bustools_whitelist_correct_count</text>
</g>
<!-- 4&#45;&gt;0 -->
<g id="edge4" class="edge">
<title>4&#45;&gt;0</title>
<path fill="none" stroke="#c0c0c0" stroke-width="2" d="M755.6215,-71.9243C680.4848,-56.897 577.3764,-36.2753 523.0149,-25.403"/>
<polygon fill="#c0c0c0" stroke="#c0c0c0" stroke-width="2" points="523.6245,-21.9557 513.1323,-23.4265 522.2516,-28.8197 523.6245,-21.9557"/>
</g>
<!-- 5 -->
<g id="node6" class="node">
<title>5</title>
<path fill="none" stroke="#569ad8" stroke-width="2" d="M487,-108C487,-108 405,-108 405,-108 399,-108 393,-102 393,-96 393,-96 393,-84 393,-84 393,-78 399,-72 405,-72 405,-72 487,-72 487,-72 493,-72 499,-78 499,-84 499,-84 499,-96 499,-96 499,-102 493,-108 487,-108"/>
<text text-anchor="middle" x="446" y="-93" font-family="sans" font-size="10.00" fill="#000000">kallisto_quant</text>
<text text-anchor="middle" x="446" y="-82" font-family="sans" font-size="10.00" fill="#000000">SRS: SRS3732876</text>
</g>
<!-- 5&#45;&gt;0 -->
<g id="edge5" class="edge">
<title>5&#45;&gt;0</title>
<path fill="none" stroke="#c0c0c0" stroke-width="2" d="M456.0937,-71.8314C460.5597,-63.7925 465.9075,-54.1666 470.8379,-45.2918"/>
<polygon fill="#c0c0c0" stroke="#c0c0c0" stroke-width="2" points="473.9735,-46.8546 475.7704,-36.4133 467.8544,-43.4551 473.9735,-46.8546"/>
</g>
<!-- 6 -->
<g id="node7" class="node">
<title>6</title>
<path fill="none" stroke="#569ad8" stroke-width="2" d="M94,-180C94,-180 12,-180 12,-180 6,-180 0,-174 0,-168 0,-168 0,-156 0,-156 0,-150 6,-144 12,-144 12,-144 94,-144 94,-144 100,-144 106,-150 106,-156 106,-156 106,-168 106,-168 106,-174 100,-180 94,-180"/>
<text text-anchor="middle" x="53" y="-165" font-family="sans" font-size="10.00" fill="#000000">kallisto_quant</text>
<text text-anchor="middle" x="53" y="-154" font-family="sans" font-size="10.00" fill="#000000">SRS: SRS2166836</text>
</g>
<!-- 6&#45;&gt;0 -->
<g id="edge6" class="edge">
<title>6&#45;&gt;0</title>
<path fill="none" stroke="#c0c0c0" stroke-width="2" d="M48.404,-143.8011C44.4687,-123.4757 41.9471,-90.9498 60,-72 86.6677,-44.0075 349.8349,-25.9234 448.7115,-20.0701"/>
<polygon fill="#c0c0c0" stroke="#c0c0c0" stroke-width="2" points="449.0669,-23.5554 458.8461,-19.4791 448.6593,-16.5673 449.0669,-23.5554"/>
</g>
<!-- 7 -->
<g id="node8" class="node">
<title>7</title>
<path fill="none" stroke="#569ad8" stroke-width="2" d="M163,-108C163,-108 81,-108 81,-108 75,-108 69,-102 69,-96 69,-96 69,-84 69,-84 69,-78 75,-72 81,-72 81,-72 163,-72 163,-72 169,-72 175,-78 175,-84 175,-84 175,-96 175,-96 175,-102 169,-108 163,-108"/>
<text text-anchor="middle" x="122" y="-93" font-family="sans" font-size="10.00" fill="#000000">kallisto_quant</text>
<text text-anchor="middle" x="122" y="-82" font-family="sans" font-size="10.00" fill="#000000">SRS: SRS3106664</text>
</g>
<!-- 7&#45;&gt;0 -->
<g id="edge7" class="edge">
<title>7&#45;&gt;0</title>
<path fill="none" stroke="#c0c0c0" stroke-width="2" d="M175.0027,-74.2128C178.0384,-73.4332 181.0533,-72.6892 184,-72 278.474,-49.9048 391.4107,-31.9122 448.6997,-23.3712"/>
<polygon fill="#c0c0c0" stroke="#c0c0c0" stroke-width="2" points="449.3519,-26.8129 458.7323,-21.8875 448.3278,-19.8882 449.3519,-26.8129"/>
</g>
<!-- 8 -->
<g id="node9" class="node">
<title>8</title>
<path fill="none" stroke="#569ad8" stroke-width="2" d="M568,-252C568,-252 486,-252 486,-252 480,-252 474,-246 474,-240 474,-240 474,-228 474,-228 474,-222 480,-216 486,-216 486,-216 568,-216 568,-216 574,-216 580,-222 580,-228 580,-228 580,-240 580,-240 580,-246 574,-252 568,-252"/>
<text text-anchor="middle" x="527" y="-237" font-family="sans" font-size="10.00" fill="#000000">kallisto_quant</text>
<text text-anchor="middle" x="527" y="-226" font-family="sans" font-size="10.00" fill="#000000">SRS: SRS3675268</text>
</g>
<!-- 8&#45;&gt;0 -->
<g id="edge8" class="edge">
<title>8&#45;&gt;0</title>
<path fill="none" stroke="#c0c0c0" stroke-width="2" d="M526.4588,-215.7284C525.2069,-185.4147 521.1235,-123.0099 508,-72 505.7157,-63.1213 502.2944,-53.7666 498.8264,-45.3838"/>
<polygon fill="#c0c0c0" stroke="#c0c0c0" stroke-width="2" points="501.9825,-43.8641 494.7992,-36.0763 495.5581,-46.6439 501.9825,-43.8641"/>
</g>
<!-- 9 -->
<g id="node10" class="node">
<title>9</title>
<path fill="none" stroke="#59d856" stroke-width="2" d="M302.5,-180C302.5,-180 243.5,-180 243.5,-180 237.5,-180 231.5,-174 231.5,-168 231.5,-168 231.5,-156 231.5,-156 231.5,-150 237.5,-144 243.5,-144 243.5,-144 302.5,-144 302.5,-144 308.5,-144 314.5,-150 314.5,-156 314.5,-156 314.5,-168 314.5,-168 314.5,-174 308.5,-180 302.5,-180"/>
<text text-anchor="middle" x="273" y="-159.5" font-family="sans" font-size="10.00" fill="#000000">bustools_sort</text>
</g>
<!-- 9&#45;&gt;1 -->
<g id="edge9" class="edge">
<title>9&#45;&gt;1</title>
<path fill="none" stroke="#c0c0c0" stroke-width="2" d="M275.7758,-143.8314C276.9522,-136.131 278.3511,-126.9743 279.6586,-118.4166"/>
<polygon fill="#c0c0c0" stroke="#c0c0c0" stroke-width="2" points="283.1364,-118.8272 281.1869,-108.4133 276.2167,-117.7699 283.1364,-118.8272"/>
</g>
<!-- 10 -->
<g id="node11" class="node">
<title>10</title>
<path fill="none" stroke="#97d856" stroke-width="2" d="M358,-252C358,-252 276,-252 276,-252 270,-252 264,-246 264,-240 264,-240 264,-228 264,-228 264,-222 270,-216 276,-216 276,-216 358,-216 358,-216 364,-216 370,-222 370,-228 370,-228 370,-240 370,-240 370,-246 364,-252 358,-252"/>
<text text-anchor="middle" x="317" y="-237" font-family="sans" font-size="10.00" fill="#000000">kallisto_bus</text>
<text text-anchor="middle" x="317" y="-226" font-family="sans" font-size="10.00" fill="#000000">SRS: SRS4715841</text>
</g>
<!-- 10&#45;&gt;1 -->
<g id="edge10" class="edge">
<title>10&#45;&gt;1</title>
<path fill="none" stroke="#c0c0c0" stroke-width="2" d="M322.4435,-215.9158C327.1004,-197.3807 331.9079,-167.961 324,-144 320.7092,-134.0288 314.7884,-124.3944 308.4936,-116.0924"/>
<polygon fill="#c0c0c0" stroke="#c0c0c0" stroke-width="2" points="311.172,-113.8384 302.1576,-108.2714 305.7328,-118.2448 311.172,-113.8384"/>
</g>
<!-- 10&#45;&gt;9 -->
<g id="edge25" class="edge">
<title>10&#45;&gt;9</title>
<path fill="none" stroke="#c0c0c0" stroke-width="2" d="M305.8969,-215.8314C300.9326,-207.7079 294.9778,-197.9637 289.5072,-189.0118"/>
<polygon fill="#c0c0c0" stroke="#c0c0c0" stroke-width="2" points="292.4536,-187.121 284.2526,-180.4133 286.4806,-190.7712 292.4536,-187.121"/>
</g>
<!-- 11 -->
<g id="node12" class="node">
<title>11</title>
<path fill="none" stroke="#d6d856" stroke-width="2" d="M792.5,-180C792.5,-180 713.5,-180 713.5,-180 707.5,-180 701.5,-174 701.5,-168 701.5,-168 701.5,-156 701.5,-156 701.5,-150 707.5,-144 713.5,-144 713.5,-144 792.5,-144 792.5,-144 798.5,-144 804.5,-150 804.5,-156 804.5,-156 804.5,-168 804.5,-168 804.5,-174 798.5,-180 792.5,-180"/>
<text text-anchor="middle" x="753" y="-159.5" font-family="sans" font-size="10.00" fill="#000000">tx_gene_mapping</text>
</g>
<!-- 11&#45;&gt;1 -->
<g id="edge11" class="edge">
<title>11&#45;&gt;1</title>
<path fill="none" stroke="#c0c0c0" stroke-width="2" d="M701.4575,-152.5918C685.0333,-149.7014 666.7727,-146.5996 650,-144 535.3312,-126.2276 503.5661,-126.5397 385.4298,-108.1884"/>
<polygon fill="#c0c0c0" stroke="#c0c0c0" stroke-width="2" points="385.679,-104.6848 375.2579,-106.5956 384.596,-111.6005 385.679,-104.6848"/>
</g>
<!-- 11&#45;&gt;2 -->
<g id="edge14" class="edge">
<title>11&#45;&gt;2</title>
<path fill="none" stroke="#c0c0c0" stroke-width="2" d="M804.7081,-149.2936C848.3722,-138.5638 911.7246,-122.996 962.5586,-110.5044"/>
<polygon fill="#c0c0c0" stroke="#c0c0c0" stroke-width="2" points="963.6731,-113.8347 972.5489,-108.0494 962.0026,-107.0369 963.6731,-113.8347"/>
</g>
<!-- 11&#45;&gt;3 -->
<g id="edge17" class="edge">
<title>11&#45;&gt;3</title>
<path fill="none" stroke="#c0c0c0" stroke-width="2" d="M725.9994,-143.8314C712.5669,-134.7927 696.1527,-123.7476 681.6961,-114.0198"/>
<polygon fill="#c0c0c0" stroke="#c0c0c0" stroke-width="2" points="683.2425,-110.8418 672.992,-108.1628 679.3346,-116.6494 683.2425,-110.8418"/>
</g>
<!-- 11&#45;&gt;4 -->
<g id="edge20" class="edge">
<title>11&#45;&gt;4</title>
<path fill="none" stroke="#c0c0c0" stroke-width="2" d="M776.4678,-143.8314C788.0327,-134.8779 802.1404,-123.9558 814.6183,-114.2955"/>
<polygon fill="#c0c0c0" stroke="#c0c0c0" stroke-width="2" points="816.775,-117.0521 822.5397,-108.1628 812.4898,-111.5171 816.775,-117.0521"/>
</g>
<!-- 12 -->
<g id="node13" class="node">
<title>12</title>
<path fill="none" stroke="#59d856" stroke-width="2" d="M1075.5,-180C1075.5,-180 1016.5,-180 1016.5,-180 1010.5,-180 1004.5,-174 1004.5,-168 1004.5,-168 1004.5,-156 1004.5,-156 1004.5,-150 1010.5,-144 1016.5,-144 1016.5,-144 1075.5,-144 1075.5,-144 1081.5,-144 1087.5,-150 1087.5,-156 1087.5,-156 1087.5,-168 1087.5,-168 1087.5,-174 1081.5,-180 1075.5,-180"/>
<text text-anchor="middle" x="1046" y="-159.5" font-family="sans" font-size="10.00" fill="#000000">bustools_sort</text>
</g>
<!-- 12&#45;&gt;2 -->
<g id="edge12" class="edge">
<title>12&#45;&gt;2</title>
<path fill="none" stroke="#c0c0c0" stroke-width="2" d="M1046,-143.8314C1046,-136.131 1046,-126.9743 1046,-118.4166"/>
<polygon fill="#c0c0c0" stroke="#c0c0c0" stroke-width="2" points="1049.5001,-118.4132 1046,-108.4133 1042.5001,-118.4133 1049.5001,-118.4132"/>
</g>
<!-- 13 -->
<g id="node14" class="node">
<title>13</title>
<path fill="none" stroke="#97d856" stroke-width="2" d="M1017,-252C1017,-252 935,-252 935,-252 929,-252 923,-246 923,-240 923,-240 923,-228 923,-228 923,-222 929,-216 935,-216 935,-216 1017,-216 1017,-216 1023,-216 1029,-222 1029,-228 1029,-228 1029,-240 1029,-240 1029,-246 1023,-252 1017,-252"/>
<text text-anchor="middle" x="976" y="-237" font-family="sans" font-size="10.00" fill="#000000">kallisto_bus</text>
<text text-anchor="middle" x="976" y="-226" font-family="sans" font-size="10.00" fill="#000000">SRS: SRS3698218</text>
</g>
<!-- 13&#45;&gt;2 -->
<g id="edge13" class="edge">
<title>13&#45;&gt;2</title>
<path fill="none" stroke="#c0c0c0" stroke-width="2" d="M977.24,-215.7973C979.1502,-196.9063 983.9614,-166.966 996,-144 1001.4499,-133.6033 1009.428,-123.7138 1017.4176,-115.3067"/>
<polygon fill="#c0c0c0" stroke="#c0c0c0" stroke-width="2" points="1020.0949,-117.5789 1024.6861,-108.0305 1015.1426,-112.6318 1020.0949,-117.5789"/>
</g>
<!-- 13&#45;&gt;12 -->
<g id="edge28" class="edge">
<title>13&#45;&gt;12</title>
<path fill="none" stroke="#c0c0c0" stroke-width="2" d="M993.664,-215.8314C1001.9732,-207.2848 1012.0264,-196.9443 1021.0918,-187.6198"/>
<polygon fill="#c0c0c0" stroke="#c0c0c0" stroke-width="2" points="1023.6369,-190.023 1028.0982,-180.4133 1018.6179,-185.1435 1023.6369,-190.023"/>
</g>
<!-- 14 -->
<g id="node15" class="node">
<title>14</title>
<path fill="none" stroke="#59d856" stroke-width="2" d="M628.5,-180C628.5,-180 569.5,-180 569.5,-180 563.5,-180 557.5,-174 557.5,-168 557.5,-168 557.5,-156 557.5,-156 557.5,-150 563.5,-144 569.5,-144 569.5,-144 628.5,-144 628.5,-144 634.5,-144 640.5,-150 640.5,-156 640.5,-156 640.5,-168 640.5,-168 640.5,-174 634.5,-180 628.5,-180"/>
<text text-anchor="middle" x="599" y="-159.5" font-family="sans" font-size="10.00" fill="#000000">bustools_sort</text>
</g>
<!-- 14&#45;&gt;3 -->
<g id="edge15" class="edge">
<title>14&#45;&gt;3</title>
<path fill="none" stroke="#c0c0c0" stroke-width="2" d="M610.8601,-143.8314C616.1629,-135.7079 622.5237,-125.9637 628.3673,-117.0118"/>
<polygon fill="#c0c0c0" stroke="#c0c0c0" stroke-width="2" points="631.4448,-118.7003 633.9802,-108.4133 625.5831,-114.8739 631.4448,-118.7003"/>
</g>
<!-- 15 -->
<g id="node16" class="node">
<title>15</title>
<path fill="none" stroke="#97d856" stroke-width="2" d="M692,-252C692,-252 610,-252 610,-252 604,-252 598,-246 598,-240 598,-240 598,-228 598,-228 598,-222 604,-216 610,-216 610,-216 692,-216 692,-216 698,-216 704,-222 704,-228 704,-228 704,-240 704,-240 704,-246 698,-252 692,-252"/>
<text text-anchor="middle" x="651" y="-237" font-family="sans" font-size="10.00" fill="#000000">kallisto_bus</text>
<text text-anchor="middle" x="651" y="-226" font-family="sans" font-size="10.00" fill="#000000">SRS: SRS3971246</text>
</g>
<!-- 15&#45;&gt;3 -->
<g id="edge16" class="edge">
<title>15&#45;&gt;3</title>
<path fill="none" stroke="#c0c0c0" stroke-width="2" d="M651.133,-215.7195C651.1862,-197.5292 651.0562,-168.8228 650,-144 649.6499,-135.7716 649.0709,-126.8507 648.4608,-118.6751"/>
<polygon fill="#c0c0c0" stroke="#c0c0c0" stroke-width="2" points="651.9321,-118.1718 647.6573,-108.4776 644.9537,-118.7217 651.9321,-118.1718"/>
</g>
<!-- 15&#45;&gt;14 -->
<g id="edge30" class="edge">
<title>15&#45;&gt;14</title>
<path fill="none" stroke="#c0c0c0" stroke-width="2" d="M637.8782,-215.8314C631.9501,-207.6232 624.8271,-197.7606 618.3067,-188.7323"/>
<polygon fill="#c0c0c0" stroke="#c0c0c0" stroke-width="2" points="620.9908,-186.4708 612.2985,-180.4133 615.316,-190.5693 620.9908,-186.4708"/>
</g>
<!-- 16 -->
<g id="node17" class="node">
<title>16</title>
<path fill="none" stroke="#59d856" stroke-width="2" d="M933.5,-180C933.5,-180 874.5,-180 874.5,-180 868.5,-180 862.5,-174 862.5,-168 862.5,-168 862.5,-156 862.5,-156 862.5,-150 868.5,-144 874.5,-144 874.5,-144 933.5,-144 933.5,-144 939.5,-144 945.5,-150 945.5,-156 945.5,-156 945.5,-168 945.5,-168 945.5,-174 939.5,-180 933.5,-180"/>
<text text-anchor="middle" x="904" y="-159.5" font-family="sans" font-size="10.00" fill="#000000">bustools_sort</text>
</g>
<!-- 16&#45;&gt;4 -->
<g id="edge18" class="edge">
<title>16&#45;&gt;4</title>
<path fill="none" stroke="#c0c0c0" stroke-width="2" d="M889.3642,-143.8314C882.6839,-135.5386 874.6432,-125.557 867.3096,-116.4533"/>
<polygon fill="#c0c0c0" stroke="#c0c0c0" stroke-width="2" points="869.8319,-114.0052 860.8329,-108.4133 864.3806,-118.3965 869.8319,-114.0052"/>
</g>
<!-- 17 -->
<g id="node18" class="node">
<title>17</title>
<path fill="none" stroke="#97d856" stroke-width="2" d="M875,-252C875,-252 793,-252 793,-252 787,-252 781,-246 781,-240 781,-240 781,-228 781,-228 781,-222 787,-216 793,-216 793,-216 875,-216 875,-216 881,-216 887,-222 887,-228 887,-228 887,-240 887,-240 887,-246 881,-252 875,-252"/>
<text text-anchor="middle" x="834" y="-237" font-family="sans" font-size="10.00" fill="#000000">kallisto_bus</text>
<text text-anchor="middle" x="834" y="-226" font-family="sans" font-size="10.00" fill="#000000">SRS: SRS1467250</text>
</g>
<!-- 17&#45;&gt;4 -->
<g id="edge19" class="edge">
<title>17&#45;&gt;4</title>
<path fill="none" stroke="#c0c0c0" stroke-width="2" d="M835.5198,-215.7623C837.5666,-191.201 841.2294,-147.2474 843.6372,-118.3541"/>
<polygon fill="#c0c0c0" stroke="#c0c0c0" stroke-width="2" points="847.1499,-118.3458 844.4925,-108.0896 840.1741,-117.7644 847.1499,-118.3458"/>
</g>
<!-- 17&#45;&gt;16 -->
<g id="edge32" class="edge">
<title>17&#45;&gt;16</title>
<path fill="none" stroke="#c0c0c0" stroke-width="2" d="M851.664,-215.8314C859.9732,-207.2848 870.0264,-196.9443 879.0918,-187.6198"/>
<polygon fill="#c0c0c0" stroke="#c0c0c0" stroke-width="2" points="881.6369,-190.023 886.0982,-180.4133 876.6179,-185.1435 881.6369,-190.023"/>
</g>
<!-- 18 -->
<g id="node19" class="node">
<title>18</title>
<path fill="none" stroke="#56d89a" stroke-width="2" d="M414,-324C414,-324 220,-324 220,-324 214,-324 208,-318 208,-312 208,-312 208,-300 208,-300 208,-294 214,-288 220,-288 220,-288 414,-288 414,-288 420,-288 426,-294 426,-300 426,-300 426,-312 426,-312 426,-318 420,-324 414,-324"/>
<text text-anchor="middle" x="317" y="-309" font-family="sans" font-size="10.00" fill="#000000">kallisto_index</text>
<text text-anchor="middle" x="317" y="-298" font-family="sans" font-size="10.00" fill="#000000">fasta: gencode.v31.pc_transcripts.fa.gz</text>
</g>
<!-- 18&#45;&gt;5 -->
<g id="edge21" class="edge">
<title>18&#45;&gt;5</title>
<path fill="none" stroke="#c0c0c0" stroke-width="2" d="M343.0555,-287.7656C355.2287,-278.2187 369.1694,-265.6771 379,-252 409.2644,-209.8936 428.9213,-152.079 438.685,-118.1147"/>
<polygon fill="#c0c0c0" stroke="#c0c0c0" stroke-width="2" points="442.0838,-118.9562 441.3983,-108.3836 435.341,-117.0761 442.0838,-118.9562"/>
</g>
<!-- 18&#45;&gt;6 -->
<g id="edge22" class="edge">
<title>18&#45;&gt;6</title>
<path fill="none" stroke="#c0c0c0" stroke-width="2" d="M251.7886,-287.8786C224.3999,-278.9624 192.7577,-266.8974 166,-252 133.6033,-233.9631 100.9376,-206.7423 79.1187,-186.9609"/>
<polygon fill="#c0c0c0" stroke="#c0c0c0" stroke-width="2" points="81.3219,-184.2321 71.5915,-180.0405 76.5842,-189.3852 81.3219,-184.2321"/>
</g>
<!-- 18&#45;&gt;7 -->
<g id="edge23" class="edge">
<title>18&#45;&gt;7</title>
<path fill="none" stroke="#c0c0c0" stroke-width="2" d="M294.3835,-287.8618C282.2639,-277.763 267.3321,-264.6968 255,-252 211.4781,-207.1913 166.5219,-149.6346 141.6238,-116.5737"/>
<polygon fill="#c0c0c0" stroke="#c0c0c0" stroke-width="2" points="144.2411,-114.2297 135.4449,-108.324 138.6384,-118.4261 144.2411,-114.2297"/>
</g>
<!-- 18&#45;&gt;10 -->
<g id="edge26" class="edge">
<title>18&#45;&gt;10</title>
<path fill="none" stroke="#c0c0c0" stroke-width="2" d="M317,-287.8314C317,-280.131 317,-270.9743 317,-262.4166"/>
<polygon fill="#c0c0c0" stroke="#c0c0c0" stroke-width="2" points="320.5001,-262.4132 317,-252.4133 313.5001,-262.4133 320.5001,-262.4132"/>
</g>
<!-- 19 -->
<g id="node20" class="node">
<title>19</title>
<path fill="none" stroke="#56d89a" stroke-width="2" d="M713,-324C713,-324 511,-324 511,-324 505,-324 499,-318 499,-312 499,-312 499,-300 499,-300 499,-294 505,-288 511,-288 511,-288 713,-288 713,-288 719,-288 725,-294 725,-300 725,-300 725,-312 725,-312 725,-318 719,-324 713,-324"/>
<text text-anchor="middle" x="612" y="-309" font-family="sans" font-size="10.00" fill="#000000">kallisto_index</text>
<text text-anchor="middle" x="612" y="-298" font-family="sans" font-size="10.00" fill="#000000">fasta: gencode.vM22.pc_transcripts.fa.gz</text>
</g>
<!-- 19&#45;&gt;8 -->
<g id="edge24" class="edge">
<title>19&#45;&gt;8</title>
<path fill="none" stroke="#c0c0c0" stroke-width="2" d="M590.5509,-287.8314C580.1822,-279.0485 567.5771,-268.3712 556.3354,-258.8489"/>
<polygon fill="#c0c0c0" stroke="#c0c0c0" stroke-width="2" points="558.3349,-255.9556 548.4422,-252.1628 553.8105,-261.297 558.3349,-255.9556"/>
</g>
<!-- 19&#45;&gt;15 -->
<g id="edge31" class="edge">
<title>19&#45;&gt;15</title>
<path fill="none" stroke="#c0c0c0" stroke-width="2" d="M621.8413,-287.8314C626.1957,-279.7925 631.4098,-270.1666 636.2169,-261.2918"/>
<polygon fill="#c0c0c0" stroke="#c0c0c0" stroke-width="2" points="639.3408,-262.8732 641.0261,-252.4133 633.1857,-259.5392 639.3408,-262.8732"/>
</g>
<!-- 19&#45;&gt;17 -->
<g id="edge33" class="edge">
<title>19&#45;&gt;17</title>
<path fill="none" stroke="#c0c0c0" stroke-width="2" d="M667.7334,-287.9243C699.1608,-277.7316 738.5238,-264.9653 771.0596,-254.4131"/>
<polygon fill="#c0c0c0" stroke="#c0c0c0" stroke-width="2" points="772.4889,-257.6291 780.9214,-251.2147 770.3293,-250.9705 772.4889,-257.6291"/>
</g>
<!-- 20 -->
<g id="node21" class="node">
<title>20</title>
<path fill="none" stroke="#d89556" stroke-width="2" d="M731,-396C731,-396 633,-396 633,-396 627,-396 621,-390 621,-384 621,-384 621,-372 621,-372 621,-366 627,-360 633,-360 633,-360 731,-360 731,-360 737,-360 743,-366 743,-372 743,-372 743,-384 743,-384 743,-390 737,-396 731,-396"/>
<text text-anchor="middle" x="682" y="-375.5" font-family="sans" font-size="10.00" fill="#000000">download_references</text>
</g>
<!-- 20&#45;&gt;11 -->
<g id="edge27" class="edge">
<title>20&#45;&gt;11</title>
<path fill="none" stroke="#c0c0c0" stroke-width="2" d="M705.3182,-359.9461C715.8748,-350.4419 727.4357,-337.8842 734,-324 754.5328,-280.5708 756.1963,-223.5622 754.9821,-190.0417"/>
<polygon fill="#c0c0c0" stroke="#c0c0c0" stroke-width="2" points="758.4772,-189.8535 754.507,-180.0307 751.4851,-190.1854 758.4772,-189.8535"/>
</g>
<!-- 20&#45;&gt;18 -->
<g id="edge34" class="edge">
<title>20&#45;&gt;18</title>
<path fill="none" stroke="#c0c0c0" stroke-width="2" d="M620.9072,-365.9488C565.6997,-355.0586 483.3649,-338.8172 418.3143,-325.9853"/>
<polygon fill="#c0c0c0" stroke="#c0c0c0" stroke-width="2" points="418.9272,-322.5388 408.4389,-324.0373 417.5725,-329.4065 418.9272,-322.5388"/>
</g>
<!-- 20&#45;&gt;19 -->
<g id="edge35" class="edge">
<title>20&#45;&gt;19</title>
<path fill="none" stroke="#c0c0c0" stroke-width="2" d="M664.336,-359.8314C656.0268,-351.2848 645.9736,-340.9443 636.9082,-331.6198"/>
<polygon fill="#c0c0c0" stroke="#c0c0c0" stroke-width="2" points="639.3821,-329.1435 629.9018,-324.4133 634.3631,-334.023 639.3821,-329.1435"/>
</g>
<!-- 21 -->
<g id="node22" class="node">
<title>21</title>
<path fill="none" stroke="#56d89a" stroke-width="2" d="M1107.5,-324C1107.5,-324 808.5,-324 808.5,-324 802.5,-324 796.5,-318 796.5,-312 796.5,-312 796.5,-300 796.5,-300 796.5,-294 802.5,-288 808.5,-288 808.5,-288 1107.5,-288 1107.5,-288 1113.5,-288 1119.5,-294 1119.5,-300 1119.5,-300 1119.5,-312 1119.5,-312 1119.5,-318 1113.5,-324 1107.5,-324"/>
<text text-anchor="middle" x="958" y="-309" font-family="sans" font-size="10.00" fill="#000000">kallisto_index</text>
<text text-anchor="middle" x="958" y="-298" font-family="sans" font-size="10.00" fill="#000000">fasta: GCF_000364345.1_Macaca_fascicularis_5.0_rna.fna.gz</text>
</g>
<!-- 20&#45;&gt;21 -->
<g id="edge36" class="edge">
<title>20&#45;&gt;21</title>
<path fill="none" stroke="#c0c0c0" stroke-width="2" d="M743.2533,-362.0209C783.1813,-351.6049 835.6775,-337.9102 878.771,-326.6684"/>
<polygon fill="#c0c0c0" stroke="#c0c0c0" stroke-width="2" points="879.8671,-329.9997 888.6597,-324.0888 878.1001,-323.2264 879.8671,-329.9997"/>
</g>
<!-- 21&#45;&gt;13 -->
<g id="edge29" class="edge">
<title>21&#45;&gt;13</title>
<path fill="none" stroke="#c0c0c0" stroke-width="2" d="M962.5422,-287.8314C964.4884,-280.0463 966.8068,-270.7729 968.9663,-262.1347"/>
<polygon fill="#c0c0c0" stroke="#c0c0c0" stroke-width="2" points="972.3668,-262.9636 971.3967,-252.4133 965.5758,-261.2658 972.3668,-262.9636"/>
</g>
</g>
</svg>
