<?xml version="1.0" encoding="UTF-8" standalone="no"?>
<!DOCTYPE svg PUBLIC "-//W3C//DTD SVG 1.1//EN"
 "http://www.w3.org/Graphics/SVG/1.1/DTD/svg11.dtd">
<!-- Generated by graphviz version 2.40.1 (20161225.0304)
 -->
<!-- Title: snakemake_dag Pages: 1 -->
<svg width="1711pt" height="1007pt"
 viewBox="0.00 0.00 1711.00 1007.00" xmlns="http://www.w3.org/2000/svg" xmlns:xlink="http://www.w3.org/1999/xlink">
<g id="graph0" class="graph" transform="scale(1 1) rotate(0) translate(4 1003)">
<title>snakemake_dag</title>
<polygon fill="#ffffff" stroke="transparent" points="-4,4 -4,-1003 1707,-1003 1707,4 -4,4"/>
<!-- 0 -->
<g id="node1" class="node">
<title>0</title>
<path fill="none" stroke="#d8a456" stroke-width="2" d="M1131,-36C1131,-36 1101,-36 1101,-36 1095,-36 1089,-30 1089,-24 1089,-24 1089,-12 1089,-12 1089,-6 1095,0 1101,0 1101,0 1131,0 1131,0 1137,0 1143,-6 1143,-12 1143,-12 1143,-24 1143,-24 1143,-30 1137,-36 1131,-36"/>
<text text-anchor="middle" x="1116" y="-15.5" font-family="sans" font-size="10.00" fill="#000000">all</text>
</g>
<!-- 1 -->
<g id="node2" class="node">
<title>1</title>
<path fill="none" stroke="#56d87b" stroke-width="2" d="M730.5,-567C730.5,-567 623.5,-567 623.5,-567 617.5,-567 611.5,-561 611.5,-555 611.5,-555 611.5,-543 611.5,-543 611.5,-537 617.5,-531 623.5,-531 623.5,-531 730.5,-531 730.5,-531 736.5,-531 742.5,-537 742.5,-543 742.5,-543 742.5,-555 742.5,-555 742.5,-561 736.5,-567 730.5,-567"/>
<text text-anchor="middle" x="677" y="-546.5" font-family="sans" font-size="10.00" fill="#000000">combine_well_and_umi</text>
</g>
<!-- 1&#45;&gt;0 -->
<g id="edge1" class="edge">
<title>1&#45;&gt;0</title>
<path fill="none" stroke="#c0c0c0" stroke-width="2" d="M611.4695,-542.4937C525.3782,-529.9181 385,-493.7376 385,-391.5 385,-391.5 385,-391.5 385,-162 385,-121.1184 373.2439,-98.9327 404,-72 455.0144,-27.3273 938.9346,-19.5705 1078.4974,-18.2595"/>
<polygon fill="#c0c0c0" stroke="#c0c0c0" stroke-width="2" points="1078.7215,-21.7577 1088.6902,-18.1696 1078.6597,-14.758 1078.7215,-21.7577"/>
</g>
<!-- 43 -->
<g id="node44" class="node">
<title>43</title>
<path fill="none" stroke="#d88556" stroke-width="2" d="M842,-495C842,-495 788,-495 788,-495 782,-495 776,-489 776,-483 776,-483 776,-471 776,-471 776,-465 782,-459 788,-459 788,-459 842,-459 842,-459 848,-459 854,-465 854,-471 854,-471 854,-483 854,-483 854,-489 848,-495 842,-495"/>
<text text-anchor="middle" x="815" y="-474.5" font-family="sans" font-size="10.00" fill="#000000">cat_cell_info</text>
</g>
<!-- 1&#45;&gt;43 -->
<g id="edge81" class="edge">
<title>1&#45;&gt;43</title>
<path fill="none" stroke="#c0c0c0" stroke-width="2" d="M711.8232,-530.8314C729.8011,-521.4516 751.9203,-509.9112 771.0616,-499.9244"/>
<polygon fill="#c0c0c0" stroke="#c0c0c0" stroke-width="2" points="772.9411,-502.8916 780.1879,-495.1628 769.7031,-496.6855 772.9411,-502.8916"/>
</g>
<!-- 45 -->
<g id="node46" class="node">
<title>45</title>
<path fill="none" stroke="#56d863" stroke-width="2" d="M1003.5,-423C1003.5,-423 692.5,-423 692.5,-423 686.5,-423 680.5,-417 680.5,-411 680.5,-411 680.5,-372 680.5,-372 680.5,-366 686.5,-360 692.5,-360 692.5,-360 1003.5,-360 1003.5,-360 1009.5,-360 1015.5,-366 1015.5,-372 1015.5,-372 1015.5,-411 1015.5,-411 1015.5,-417 1009.5,-423 1003.5,-423"/>
<text text-anchor="middle" x="848" y="-411" font-family="sans" font-size="10.00" fill="#000000">make_seurat_objs</text>
<text text-anchor="middle" x="848" y="-400" font-family="sans" font-size="10.00" fill="#000000">combination: Mus_musculus_Macaca_fascicularis_Homo_sapiens</text>
<text text-anchor="middle" x="848" y="-389" font-family="sans" font-size="10.00" fill="#000000">covariate: batch</text>
<text text-anchor="middle" x="848" y="-378" font-family="sans" font-size="10.00" fill="#000000">partition: downsample</text>
<text text-anchor="middle" x="848" y="-367" font-family="sans" font-size="10.00" fill="#000000">transform: SCT</text>
</g>
<!-- 1&#45;&gt;45 -->
<g id="edge86" class="edge">
<title>1&#45;&gt;45</title>
<path fill="none" stroke="#c0c0c0" stroke-width="2" d="M694.1301,-530.928C711.9054,-512.4025 740.7297,-482.9905 767,-459 777.7629,-449.1711 789.6667,-438.9264 800.9605,-429.4753"/>
<polygon fill="#c0c0c0" stroke="#c0c0c0" stroke-width="2" points="803.2081,-432.1583 808.6602,-423.0739 798.733,-426.7755 803.2081,-432.1583"/>
</g>
<!-- 2 -->
<g id="node3" class="node">
<title>2</title>
<path fill="none" stroke="#56d87b" stroke-width="2" d="M953,-567C953,-567 811,-567 811,-567 805,-567 799,-561 799,-555 799,-555 799,-543 799,-543 799,-537 805,-531 811,-531 811,-531 953,-531 953,-531 959,-531 965,-537 965,-543 965,-543 965,-555 965,-555 965,-561 959,-567 953,-567"/>
<text text-anchor="middle" x="882" y="-552" font-family="sans" font-size="10.00" fill="#000000">combine_well_and_umi</text>
<text text-anchor="middle" x="882" y="-541" font-family="sans" font-size="10.00" fill="#000000">organism: Macaca_fascicularis</text>
</g>
<!-- 2&#45;&gt;0 -->
<g id="edge2" class="edge">
<title>2&#45;&gt;0</title>
<path fill="none" stroke="#c0c0c0" stroke-width="2" d="M965.2128,-541.9939C1056.734,-529.1972 1191,-493.1087 1191,-391.5 1191,-391.5 1191,-391.5 1191,-162 1191,-121.1184 1191.8081,-107.7624 1172,-72 1165.9673,-61.1083 1157.0175,-51.0583 1148.0338,-42.6563"/>
<polygon fill="#c0c0c0" stroke="#c0c0c0" stroke-width="2" points="1150.3442,-40.0271 1140.5429,-36.004 1145.696,-45.2612 1150.3442,-40.0271"/>
</g>
<!-- 2&#45;&gt;43 -->
<g id="edge82" class="edge">
<title>2&#45;&gt;43</title>
<path fill="none" stroke="#c0c0c0" stroke-width="2" d="M865.0931,-530.8314C857.2187,-522.3694 847.708,-512.1489 839.0987,-502.8971"/>
<polygon fill="#c0c0c0" stroke="#c0c0c0" stroke-width="2" points="841.5092,-500.3497 832.1346,-495.4133 836.3847,-505.1183 841.5092,-500.3497"/>
</g>
<!-- 2&#45;&gt;45 -->
<g id="edge87" class="edge">
<title>2&#45;&gt;45</title>
<path fill="none" stroke="#c0c0c0" stroke-width="2" d="M878.1994,-530.7163C874.4038,-512.5237 868.3765,-483.8156 863,-459 861.173,-450.5673 859.1895,-441.549 857.2813,-432.9385"/>
<polygon fill="#c0c0c0" stroke="#c0c0c0" stroke-width="2" points="860.676,-432.0801 855.0899,-423.0775 853.8427,-433.5987 860.676,-432.0801"/>
</g>
<!-- 3 -->
<g id="node4" class="node">
<title>3</title>
<path fill="none" stroke="#56d87b" stroke-width="2" d="M1163.5,-567C1163.5,-567 1056.5,-567 1056.5,-567 1050.5,-567 1044.5,-561 1044.5,-555 1044.5,-555 1044.5,-543 1044.5,-543 1044.5,-537 1050.5,-531 1056.5,-531 1056.5,-531 1163.5,-531 1163.5,-531 1169.5,-531 1175.5,-537 1175.5,-543 1175.5,-543 1175.5,-555 1175.5,-555 1175.5,-561 1169.5,-567 1163.5,-567"/>
<text text-anchor="middle" x="1110" y="-546.5" font-family="sans" font-size="10.00" fill="#000000">combine_well_and_umi</text>
</g>
<!-- 3&#45;&gt;0 -->
<g id="edge3" class="edge">
<title>3&#45;&gt;0</title>
<path fill="none" stroke="#c0c0c0" stroke-width="2" d="M1158.7194,-530.9745C1175.656,-522.4637 1193.3166,-510.663 1205,-495 1233.2335,-457.1497 1229,-438.7205 1229,-391.5 1229,-391.5 1229,-391.5 1229,-162 1229,-120.6022 1229.8227,-105.1302 1205,-72 1191.7113,-54.2639 1170.7327,-41.1291 1152.4802,-32.257"/>
<polygon fill="#c0c0c0" stroke="#c0c0c0" stroke-width="2" points="1153.7864,-29.0053 1143.239,-28.0042 1150.86,-35.3643 1153.7864,-29.0053"/>
</g>
<!-- 3&#45;&gt;43 -->
<g id="edge83" class="edge">
<title>3&#45;&gt;43</title>
<path fill="none" stroke="#c0c0c0" stroke-width="2" d="M1044.1634,-532.9314C989.6723,-519.6319 913.4681,-501.0329 864.1723,-489.0014"/>
<polygon fill="#c0c0c0" stroke="#c0c0c0" stroke-width="2" points="864.9276,-485.583 854.3828,-486.6121 863.2678,-492.3834 864.9276,-485.583"/>
</g>
<!-- 3&#45;&gt;45 -->
<g id="edge88" class="edge">
<title>3&#45;&gt;45</title>
<path fill="none" stroke="#c0c0c0" stroke-width="2" d="M1079.9453,-530.9327C1038.565,-506.0572 963.0878,-460.6844 909.4791,-428.4579"/>
<polygon fill="#c0c0c0" stroke="#c0c0c0" stroke-width="2" points="911.1128,-425.3562 900.7389,-423.2037 907.5062,-431.3557 911.1128,-425.3562"/>
</g>
<!-- 4 -->
<g id="node5" class="node">
<title>4</title>
<path fill="none" stroke="#78d856" stroke-width="2" d="M767,-108C767,-108 697,-108 697,-108 691,-108 685,-102 685,-96 685,-96 685,-84 685,-84 685,-78 691,-72 697,-72 697,-72 767,-72 767,-72 773,-72 779,-78 779,-84 779,-84 779,-96 779,-96 779,-102 773,-108 767,-108"/>
<text text-anchor="middle" x="732" y="-87.5" font-family="sans" font-size="10.00" fill="#000000">plot_integration</text>
</g>
<!-- 4&#45;&gt;0 -->
<g id="edge4" class="edge">
<title>4&#45;&gt;0</title>
<path fill="none" stroke="#c0c0c0" stroke-width="2" d="M779.2167,-74.2813C782.1762,-73.4645 785.1213,-72.6956 788,-72 892.2017,-46.8219 1017.8767,-29.7515 1079.001,-22.279"/>
<polygon fill="#c0c0c0" stroke="#c0c0c0" stroke-width="2" points="1079.4361,-25.752 1088.9446,-21.0788 1078.5972,-18.8025 1079.4361,-25.752"/>
</g>
<!-- 5 -->
<g id="node6" class="node">
<title>5</title>
<path fill="none" stroke="#78d856" stroke-width="2" d="M1151,-108C1151,-108 1081,-108 1081,-108 1075,-108 1069,-102 1069,-96 1069,-96 1069,-84 1069,-84 1069,-78 1075,-72 1081,-72 1081,-72 1151,-72 1151,-72 1157,-72 1163,-78 1163,-84 1163,-84 1163,-96 1163,-96 1163,-102 1157,-108 1151,-108"/>
<text text-anchor="middle" x="1116" y="-87.5" font-family="sans" font-size="10.00" fill="#000000">plot_integration</text>
</g>
<!-- 5&#45;&gt;0 -->
<g id="edge5" class="edge">
<title>5&#45;&gt;0</title>
<path fill="none" stroke="#c0c0c0" stroke-width="2" d="M1116,-71.8314C1116,-64.131 1116,-54.9743 1116,-46.4166"/>
<polygon fill="#c0c0c0" stroke="#c0c0c0" stroke-width="2" points="1119.5001,-46.4132 1116,-36.4133 1112.5001,-46.4133 1119.5001,-46.4132"/>
</g>
<!-- 6 -->
<g id="node7" class="node">
<title>6</title>
<path fill="none" stroke="#97d856" stroke-width="2" d="M655,-108C655,-108 425,-108 425,-108 419,-108 413,-102 413,-96 413,-96 413,-84 413,-84 413,-78 419,-72 425,-72 425,-72 655,-72 655,-72 661,-72 667,-78 667,-84 667,-84 667,-96 667,-96 667,-102 661,-108 655,-108"/>
<text text-anchor="middle" x="540" y="-87.5" font-family="sans" font-size="10.00" fill="#000000">plot_integration_with_well_supported_cell_types</text>
</g>
<!-- 6&#45;&gt;0 -->
<g id="edge6" class="edge">
<title>6&#45;&gt;0</title>
<path fill="none" stroke="#c0c0c0" stroke-width="2" d="M667.0434,-73.1468C670.0577,-72.7594 673.0468,-72.3766 676,-72 825.2917,-52.9598 1003.2456,-31.4989 1078.9603,-22.4257"/>
<polygon fill="#c0c0c0" stroke="#c0c0c0" stroke-width="2" points="1079.4389,-25.8935 1088.9518,-21.2292 1078.6065,-18.9431 1079.4389,-25.8935"/>
</g>
<!-- 7 -->
<g id="node8" class="node">
<title>7</title>
<path fill="none" stroke="#97d856" stroke-width="2" d="M1039,-108C1039,-108 809,-108 809,-108 803,-108 797,-102 797,-96 797,-96 797,-84 797,-84 797,-78 803,-72 809,-72 809,-72 1039,-72 1039,-72 1045,-72 1051,-78 1051,-84 1051,-84 1051,-96 1051,-96 1051,-102 1045,-108 1039,-108"/>
<text text-anchor="middle" x="924" y="-87.5" font-family="sans" font-size="10.00" fill="#000000">plot_integration_with_well_supported_cell_types</text>
</g>
<!-- 7&#45;&gt;0 -->
<g id="edge7" class="edge">
<title>7&#45;&gt;0</title>
<path fill="none" stroke="#c0c0c0" stroke-width="2" d="M972.4497,-71.8314C1005.586,-59.4053 1048.8341,-43.1872 1079.1658,-31.8128"/>
<polygon fill="#c0c0c0" stroke="#c0c0c0" stroke-width="2" points="1080.7893,-34.9421 1088.9237,-28.1536 1078.3314,-28.3878 1080.7893,-34.9421"/>
</g>
<!-- 8 -->
<g id="node9" class="node">
<title>8</title>
<path fill="none" stroke="#d86e56" stroke-width="2" d="M1691,-783C1691,-783 1613,-783 1613,-783 1607,-783 1601,-777 1601,-771 1601,-771 1601,-759 1601,-759 1601,-753 1607,-747 1613,-747 1613,-747 1691,-747 1691,-747 1697,-747 1703,-753 1703,-759 1703,-759 1703,-771 1703,-771 1703,-777 1697,-783 1691,-783"/>
<text text-anchor="middle" x="1652" y="-768" font-family="sans" font-size="10.00" fill="#000000">kallisto_quant</text>
<text text-anchor="middle" x="1652" y="-757" font-family="sans" font-size="10.00" fill="#000000">SRS: SRS3732876</text>
</g>
<!-- 8&#45;&gt;0 -->
<g id="edge8" class="edge">
<title>8&#45;&gt;0</title>
<path fill="none" stroke="#c0c0c0" stroke-width="2" d="M1653.6576,-746.8326C1656.0009,-719.5392 1660,-666.3198 1660,-621 1660,-621 1660,-621 1660,-162 1660,-99.8588 1609.9629,-96.8346 1553,-72 1481.3811,-40.7758 1245.5255,-24.987 1153.3675,-19.8912"/>
<polygon fill="#c0c0c0" stroke="#c0c0c0" stroke-width="2" points="1153.2905,-16.382 1143.1158,-19.3359 1152.9118,-23.3717 1153.2905,-16.382"/>
</g>
<!-- 21 -->
<g id="node22" class="node">
<title>21</title>
<path fill="none" stroke="#d8bc56" stroke-width="2" d="M1581.5,-711C1581.5,-711 1414.5,-711 1414.5,-711 1408.5,-711 1402.5,-705 1402.5,-699 1402.5,-699 1402.5,-687 1402.5,-687 1402.5,-681 1408.5,-675 1414.5,-675 1414.5,-675 1581.5,-675 1581.5,-675 1587.5,-675 1593.5,-681 1593.5,-687 1593.5,-687 1593.5,-699 1593.5,-699 1593.5,-705 1587.5,-711 1581.5,-711"/>
<text text-anchor="middle" x="1498" y="-696" font-family="sans" font-size="10.00" fill="#000000">merge_nonUMI_quant_by_organism</text>
<text text-anchor="middle" x="1498" y="-685" font-family="sans" font-size="10.00" fill="#000000">organism: Homo_sapiens</text>
</g>
<!-- 8&#45;&gt;21 -->
<g id="edge43" class="edge">
<title>8&#45;&gt;21</title>
<path fill="none" stroke="#c0c0c0" stroke-width="2" d="M1613.1393,-746.8314C1592.7258,-737.2874 1567.5277,-725.5065 1545.914,-715.4013"/>
<polygon fill="#c0c0c0" stroke="#c0c0c0" stroke-width="2" points="1547.1225,-712.1027 1536.5813,-711.038 1544.1577,-718.4439 1547.1225,-712.1027"/>
</g>
<!-- 9 -->
<g id="node10" class="node">
<title>9</title>
<path fill="none" stroke="#d86e56" stroke-width="2" d="M1451,-783C1451,-783 1373,-783 1373,-783 1367,-783 1361,-777 1361,-771 1361,-771 1361,-759 1361,-759 1361,-753 1367,-747 1373,-747 1373,-747 1451,-747 1451,-747 1457,-747 1463,-753 1463,-759 1463,-759 1463,-771 1463,-771 1463,-777 1457,-783 1451,-783"/>
<text text-anchor="middle" x="1412" y="-768" font-family="sans" font-size="10.00" fill="#000000">kallisto_quant</text>
<text text-anchor="middle" x="1412" y="-757" font-family="sans" font-size="10.00" fill="#000000">SRS: SRS2166836</text>
</g>
<!-- 9&#45;&gt;0 -->
<g id="edge9" class="edge">
<title>9&#45;&gt;0</title>
<path fill="none" stroke="#c0c0c0" stroke-width="2" d="M1404.7114,-746.8062C1400.8842,-736.4731 1396.4849,-723.201 1394,-711 1379.5852,-640.2215 1381,-621.2315 1381,-549 1381,-549 1381,-549 1381,-162 1381,-59.6922 1226.6263,-29.67 1153.5287,-21.1889"/>
<polygon fill="#c0c0c0" stroke="#c0c0c0" stroke-width="2" points="1153.6803,-17.685 1143.3615,-20.0879 1152.9266,-24.6443 1153.6803,-17.685"/>
</g>
<!-- 9&#45;&gt;21 -->
<g id="edge44" class="edge">
<title>9&#45;&gt;21</title>
<path fill="none" stroke="#c0c0c0" stroke-width="2" d="M1433.7014,-746.8314C1444.1921,-738.0485 1456.9455,-727.3712 1468.3194,-717.8489"/>
<polygon fill="#c0c0c0" stroke="#c0c0c0" stroke-width="2" points="1470.8847,-720.2659 1476.3055,-711.1628 1466.3911,-714.8986 1470.8847,-720.2659"/>
</g>
<!-- 10 -->
<g id="node11" class="node">
<title>10</title>
<path fill="none" stroke="#d86e56" stroke-width="2" d="M1571,-783C1571,-783 1493,-783 1493,-783 1487,-783 1481,-777 1481,-771 1481,-771 1481,-759 1481,-759 1481,-753 1487,-747 1493,-747 1493,-747 1571,-747 1571,-747 1577,-747 1583,-753 1583,-759 1583,-759 1583,-771 1583,-771 1583,-777 1577,-783 1571,-783"/>
<text text-anchor="middle" x="1532" y="-768" font-family="sans" font-size="10.00" fill="#000000">kallisto_quant</text>
<text text-anchor="middle" x="1532" y="-757" font-family="sans" font-size="10.00" fill="#000000">SRS: SRS3106664</text>
</g>
<!-- 10&#45;&gt;0 -->
<g id="edge10" class="edge">
<title>10&#45;&gt;0</title>
<path fill="none" stroke="#c0c0c0" stroke-width="2" d="M1565.316,-746.8753C1578.974,-737.8235 1593.7234,-725.6556 1603,-711 1624.8649,-676.4568 1622,-661.8816 1622,-621 1622,-621 1622,-621 1622,-162 1622,-64.5727 1270.5897,-29.5231 1153.4708,-20.5472"/>
<polygon fill="#c0c0c0" stroke="#c0c0c0" stroke-width="2" points="1153.4374,-17.035 1143.2048,-19.7816 1152.9168,-24.0157 1153.4374,-17.035"/>
</g>
<!-- 10&#45;&gt;21 -->
<g id="edge45" class="edge">
<title>10&#45;&gt;21</title>
<path fill="none" stroke="#c0c0c0" stroke-width="2" d="M1523.4204,-746.8314C1519.6642,-738.8771 1515.1743,-729.369 1511.0202,-720.5723"/>
<polygon fill="#c0c0c0" stroke="#c0c0c0" stroke-width="2" points="1514.1301,-718.9612 1506.6952,-711.4133 1507.8004,-721.9503 1514.1301,-718.9612"/>
</g>
<!-- 11 -->
<g id="node12" class="node">
<title>11</title>
<path fill="none" stroke="#d86e56" stroke-width="2" d="M90,-783C90,-783 12,-783 12,-783 6,-783 0,-777 0,-771 0,-771 0,-759 0,-759 0,-753 6,-747 12,-747 12,-747 90,-747 90,-747 96,-747 102,-753 102,-759 102,-759 102,-771 102,-771 102,-777 96,-783 90,-783"/>
<text text-anchor="middle" x="51" y="-768" font-family="sans" font-size="10.00" fill="#000000">kallisto_quant</text>
<text text-anchor="middle" x="51" y="-757" font-family="sans" font-size="10.00" fill="#000000">SRS: SRS3675268</text>
</g>
<!-- 11&#45;&gt;0 -->
<g id="edge11" class="edge">
<title>11&#45;&gt;0</title>
<path fill="none" stroke="#c0c0c0" stroke-width="2" d="M55.144,-746.9265C61.0021,-719.7528 71,-666.6844 71,-621 71,-621 71,-621 71,-162 71,-119.2408 70.4867,-97.2423 105,-72 145.0376,-42.7173 900.7371,-23.0856 1078.6948,-18.8565"/>
<polygon fill="#c0c0c0" stroke="#c0c0c0" stroke-width="2" points="1078.952,-22.3515 1088.8667,-18.6167 1078.787,-15.3535 1078.952,-22.3515"/>
</g>
<!-- 17 -->
<g id="node18" class="node">
<title>17</title>
<path fill="none" stroke="#d8bc56" stroke-width="2" d="M558.5,-711C558.5,-711 391.5,-711 391.5,-711 385.5,-711 379.5,-705 379.5,-699 379.5,-699 379.5,-687 379.5,-687 379.5,-681 385.5,-675 391.5,-675 391.5,-675 558.5,-675 558.5,-675 564.5,-675 570.5,-681 570.5,-687 570.5,-687 570.5,-699 570.5,-699 570.5,-705 564.5,-711 558.5,-711"/>
<text text-anchor="middle" x="475" y="-696" font-family="sans" font-size="10.00" fill="#000000">merge_nonUMI_quant_by_organism</text>
<text text-anchor="middle" x="475" y="-685" font-family="sans" font-size="10.00" fill="#000000">organism: Mus_musculus</text>
</g>
<!-- 11&#45;&gt;17 -->
<g id="edge38" class="edge">
<title>11&#45;&gt;17</title>
<path fill="none" stroke="#c0c0c0" stroke-width="2" d="M102.1443,-756.3151C168.035,-745.1261 284.2175,-725.397 369.4274,-710.9274"/>
<polygon fill="#c0c0c0" stroke="#c0c0c0" stroke-width="2" points="370.1252,-714.3591 379.398,-709.2343 368.9532,-707.4579 370.1252,-714.3591"/>
</g>
<!-- 12 -->
<g id="node13" class="node">
<title>12</title>
<path fill="none" stroke="#afd856" stroke-width="2" d="M1353,-855C1353,-855 1275,-855 1275,-855 1269,-855 1263,-849 1263,-843 1263,-843 1263,-831 1263,-831 1263,-825 1269,-819 1275,-819 1275,-819 1353,-819 1353,-819 1359,-819 1365,-825 1365,-831 1365,-831 1365,-843 1365,-843 1365,-849 1359,-855 1353,-855"/>
<text text-anchor="middle" x="1314" y="-840" font-family="sans" font-size="10.00" fill="#000000">kallisto_bus</text>
<text text-anchor="middle" x="1314" y="-829" font-family="sans" font-size="10.00" fill="#000000">SRS: SRS4715841</text>
</g>
<!-- 12&#45;&gt;0 -->
<g id="edge12" class="edge">
<title>12&#45;&gt;0</title>
<path fill="none" stroke="#c0c0c0" stroke-width="2" d="M1314.428,-818.5281C1315.0288,-788.4443 1315.8547,-726.9982 1314,-675 1311.9987,-618.893 1305,-605.1427 1305,-549 1305,-549 1305,-549 1305,-162 1305,-116.4558 1290.235,-102.0373 1256,-72 1226.6191,-46.2216 1183.5877,-32.1111 1152.999,-24.8465"/>
<polygon fill="#c0c0c0" stroke="#c0c0c0" stroke-width="2" points="1153.6634,-21.4086 1143.1402,-22.6383 1152.1334,-28.2394 1153.6634,-21.4086"/>
</g>
<!-- 32 -->
<g id="node33" class="node">
<title>32</title>
<path fill="none" stroke="#568ad8" stroke-width="2" d="M1293,-711C1293,-711 1141,-711 1141,-711 1135,-711 1129,-705 1129,-699 1129,-699 1129,-687 1129,-687 1129,-681 1135,-675 1141,-675 1141,-675 1293,-675 1293,-675 1299,-675 1305,-681 1305,-687 1305,-687 1305,-699 1305,-699 1305,-705 1299,-711 1293,-711"/>
<text text-anchor="middle" x="1217" y="-690.5" font-family="sans" font-size="10.00" fill="#000000">bustools_whitelist_correct_count</text>
</g>
<!-- 12&#45;&gt;32 -->
<g id="edge67" class="edge">
<title>12&#45;&gt;32</title>
<path fill="none" stroke="#c0c0c0" stroke-width="2" d="M1307.1383,-818.8138C1299.5645,-799.9363 1286.265,-770.0068 1270,-747 1262.8446,-736.8788 1253.7635,-726.8823 1245.1484,-718.2937"/>
<polygon fill="#c0c0c0" stroke="#c0c0c0" stroke-width="2" points="1247.3775,-715.5803 1237.7576,-711.1408 1242.5094,-720.6104 1247.3775,-715.5803"/>
</g>
<!-- 41 -->
<g id="node42" class="node">
<title>41</title>
<path fill="none" stroke="#d85656" stroke-width="2" d="M1249,-783C1249,-783 1191,-783 1191,-783 1185,-783 1179,-777 1179,-771 1179,-771 1179,-759 1179,-759 1179,-753 1185,-747 1191,-747 1191,-747 1249,-747 1249,-747 1255,-747 1261,-753 1261,-759 1261,-759 1261,-771 1261,-771 1261,-777 1255,-783 1249,-783"/>
<text text-anchor="middle" x="1220" y="-762.5" font-family="sans" font-size="10.00" fill="#000000">bustools_sort</text>
</g>
<!-- 12&#45;&gt;41 -->
<g id="edge79" class="edge">
<title>12&#45;&gt;41</title>
<path fill="none" stroke="#c0c0c0" stroke-width="2" d="M1290.2798,-818.8314C1278.5906,-809.8779 1264.3312,-798.9558 1251.7191,-789.2955"/>
<polygon fill="#c0c0c0" stroke="#c0c0c0" stroke-width="2" points="1253.7797,-786.4651 1243.7126,-783.1628 1249.5231,-792.0222 1253.7797,-786.4651"/>
</g>
<!-- 13 -->
<g id="node14" class="node">
<title>13</title>
<path fill="none" stroke="#afd856" stroke-width="2" d="M1066,-855C1066,-855 988,-855 988,-855 982,-855 976,-849 976,-843 976,-843 976,-831 976,-831 976,-825 982,-819 988,-819 988,-819 1066,-819 1066,-819 1072,-819 1078,-825 1078,-831 1078,-831 1078,-843 1078,-843 1078,-849 1072,-855 1066,-855"/>
<text text-anchor="middle" x="1027" y="-840" font-family="sans" font-size="10.00" fill="#000000">kallisto_bus</text>
<text text-anchor="middle" x="1027" y="-829" font-family="sans" font-size="10.00" fill="#000000">SRS: SRS3698218</text>
</g>
<!-- 13&#45;&gt;0 -->
<g id="edge13" class="edge">
<title>13&#45;&gt;0</title>
<path fill="none" stroke="#c0c0c0" stroke-width="2" d="M1047.8493,-818.9238C1058.0852,-809.1424 1069.9207,-796.3486 1078,-783 1121.8123,-710.6136 1091.259,-672.1637 1140,-603 1154.754,-582.0639 1166.3175,-584.5204 1185,-567 1224.4715,-529.9838 1267,-531.1128 1267,-477 1267,-477 1267,-477 1267,-162 1267,-118.4059 1258.1975,-103.4413 1228,-72 1207.4982,-50.6537 1176.8301,-36.683 1152.7664,-28.3105"/>
<polygon fill="#c0c0c0" stroke="#c0c0c0" stroke-width="2" points="1153.8332,-24.977 1143.24,-25.1641 1151.6378,-31.6238 1153.8332,-24.977"/>
</g>
<!-- 31 -->
<g id="node32" class="node">
<title>31</title>
<path fill="none" stroke="#568ad8" stroke-width="2" d="M1061,-711C1061,-711 909,-711 909,-711 903,-711 897,-705 897,-699 897,-699 897,-687 897,-687 897,-681 903,-675 909,-675 909,-675 1061,-675 1061,-675 1067,-675 1073,-681 1073,-687 1073,-687 1073,-699 1073,-699 1073,-705 1067,-711 1061,-711"/>
<text text-anchor="middle" x="985" y="-690.5" font-family="sans" font-size="10.00" fill="#000000">bustools_whitelist_correct_count</text>
</g>
<!-- 13&#45;&gt;31 -->
<g id="edge64" class="edge">
<title>13&#45;&gt;31</title>
<path fill="none" stroke="#c0c0c0" stroke-width="2" d="M1004.325,-818.9909C994.2112,-809.4972 983.3802,-796.9355 978,-783 970.3677,-763.2311 972.7507,-739.2374 976.6985,-720.997"/>
<polygon fill="#c0c0c0" stroke="#c0c0c0" stroke-width="2" points="980.1045,-721.8027 979.0691,-711.2586 973.3031,-720.147 980.1045,-721.8027"/>
</g>
<!-- 40 -->
<g id="node41" class="node">
<title>40</title>
<path fill="none" stroke="#d85656" stroke-width="2" d="M1057,-783C1057,-783 999,-783 999,-783 993,-783 987,-777 987,-771 987,-771 987,-759 987,-759 987,-753 993,-747 999,-747 999,-747 1057,-747 1057,-747 1063,-747 1069,-753 1069,-759 1069,-759 1069,-771 1069,-771 1069,-777 1063,-783 1057,-783"/>
<text text-anchor="middle" x="1028" y="-762.5" font-family="sans" font-size="10.00" fill="#000000">bustools_sort</text>
</g>
<!-- 13&#45;&gt;40 -->
<g id="edge78" class="edge">
<title>13&#45;&gt;40</title>
<path fill="none" stroke="#c0c0c0" stroke-width="2" d="M1027.2523,-818.8314C1027.3593,-811.131 1027.4865,-801.9743 1027.6053,-793.4166"/>
<polygon fill="#c0c0c0" stroke="#c0c0c0" stroke-width="2" points="1031.1049,-793.4609 1027.7443,-783.4133 1024.1056,-793.3637 1031.1049,-793.4609"/>
</g>
<!-- 14 -->
<g id="node15" class="node">
<title>14</title>
<path fill="none" stroke="#afd856" stroke-width="2" d="M463,-855C463,-855 385,-855 385,-855 379,-855 373,-849 373,-843 373,-843 373,-831 373,-831 373,-825 379,-819 385,-819 385,-819 463,-819 463,-819 469,-819 475,-825 475,-831 475,-831 475,-843 475,-843 475,-849 469,-855 463,-855"/>
<text text-anchor="middle" x="424" y="-840" font-family="sans" font-size="10.00" fill="#000000">kallisto_bus</text>
<text text-anchor="middle" x="424" y="-829" font-family="sans" font-size="10.00" fill="#000000">SRS: SRS3971246</text>
</g>
<!-- 14&#45;&gt;0 -->
<g id="edge14" class="edge">
<title>14&#45;&gt;0</title>
<path fill="none" stroke="#c0c0c0" stroke-width="2" d="M413.9378,-818.8847C401.2108,-794.9875 379.7782,-751.2398 370,-711 336.3833,-572.6584 347,-533.8675 347,-391.5 347,-391.5 347,-391.5 347,-162 347,-119.3959 345.9883,-97.6576 380,-72 436.0727,-29.7002 936.1205,-20.2453 1078.3907,-18.4034"/>
<polygon fill="#c0c0c0" stroke="#c0c0c0" stroke-width="2" points="1078.8116,-21.8985 1088.7673,-18.2745 1078.7246,-14.899 1078.8116,-21.8985"/>
</g>
<!-- 29 -->
<g id="node30" class="node">
<title>29</title>
<path fill="none" stroke="#568ad8" stroke-width="2" d="M753,-711C753,-711 601,-711 601,-711 595,-711 589,-705 589,-699 589,-699 589,-687 589,-687 589,-681 595,-675 601,-675 601,-675 753,-675 753,-675 759,-675 765,-681 765,-687 765,-687 765,-699 765,-699 765,-705 759,-711 753,-711"/>
<text text-anchor="middle" x="677" y="-690.5" font-family="sans" font-size="10.00" fill="#000000">bustools_whitelist_correct_count</text>
</g>
<!-- 14&#45;&gt;29 -->
<g id="edge58" class="edge">
<title>14&#45;&gt;29</title>
<path fill="none" stroke="#c0c0c0" stroke-width="2" d="M455.7864,-818.9081C501.5144,-792.8812 585.8779,-744.8639 636.1679,-716.2404"/>
<polygon fill="#c0c0c0" stroke="#c0c0c0" stroke-width="2" points="638.185,-719.1196 645.1446,-711.1311 634.7224,-713.036 638.185,-719.1196"/>
</g>
<!-- 38 -->
<g id="node39" class="node">
<title>38</title>
<path fill="none" stroke="#d85656" stroke-width="2" d="M496,-783C496,-783 438,-783 438,-783 432,-783 426,-777 426,-771 426,-771 426,-759 426,-759 426,-753 432,-747 438,-747 438,-747 496,-747 496,-747 502,-747 508,-753 508,-759 508,-759 508,-771 508,-771 508,-777 502,-783 496,-783"/>
<text text-anchor="middle" x="467" y="-762.5" font-family="sans" font-size="10.00" fill="#000000">bustools_sort</text>
</g>
<!-- 14&#45;&gt;38 -->
<g id="edge76" class="edge">
<title>14&#45;&gt;38</title>
<path fill="none" stroke="#c0c0c0" stroke-width="2" d="M434.8507,-818.8314C439.7023,-810.7079 445.5217,-800.9637 450.868,-792.0118"/>
<polygon fill="#c0c0c0" stroke="#c0c0c0" stroke-width="2" points="453.8806,-793.7933 456.0032,-783.4133 447.8708,-790.2041 453.8806,-793.7933"/>
</g>
<!-- 15 -->
<g id="node16" class="node">
<title>15</title>
<path fill="none" stroke="#afd856" stroke-width="2" d="M286,-855C286,-855 208,-855 208,-855 202,-855 196,-849 196,-843 196,-843 196,-831 196,-831 196,-825 202,-819 208,-819 208,-819 286,-819 286,-819 292,-819 298,-825 298,-831 298,-831 298,-843 298,-843 298,-849 292,-855 286,-855"/>
<text text-anchor="middle" x="247" y="-840" font-family="sans" font-size="10.00" fill="#000000">kallisto_bus</text>
<text text-anchor="middle" x="247" y="-829" font-family="sans" font-size="10.00" fill="#000000">SRS: SRS1467250</text>
</g>
<!-- 15&#45;&gt;0 -->
<g id="edge15" class="edge">
<title>15&#45;&gt;0</title>
<path fill="none" stroke="#c0c0c0" stroke-width="2" d="M206.713,-818.886C190.8846,-810.0346 173.7334,-798.016 162,-783 116.1336,-724.3015 119,-695.4932 119,-621 119,-621 119,-621 119,-162 119,-52.6441 241.3358,-96.1136 348,-72 489.6911,-39.9679 944.4437,-23.4009 1078.4822,-19.1299"/>
<polygon fill="#c0c0c0" stroke="#c0c0c0" stroke-width="2" points="1078.7688,-22.6227 1088.6538,-18.8099 1078.5486,-15.6261 1078.7688,-22.6227"/>
</g>
<!-- 30 -->
<g id="node31" class="node">
<title>30</title>
<path fill="none" stroke="#568ad8" stroke-width="2" d="M311,-711C311,-711 159,-711 159,-711 153,-711 147,-705 147,-699 147,-699 147,-687 147,-687 147,-681 153,-675 159,-675 159,-675 311,-675 311,-675 317,-675 323,-681 323,-687 323,-687 323,-699 323,-699 323,-705 317,-711 311,-711"/>
<text text-anchor="middle" x="235" y="-690.5" font-family="sans" font-size="10.00" fill="#000000">bustools_whitelist_correct_count</text>
</g>
<!-- 15&#45;&gt;30 -->
<g id="edge61" class="edge">
<title>15&#45;&gt;30</title>
<path fill="none" stroke="#c0c0c0" stroke-width="2" d="M254.2027,-818.9298C260.5079,-800.6564 267.8231,-771.6668 262,-747 259.8304,-737.8094 255.8438,-728.3995 251.5879,-720.0631"/>
<polygon fill="#c0c0c0" stroke="#c0c0c0" stroke-width="2" points="254.6056,-718.286 246.7508,-711.1759 248.4573,-721.6324 254.6056,-718.286"/>
</g>
<!-- 39 -->
<g id="node40" class="node">
<title>39</title>
<path fill="none" stroke="#d85656" stroke-width="2" d="M241,-783C241,-783 183,-783 183,-783 177,-783 171,-777 171,-771 171,-771 171,-759 171,-759 171,-753 177,-747 183,-747 183,-747 241,-747 241,-747 247,-747 253,-753 253,-759 253,-759 253,-771 253,-771 253,-777 247,-783 241,-783"/>
<text text-anchor="middle" x="212" y="-762.5" font-family="sans" font-size="10.00" fill="#000000">bustools_sort</text>
</g>
<!-- 15&#45;&gt;39 -->
<g id="edge77" class="edge">
<title>15&#45;&gt;39</title>
<path fill="none" stroke="#c0c0c0" stroke-width="2" d="M238.168,-818.8314C234.3014,-810.8771 229.6794,-801.369 225.4032,-792.5723"/>
<polygon fill="#c0c0c0" stroke="#c0c0c0" stroke-width="2" points="228.4707,-790.8768 220.9509,-783.4133 222.1751,-793.9371 228.4707,-790.8768"/>
</g>
<!-- 16 -->
<g id="node17" class="node">
<title>16</title>
<path fill="none" stroke="#56d0d8" stroke-width="2" d="M873,-783C873,-783 793,-783 793,-783 787,-783 781,-777 781,-771 781,-771 781,-759 781,-759 781,-753 787,-747 793,-747 793,-747 873,-747 873,-747 879,-747 885,-753 885,-759 885,-759 885,-771 885,-771 885,-777 879,-783 873,-783"/>
<text text-anchor="middle" x="833" y="-762.5" font-family="sans" font-size="10.00" fill="#000000">tx_gene_mapping</text>
</g>
<!-- 16&#45;&gt;1 -->
<g id="edge16" class="edge">
<title>16&#45;&gt;1</title>
<path fill="none" stroke="#c0c0c0" stroke-width="2" d="M826.3865,-746.9706C814.1901,-715.3755 785.8107,-648.9958 747,-603 737.6014,-591.8614 725.5446,-581.5566 714.0946,-572.9995"/>
<polygon fill="#c0c0c0" stroke="#c0c0c0" stroke-width="2" points="716.0675,-570.107 705.9112,-567.0906 711.9697,-575.7822 716.0675,-570.107"/>
</g>
<!-- 16&#45;&gt;2 -->
<g id="edge20" class="edge">
<title>16&#45;&gt;2</title>
<path fill="none" stroke="#c0c0c0" stroke-width="2" d="M832.4165,-746.9787C831.9683,-716.5027 833.3772,-653.202 850,-603 853.1193,-593.5795 858.0685,-584.0283 863.151,-575.6313"/>
<polygon fill="#c0c0c0" stroke="#c0c0c0" stroke-width="2" points="866.2086,-577.3461 868.6381,-567.0336 860.3079,-573.5802 866.2086,-577.3461"/>
</g>
<!-- 16&#45;&gt;3 -->
<g id="edge22" class="edge">
<title>16&#45;&gt;3</title>
<path fill="none" stroke="#c0c0c0" stroke-width="2" d="M839.704,-746.9089C848.0714,-726.6824 864.2363,-694.2471 888,-675 925.3578,-644.7426 947.6144,-661.6841 990,-639 1023.8888,-620.8632 1058.5899,-593.7229 1081.9014,-573.9899"/>
<polygon fill="#c0c0c0" stroke="#c0c0c0" stroke-width="2" points="1084.3376,-576.5115 1089.652,-567.3459 1079.7818,-571.1969 1084.3376,-576.5115"/>
</g>
<!-- 16&#45;&gt;17 -->
<g id="edge39" class="edge">
<title>16&#45;&gt;17</title>
<path fill="none" stroke="#c0c0c0" stroke-width="2" d="M780.9437,-754.5306C727.0821,-743.6981 641.627,-726.5116 574.7049,-713.0524"/>
<polygon fill="#c0c0c0" stroke="#c0c0c0" stroke-width="2" points="575.0458,-709.5509 564.5519,-711.0104 573.6655,-716.4135 575.0458,-709.5509"/>
</g>
<!-- 16&#45;&gt;21 -->
<g id="edge46" class="edge">
<title>16&#45;&gt;21</title>
<path fill="none" stroke="#c0c0c0" stroke-width="2" d="M885.3199,-758.2484C912.879,-754.757 947.2516,-750.5047 978,-747 1121.2725,-730.6697 1286.9922,-713.8106 1392.1158,-703.3687"/>
<polygon fill="#c0c0c0" stroke="#c0c0c0" stroke-width="2" points="1392.4915,-706.8487 1402.0971,-702.3784 1391.8004,-699.8829 1392.4915,-706.8487"/>
</g>
<!-- 16&#45;&gt;29 -->
<g id="edge59" class="edge">
<title>16&#45;&gt;29</title>
<path fill="none" stroke="#c0c0c0" stroke-width="2" d="M793.6346,-746.8314C772.8633,-737.2446 747.2017,-725.4008 725.2419,-715.2655"/>
<polygon fill="#c0c0c0" stroke="#c0c0c0" stroke-width="2" points="726.6286,-712.0508 716.0823,-711.038 723.6952,-718.4065 726.6286,-712.0508"/>
</g>
<!-- 16&#45;&gt;30 -->
<g id="edge62" class="edge">
<title>16&#45;&gt;30</title>
<path fill="none" stroke="#c0c0c0" stroke-width="2" d="M780.8898,-759.2051C695.1468,-749.6066 518.9605,-729.6161 370,-711 358.1771,-709.5225 345.7781,-707.9292 333.4877,-706.323"/>
<polygon fill="#c0c0c0" stroke="#c0c0c0" stroke-width="2" points="333.5749,-702.8045 323.2043,-704.973 332.6636,-709.7449 333.5749,-702.8045"/>
</g>
<!-- 16&#45;&gt;31 -->
<g id="edge65" class="edge">
<title>16&#45;&gt;31</title>
<path fill="none" stroke="#c0c0c0" stroke-width="2" d="M871.356,-746.8314C891.5044,-737.2874 916.3752,-725.5065 937.7083,-715.4013"/>
<polygon fill="#c0c0c0" stroke="#c0c0c0" stroke-width="2" points="939.3807,-718.482 946.9198,-711.038 936.3841,-712.1558 939.3807,-718.482"/>
</g>
<!-- 16&#45;&gt;32 -->
<g id="edge68" class="edge">
<title>16&#45;&gt;32</title>
<path fill="none" stroke="#c0c0c0" stroke-width="2" d="M885.1876,-755.2148C945.0446,-743.9916 1044.498,-725.3441 1118.9447,-711.3854"/>
<polygon fill="#c0c0c0" stroke="#c0c0c0" stroke-width="2" points="1119.6314,-714.8177 1128.8151,-709.5347 1118.3414,-707.9376 1119.6314,-714.8177"/>
</g>
<!-- 17&#45;&gt;1 -->
<g id="edge17" class="edge">
<title>17&#45;&gt;1</title>
<path fill="none" stroke="#c0c0c0" stroke-width="2" d="M500.5834,-674.7623C536.8588,-648.9026 603.2895,-601.5461 643.4691,-572.9032"/>
<polygon fill="#c0c0c0" stroke="#c0c0c0" stroke-width="2" points="645.5132,-575.7444 651.6243,-567.0896 641.4498,-570.0444 645.5132,-575.7444"/>
</g>
<!-- 18 -->
<g id="node19" class="node">
<title>18</title>
<path fill="none" stroke="#5673d8" stroke-width="2" d="M726,-639C726,-639 628,-639 628,-639 622,-639 616,-633 616,-627 616,-627 616,-615 616,-615 616,-609 622,-603 628,-603 628,-603 726,-603 726,-603 732,-603 738,-609 738,-615 738,-615 738,-627 738,-627 738,-633 732,-639 726,-639"/>
<text text-anchor="middle" x="677" y="-618.5" font-family="sans" font-size="10.00" fill="#000000">create_sparse_matrix</text>
</g>
<!-- 18&#45;&gt;1 -->
<g id="edge18" class="edge">
<title>18&#45;&gt;1</title>
<path fill="none" stroke="#c0c0c0" stroke-width="2" d="M677,-602.8314C677,-595.131 677,-585.9743 677,-577.4166"/>
<polygon fill="#c0c0c0" stroke="#c0c0c0" stroke-width="2" points="680.5001,-577.4132 677,-567.4133 673.5001,-577.4133 680.5001,-577.4132"/>
</g>
<!-- 19 -->
<g id="node20" class="node">
<title>19</title>
<path fill="none" stroke="#5673d8" stroke-width="2" d="M503,-639C503,-639 405,-639 405,-639 399,-639 393,-633 393,-627 393,-627 393,-615 393,-615 393,-609 399,-603 405,-603 405,-603 503,-603 503,-603 509,-603 515,-609 515,-615 515,-615 515,-627 515,-627 515,-633 509,-639 503,-639"/>
<text text-anchor="middle" x="454" y="-618.5" font-family="sans" font-size="10.00" fill="#000000">create_sparse_matrix</text>
</g>
<!-- 19&#45;&gt;1 -->
<g id="edge19" class="edge">
<title>19&#45;&gt;1</title>
<path fill="none" stroke="#c0c0c0" stroke-width="2" d="M509.9845,-602.9243C540.735,-592.9959 579.0488,-580.6255 611.2205,-570.2382"/>
<polygon fill="#c0c0c0" stroke="#c0c0c0" stroke-width="2" points="612.5516,-573.4864 620.9925,-567.0831 610.4008,-566.825 612.5516,-573.4864"/>
</g>
<!-- 20 -->
<g id="node21" class="node">
<title>20</title>
<path fill="none" stroke="#5673d8" stroke-width="2" d="M969,-639C969,-639 871,-639 871,-639 865,-639 859,-633 859,-627 859,-627 859,-615 859,-615 859,-609 865,-603 871,-603 871,-603 969,-603 969,-603 975,-603 981,-609 981,-615 981,-615 981,-627 981,-627 981,-633 975,-639 969,-639"/>
<text text-anchor="middle" x="920" y="-618.5" font-family="sans" font-size="10.00" fill="#000000">create_sparse_matrix</text>
</g>
<!-- 20&#45;&gt;2 -->
<g id="edge21" class="edge">
<title>20&#45;&gt;2</title>
<path fill="none" stroke="#c0c0c0" stroke-width="2" d="M910.411,-602.8314C906.1683,-594.7925 901.0879,-585.1666 896.404,-576.2918"/>
<polygon fill="#c0c0c0" stroke="#c0c0c0" stroke-width="2" points="899.4811,-574.6235 891.7181,-567.4133 893.2904,-577.8908 899.4811,-574.6235"/>
</g>
<!-- 21&#45;&gt;3 -->
<g id="edge23" class="edge">
<title>21&#45;&gt;3</title>
<path fill="none" stroke="#c0c0c0" stroke-width="2" d="M1457.0183,-674.8719C1413.5021,-655.9087 1342.5132,-625.7871 1280,-603 1247.7086,-591.2292 1211.4631,-579.5148 1180.7617,-570.0203"/>
<polygon fill="#c0c0c0" stroke="#c0c0c0" stroke-width="2" points="1181.5876,-566.6126 1171.0005,-567.0185 1179.5299,-573.3034 1181.5876,-566.6126"/>
</g>
<!-- 22 -->
<g id="node23" class="node">
<title>22</title>
<path fill="none" stroke="#5673d8" stroke-width="2" d="M1259,-639C1259,-639 1161,-639 1161,-639 1155,-639 1149,-633 1149,-627 1149,-627 1149,-615 1149,-615 1149,-609 1155,-603 1161,-603 1161,-603 1259,-603 1259,-603 1265,-603 1271,-609 1271,-615 1271,-615 1271,-627 1271,-627 1271,-633 1265,-639 1259,-639"/>
<text text-anchor="middle" x="1210" y="-618.5" font-family="sans" font-size="10.00" fill="#000000">create_sparse_matrix</text>
</g>
<!-- 22&#45;&gt;3 -->
<g id="edge24" class="edge">
<title>22&#45;&gt;3</title>
<path fill="none" stroke="#c0c0c0" stroke-width="2" d="M1184.7658,-602.8314C1172.212,-593.7927 1156.8717,-582.7476 1143.3609,-573.0198"/>
<polygon fill="#c0c0c0" stroke="#c0c0c0" stroke-width="2" points="1145.3866,-570.1655 1135.2261,-567.1628 1141.2964,-575.8463 1145.3866,-570.1655"/>
</g>
<!-- 23 -->
<g id="node24" class="node">
<title>23</title>
<path fill="none" stroke="#56d892" stroke-width="2" d="M605,-180C605,-180 545,-180 545,-180 539,-180 533,-174 533,-168 533,-168 533,-156 533,-156 533,-150 539,-144 545,-144 545,-144 605,-144 605,-144 611,-144 617,-150 617,-156 617,-156 617,-168 617,-168 617,-174 611,-180 605,-180"/>
<text text-anchor="middle" x="575" y="-159.5" font-family="sans" font-size="10.00" fill="#000000">extract_umap</text>
</g>
<!-- 23&#45;&gt;4 -->
<g id="edge25" class="edge">
<title>23&#45;&gt;4</title>
<path fill="none" stroke="#c0c0c0" stroke-width="2" d="M614.6177,-143.8314C635.5222,-134.2446 661.3483,-122.4008 683.4488,-112.2655"/>
<polygon fill="#c0c0c0" stroke="#c0c0c0" stroke-width="2" points="685.0364,-115.388 692.6672,-108.038 682.1184,-109.0252 685.0364,-115.388"/>
</g>
<!-- 23&#45;&gt;6 -->
<g id="edge27" class="edge">
<title>23&#45;&gt;6</title>
<path fill="none" stroke="#c0c0c0" stroke-width="2" d="M566.168,-143.8314C562.3014,-135.8771 557.6794,-126.369 553.4032,-117.5723"/>
<polygon fill="#c0c0c0" stroke="#c0c0c0" stroke-width="2" points="556.4707,-115.8768 548.9509,-108.4133 550.1751,-118.9371 556.4707,-115.8768"/>
</g>
<!-- 24 -->
<g id="node25" class="node">
<title>24</title>
<path fill="none" stroke="#56d892" stroke-width="2" d="M954,-180C954,-180 894,-180 894,-180 888,-180 882,-174 882,-168 882,-168 882,-156 882,-156 882,-150 888,-144 894,-144 894,-144 954,-144 954,-144 960,-144 966,-150 966,-156 966,-156 966,-168 966,-168 966,-174 960,-180 954,-180"/>
<text text-anchor="middle" x="924" y="-159.5" font-family="sans" font-size="10.00" fill="#000000">extract_umap</text>
</g>
<!-- 24&#45;&gt;5 -->
<g id="edge26" class="edge">
<title>24&#45;&gt;5</title>
<path fill="none" stroke="#c0c0c0" stroke-width="2" d="M966.1352,-146.1993C993.5272,-135.9273 1029.5699,-122.4113 1059.4439,-111.2086"/>
<polygon fill="#c0c0c0" stroke="#c0c0c0" stroke-width="2" points="1060.7733,-114.4481 1068.9077,-107.6596 1058.3154,-107.8938 1060.7733,-114.4481"/>
</g>
<!-- 24&#45;&gt;7 -->
<g id="edge28" class="edge">
<title>24&#45;&gt;7</title>
<path fill="none" stroke="#c0c0c0" stroke-width="2" d="M924,-143.8314C924,-136.131 924,-126.9743 924,-118.4166"/>
<polygon fill="#c0c0c0" stroke="#c0c0c0" stroke-width="2" points="927.5001,-118.4132 924,-108.4133 920.5001,-118.4133 927.5001,-118.4132"/>
</g>
<!-- 25 -->
<g id="node26" class="node">
<title>25</title>
<path fill="none" stroke="#56b9d8" stroke-width="2" d="M1504,-927C1504,-927 1320,-927 1320,-927 1314,-927 1308,-921 1308,-915 1308,-915 1308,-903 1308,-903 1308,-897 1314,-891 1320,-891 1320,-891 1504,-891 1504,-891 1510,-891 1516,-897 1516,-903 1516,-903 1516,-915 1516,-915 1516,-921 1510,-927 1504,-927"/>
<text text-anchor="middle" x="1412" y="-912" font-family="sans" font-size="10.00" fill="#000000">kallisto_index</text>
<text text-anchor="middle" x="1412" y="-901" font-family="sans" font-size="10.00" fill="#000000">fasta: gencode.v31.pc_transcripts.fa.gz</text>
</g>
<!-- 25&#45;&gt;8 -->
<g id="edge29" class="edge">
<title>25&#45;&gt;8</title>
<path fill="none" stroke="#c0c0c0" stroke-width="2" d="M1442.3962,-890.7623C1485.7661,-864.7404 1565.4153,-816.9508 1613.0565,-788.3661"/>
<polygon fill="#c0c0c0" stroke="#c0c0c0" stroke-width="2" points="1615.0764,-791.2359 1621.8506,-783.0896 1611.4749,-785.2334 1615.0764,-791.2359"/>
</g>
<!-- 25&#45;&gt;9 -->
<g id="edge30" class="edge">
<title>25&#45;&gt;9</title>
<path fill="none" stroke="#c0c0c0" stroke-width="2" d="M1412,-890.7623C1412,-866.201 1412,-822.2474 1412,-793.3541"/>
<polygon fill="#c0c0c0" stroke="#c0c0c0" stroke-width="2" points="1415.5001,-793.0896 1412,-783.0896 1408.5001,-793.0897 1415.5001,-793.0896"/>
</g>
<!-- 25&#45;&gt;10 -->
<g id="edge31" class="edge">
<title>25&#45;&gt;10</title>
<path fill="none" stroke="#c0c0c0" stroke-width="2" d="M1427.1981,-890.7623C1448.2068,-865.5518 1486.2414,-819.9103 1510.254,-791.0952"/>
<polygon fill="#c0c0c0" stroke="#c0c0c0" stroke-width="2" points="1513.2122,-793.0125 1516.9253,-783.0896 1507.8347,-788.5312 1513.2122,-793.0125"/>
</g>
<!-- 25&#45;&gt;12 -->
<g id="edge33" class="edge">
<title>25&#45;&gt;12</title>
<path fill="none" stroke="#c0c0c0" stroke-width="2" d="M1387.2705,-890.8314C1375.0838,-881.8779 1360.2177,-870.9558 1347.0688,-861.2955"/>
<polygon fill="#c0c0c0" stroke="#c0c0c0" stroke-width="2" points="1348.8527,-858.263 1338.7216,-855.1628 1344.7082,-863.9042 1348.8527,-858.263"/>
</g>
<!-- 26 -->
<g id="node27" class="node">
<title>26</title>
<path fill="none" stroke="#56b9d8" stroke-width="2" d="M387,-927C387,-927 195,-927 195,-927 189,-927 183,-921 183,-915 183,-915 183,-903 183,-903 183,-897 189,-891 195,-891 195,-891 387,-891 387,-891 393,-891 399,-897 399,-903 399,-903 399,-915 399,-915 399,-921 393,-927 387,-927"/>
<text text-anchor="middle" x="291" y="-912" font-family="sans" font-size="10.00" fill="#000000">kallisto_index</text>
<text text-anchor="middle" x="291" y="-901" font-family="sans" font-size="10.00" fill="#000000">fasta: gencode.vM22.pc_transcripts.fa.gz</text>
</g>
<!-- 26&#45;&gt;11 -->
<g id="edge32" class="edge">
<title>26&#45;&gt;11</title>
<path fill="none" stroke="#c0c0c0" stroke-width="2" d="M253.9062,-890.9373C233.8235,-880.8605 208.7436,-867.7913 187,-855 151.3271,-834.0143 112.0499,-807.6497 84.916,-788.8916"/>
<polygon fill="#c0c0c0" stroke="#c0c0c0" stroke-width="2" points="86.7633,-785.9134 76.5529,-783.0851 82.771,-791.6633 86.7633,-785.9134"/>
</g>
<!-- 26&#45;&gt;14 -->
<g id="edge35" class="edge">
<title>26&#45;&gt;14</title>
<path fill="none" stroke="#c0c0c0" stroke-width="2" d="M324.5615,-890.8314C341.8881,-881.4516 363.2058,-869.9112 381.6536,-859.9244"/>
<polygon fill="#c0c0c0" stroke="#c0c0c0" stroke-width="2" points="383.3214,-863.0015 390.4492,-855.1628 379.9889,-856.8457 383.3214,-863.0015"/>
</g>
<!-- 26&#45;&gt;15 -->
<g id="edge36" class="edge">
<title>26&#45;&gt;15</title>
<path fill="none" stroke="#c0c0c0" stroke-width="2" d="M279.8969,-890.8314C274.9326,-882.7079 268.9778,-872.9637 263.5072,-864.0118"/>
<polygon fill="#c0c0c0" stroke="#c0c0c0" stroke-width="2" points="266.4536,-862.121 258.2526,-855.4133 260.4806,-865.7712 266.4536,-862.121"/>
</g>
<!-- 27 -->
<g id="node28" class="node">
<title>27</title>
<path fill="none" stroke="#56b9d8" stroke-width="2" d="M1170,-927C1170,-927 882,-927 882,-927 876,-927 870,-921 870,-915 870,-915 870,-903 870,-903 870,-897 876,-891 882,-891 882,-891 1170,-891 1170,-891 1176,-891 1182,-897 1182,-903 1182,-903 1182,-915 1182,-915 1182,-921 1176,-927 1170,-927"/>
<text text-anchor="middle" x="1026" y="-912" font-family="sans" font-size="10.00" fill="#000000">kallisto_index</text>
<text text-anchor="middle" x="1026" y="-901" font-family="sans" font-size="10.00" fill="#000000">fasta: GCF_000364345.1_Macaca_fascicularis_5.0_rna.fna.gz</text>
</g>
<!-- 27&#45;&gt;13 -->
<g id="edge34" class="edge">
<title>27&#45;&gt;13</title>
<path fill="none" stroke="#c0c0c0" stroke-width="2" d="M1026.2523,-890.8314C1026.3593,-883.131 1026.4865,-873.9743 1026.6053,-865.4166"/>
<polygon fill="#c0c0c0" stroke="#c0c0c0" stroke-width="2" points="1030.1049,-865.4609 1026.7443,-855.4133 1023.1056,-865.3637 1030.1049,-865.4609"/>
</g>
<!-- 28 -->
<g id="node29" class="node">
<title>28</title>
<path fill="none" stroke="#c6d856" stroke-width="2" d="M974.5,-999C974.5,-999 877.5,-999 877.5,-999 871.5,-999 865.5,-993 865.5,-987 865.5,-987 865.5,-975 865.5,-975 865.5,-969 871.5,-963 877.5,-963 877.5,-963 974.5,-963 974.5,-963 980.5,-963 986.5,-969 986.5,-975 986.5,-975 986.5,-987 986.5,-987 986.5,-993 980.5,-999 974.5,-999"/>
<text text-anchor="middle" x="926" y="-978.5" font-family="sans" font-size="10.00" fill="#000000">download_references</text>
</g>
<!-- 28&#45;&gt;16 -->
<g id="edge37" class="edge">
<title>28&#45;&gt;16</title>
<path fill="none" stroke="#c0c0c0" stroke-width="2" d="M895.9182,-962.9514C883.179,-953.7696 869.3735,-941.4778 861,-927 836.7586,-885.0865 832.3495,-827.5848 832.1334,-793.5591"/>
<polygon fill="#c0c0c0" stroke="#c0c0c0" stroke-width="2" points="835.6342,-793.4059 832.1907,-783.3863 828.6343,-793.3663 835.6342,-793.4059"/>
</g>
<!-- 28&#45;&gt;25 -->
<g id="edge54" class="edge">
<title>28&#45;&gt;25</title>
<path fill="none" stroke="#c0c0c0" stroke-width="2" d="M986.5696,-972.0267C1064.1061,-960.5398 1200.0395,-940.4016 1297.3965,-925.9783"/>
<polygon fill="#c0c0c0" stroke="#c0c0c0" stroke-width="2" points="1298.2044,-929.3969 1307.5834,-924.4691 1297.1785,-922.4725 1298.2044,-929.3969"/>
</g>
<!-- 28&#45;&gt;26 -->
<g id="edge55" class="edge">
<title>28&#45;&gt;26</title>
<path fill="none" stroke="#c0c0c0" stroke-width="2" d="M865.4012,-974.129C760.7589,-962.264 544.4287,-937.7352 409.1616,-922.3979"/>
<polygon fill="#c0c0c0" stroke="#c0c0c0" stroke-width="2" points="409.4924,-918.913 399.1617,-921.264 408.7037,-925.8685 409.4924,-918.913"/>
</g>
<!-- 28&#45;&gt;27 -->
<g id="edge56" class="edge">
<title>28&#45;&gt;27</title>
<path fill="none" stroke="#c0c0c0" stroke-width="2" d="M951.2342,-962.8314C963.788,-953.7927 979.1283,-942.7476 992.6391,-933.0198"/>
<polygon fill="#c0c0c0" stroke="#c0c0c0" stroke-width="2" points="994.7036,-935.8463 1000.7739,-927.1628 990.6134,-930.1655 994.7036,-935.8463"/>
</g>
<!-- 29&#45;&gt;18 -->
<g id="edge40" class="edge">
<title>29&#45;&gt;18</title>
<path fill="none" stroke="#c0c0c0" stroke-width="2" d="M677,-674.8314C677,-667.131 677,-657.9743 677,-649.4166"/>
<polygon fill="#c0c0c0" stroke="#c0c0c0" stroke-width="2" points="680.5001,-649.4132 677,-639.4133 673.5001,-649.4133 680.5001,-649.4132"/>
</g>
<!-- 30&#45;&gt;19 -->
<g id="edge41" class="edge">
<title>30&#45;&gt;19</title>
<path fill="none" stroke="#c0c0c0" stroke-width="2" d="M289.9803,-674.9243C320.1792,-664.9959 357.8058,-652.6255 389.4004,-642.2382"/>
<polygon fill="#c0c0c0" stroke="#c0c0c0" stroke-width="2" points="390.5905,-645.5313 398.9971,-639.0831 388.4042,-638.8815 390.5905,-645.5313"/>
</g>
<!-- 31&#45;&gt;20 -->
<g id="edge42" class="edge">
<title>31&#45;&gt;20</title>
<path fill="none" stroke="#c0c0c0" stroke-width="2" d="M968.5978,-674.8314C960.9585,-666.3694 951.7317,-656.1489 943.3793,-646.8971"/>
<polygon fill="#c0c0c0" stroke="#c0c0c0" stroke-width="2" points="945.9221,-644.4906 936.6231,-639.4133 940.7262,-649.1813 945.9221,-644.4906"/>
</g>
<!-- 32&#45;&gt;22 -->
<g id="edge47" class="edge">
<title>32&#45;&gt;22</title>
<path fill="none" stroke="#c0c0c0" stroke-width="2" d="M1215.2336,-674.8314C1214.485,-667.131 1213.5947,-657.9743 1212.7627,-649.4166"/>
<polygon fill="#c0c0c0" stroke="#c0c0c0" stroke-width="2" points="1216.2415,-649.0276 1211.7902,-639.4133 1209.2744,-649.7051 1216.2415,-649.0276"/>
</g>
<!-- 33 -->
<g id="node34" class="node">
<title>33</title>
<path fill="none" stroke="#d8d356" stroke-width="2" d="M810.5,-252C810.5,-252 679.5,-252 679.5,-252 673.5,-252 667.5,-246 667.5,-240 667.5,-240 667.5,-228 667.5,-228 667.5,-222 673.5,-216 679.5,-216 679.5,-216 810.5,-216 810.5,-216 816.5,-216 822.5,-222 822.5,-228 822.5,-228 822.5,-240 822.5,-240 822.5,-246 816.5,-252 810.5,-252"/>
<text text-anchor="middle" x="745" y="-237" font-family="sans" font-size="10.00" fill="#000000">calculate_umap_and_cluster</text>
<text text-anchor="middle" x="745" y="-226" font-family="sans" font-size="10.00" fill="#000000">dims: 50</text>
</g>
<!-- 33&#45;&gt;23 -->
<g id="edge48" class="edge">
<title>33&#45;&gt;23</title>
<path fill="none" stroke="#c0c0c0" stroke-width="2" d="M702.1018,-215.8314C679.0906,-206.0854 650.5719,-194.0069 626.3829,-183.7622"/>
<polygon fill="#c0c0c0" stroke="#c0c0c0" stroke-width="2" points="627.5752,-180.4662 617.002,-179.7891 624.8452,-186.912 627.5752,-180.4662"/>
</g>
<!-- 34 -->
<g id="node35" class="node">
<title>34</title>
<path fill="none" stroke="#56a2d8" stroke-width="2" d="M642.5,-324C642.5,-324 507.5,-324 507.5,-324 501.5,-324 495.5,-318 495.5,-312 495.5,-312 495.5,-300 495.5,-300 495.5,-294 501.5,-288 507.5,-288 507.5,-288 642.5,-288 642.5,-288 648.5,-288 654.5,-294 654.5,-300 654.5,-300 654.5,-312 654.5,-312 654.5,-318 648.5,-324 642.5,-324"/>
<text text-anchor="middle" x="575" y="-303.5" font-family="sans" font-size="10.00" fill="#000000">label_known_cells_with_type</text>
</g>
<!-- 34&#45;&gt;23 -->
<g id="edge49" class="edge">
<title>34&#45;&gt;23</title>
<path fill="none" stroke="#c0c0c0" stroke-width="2" d="M503.9718,-287.915C486.3068,-279.8843 469.449,-268.3899 459,-252 450.3988,-238.5085 450.3988,-229.4915 459,-216 473.2216,-193.6926 499.3153,-180.4538 523.1575,-172.6737"/>
<polygon fill="#c0c0c0" stroke="#c0c0c0" stroke-width="2" points="524.2789,-175.9914 532.8471,-169.7594 522.2627,-169.288 524.2789,-175.9914"/>
</g>
<!-- 34&#45;&gt;24 -->
<g id="edge52" class="edge">
<title>34&#45;&gt;24</title>
<path fill="none" stroke="#c0c0c0" stroke-width="2" d="M530.0211,-287.9855C514.826,-279.4759 499.5568,-267.6732 491,-252 483.333,-237.9566 480.4095,-227.9933 491,-216 515.8651,-187.8413 762.1424,-170.9 871.7994,-164.698"/>
<polygon fill="#c0c0c0" stroke="#c0c0c0" stroke-width="2" points="872.183,-168.1821 881.9729,-164.1313 871.7937,-161.1929 872.183,-168.1821"/>
</g>
<!-- 35 -->
<g id="node36" class="node">
<title>35</title>
<path fill="none" stroke="#56d8a9" stroke-width="2" d="M637.5,-252C637.5,-252 512.5,-252 512.5,-252 506.5,-252 500.5,-246 500.5,-240 500.5,-240 500.5,-228 500.5,-228 500.5,-222 506.5,-216 512.5,-216 512.5,-216 637.5,-216 637.5,-216 643.5,-216 649.5,-222 649.5,-228 649.5,-228 649.5,-240 649.5,-240 649.5,-246 643.5,-252 637.5,-252"/>
<text text-anchor="middle" x="575" y="-231.5" font-family="sans" font-size="10.00" fill="#000000">predict_missing_cell_types</text>
</g>
<!-- 34&#45;&gt;35 -->
<g id="edge72" class="edge">
<title>34&#45;&gt;35</title>
<path fill="none" stroke="#c0c0c0" stroke-width="2" d="M575,-287.8314C575,-280.131 575,-270.9743 575,-262.4166"/>
<polygon fill="#c0c0c0" stroke="#c0c0c0" stroke-width="2" points="578.5001,-262.4132 575,-252.4133 571.5001,-262.4133 578.5001,-262.4132"/>
</g>
<!-- 37 -->
<g id="node38" class="node">
<title>37</title>
<path fill="none" stroke="#56d8a9" stroke-width="2" d="M977.5,-252C977.5,-252 852.5,-252 852.5,-252 846.5,-252 840.5,-246 840.5,-240 840.5,-240 840.5,-228 840.5,-228 840.5,-222 846.5,-216 852.5,-216 852.5,-216 977.5,-216 977.5,-216 983.5,-216 989.5,-222 989.5,-228 989.5,-228 989.5,-240 989.5,-240 989.5,-246 983.5,-252 977.5,-252"/>
<text text-anchor="middle" x="915" y="-231.5" font-family="sans" font-size="10.00" fill="#000000">predict_missing_cell_types</text>
</g>
<!-- 34&#45;&gt;37 -->
<g id="edge75" class="edge">
<title>34&#45;&gt;37</title>
<path fill="none" stroke="#c0c0c0" stroke-width="2" d="M654.6193,-289.4089C702.916,-279.3122 766.0645,-266.0536 830.4282,-252.3301"/>
<polygon fill="#c0c0c0" stroke="#c0c0c0" stroke-width="2" points="831.2988,-255.7232 840.3482,-250.2133 829.838,-248.8773 831.2988,-255.7232"/>
</g>
<!-- 35&#45;&gt;23 -->
<g id="edge50" class="edge">
<title>35&#45;&gt;23</title>
<path fill="none" stroke="#c0c0c0" stroke-width="2" d="M575,-215.8314C575,-208.131 575,-198.9743 575,-190.4166"/>
<polygon fill="#c0c0c0" stroke="#c0c0c0" stroke-width="2" points="578.5001,-190.4132 575,-180.4133 571.5001,-190.4133 578.5001,-190.4132"/>
</g>
<!-- 36 -->
<g id="node37" class="node">
<title>36</title>
<path fill="none" stroke="#d8d356" stroke-width="2" d="M1150.5,-252C1150.5,-252 1019.5,-252 1019.5,-252 1013.5,-252 1007.5,-246 1007.5,-240 1007.5,-240 1007.5,-228 1007.5,-228 1007.5,-222 1013.5,-216 1019.5,-216 1019.5,-216 1150.5,-216 1150.5,-216 1156.5,-216 1162.5,-222 1162.5,-228 1162.5,-228 1162.5,-240 1162.5,-240 1162.5,-246 1156.5,-252 1150.5,-252"/>
<text text-anchor="middle" x="1085" y="-237" font-family="sans" font-size="10.00" fill="#000000">calculate_umap_and_cluster</text>
<text text-anchor="middle" x="1085" y="-226" font-family="sans" font-size="10.00" fill="#000000">dims: 50</text>
</g>
<!-- 36&#45;&gt;24 -->
<g id="edge51" class="edge">
<title>36&#45;&gt;24</title>
<path fill="none" stroke="#c0c0c0" stroke-width="2" d="M1044.3729,-215.8314C1022.8401,-206.2018 996.2151,-194.295 973.4848,-184.1299"/>
<polygon fill="#c0c0c0" stroke="#c0c0c0" stroke-width="2" points="974.8926,-180.9254 964.335,-180.038 972.0348,-187.3155 974.8926,-180.9254"/>
</g>
<!-- 37&#45;&gt;24 -->
<g id="edge53" class="edge">
<title>37&#45;&gt;24</title>
<path fill="none" stroke="#c0c0c0" stroke-width="2" d="M917.2711,-215.8314C918.2336,-208.131 919.3782,-198.9743 920.4479,-190.4166"/>
<polygon fill="#c0c0c0" stroke="#c0c0c0" stroke-width="2" points="923.9309,-190.7702 921.6983,-180.4133 916.9849,-189.9019 923.9309,-190.7702"/>
</g>
<!-- 38&#45;&gt;29 -->
<g id="edge57" class="edge">
<title>38&#45;&gt;29</title>
<path fill="none" stroke="#c0c0c0" stroke-width="2" d="M508.2387,-750.861C538.5916,-740.4543 580.3853,-726.1251 614.7868,-714.3302"/>
<polygon fill="#c0c0c0" stroke="#c0c0c0" stroke-width="2" points="615.9538,-717.6302 624.2781,-711.0761 613.6835,-711.0086 615.9538,-717.6302"/>
</g>
<!-- 39&#45;&gt;30 -->
<g id="edge60" class="edge">
<title>39&#45;&gt;30</title>
<path fill="none" stroke="#c0c0c0" stroke-width="2" d="M217.8039,-746.8314C220.2908,-739.0463 223.2531,-729.7729 226.0125,-721.1347"/>
<polygon fill="#c0c0c0" stroke="#c0c0c0" stroke-width="2" points="229.409,-722.0041 229.118,-711.4133 222.7409,-719.874 229.409,-722.0041"/>
</g>
<!-- 40&#45;&gt;31 -->
<g id="edge63" class="edge">
<title>40&#45;&gt;31</title>
<path fill="none" stroke="#c0c0c0" stroke-width="2" d="M1017.1493,-746.8314C1012.2977,-738.7079 1006.4783,-728.9637 1001.132,-720.0118"/>
<polygon fill="#c0c0c0" stroke="#c0c0c0" stroke-width="2" points="1004.1292,-718.2041 995.9968,-711.4133 998.1194,-721.7933 1004.1292,-718.2041"/>
</g>
<!-- 41&#45;&gt;32 -->
<g id="edge66" class="edge">
<title>41&#45;&gt;32</title>
<path fill="none" stroke="#c0c0c0" stroke-width="2" d="M1219.243,-746.8314C1218.9221,-739.131 1218.5406,-729.9743 1218.184,-721.4166"/>
<polygon fill="#c0c0c0" stroke="#c0c0c0" stroke-width="2" points="1221.6806,-721.2589 1217.7672,-711.4133 1214.6867,-721.5503 1221.6806,-721.2589"/>
</g>
<!-- 42 -->
<g id="node43" class="node">
<title>42</title>
<path fill="none" stroke="#56d8c9" stroke-width="2" d="M784,-324C784,-324 706,-324 706,-324 700,-324 694,-318 694,-312 694,-312 694,-300 694,-300 694,-294 700,-288 706,-288 706,-288 784,-288 784,-288 790,-288 796,-294 796,-300 796,-300 796,-312 796,-312 796,-318 790,-324 784,-324"/>
<text text-anchor="middle" x="745" y="-309" font-family="sans" font-size="10.00" fill="#000000">integrate</text>
<text text-anchor="middle" x="745" y="-298" font-family="sans" font-size="10.00" fill="#000000">method: fastMNN</text>
</g>
<!-- 42&#45;&gt;33 -->
<g id="edge69" class="edge">
<title>42&#45;&gt;33</title>
<path fill="none" stroke="#c0c0c0" stroke-width="2" d="M745,-287.8314C745,-280.131 745,-270.9743 745,-262.4166"/>
<polygon fill="#c0c0c0" stroke="#c0c0c0" stroke-width="2" points="748.5001,-262.4132 745,-252.4133 741.5001,-262.4133 748.5001,-262.4132"/>
</g>
<!-- 42&#45;&gt;35 -->
<g id="edge71" class="edge">
<title>42&#45;&gt;35</title>
<path fill="none" stroke="#c0c0c0" stroke-width="2" d="M702.1018,-287.8314C679.2643,-278.159 651.002,-266.1891 626.9313,-255.9944"/>
<polygon fill="#c0c0c0" stroke="#c0c0c0" stroke-width="2" points="628.1629,-252.7151 617.5897,-252.038 625.4329,-259.1608 628.1629,-252.7151"/>
</g>
<!-- 43&#45;&gt;34 -->
<g id="edge70" class="edge">
<title>43&#45;&gt;34</title>
<path fill="none" stroke="#c0c0c0" stroke-width="2" d="M775.9589,-468.3085C745.3686,-460.1603 702.8075,-445.7664 671,-423 636.9797,-398.6498 608.1409,-359.3279 591.199,-333.0785"/>
<polygon fill="#c0c0c0" stroke="#c0c0c0" stroke-width="2" points="594.0099,-330.9744 585.7136,-324.3849 588.0899,-334.7098 594.0099,-330.9744"/>
</g>
<!-- 43&#45;&gt;45 -->
<g id="edge85" class="edge">
<title>43&#45;&gt;45</title>
<path fill="none" stroke="#c0c0c0" stroke-width="2" d="M821.9985,-458.8676C824.9753,-451.1548 828.5782,-441.8202 832.1411,-432.5891"/>
<polygon fill="#c0c0c0" stroke="#c0c0c0" stroke-width="2" points="835.476,-433.6685 835.8116,-423.079 828.9456,-431.1479 835.476,-433.6685"/>
</g>
<!-- 44 -->
<g id="node45" class="node">
<title>44</title>
<path fill="none" stroke="#56d8c9" stroke-width="2" d="M943,-324C943,-324 887,-324 887,-324 881,-324 875,-318 875,-312 875,-312 875,-300 875,-300 875,-294 881,-288 887,-288 887,-288 943,-288 943,-288 949,-288 955,-294 955,-300 955,-300 955,-312 955,-312 955,-318 949,-324 943,-324"/>
<text text-anchor="middle" x="915" y="-309" font-family="sans" font-size="10.00" fill="#000000">integrate</text>
<text text-anchor="middle" x="915" y="-298" font-family="sans" font-size="10.00" fill="#000000">method: CCA</text>
</g>
<!-- 44&#45;&gt;36 -->
<g id="edge73" class="edge">
<title>44&#45;&gt;36</title>
<path fill="none" stroke="#c0c0c0" stroke-width="2" d="M955.2876,-288.937C978.5336,-279.0917 1008.0167,-266.6047 1032.9982,-256.0243"/>
<polygon fill="#c0c0c0" stroke="#c0c0c0" stroke-width="2" points="1034.4866,-259.1949 1042.3298,-252.0721 1031.7566,-252.7492 1034.4866,-259.1949"/>
</g>
<!-- 44&#45;&gt;37 -->
<g id="edge74" class="edge">
<title>44&#45;&gt;37</title>
<path fill="none" stroke="#c0c0c0" stroke-width="2" d="M915,-287.8314C915,-280.131 915,-270.9743 915,-262.4166"/>
<polygon fill="#c0c0c0" stroke="#c0c0c0" stroke-width="2" points="918.5001,-262.4132 915,-252.4133 911.5001,-262.4133 918.5001,-262.4132"/>
</g>
<!-- 45&#45;&gt;42 -->
<g id="edge80" class="edge">
<title>45&#45;&gt;42</title>
<path fill="none" stroke="#c0c0c0" stroke-width="2" d="M809.9392,-359.9059C798.2264,-350.183 785.5163,-339.6324 774.4717,-330.4644"/>
<polygon fill="#c0c0c0" stroke="#c0c0c0" stroke-width="2" points="776.692,-327.7587 766.762,-324.0646 772.221,-333.1448 776.692,-327.7587"/>
</g>
<!-- 45&#45;&gt;44 -->
<g id="edge84" class="edge">
<title>45&#45;&gt;44</title>
<path fill="none" stroke="#c0c0c0" stroke-width="2" d="M872.9483,-359.663C880.0534,-350.5961 887.7084,-340.8273 894.5147,-332.1417"/>
<polygon fill="#c0c0c0" stroke="#c0c0c0" stroke-width="2" points="897.3215,-334.2343 900.7346,-324.2043 891.8116,-329.9166 897.3215,-334.2343"/>
</g>
</g>
</svg>
