<?xml version="1.0" encoding="UTF-8" standalone="no"?>
<!DOCTYPE svg PUBLIC "-//W3C//DTD SVG 1.1//EN"
 "http://www.w3.org/Graphics/SVG/1.1/DTD/svg11.dtd">
<!-- Generated by graphviz version 2.40.1 (20161225.0304)
 -->
<!-- Title: snakemake_dag Pages: 1 -->
<svg width="12050pt" height="3338pt"
 viewBox="0.00 0.00 12050.00 3338.00" xmlns="http://www.w3.org/2000/svg" xmlns:xlink="http://www.w3.org/1999/xlink">
<g id="graph0" class="graph" transform="scale(1 1) rotate(0) translate(4 3334)">
<title>snakemake_dag</title>
<polygon fill="#ffffff" stroke="transparent" points="-4,4 -4,-3334 12046,-3334 12046,4 -4,4"/>
<!-- 0 -->
<g id="node1" class="node">
<title>0</title>
<path fill="none" stroke="#56d892" stroke-width="2" d="M8709,-118C8709,-118 8599,-118 8599,-118 8593,-118 8587,-112 8587,-106 8587,-106 8587,-12 8587,-12 8587,-6 8593,0 8599,0 8599,0 8709,0 8709,0 8715,0 8721,-6 8721,-12 8721,-12 8721,-106 8721,-106 8721,-112 8715,-118 8709,-118"/>
<text text-anchor="middle" x="8654" y="-34" font-family="sans" font-size="100.00" fill="#000000">all</text>
</g>
<!-- 1 -->
<g id="node2" class="node">
<title>1</title>
<path fill="none" stroke="#61d856" stroke-width="2" d="M5717,-1911C5717,-1911 4571,-1911 4571,-1911 4565,-1911 4559,-1905 4559,-1899 4559,-1899 4559,-1805 4559,-1805 4559,-1799 4565,-1793 4571,-1793 4571,-1793 5717,-1793 5717,-1793 5723,-1793 5729,-1799 5729,-1805 5729,-1805 5729,-1899 5729,-1899 5729,-1905 5723,-1911 5717,-1911"/>
<text text-anchor="middle" x="5144" y="-1827" font-family="sans" font-size="100.00" fill="#000000">combine_well_and_umi</text>
</g>
<!-- 1&#45;&gt;0 -->
<g id="edge1" class="edge">
<title>1&#45;&gt;0</title>
<path fill="none" stroke="#c0c0c0" stroke-width="2" d="M4658.8572,-1792.9897C3901.9936,-1694.2585 2526,-1485.0531 2526,-1269 2526,-1269 2526,-1269 2526,-367 2526,-271.9574 2475.3736,-218.6935 2545,-154 2603.0178,-100.0927 7873.8281,-64.06 8576.8353,-59.4923"/>
<polygon fill="#c0c0c0" stroke="#c0c0c0" stroke-width="2" points="8576.8756,-62.9922 8586.8527,-59.4273 8576.8302,-55.9923 8576.8756,-62.9922"/>
</g>
<!-- 43 -->
<g id="node44" class="node">
<title>43</title>
<path fill="none" stroke="#d85656" stroke-width="2" d="M6517.5,-1702C6517.5,-1702 5910.5,-1702 5910.5,-1702 5904.5,-1702 5898.5,-1696 5898.5,-1690 5898.5,-1690 5898.5,-1596 5898.5,-1596 5898.5,-1590 5904.5,-1584 5910.5,-1584 5910.5,-1584 6517.5,-1584 6517.5,-1584 6523.5,-1584 6529.5,-1590 6529.5,-1596 6529.5,-1596 6529.5,-1690 6529.5,-1690 6529.5,-1696 6523.5,-1702 6517.5,-1702"/>
<text text-anchor="middle" x="6214" y="-1618" font-family="sans" font-size="100.00" fill="#000000">cat_cell_info</text>
</g>
<!-- 1&#45;&gt;43 -->
<g id="edge81" class="edge">
<title>1&#45;&gt;43</title>
<path fill="none" stroke="#c0c0c0" stroke-width="2" d="M5446.3286,-1792.947C5588.5965,-1765.1583 5758.1264,-1732.0445 5901.6408,-1704.0122"/>
<polygon fill="#c0c0c0" stroke="#c0c0c0" stroke-width="2" points="5902.348,-1707.4403 5911.4915,-1702.0881 5901.006,-1700.5701 5902.348,-1707.4403"/>
</g>
<!-- 45 -->
<g id="node46" class="node">
<title>45</title>
<path fill="none" stroke="#d86e56" stroke-width="2" d="M7993.5,-1548C7993.5,-1548 4778.5,-1548 4778.5,-1548 4772.5,-1548 4766.5,-1542 4766.5,-1536 4766.5,-1536 4766.5,-1002 4766.5,-1002 4766.5,-996 4772.5,-990 4778.5,-990 4778.5,-990 7993.5,-990 7993.5,-990 7999.5,-990 8005.5,-996 8005.5,-1002 8005.5,-1002 8005.5,-1536 8005.5,-1536 8005.5,-1542 7999.5,-1548 7993.5,-1548"/>
<text text-anchor="middle" x="6386" y="-1464" font-family="sans" font-size="100.00" fill="#000000">make_seurat_objs</text>
<text text-anchor="middle" x="6386" y="-1354" font-family="sans" font-size="100.00" fill="#000000">combination: Mus_musculus_Macaca_fascicularis_Homo_sapiens</text>
<text text-anchor="middle" x="6386" y="-1244" font-family="sans" font-size="100.00" fill="#000000">covariate: batch</text>
<text text-anchor="middle" x="6386" y="-1134" font-family="sans" font-size="100.00" fill="#000000">partition: downsample</text>
<text text-anchor="middle" x="6386" y="-1024" font-family="sans" font-size="100.00" fill="#000000">transform: SCT</text>
</g>
<!-- 1&#45;&gt;45 -->
<g id="edge86" class="edge">
<title>1&#45;&gt;45</title>
<path fill="none" stroke="#c0c0c0" stroke-width="2" d="M5269.9245,-1792.8905C5392.6281,-1735.2929 5588.5094,-1643.3454 5782.1634,-1552.4434"/>
<polygon fill="#c0c0c0" stroke="#c0c0c0" stroke-width="2" points="5783.818,-1555.5332 5791.3831,-1548.1157 5780.8435,-1549.1966 5783.818,-1555.5332"/>
</g>
<!-- 2 -->
<g id="node3" class="node">
<title>2</title>
<path fill="none" stroke="#61d856" stroke-width="2" d="M7314,-1966C7314,-1966 5802,-1966 5802,-1966 5796,-1966 5790,-1960 5790,-1954 5790,-1954 5790,-1750 5790,-1750 5790,-1744 5796,-1738 5802,-1738 5802,-1738 7314,-1738 7314,-1738 7320,-1738 7326,-1744 7326,-1750 7326,-1750 7326,-1954 7326,-1954 7326,-1960 7320,-1966 7314,-1966"/>
<text text-anchor="middle" x="6558" y="-1882" font-family="sans" font-size="100.00" fill="#000000">combine_well_and_umi</text>
<text text-anchor="middle" x="6558" y="-1772" font-family="sans" font-size="100.00" fill="#000000">organism: Macaca_fascicularis</text>
</g>
<!-- 2&#45;&gt;0 -->
<g id="edge2" class="edge">
<title>2&#45;&gt;0</title>
<path fill="none" stroke="#c0c0c0" stroke-width="2" d="M7326.0461,-1748.2476C8069.5419,-1637.0169 9085,-1451.6636 9085,-1269 9085,-1269 9085,-1269 9085,-367 9085,-319.4787 9097.2121,-189.834 9066,-154 9022.7972,-104.3997 8838.1624,-77.6873 8731.2949,-66.1257"/>
<polygon fill="#c0c0c0" stroke="#c0c0c0" stroke-width="2" points="8731.5168,-62.6296 8721.203,-65.0539 8730.7774,-69.5905 8731.5168,-62.6296"/>
</g>
<!-- 2&#45;&gt;43 -->
<g id="edge82" class="edge">
<title>2&#45;&gt;43</title>
<path fill="none" stroke="#c0c0c0" stroke-width="2" d="M6370.147,-1737.8684C6353.0544,-1727.4836 6336.1724,-1717.2268 6320.1839,-1707.5129"/>
<polygon fill="#c0c0c0" stroke="#c0c0c0" stroke-width="2" points="6321.7613,-1704.3759 6311.3976,-1702.1747 6318.1266,-1710.3583 6321.7613,-1704.3759"/>
</g>
<!-- 2&#45;&gt;45 -->
<g id="edge87" class="edge">
<title>2&#45;&gt;45</title>
<path fill="none" stroke="#c0c0c0" stroke-width="2" d="M6559.4387,-1737.9556C6557.6119,-1689.7599 6552.2331,-1633.4525 6539,-1584 6536.6629,-1575.2661 6534.081,-1566.4839 6531.2907,-1557.6886"/>
<polygon fill="#c0c0c0" stroke="#c0c0c0" stroke-width="2" points="6534.6063,-1556.5667 6528.1828,-1548.1412 6527.9501,-1558.7335 6534.6063,-1556.5667"/>
</g>
<!-- 3 -->
<g id="node4" class="node">
<title>3</title>
<path fill="none" stroke="#61d856" stroke-width="2" d="M8657,-1911C8657,-1911 7511,-1911 7511,-1911 7505,-1911 7499,-1905 7499,-1899 7499,-1899 7499,-1805 7499,-1805 7499,-1799 7505,-1793 7511,-1793 7511,-1793 8657,-1793 8657,-1793 8663,-1793 8669,-1799 8669,-1805 8669,-1805 8669,-1899 8669,-1899 8669,-1905 8663,-1911 8657,-1911"/>
<text text-anchor="middle" x="8084" y="-1827" font-family="sans" font-size="100.00" fill="#000000">combine_well_and_umi</text>
</g>
<!-- 3&#45;&gt;0 -->
<g id="edge3" class="edge">
<title>3&#45;&gt;0</title>
<path fill="none" stroke="#c0c0c0" stroke-width="2" d="M8575.6325,-1792.978C8825.0461,-1760.6987 9079.7507,-1723.0933 9099,-1702 9163.9613,-1630.8158 9123,-1365.3699 9123,-1269 9123,-1269 9123,-1269 9123,-367 9123,-271.7343 9162.9784,-224.5856 9099,-154 9050.6554,-100.6627 8845.6106,-75.1206 8731.4811,-64.8305"/>
<polygon fill="#c0c0c0" stroke="#c0c0c0" stroke-width="2" points="8731.6719,-61.3338 8721.4027,-63.9401 8731.0559,-68.3066 8731.6719,-61.3338"/>
</g>
<!-- 3&#45;&gt;43 -->
<g id="edge83" class="edge">
<title>3&#45;&gt;43</title>
<path fill="none" stroke="#c0c0c0" stroke-width="2" d="M7728.4267,-1792.9335C7604.1993,-1773.6122 7463.6615,-1753.226 7335,-1738 7067.9214,-1706.3935 6763.8362,-1681.3033 6539.8228,-1664.8635"/>
<polygon fill="#c0c0c0" stroke="#c0c0c0" stroke-width="2" points="6539.78,-1661.3511 6529.5511,-1664.1116 6539.2689,-1668.3324 6539.78,-1661.3511"/>
</g>
<!-- 3&#45;&gt;45 -->
<g id="edge88" class="edge">
<title>3&#45;&gt;45</title>
<path fill="none" stroke="#c0c0c0" stroke-width="2" d="M7911.8423,-1792.8905C7743.5056,-1735.0929 7474.4282,-1642.7065 7208.7773,-1551.4966"/>
<polygon fill="#c0c0c0" stroke="#c0c0c0" stroke-width="2" points="7209.525,-1548.0528 7198.9304,-1548.1157 7207.2518,-1554.6734 7209.525,-1548.0528"/>
</g>
<!-- 4 -->
<g id="node5" class="node">
<title>4</title>
<path fill="none" stroke="#d8bc56" stroke-width="2" d="M5784.5,-272C5784.5,-272 5003.5,-272 5003.5,-272 4997.5,-272 4991.5,-266 4991.5,-260 4991.5,-260 4991.5,-166 4991.5,-166 4991.5,-160 4997.5,-154 5003.5,-154 5003.5,-154 5784.5,-154 5784.5,-154 5790.5,-154 5796.5,-160 5796.5,-166 5796.5,-166 5796.5,-260 5796.5,-260 5796.5,-266 5790.5,-272 5784.5,-272"/>
<text text-anchor="middle" x="5394" y="-188" font-family="sans" font-size="100.00" fill="#000000">plot_integration</text>
</g>
<!-- 4&#45;&gt;0 -->
<g id="edge4" class="edge">
<title>4&#45;&gt;0</title>
<path fill="none" stroke="#c0c0c0" stroke-width="2" d="M5796.516,-154.8544C5799.6891,-154.5621 5802.8509,-154.2772 5806,-154 6366.5341,-104.6636 8179.7163,-67.9945 8576.7192,-60.4373"/>
<polygon fill="#c0c0c0" stroke="#c0c0c0" stroke-width="2" points="8577.0123,-63.9324 8586.944,-60.2431 8576.8793,-56.9337 8577.0123,-63.9324"/>
</g>
<!-- 5 -->
<g id="node6" class="node">
<title>5</title>
<path fill="none" stroke="#d8bc56" stroke-width="2" d="M9044.5,-272C9044.5,-272 8263.5,-272 8263.5,-272 8257.5,-272 8251.5,-266 8251.5,-260 8251.5,-260 8251.5,-166 8251.5,-166 8251.5,-160 8257.5,-154 8263.5,-154 8263.5,-154 9044.5,-154 9044.5,-154 9050.5,-154 9056.5,-160 9056.5,-166 9056.5,-166 9056.5,-260 9056.5,-260 9056.5,-266 9050.5,-272 9044.5,-272"/>
<text text-anchor="middle" x="8654" y="-188" font-family="sans" font-size="100.00" fill="#000000">plot_integration</text>
</g>
<!-- 5&#45;&gt;0 -->
<g id="edge5" class="edge">
<title>5&#45;&gt;0</title>
<path fill="none" stroke="#c0c0c0" stroke-width="2" d="M8654,-153.9C8654,-145.5782 8654,-136.9611 8654,-128.4674"/>
<polygon fill="#c0c0c0" stroke="#c0c0c0" stroke-width="2" points="8657.5001,-128.1963 8654,-118.1963 8650.5001,-128.1963 8657.5001,-128.1963"/>
</g>
<!-- 6 -->
<g id="node7" class="node">
<title>6</title>
<path fill="none" stroke="#56b9d8" stroke-width="2" d="M4961.5,-272C4961.5,-272 2566.5,-272 2566.5,-272 2560.5,-272 2554.5,-266 2554.5,-260 2554.5,-260 2554.5,-166 2554.5,-166 2554.5,-160 2560.5,-154 2566.5,-154 2566.5,-154 4961.5,-154 4961.5,-154 4967.5,-154 4973.5,-160 4973.5,-166 4973.5,-166 4973.5,-260 4973.5,-260 4973.5,-266 4967.5,-272 4961.5,-272"/>
<text text-anchor="middle" x="3764" y="-188" font-family="sans" font-size="100.00" fill="#000000">plot_integration_with_well_supported_cell_types</text>
</g>
<!-- 6&#45;&gt;0 -->
<g id="edge6" class="edge">
<title>6&#45;&gt;0</title>
<path fill="none" stroke="#c0c0c0" stroke-width="2" d="M4973.6593,-154.3109C4976.443,-154.2068 4979.2233,-154.1032 4982,-154 6425.8059,-100.3611 8190.0745,-67.2567 8576.7647,-60.3521"/>
<polygon fill="#c0c0c0" stroke="#c0c0c0" stroke-width="2" points="8577.0586,-63.8475 8586.9946,-60.1698 8576.9338,-56.8486 8577.0586,-63.8475"/>
</g>
<!-- 7 -->
<g id="node8" class="node">
<title>7</title>
<path fill="none" stroke="#56b9d8" stroke-width="2" d="M8221.5,-272C8221.5,-272 5826.5,-272 5826.5,-272 5820.5,-272 5814.5,-266 5814.5,-260 5814.5,-260 5814.5,-166 5814.5,-166 5814.5,-160 5820.5,-154 5826.5,-154 5826.5,-154 8221.5,-154 8221.5,-154 8227.5,-154 8233.5,-160 8233.5,-166 8233.5,-166 8233.5,-260 8233.5,-260 8233.5,-266 8227.5,-272 8221.5,-272"/>
<text text-anchor="middle" x="7024" y="-188" font-family="sans" font-size="100.00" fill="#000000">plot_integration_with_well_supported_cell_types</text>
</g>
<!-- 7&#45;&gt;0 -->
<g id="edge7" class="edge">
<title>7&#45;&gt;0</title>
<path fill="none" stroke="#c0c0c0" stroke-width="2" d="M7648.6654,-153.9825C8003.8559,-120.4247 8410.1344,-82.0401 8576.6714,-66.3059"/>
<polygon fill="#c0c0c0" stroke="#c0c0c0" stroke-width="2" points="8577.1875,-69.7728 8586.8139,-65.3476 8576.529,-62.8038 8577.1875,-69.7728"/>
</g>
<!-- 8 -->
<g id="node9" class="node">
<title>8</title>
<path fill="none" stroke="#56d8a9" stroke-width="2" d="M12030,-2648C12030,-2648 11136,-2648 11136,-2648 11130,-2648 11124,-2642 11124,-2636 11124,-2636 11124,-2432 11124,-2432 11124,-2426 11130,-2420 11136,-2420 11136,-2420 12030,-2420 12030,-2420 12036,-2420 12042,-2426 12042,-2432 12042,-2432 12042,-2636 12042,-2636 12042,-2642 12036,-2648 12030,-2648"/>
<text text-anchor="middle" x="11583" y="-2564" font-family="sans" font-size="100.00" fill="#000000">kallisto_quant</text>
<text text-anchor="middle" x="11583" y="-2454" font-family="sans" font-size="100.00" fill="#000000">SRS: SRS3732876</text>
</g>
<!-- 8&#45;&gt;0 -->
<g id="edge8" class="edge">
<title>8&#45;&gt;0</title>
<path fill="none" stroke="#c0c0c0" stroke-width="2" d="M11558.4263,-2419.9076C11540.0194,-2324.4768 11518,-2184.5058 11518,-2061 11518,-2061 11518,-2061 11518,-367 11518,-111.4831 11233.8958,-207.3009 10984,-154 10759.8603,-106.1927 9109.3148,-68.6331 8731.0785,-60.5956"/>
<polygon fill="#c0c0c0" stroke="#c0c0c0" stroke-width="2" points="8731.1262,-57.0959 8721.0542,-60.3831 8730.9778,-64.0943 8731.1262,-57.0959"/>
</g>
<!-- 21 -->
<g id="node22" class="node">
<title>21</title>
<path fill="none" stroke="#d8a456" stroke-width="2" d="M11310.5,-2384C11310.5,-2384 9541.5,-2384 9541.5,-2384 9535.5,-2384 9529.5,-2378 9529.5,-2372 9529.5,-2372 9529.5,-2168 9529.5,-2168 9529.5,-2162 9535.5,-2156 9541.5,-2156 9541.5,-2156 11310.5,-2156 11310.5,-2156 11316.5,-2156 11322.5,-2162 11322.5,-2168 11322.5,-2168 11322.5,-2372 11322.5,-2372 11322.5,-2378 11316.5,-2384 11310.5,-2384"/>
<text text-anchor="middle" x="10426" y="-2300" font-family="sans" font-size="100.00" fill="#000000">merge_nonUMI_quant_by_organism</text>
<text text-anchor="middle" x="10426" y="-2190" font-family="sans" font-size="100.00" fill="#000000">organism: Homo_sapiens</text>
</g>
<!-- 8&#45;&gt;21 -->
<g id="edge43" class="edge">
<title>8&#45;&gt;21</title>
<path fill="none" stroke="#c0c0c0" stroke-width="2" d="M11123.8914,-2422.0541C11120.918,-2421.366 11117.9539,-2420.6812 11115,-2420 11066.7718,-2408.878 11016.5922,-2397.5278 10966.2804,-2386.2988"/>
<polygon fill="#c0c0c0" stroke="#c0c0c0" stroke-width="2" points="10966.7389,-2382.8151 10956.2168,-2384.0547 10965.2153,-2389.6473 10966.7389,-2382.8151"/>
</g>
<!-- 9 -->
<g id="node10" class="node">
<title>9</title>
<path fill="none" stroke="#56d8a9" stroke-width="2" d="M10158,-2648C10158,-2648 9264,-2648 9264,-2648 9258,-2648 9252,-2642 9252,-2636 9252,-2636 9252,-2432 9252,-2432 9252,-2426 9258,-2420 9264,-2420 9264,-2420 10158,-2420 10158,-2420 10164,-2420 10170,-2426 10170,-2432 10170,-2432 10170,-2636 10170,-2636 10170,-2642 10164,-2648 10158,-2648"/>
<text text-anchor="middle" x="9711" y="-2564" font-family="sans" font-size="100.00" fill="#000000">kallisto_quant</text>
<text text-anchor="middle" x="9711" y="-2454" font-family="sans" font-size="100.00" fill="#000000">SRS: SRS2166836</text>
</g>
<!-- 9&#45;&gt;0 -->
<g id="edge9" class="edge">
<title>9&#45;&gt;0</title>
<path fill="none" stroke="#c0c0c0" stroke-width="2" d="M9545.0684,-2419.8193C9535.8094,-2408.6208 9527.6064,-2396.6702 9521,-2384 9454.5139,-2256.4888 9502,-2204.8037 9502,-2061 9502,-2061 9502,-2061 9502,-367 9502,-268.4044 9515.161,-217.8116 9440,-154 9386.5302,-108.6042 8918.6255,-75.2037 8731.1718,-63.5304"/>
<polygon fill="#c0c0c0" stroke="#c0c0c0" stroke-width="2" points="8731.3112,-60.0324 8721.1142,-62.9082 8730.879,-67.019 8731.3112,-60.0324"/>
</g>
<!-- 9&#45;&gt;21 -->
<g id="edge44" class="edge">
<title>9&#45;&gt;21</title>
<path fill="none" stroke="#c0c0c0" stroke-width="2" d="M10019.9315,-2419.933C10048.985,-2409.2055 10078.4746,-2398.3171 10107.6133,-2387.5582"/>
<polygon fill="#c0c0c0" stroke="#c0c0c0" stroke-width="2" points="10108.892,-2390.8171 10117.0606,-2384.0699 10106.4673,-2384.2504 10108.892,-2390.8171"/>
</g>
<!-- 10 -->
<g id="node11" class="node">
<title>10</title>
<path fill="none" stroke="#56d8a9" stroke-width="2" d="M11094,-2648C11094,-2648 10200,-2648 10200,-2648 10194,-2648 10188,-2642 10188,-2636 10188,-2636 10188,-2432 10188,-2432 10188,-2426 10194,-2420 10200,-2420 10200,-2420 11094,-2420 11094,-2420 11100,-2420 11106,-2426 11106,-2432 11106,-2432 11106,-2636 11106,-2636 11106,-2642 11100,-2648 11094,-2648"/>
<text text-anchor="middle" x="10647" y="-2564" font-family="sans" font-size="100.00" fill="#000000">kallisto_quant</text>
<text text-anchor="middle" x="10647" y="-2454" font-family="sans" font-size="100.00" fill="#000000">SRS: SRS3106664</text>
</g>
<!-- 10&#45;&gt;0 -->
<g id="edge10" class="edge">
<title>10&#45;&gt;0</title>
<path fill="none" stroke="#c0c0c0" stroke-width="2" d="M11106.0617,-2421.8383C11109.0503,-2421.2201 11112.03,-2420.6072 11115,-2420 11162.8907,-2410.2088 11299.3649,-2420.3914 11332,-2384 11427.9919,-2276.9592 11350,-2204.7783 11350,-2061 11350,-2061 11350,-2061 11350,-367 11350,-96.0427 9172.6146,-63.3444 8731.4129,-59.5001"/>
<polygon fill="#c0c0c0" stroke="#c0c0c0" stroke-width="2" points="8731.345,-55.9995 8721.3157,-59.4145 8731.2856,-62.9992 8731.345,-55.9995"/>
</g>
<!-- 10&#45;&gt;21 -->
<g id="edge45" class="edge">
<title>10&#45;&gt;21</title>
<path fill="none" stroke="#c0c0c0" stroke-width="2" d="M10551.3515,-2419.7412C10543.6049,-2410.4872 10535.759,-2401.1148 10527.97,-2391.8103"/>
<polygon fill="#c0c0c0" stroke="#c0c0c0" stroke-width="2" points="10530.5468,-2389.4359 10521.444,-2384.0146 10525.1793,-2393.9292 10530.5468,-2389.4359"/>
</g>
<!-- 11 -->
<g id="node12" class="node">
<title>11</title>
<path fill="none" stroke="#56d8a9" stroke-width="2" d="M906,-2648C906,-2648 12,-2648 12,-2648 6,-2648 0,-2642 0,-2636 0,-2636 0,-2432 0,-2432 0,-2426 6,-2420 12,-2420 12,-2420 906,-2420 906,-2420 912,-2420 918,-2426 918,-2432 918,-2432 918,-2636 918,-2636 918,-2642 912,-2648 906,-2648"/>
<text text-anchor="middle" x="459" y="-2564" font-family="sans" font-size="100.00" fill="#000000">kallisto_quant</text>
<text text-anchor="middle" x="459" y="-2454" font-family="sans" font-size="100.00" fill="#000000">SRS: SRS3675268</text>
</g>
<!-- 11&#45;&gt;0 -->
<g id="edge11" class="edge">
<title>11&#45;&gt;0</title>
<path fill="none" stroke="#c0c0c0" stroke-width="2" d="M524.1936,-2419.9181C571.4173,-2326.5133 627,-2189.3195 627,-2061 627,-2061 627,-2061 627,-367 627,-249.3959 679.3532,-207.6635 784,-154 875.5574,-107.0488 7767.5434,-64.3158 8576.7095,-59.4586"/>
<polygon fill="#c0c0c0" stroke="#c0c0c0" stroke-width="2" points="8576.8096,-62.9582 8586.7884,-59.3982 8576.7675,-55.9583 8576.8096,-62.9582"/>
</g>
<!-- 17 -->
<g id="node18" class="node">
<title>17</title>
<path fill="none" stroke="#d8a456" stroke-width="2" d="M4296.5,-2384C4296.5,-2384 2527.5,-2384 2527.5,-2384 2521.5,-2384 2515.5,-2378 2515.5,-2372 2515.5,-2372 2515.5,-2168 2515.5,-2168 2515.5,-2162 2521.5,-2156 2527.5,-2156 2527.5,-2156 4296.5,-2156 4296.5,-2156 4302.5,-2156 4308.5,-2162 4308.5,-2168 4308.5,-2168 4308.5,-2372 4308.5,-2372 4308.5,-2378 4302.5,-2384 4296.5,-2384"/>
<text text-anchor="middle" x="3412" y="-2300" font-family="sans" font-size="100.00" fill="#000000">merge_nonUMI_quant_by_organism</text>
<text text-anchor="middle" x="3412" y="-2190" font-family="sans" font-size="100.00" fill="#000000">organism: Mus_musculus</text>
</g>
<!-- 11&#45;&gt;17 -->
<g id="edge38" class="edge">
<title>11&#45;&gt;17</title>
<path fill="none" stroke="#c0c0c0" stroke-width="2" d="M918.3128,-2439.3667C967.001,-2431.7143 1015.9125,-2425.0135 1063,-2420 1684.5804,-2353.8186 1845.569,-2429.562 2469,-2384 2480.9657,-2383.1255 2493.013,-2382.2087 2505.1274,-2381.2525"/>
<polygon fill="#c0c0c0" stroke="#c0c0c0" stroke-width="2" points="2505.6288,-2384.7238 2515.3191,-2380.4402 2505.0726,-2377.7459 2505.6288,-2384.7238"/>
</g>
<!-- 12 -->
<g id="node13" class="node">
<title>12</title>
<path fill="none" stroke="#56d0d8" stroke-width="2" d="M9650,-2912C9650,-2912 8756,-2912 8756,-2912 8750,-2912 8744,-2906 8744,-2900 8744,-2900 8744,-2696 8744,-2696 8744,-2690 8750,-2684 8756,-2684 8756,-2684 9650,-2684 9650,-2684 9656,-2684 9662,-2690 9662,-2696 9662,-2696 9662,-2900 9662,-2900 9662,-2906 9656,-2912 9650,-2912"/>
<text text-anchor="middle" x="9203" y="-2828" font-family="sans" font-size="100.00" fill="#000000">kallisto_bus</text>
<text text-anchor="middle" x="9203" y="-2718" font-family="sans" font-size="100.00" fill="#000000">SRS: SRS4715841</text>
</g>
<!-- 12&#45;&gt;0 -->
<g id="edge12" class="edge">
<title>12&#45;&gt;0</title>
<path fill="none" stroke="#c0c0c0" stroke-width="2" d="M9182.3508,-2683.6407C9174.2493,-2600.1798 9179.0772,-2489.8679 9243,-2420 9298.9539,-2358.8422 9373.3462,-2448.021 9426,-2384 9501.0957,-2292.6921 9426,-1970.2222 9426,-1852 9426,-1852 9426,-1852 9426,-367 9426,-220.6907 9307.2473,-216.5865 9175,-154 9097.6018,-117.3711 8857.0197,-83.7519 8731.6903,-68.1537"/>
<polygon fill="#c0c0c0" stroke="#c0c0c0" stroke-width="2" points="8731.7538,-64.635 8721.3998,-66.8813 8730.8947,-71.5821 8731.7538,-64.635"/>
</g>
<!-- 32 -->
<g id="node33" class="node">
<title>32</title>
<path fill="none" stroke="#56d8c9" stroke-width="2" d="M9405,-2329C9405,-2329 7795,-2329 7795,-2329 7789,-2329 7783,-2323 7783,-2317 7783,-2317 7783,-2223 7783,-2223 7783,-2217 7789,-2211 7795,-2211 7795,-2211 9405,-2211 9405,-2211 9411,-2211 9417,-2217 9417,-2223 9417,-2223 9417,-2317 9417,-2317 9417,-2323 9411,-2329 9405,-2329"/>
<text text-anchor="middle" x="8600" y="-2245" font-family="sans" font-size="100.00" fill="#000000">bustools_whitelist_correct_count</text>
</g>
<!-- 12&#45;&gt;32 -->
<g id="edge67" class="edge">
<title>12&#45;&gt;32</title>
<path fill="none" stroke="#c0c0c0" stroke-width="2" d="M9185.3604,-2683.8792C9166.7597,-2600.2639 9129.4467,-2489.6472 9056,-2420 9016.1375,-2382.1996 8966.5702,-2353.9205 8914.9387,-2332.7657"/>
<polygon fill="#c0c0c0" stroke="#c0c0c0" stroke-width="2" points="8916.2024,-2329.5015 8905.618,-2329.0317 8913.5992,-2335.9995 8916.2024,-2329.5015"/>
</g>
<!-- 41 -->
<g id="node42" class="node">
<title>41</title>
<path fill="none" stroke="#c6d856" stroke-width="2" d="M9034.5,-2593C9034.5,-2593 8381.5,-2593 8381.5,-2593 8375.5,-2593 8369.5,-2587 8369.5,-2581 8369.5,-2581 8369.5,-2487 8369.5,-2487 8369.5,-2481 8375.5,-2475 8381.5,-2475 8381.5,-2475 9034.5,-2475 9034.5,-2475 9040.5,-2475 9046.5,-2481 9046.5,-2487 9046.5,-2487 9046.5,-2581 9046.5,-2581 9046.5,-2587 9040.5,-2593 9034.5,-2593"/>
<text text-anchor="middle" x="8708" y="-2509" font-family="sans" font-size="100.00" fill="#000000">bustools_sort</text>
</g>
<!-- 12&#45;&gt;41 -->
<g id="edge79" class="edge">
<title>12&#45;&gt;41</title>
<path fill="none" stroke="#c0c0c0" stroke-width="2" d="M8989.1243,-2683.933C8933.8626,-2654.46 8876.3221,-2623.7718 8827.8003,-2597.8935"/>
<polygon fill="#c0c0c0" stroke="#c0c0c0" stroke-width="2" points="8829.3184,-2594.7365 8818.8478,-2593.1188 8826.0242,-2600.913 8829.3184,-2594.7365"/>
</g>
<!-- 13 -->
<g id="node14" class="node">
<title>13</title>
<path fill="none" stroke="#56d0d8" stroke-width="2" d="M7723,-2912C7723,-2912 6829,-2912 6829,-2912 6823,-2912 6817,-2906 6817,-2900 6817,-2900 6817,-2696 6817,-2696 6817,-2690 6823,-2684 6829,-2684 6829,-2684 7723,-2684 7723,-2684 7729,-2684 7735,-2690 7735,-2696 7735,-2696 7735,-2900 7735,-2900 7735,-2906 7729,-2912 7723,-2912"/>
<text text-anchor="middle" x="7276" y="-2828" font-family="sans" font-size="100.00" fill="#000000">kallisto_bus</text>
<text text-anchor="middle" x="7276" y="-2718" font-family="sans" font-size="100.00" fill="#000000">SRS: SRS3698218</text>
</g>
<!-- 13&#45;&gt;0 -->
<g id="edge13" class="edge">
<title>13&#45;&gt;0</title>
<path fill="none" stroke="#c0c0c0" stroke-width="2" d="M7581.9205,-2683.7811C7596.9569,-2672.8488 7611.1276,-2660.9465 7624,-2648 7845.5135,-2425.2109 7627.4704,-2137.3298 7911,-2002 8064.9904,-1928.4998 8514.3841,-2014.4268 8678,-1966 8901.0784,-1899.9736 9005.7935,-1898.7135 9130,-1702 9142.074,-1682.8776 9161,-1389.3023 9161,-1269 9161,-1269 9161,-1269 9161,-367 9161,-271.399 9196.658,-223.488 9131,-154 9077.3974,-97.2707 8852.4762,-72.9337 8731.6119,-63.7887"/>
<polygon fill="#c0c0c0" stroke="#c0c0c0" stroke-width="2" points="8731.5468,-60.2744 8721.3159,-63.0273 8731.0306,-67.2553 8731.5468,-60.2744"/>
</g>
<!-- 31 -->
<g id="node32" class="node">
<title>31</title>
<path fill="none" stroke="#56d8c9" stroke-width="2" d="M7715,-2329C7715,-2329 6105,-2329 6105,-2329 6099,-2329 6093,-2323 6093,-2317 6093,-2317 6093,-2223 6093,-2223 6093,-2217 6099,-2211 6105,-2211 6105,-2211 7715,-2211 7715,-2211 7721,-2211 7727,-2217 7727,-2223 7727,-2223 7727,-2317 7727,-2317 7727,-2323 7721,-2329 7715,-2329"/>
<text text-anchor="middle" x="6910" y="-2245" font-family="sans" font-size="100.00" fill="#000000">bustools_whitelist_correct_count</text>
</g>
<!-- 13&#45;&gt;31 -->
<g id="edge64" class="edge">
<title>13&#45;&gt;31</title>
<path fill="none" stroke="#c0c0c0" stroke-width="2" d="M6960.0545,-2683.9332C6948.5385,-2673.0223 6938.0717,-2661.0769 6929,-2648 6865.6065,-2556.6183 6877.7355,-2420.8317 6893.2324,-2339.3066"/>
<polygon fill="#c0c0c0" stroke="#c0c0c0" stroke-width="2" points="6896.734,-2339.6397 6895.2337,-2329.1517 6889.8661,-2338.2862 6896.734,-2339.6397"/>
</g>
<!-- 40 -->
<g id="node41" class="node">
<title>40</title>
<path fill="none" stroke="#c6d856" stroke-width="2" d="M7602.5,-2593C7602.5,-2593 6949.5,-2593 6949.5,-2593 6943.5,-2593 6937.5,-2587 6937.5,-2581 6937.5,-2581 6937.5,-2487 6937.5,-2487 6937.5,-2481 6943.5,-2475 6949.5,-2475 6949.5,-2475 7602.5,-2475 7602.5,-2475 7608.5,-2475 7614.5,-2481 7614.5,-2487 7614.5,-2487 7614.5,-2581 7614.5,-2581 7614.5,-2587 7608.5,-2593 7602.5,-2593"/>
<text text-anchor="middle" x="7276" y="-2509" font-family="sans" font-size="100.00" fill="#000000">bustools_sort</text>
</g>
<!-- 13&#45;&gt;40 -->
<g id="edge78" class="edge">
<title>13&#45;&gt;40</title>
<path fill="none" stroke="#c0c0c0" stroke-width="2" d="M7276,-2683.7412C7276,-2656.4279 7276,-2628.0824 7276,-2603.4977"/>
<polygon fill="#c0c0c0" stroke="#c0c0c0" stroke-width="2" points="7279.5001,-2603.2056 7276,-2593.2056 7272.5001,-2603.2057 7279.5001,-2603.2056"/>
</g>
<!-- 14 -->
<g id="node15" class="node">
<title>14</title>
<path fill="none" stroke="#56d0d8" stroke-width="2" d="M4687,-2912C4687,-2912 3793,-2912 3793,-2912 3787,-2912 3781,-2906 3781,-2900 3781,-2900 3781,-2696 3781,-2696 3781,-2690 3787,-2684 3793,-2684 3793,-2684 4687,-2684 4687,-2684 4693,-2684 4699,-2690 4699,-2696 4699,-2696 4699,-2900 4699,-2900 4699,-2906 4693,-2912 4687,-2912"/>
<text text-anchor="middle" x="4240" y="-2828" font-family="sans" font-size="100.00" fill="#000000">kallisto_bus</text>
<text text-anchor="middle" x="4240" y="-2718" font-family="sans" font-size="100.00" fill="#000000">SRS: SRS3971246</text>
</g>
<!-- 14&#45;&gt;0 -->
<g id="edge14" class="edge">
<title>14&#45;&gt;0</title>
<path fill="none" stroke="#c0c0c0" stroke-width="2" d="M3780.7563,-2746.1837C3326.9101,-2685.2022 2676.442,-2568.2398 2506,-2384 2471.1668,-2346.3469 2488,-2321.2944 2488,-2270 2488,-2270 2488,-2270 2488,-367 2488,-272.0323 2435.7272,-218.9627 2505,-154 2563.1619,-99.4569 7871.4489,-63.9586 8576.8784,-59.4805"/>
<polygon fill="#c0c0c0" stroke="#c0c0c0" stroke-width="2" points="8576.9513,-62.9802 8586.9289,-59.4168 8576.9069,-55.9803 8576.9513,-62.9802"/>
</g>
<!-- 29 -->
<g id="node30" class="node">
<title>29</title>
<path fill="none" stroke="#56d8c9" stroke-width="2" d="M5949,-2329C5949,-2329 4339,-2329 4339,-2329 4333,-2329 4327,-2323 4327,-2317 4327,-2317 4327,-2223 4327,-2223 4327,-2217 4333,-2211 4339,-2211 4339,-2211 5949,-2211 5949,-2211 5955,-2211 5961,-2217 5961,-2223 5961,-2223 5961,-2317 5961,-2317 5961,-2323 5955,-2329 5949,-2329"/>
<text text-anchor="middle" x="5144" y="-2245" font-family="sans" font-size="100.00" fill="#000000">bustools_whitelist_correct_count</text>
</g>
<!-- 14&#45;&gt;29 -->
<g id="edge58" class="edge">
<title>14&#45;&gt;29</title>
<path fill="none" stroke="#c0c0c0" stroke-width="2" d="M4650.5374,-2683.8934C4675.2063,-2672.8676 4699.2278,-2660.9202 4722,-2648 4870.0798,-2563.9845 5010.8427,-2420.7672 5086.4831,-2336.8184"/>
<polygon fill="#c0c0c0" stroke="#c0c0c0" stroke-width="2" points="5089.3044,-2338.9146 5093.375,-2329.133 5084.0929,-2334.2412 5089.3044,-2338.9146"/>
</g>
<!-- 38 -->
<g id="node39" class="node">
<title>38</title>
<path fill="none" stroke="#c6d856" stroke-width="2" d="M4701.5,-2593C4701.5,-2593 4048.5,-2593 4048.5,-2593 4042.5,-2593 4036.5,-2587 4036.5,-2581 4036.5,-2581 4036.5,-2487 4036.5,-2487 4036.5,-2481 4042.5,-2475 4048.5,-2475 4048.5,-2475 4701.5,-2475 4701.5,-2475 4707.5,-2475 4713.5,-2481 4713.5,-2487 4713.5,-2487 4713.5,-2581 4713.5,-2581 4713.5,-2587 4707.5,-2593 4701.5,-2593"/>
<text text-anchor="middle" x="4375" y="-2509" font-family="sans" font-size="100.00" fill="#000000">bustools_sort</text>
</g>
<!-- 14&#45;&gt;38 -->
<g id="edge76" class="edge">
<title>14&#45;&gt;38</title>
<path fill="none" stroke="#c0c0c0" stroke-width="2" d="M4298.4278,-2683.7412C4312.6442,-2655.9401 4327.4075,-2627.0698 4340.133,-2602.1843"/>
<polygon fill="#c0c0c0" stroke="#c0c0c0" stroke-width="2" points="4343.2876,-2603.7026 4344.7244,-2593.2056 4337.0552,-2600.5156 4343.2876,-2603.7026"/>
</g>
<!-- 15 -->
<g id="node16" class="node">
<title>15</title>
<path fill="none" stroke="#56d0d8" stroke-width="2" d="M2041,-2912C2041,-2912 1147,-2912 1147,-2912 1141,-2912 1135,-2906 1135,-2900 1135,-2900 1135,-2696 1135,-2696 1135,-2690 1141,-2684 1147,-2684 1147,-2684 2041,-2684 2041,-2684 2047,-2684 2053,-2690 2053,-2696 2053,-2696 2053,-2900 2053,-2900 2053,-2906 2047,-2912 2041,-2912"/>
<text text-anchor="middle" x="1594" y="-2828" font-family="sans" font-size="100.00" fill="#000000">kallisto_bus</text>
<text text-anchor="middle" x="1594" y="-2718" font-family="sans" font-size="100.00" fill="#000000">SRS: SRS1467250</text>
</g>
<!-- 15&#45;&gt;0 -->
<g id="edge15" class="edge">
<title>15&#45;&gt;0</title>
<path fill="none" stroke="#c0c0c0" stroke-width="2" d="M1134.8707,-2693.7268C1109.5287,-2680.2903 1085.331,-2665.1224 1063,-2648 969.3651,-2576.2053 1019.1445,-2493.6978 927,-2420 886.828,-2387.8701 848.402,-2424.7435 817,-2384 729.2145,-2270.1 798,-2204.8037 798,-2061 798,-2061 798,-2061 798,-367 798,6.6766 2093.2696,-180.5761 2466,-154 3103.8975,-108.5171 7907.529,-65.465 8576.7051,-59.6623"/>
<polygon fill="#c0c0c0" stroke="#c0c0c0" stroke-width="2" points="8576.7508,-63.1622 8586.7201,-59.5756 8576.6901,-56.1624 8576.7508,-63.1622"/>
</g>
<!-- 30 -->
<g id="node31" class="node">
<title>30</title>
<path fill="none" stroke="#56d8c9" stroke-width="2" d="M2448,-2329C2448,-2329 838,-2329 838,-2329 832,-2329 826,-2323 826,-2317 826,-2317 826,-2223 826,-2223 826,-2217 832,-2211 838,-2211 838,-2211 2448,-2211 2448,-2211 2454,-2211 2460,-2217 2460,-2223 2460,-2223 2460,-2317 2460,-2317 2460,-2323 2454,-2329 2448,-2329"/>
<text text-anchor="middle" x="1643" y="-2245" font-family="sans" font-size="100.00" fill="#000000">bustools_whitelist_correct_count</text>
</g>
<!-- 15&#45;&gt;30 -->
<g id="edge61" class="edge">
<title>15&#45;&gt;30</title>
<path fill="none" stroke="#c0c0c0" stroke-width="2" d="M1737.1223,-2683.7526C1745.3329,-2672.4784 1752.4775,-2660.5352 1758,-2648 1798.8545,-2555.2673 1790.5526,-2515.9624 1758,-2420 1747.8189,-2389.9871 1728.9514,-2361.27 1709.4009,-2337.1429"/>
<polygon fill="#c0c0c0" stroke="#c0c0c0" stroke-width="2" points="1711.8374,-2334.5985 1702.7561,-2329.1414 1706.4522,-2339.0706 1711.8374,-2334.5985"/>
</g>
<!-- 39 -->
<g id="node40" class="node">
<title>39</title>
<path fill="none" stroke="#c6d856" stroke-width="2" d="M1737.5,-2593C1737.5,-2593 1084.5,-2593 1084.5,-2593 1078.5,-2593 1072.5,-2587 1072.5,-2581 1072.5,-2581 1072.5,-2487 1072.5,-2487 1072.5,-2481 1078.5,-2475 1084.5,-2475 1084.5,-2475 1737.5,-2475 1737.5,-2475 1743.5,-2475 1749.5,-2481 1749.5,-2487 1749.5,-2487 1749.5,-2581 1749.5,-2581 1749.5,-2587 1743.5,-2593 1737.5,-2593"/>
<text text-anchor="middle" x="1411" y="-2509" font-family="sans" font-size="100.00" fill="#000000">bustools_sort</text>
</g>
<!-- 15&#45;&gt;39 -->
<g id="edge77" class="edge">
<title>15&#45;&gt;39</title>
<path fill="none" stroke="#c0c0c0" stroke-width="2" d="M1514.7979,-2683.7412C1495.3576,-2655.6963 1475.1631,-2626.5632 1457.8108,-2601.5304"/>
<polygon fill="#c0c0c0" stroke="#c0c0c0" stroke-width="2" points="1460.6138,-2599.4303 1452.0403,-2593.2056 1454.8608,-2603.4182 1460.6138,-2599.4303"/>
</g>
<!-- 16 -->
<g id="node17" class="node">
<title>16</title>
<path fill="none" stroke="#568ad8" stroke-width="2" d="M6447.5,-2593C6447.5,-2593 5568.5,-2593 5568.5,-2593 5562.5,-2593 5556.5,-2587 5556.5,-2581 5556.5,-2581 5556.5,-2487 5556.5,-2487 5556.5,-2481 5562.5,-2475 5568.5,-2475 5568.5,-2475 6447.5,-2475 6447.5,-2475 6453.5,-2475 6459.5,-2481 6459.5,-2487 6459.5,-2487 6459.5,-2581 6459.5,-2581 6459.5,-2587 6453.5,-2593 6447.5,-2593"/>
<text text-anchor="middle" x="6008" y="-2509" font-family="sans" font-size="100.00" fill="#000000">tx_gene_mapping</text>
</g>
<!-- 16&#45;&gt;1 -->
<g id="edge16" class="edge">
<title>16&#45;&gt;1</title>
<path fill="none" stroke="#c0c0c0" stroke-width="2" d="M6005.0262,-2474.8487C5999.5791,-2375.191 5986.9809,-2182.0822 5970,-2156 5906.6465,-2058.6908 5627.4057,-1969.7795 5410.9323,-1913.59"/>
<polygon fill="#c0c0c0" stroke="#c0c0c0" stroke-width="2" points="5411.5542,-1910.1358 5400.9966,-1911.0224 5409.8028,-1916.9132 5411.5542,-1910.1358"/>
</g>
<!-- 16&#45;&gt;2 -->
<g id="edge20" class="edge">
<title>16&#45;&gt;2</title>
<path fill="none" stroke="#c0c0c0" stroke-width="2" d="M6008.5926,-2474.9211C6010.4332,-2343.993 6017.8392,-2038.1177 6047,-2002 6055.7349,-1991.1812 6069.4714,-1980.8339 6086.9135,-1970.9968"/>
<polygon fill="#c0c0c0" stroke="#c0c0c0" stroke-width="2" points="6088.6365,-1974.0441 6095.768,-1966.2088 6085.3069,-1967.8867 6088.6365,-1974.0441"/>
</g>
<!-- 16&#45;&gt;3 -->
<g id="edge22" class="edge">
<title>16&#45;&gt;3</title>
<path fill="none" stroke="#c0c0c0" stroke-width="2" d="M6015.823,-2474.8815C6029.7866,-2373.7751 6059.8062,-2176.5015 6084,-2156 6129.4618,-2117.4761 7097.1471,-2129.3381 7156,-2120 7427.4568,-2076.9284 7731.7096,-1979.1551 7915.4935,-1914.3792"/>
<polygon fill="#c0c0c0" stroke="#c0c0c0" stroke-width="2" points="7916.7072,-1917.6625 7924.9698,-1911.0308 7914.375,-1911.0624 7916.7072,-1917.6625"/>
</g>
<!-- 16&#45;&gt;17 -->
<g id="edge39" class="edge">
<title>16&#45;&gt;17</title>
<path fill="none" stroke="#c0c0c0" stroke-width="2" d="M5556.4087,-2493.9676C5087.5919,-2452.4015 4410.7825,-2392.3727 4318.7264,-2383.9389"/>
<polygon fill="#c0c0c0" stroke="#c0c0c0" stroke-width="2" points="4318.808,-2380.4312 4308.5245,-2382.9806 4318.1533,-2387.4006 4318.808,-2380.4312"/>
</g>
<!-- 16&#45;&gt;21 -->
<g id="edge46" class="edge">
<title>16&#45;&gt;21</title>
<path fill="none" stroke="#c0c0c0" stroke-width="2" d="M6407.1578,-2474.9898C6568.7838,-2453.606 6757.4153,-2431.821 6929,-2420 8036.2685,-2343.7171 8318.3766,-2454.9438 9426,-2384 9456.5847,-2382.041 9487.6726,-2379.8154 9519.0511,-2377.3688"/>
<polygon fill="#c0c0c0" stroke="#c0c0c0" stroke-width="2" points="9519.5541,-2380.8401 9529.2488,-2376.5667 9519.0052,-2373.8617 9519.5541,-2380.8401"/>
</g>
<!-- 16&#45;&gt;29 -->
<g id="edge59" class="edge">
<title>16&#45;&gt;29</title>
<path fill="none" stroke="#c0c0c0" stroke-width="2" d="M5814.9083,-2474.9997C5675.7278,-2432.4724 5488.2854,-2375.1983 5346.9055,-2331.9989"/>
<polygon fill="#c0c0c0" stroke="#c0c0c0" stroke-width="2" points="5347.8204,-2328.6188 5337.2341,-2329.0438 5345.7749,-2335.3132 5347.8204,-2328.6188"/>
</g>
<!-- 16&#45;&gt;30 -->
<g id="edge62" class="edge">
<title>16&#45;&gt;30</title>
<path fill="none" stroke="#c0c0c0" stroke-width="2" d="M5556.247,-2485.9243C5309.9461,-2461.7385 4999.5524,-2434.5376 4722,-2420 3738.3295,-2368.4775 3488.3383,-2456.6191 2506,-2384 2348.9078,-2372.387 2176.6758,-2351.3326 2027.6734,-2330.4501"/>
<polygon fill="#c0c0c0" stroke="#c0c0c0" stroke-width="2" points="2027.8298,-2326.9377 2017.4398,-2329.011 2026.855,-2333.8695 2027.8298,-2326.9377"/>
</g>
<!-- 16&#45;&gt;31 -->
<g id="edge65" class="edge">
<title>16&#45;&gt;31</title>
<path fill="none" stroke="#c0c0c0" stroke-width="2" d="M6209.5842,-2474.9997C6355.0312,-2432.4299 6550.9634,-2375.0839 6698.6126,-2331.8695"/>
<polygon fill="#c0c0c0" stroke="#c0c0c0" stroke-width="2" points="6699.6529,-2335.2119 6708.2672,-2329.0438 6697.6866,-2328.4937 6699.6529,-2335.2119"/>
</g>
<!-- 16&#45;&gt;32 -->
<g id="edge68" class="edge">
<title>16&#45;&gt;32</title>
<path fill="none" stroke="#c0c0c0" stroke-width="2" d="M6427.9433,-2474.965C6584.8844,-2454.7628 6764.8378,-2433.8 6929,-2420 7286.7615,-2389.9254 7378.3622,-2415.5116 7736,-2384 7887.2905,-2370.6697 8052.7774,-2350.2656 8198.0663,-2330.3847"/>
<polygon fill="#c0c0c0" stroke="#c0c0c0" stroke-width="2" points="8198.6173,-2333.8419 8208.0488,-2329.0152 8197.6658,-2326.9069 8198.6173,-2333.8419"/>
</g>
<!-- 17&#45;&gt;1 -->
<g id="edge17" class="edge">
<title>17&#45;&gt;1</title>
<path fill="none" stroke="#c0c0c0" stroke-width="2" d="M3928.8629,-2155.958C3980.9764,-2144.0098 4033.0666,-2131.8852 4083,-2120 4367.4153,-2052.3029 4693.2774,-1969.1548 4907.9882,-1913.5927"/>
<polygon fill="#c0c0c0" stroke="#c0c0c0" stroke-width="2" points="4909.005,-1916.9449 4917.8088,-1911.0505 4907.2508,-1910.1683 4909.005,-1916.9449"/>
</g>
<!-- 18 -->
<g id="node19" class="node">
<title>18</title>
<path fill="none" stroke="#afd856" stroke-width="2" d="M5677.5,-2120C5677.5,-2120 4610.5,-2120 4610.5,-2120 4604.5,-2120 4598.5,-2114 4598.5,-2108 4598.5,-2108 4598.5,-2014 4598.5,-2014 4598.5,-2008 4604.5,-2002 4610.5,-2002 4610.5,-2002 5677.5,-2002 5677.5,-2002 5683.5,-2002 5689.5,-2008 5689.5,-2014 5689.5,-2014 5689.5,-2108 5689.5,-2108 5689.5,-2114 5683.5,-2120 5677.5,-2120"/>
<text text-anchor="middle" x="5144" y="-2036" font-family="sans" font-size="100.00" fill="#000000">create_sparse_matrix</text>
</g>
<!-- 18&#45;&gt;1 -->
<g id="edge18" class="edge">
<title>18&#45;&gt;1</title>
<path fill="none" stroke="#c0c0c0" stroke-width="2" d="M5144,-2001.947C5144,-1976.9044 5144,-1947.5371 5144,-1921.4615"/>
<polygon fill="#c0c0c0" stroke="#c0c0c0" stroke-width="2" points="5147.5001,-1921.2692 5144,-1911.2693 5140.5001,-1921.2693 5147.5001,-1921.2692"/>
</g>
<!-- 19 -->
<g id="node20" class="node">
<title>19</title>
<path fill="none" stroke="#afd856" stroke-width="2" d="M4062.5,-2120C4062.5,-2120 2995.5,-2120 2995.5,-2120 2989.5,-2120 2983.5,-2114 2983.5,-2108 2983.5,-2108 2983.5,-2014 2983.5,-2014 2983.5,-2008 2989.5,-2002 2995.5,-2002 2995.5,-2002 4062.5,-2002 4062.5,-2002 4068.5,-2002 4074.5,-2008 4074.5,-2014 4074.5,-2014 4074.5,-2108 4074.5,-2108 4074.5,-2114 4068.5,-2120 4062.5,-2120"/>
<text text-anchor="middle" x="3529" y="-2036" font-family="sans" font-size="100.00" fill="#000000">create_sparse_matrix</text>
</g>
<!-- 19&#45;&gt;1 -->
<g id="edge19" class="edge">
<title>19&#45;&gt;1</title>
<path fill="none" stroke="#c0c0c0" stroke-width="2" d="M3985.0491,-2001.9819C4201.625,-1973.9544 4460.1064,-1940.5039 4677.9492,-1912.3125"/>
<polygon fill="#c0c0c0" stroke="#c0c0c0" stroke-width="2" points="4678.4963,-1915.7709 4687.9644,-1911.0164 4677.5979,-1908.8288 4678.4963,-1915.7709"/>
</g>
<!-- 20 -->
<g id="node21" class="node">
<title>20</title>
<path fill="none" stroke="#afd856" stroke-width="2" d="M7134.5,-2120C7134.5,-2120 6067.5,-2120 6067.5,-2120 6061.5,-2120 6055.5,-2114 6055.5,-2108 6055.5,-2108 6055.5,-2014 6055.5,-2014 6055.5,-2008 6061.5,-2002 6067.5,-2002 6067.5,-2002 7134.5,-2002 7134.5,-2002 7140.5,-2002 7146.5,-2008 7146.5,-2014 7146.5,-2014 7146.5,-2108 7146.5,-2108 7146.5,-2114 7140.5,-2120 7134.5,-2120"/>
<text text-anchor="middle" x="6601" y="-2036" font-family="sans" font-size="100.00" fill="#000000">create_sparse_matrix</text>
</g>
<!-- 20&#45;&gt;2 -->
<g id="edge21" class="edge">
<title>20&#45;&gt;2</title>
<path fill="none" stroke="#c0c0c0" stroke-width="2" d="M6588.8503,-2001.947C6587.1722,-1993.7906 6585.3997,-1985.1754 6583.587,-1976.3646"/>
<polygon fill="#c0c0c0" stroke="#c0c0c0" stroke-width="2" points="6586.9696,-1975.4373 6581.5261,-1966.3478 6580.1132,-1976.848 6586.9696,-1975.4373"/>
</g>
<!-- 21&#45;&gt;3 -->
<g id="edge23" class="edge">
<title>21&#45;&gt;3</title>
<path fill="none" stroke="#c0c0c0" stroke-width="2" d="M9848.6677,-2155.9845C9594.8013,-2106.8758 9292.9027,-2049.8657 9020,-2002 8842.5911,-1970.8834 8645.7985,-1938.9568 8478.6215,-1912.6"/>
<polygon fill="#c0c0c0" stroke="#c0c0c0" stroke-width="2" points="8479.0894,-1909.1307 8468.6665,-1911.0316 8477.9999,-1916.0454 8479.0894,-1909.1307"/>
</g>
<!-- 22 -->
<g id="node23" class="node">
<title>22</title>
<path fill="none" stroke="#afd856" stroke-width="2" d="M8998.5,-2120C8998.5,-2120 7931.5,-2120 7931.5,-2120 7925.5,-2120 7919.5,-2114 7919.5,-2108 7919.5,-2108 7919.5,-2014 7919.5,-2014 7919.5,-2008 7925.5,-2002 7931.5,-2002 7931.5,-2002 8998.5,-2002 8998.5,-2002 9004.5,-2002 9010.5,-2008 9010.5,-2014 9010.5,-2014 9010.5,-2108 9010.5,-2108 9010.5,-2114 9004.5,-2120 8998.5,-2120"/>
<text text-anchor="middle" x="8465" y="-2036" font-family="sans" font-size="100.00" fill="#000000">create_sparse_matrix</text>
</g>
<!-- 22&#45;&gt;3 -->
<g id="edge24" class="edge">
<title>22&#45;&gt;3</title>
<path fill="none" stroke="#c0c0c0" stroke-width="2" d="M8357.3484,-2001.947C8308.4617,-1975.1299 8250.5346,-1943.3536 8200.6167,-1915.9709"/>
<polygon fill="#c0c0c0" stroke="#c0c0c0" stroke-width="2" points="8202.1665,-1912.829 8191.7156,-1911.0881 8198.7998,-1918.9662 8202.1665,-1912.829"/>
</g>
<!-- 23 -->
<g id="node24" class="node">
<title>23</title>
<path fill="none" stroke="#56d87b" stroke-width="2" d="M4468.5,-426C4468.5,-426 3785.5,-426 3785.5,-426 3779.5,-426 3773.5,-420 3773.5,-414 3773.5,-414 3773.5,-320 3773.5,-320 3773.5,-314 3779.5,-308 3785.5,-308 3785.5,-308 4468.5,-308 4468.5,-308 4474.5,-308 4480.5,-314 4480.5,-320 4480.5,-320 4480.5,-414 4480.5,-414 4480.5,-420 4474.5,-426 4468.5,-426"/>
<text text-anchor="middle" x="4127" y="-342" font-family="sans" font-size="100.00" fill="#000000">extract_umap</text>
</g>
<!-- 23&#45;&gt;4 -->
<g id="edge25" class="edge">
<title>23&#45;&gt;4</title>
<path fill="none" stroke="#c0c0c0" stroke-width="2" d="M4480.6246,-330.2423C4631.8184,-313.8843 4810.5035,-293.7033 4981.4968,-272.0558"/>
<polygon fill="#c0c0c0" stroke="#c0c0c0" stroke-width="2" points="4981.9662,-275.5244 4991.4461,-270.7934 4981.0851,-268.58 4981.9662,-275.5244"/>
</g>
<!-- 23&#45;&gt;6 -->
<g id="edge27" class="edge">
<title>23&#45;&gt;6</title>
<path fill="none" stroke="#c0c0c0" stroke-width="2" d="M3987.6929,-307.9C3963.1385,-297.483 3937.4934,-286.6032 3912.6935,-276.0821"/>
<polygon fill="#c0c0c0" stroke="#c0c0c0" stroke-width="2" points="3913.8069,-272.7526 3903.2342,-272.069 3911.0731,-279.1966 3913.8069,-272.7526"/>
</g>
<!-- 24 -->
<g id="node25" class="node">
<title>24</title>
<path fill="none" stroke="#56d87b" stroke-width="2" d="M7365.5,-426C7365.5,-426 6682.5,-426 6682.5,-426 6676.5,-426 6670.5,-420 6670.5,-414 6670.5,-414 6670.5,-320 6670.5,-320 6670.5,-314 6676.5,-308 6682.5,-308 6682.5,-308 7365.5,-308 7365.5,-308 7371.5,-308 7377.5,-314 7377.5,-320 7377.5,-320 7377.5,-414 7377.5,-414 7377.5,-420 7371.5,-426 7365.5,-426"/>
<text text-anchor="middle" x="7024" y="-342" font-family="sans" font-size="100.00" fill="#000000">extract_umap</text>
</g>
<!-- 24&#45;&gt;5 -->
<g id="edge26" class="edge">
<title>24&#45;&gt;5</title>
<path fill="none" stroke="#c0c0c0" stroke-width="2" d="M7377.63,-345.5188C7618.5229,-329.4139 7944.8112,-304.7278 8241.2687,-272.1783"/>
<polygon fill="#c0c0c0" stroke="#c0c0c0" stroke-width="2" points="8241.8022,-275.6408 8251.3586,-271.0661 8241.0353,-268.6829 8241.8022,-275.6408"/>
</g>
<!-- 24&#45;&gt;7 -->
<g id="edge28" class="edge">
<title>24&#45;&gt;7</title>
<path fill="none" stroke="#c0c0c0" stroke-width="2" d="M7024,-307.9C7024,-299.5782 7024,-290.9611 7024,-282.4674"/>
<polygon fill="#c0c0c0" stroke="#c0c0c0" stroke-width="2" points="7027.5001,-282.1963 7024,-272.1963 7020.5001,-282.1963 7027.5001,-282.1963"/>
</g>
<!-- 25 -->
<g id="node26" class="node">
<title>25</title>
<path fill="none" stroke="#d8d356" stroke-width="2" d="M10795.5,-3176C10795.5,-3176 8834.5,-3176 8834.5,-3176 8828.5,-3176 8822.5,-3170 8822.5,-3164 8822.5,-3164 8822.5,-2960 8822.5,-2960 8822.5,-2954 8828.5,-2948 8834.5,-2948 8834.5,-2948 10795.5,-2948 10795.5,-2948 10801.5,-2948 10807.5,-2954 10807.5,-2960 10807.5,-2960 10807.5,-3164 10807.5,-3164 10807.5,-3170 10801.5,-3176 10795.5,-3176"/>
<text text-anchor="middle" x="9815" y="-3092" font-family="sans" font-size="100.00" fill="#000000">kallisto_index</text>
<text text-anchor="middle" x="9815" y="-2982" font-family="sans" font-size="100.00" fill="#000000">fasta: gencode.v31.pc_transcripts.fa.gz</text>
</g>
<!-- 25&#45;&gt;8 -->
<g id="edge29" class="edge">
<title>25&#45;&gt;8</title>
<path fill="none" stroke="#c0c0c0" stroke-width="2" d="M10196.9968,-2947.9195C10490.7652,-2860.1878 10895.1711,-2739.415 11191.3318,-2650.9688"/>
<polygon fill="#c0c0c0" stroke="#c0c0c0" stroke-width="2" points="11192.3608,-2654.3143 11200.9411,-2648.099 11190.3577,-2647.607 11192.3608,-2654.3143"/>
</g>
<!-- 25&#45;&gt;9 -->
<g id="edge30" class="edge">
<title>25&#45;&gt;9</title>
<path fill="none" stroke="#c0c0c0" stroke-width="2" d="M9792.4976,-2947.757C9775.6757,-2862.3538 9752.6999,-2745.7073 9735.4309,-2658.0336"/>
<polygon fill="#c0c0c0" stroke="#c0c0c0" stroke-width="2" points="9738.827,-2657.1645 9733.4603,-2648.0294 9731.959,-2658.5173 9738.827,-2657.1645"/>
</g>
<!-- 25&#45;&gt;10 -->
<g id="edge31" class="edge">
<title>25&#45;&gt;10</title>
<path fill="none" stroke="#c0c0c0" stroke-width="2" d="M9994.7632,-2947.9195C10131.6424,-2861.0538 10319.5636,-2741.7962 10458.5433,-2653.5975"/>
<polygon fill="#c0c0c0" stroke="#c0c0c0" stroke-width="2" points="10460.6397,-2656.4125 10467.2076,-2648.099 10456.8889,-2650.5022 10460.6397,-2656.4125"/>
</g>
<!-- 25&#45;&gt;12 -->
<g id="edge33" class="edge">
<title>25&#45;&gt;12</title>
<path fill="none" stroke="#c0c0c0" stroke-width="2" d="M9550.5719,-2947.933C9526.206,-2937.4222 9501.4818,-2926.7569 9477.0328,-2916.2102"/>
<polygon fill="#c0c0c0" stroke="#c0c0c0" stroke-width="2" points="9478.2458,-2912.9217 9467.6773,-2912.1745 9475.4731,-2919.3492 9478.2458,-2912.9217"/>
</g>
<!-- 26 -->
<g id="node27" class="node">
<title>26</title>
<path fill="none" stroke="#d8d356" stroke-width="2" d="M4726,-3176C4726,-3176 2678,-3176 2678,-3176 2672,-3176 2666,-3170 2666,-3164 2666,-3164 2666,-2960 2666,-2960 2666,-2954 2672,-2948 2678,-2948 2678,-2948 4726,-2948 4726,-2948 4732,-2948 4738,-2954 4738,-2960 4738,-2960 4738,-3164 4738,-3164 4738,-3170 4732,-3176 4726,-3176"/>
<text text-anchor="middle" x="3702" y="-3092" font-family="sans" font-size="100.00" fill="#000000">kallisto_index</text>
<text text-anchor="middle" x="3702" y="-2982" font-family="sans" font-size="100.00" fill="#000000">fasta: gencode.vM22.pc_transcripts.fa.gz</text>
</g>
<!-- 26&#45;&gt;11 -->
<g id="edge32" class="edge">
<title>26&#45;&gt;11</title>
<path fill="none" stroke="#c0c0c0" stroke-width="2" d="M2665.7143,-3023.9277C2016.2249,-2996.1764 1274.7404,-2955.8804 1126,-2912 940.339,-2857.2276 750.3626,-2742.6949 620.8923,-2653.9775"/>
<polygon fill="#c0c0c0" stroke="#c0c0c0" stroke-width="2" points="622.6752,-2650.9558 612.4525,-2648.1721 618.708,-2656.7231 622.6752,-2650.9558"/>
</g>
<!-- 26&#45;&gt;14 -->
<g id="edge35" class="edge">
<title>26&#45;&gt;14</title>
<path fill="none" stroke="#c0c0c0" stroke-width="2" d="M3934.4548,-2947.933C3955.5914,-2937.5611 3977.0347,-2927.0387 3998.2496,-2916.6284"/>
<polygon fill="#c0c0c0" stroke="#c0c0c0" stroke-width="2" points="3999.8906,-2919.7219 4007.3262,-2912.1745 3996.8069,-2913.4377 3999.8906,-2919.7219"/>
</g>
<!-- 26&#45;&gt;15 -->
<g id="edge36" class="edge">
<title>26&#45;&gt;15</title>
<path fill="none" stroke="#c0c0c0" stroke-width="2" d="M2791.5749,-2947.9809C2540.3819,-2916.5222 2278.1025,-2883.6751 2063.2497,-2856.7675"/>
<polygon fill="#c0c0c0" stroke="#c0c0c0" stroke-width="2" points="2063.4122,-2853.2606 2053.0547,-2855.4907 2062.5423,-2860.2063 2063.4122,-2853.2606"/>
</g>
<!-- 27 -->
<g id="node28" class="node">
<title>27</title>
<path fill="none" stroke="#d8d356" stroke-width="2" d="M8792,-3176C8792,-3176 5760,-3176 5760,-3176 5754,-3176 5748,-3170 5748,-3164 5748,-3164 5748,-2960 5748,-2960 5748,-2954 5754,-2948 5760,-2948 5760,-2948 8792,-2948 8792,-2948 8798,-2948 8804,-2954 8804,-2960 8804,-2960 8804,-3164 8804,-3164 8804,-3170 8798,-3176 8792,-3176"/>
<text text-anchor="middle" x="7276" y="-3092" font-family="sans" font-size="100.00" fill="#000000">kallisto_index</text>
<text text-anchor="middle" x="7276" y="-2982" font-family="sans" font-size="100.00" fill="#000000">fasta: GCF_000364345.1_Macaca_fascicularis_5.0_rna.fna.gz</text>
</g>
<!-- 27&#45;&gt;13 -->
<g id="edge34" class="edge">
<title>27&#45;&gt;13</title>
<path fill="none" stroke="#c0c0c0" stroke-width="2" d="M7276,-2947.7412C7276,-2939.2276 7276,-2930.6136 7276,-2922.0446"/>
<polygon fill="#c0c0c0" stroke="#c0c0c0" stroke-width="2" points="7279.5001,-2922.0146 7276,-2912.0146 7272.5001,-2922.0146 7279.5001,-2922.0146"/>
</g>
<!-- 28 -->
<g id="node29" class="node">
<title>28</title>
<path fill="none" stroke="#56a2d8" stroke-width="2" d="M7024.5,-3330C7024.5,-3330 5971.5,-3330 5971.5,-3330 5965.5,-3330 5959.5,-3324 5959.5,-3318 5959.5,-3318 5959.5,-3224 5959.5,-3224 5959.5,-3218 5965.5,-3212 5971.5,-3212 5971.5,-3212 7024.5,-3212 7024.5,-3212 7030.5,-3212 7036.5,-3218 7036.5,-3224 7036.5,-3224 7036.5,-3318 7036.5,-3318 7036.5,-3324 7030.5,-3330 7024.5,-3330"/>
<text text-anchor="middle" x="6498" y="-3246" font-family="sans" font-size="100.00" fill="#000000">download_references</text>
</g>
<!-- 28&#45;&gt;16 -->
<g id="edge37" class="edge">
<title>28&#45;&gt;16</title>
<path fill="none" stroke="#c0c0c0" stroke-width="2" d="M5959.4577,-3228.7849C5847.6233,-3214.738 5757.6742,-3197.1573 5739,-3176 5584.9292,-3001.4428 5815.1194,-2726.0044 5938.4551,-2600.3952"/>
<polygon fill="#c0c0c0" stroke="#c0c0c0" stroke-width="2" points="5941.1553,-2602.6421 5945.6947,-2593.069 5936.1762,-2597.7219 5941.1553,-2602.6421"/>
</g>
<!-- 28&#45;&gt;25 -->
<g id="edge54" class="edge">
<title>28&#45;&gt;25</title>
<path fill="none" stroke="#c0c0c0" stroke-width="2" d="M7036.5876,-3259.9133C7503.5529,-3247.6859 8197.5617,-3223.2452 8811.7816,-3176.0864"/>
<polygon fill="#c0c0c0" stroke="#c0c0c0" stroke-width="2" points="8812.4778,-3179.5432 8822.1794,-3175.2853 8811.94,-3172.5639 8812.4778,-3179.5432"/>
</g>
<!-- 28&#45;&gt;26 -->
<g id="edge55" class="edge">
<title>28&#45;&gt;26</title>
<path fill="none" stroke="#c0c0c0" stroke-width="2" d="M5959.317,-3230.7336C5616.294,-3205.0928 5160.5101,-3171.0231 4748.3408,-3140.2136"/>
<polygon fill="#c0c0c0" stroke="#c0c0c0" stroke-width="2" points="4748.5396,-3136.7188 4738.3065,-3139.4635 4748.0177,-3143.6993 4748.5396,-3136.7188"/>
</g>
<!-- 28&#45;&gt;27 -->
<g id="edge56" class="edge">
<title>28&#45;&gt;27</title>
<path fill="none" stroke="#c0c0c0" stroke-width="2" d="M6717.824,-3211.947C6756.9879,-3201.4261 6798.9931,-3190.142 6841.7373,-3178.6592"/>
<polygon fill="#c0c0c0" stroke="#c0c0c0" stroke-width="2" points="6842.6979,-3182.0254 6851.4474,-3176.0508 6840.8817,-3175.2651 6842.6979,-3182.0254"/>
</g>
<!-- 29&#45;&gt;18 -->
<g id="edge40" class="edge">
<title>29&#45;&gt;18</title>
<path fill="none" stroke="#c0c0c0" stroke-width="2" d="M5144,-2210.947C5144,-2185.9044 5144,-2156.5371 5144,-2130.4615"/>
<polygon fill="#c0c0c0" stroke="#c0c0c0" stroke-width="2" points="5147.5001,-2130.2692 5144,-2120.2693 5140.5001,-2130.2693 5147.5001,-2130.2692"/>
</g>
<!-- 30&#45;&gt;19 -->
<g id="edge41" class="edge">
<title>30&#45;&gt;19</title>
<path fill="none" stroke="#c0c0c0" stroke-width="2" d="M2064.5358,-2210.9939C2204.8326,-2192.2423 2362.0134,-2172.1896 2506,-2156 2657.4377,-2138.9727 2821.7367,-2122.7295 2973.4453,-2108.6436"/>
<polygon fill="#c0c0c0" stroke="#c0c0c0" stroke-width="2" points="2973.7855,-2112.1272 2983.4197,-2107.7189 2973.1392,-2105.157 2973.7855,-2112.1272"/>
</g>
<!-- 31&#45;&gt;20 -->
<g id="edge42" class="edge">
<title>31&#45;&gt;20</title>
<path fill="none" stroke="#c0c0c0" stroke-width="2" d="M6822.692,-2210.947C6783.4542,-2184.4075 6737.0354,-2153.011 6696.8383,-2125.8227"/>
<polygon fill="#c0c0c0" stroke="#c0c0c0" stroke-width="2" points="6698.604,-2122.7916 6688.3599,-2120.0881 6694.6822,-2128.5898 6698.604,-2122.7916"/>
</g>
<!-- 32&#45;&gt;22 -->
<g id="edge47" class="edge">
<title>32&#45;&gt;22</title>
<path fill="none" stroke="#c0c0c0" stroke-width="2" d="M8561.8557,-2210.947C8545.322,-2185.3503 8525.8699,-2155.2356 8508.7528,-2128.7358"/>
<polygon fill="#c0c0c0" stroke="#c0c0c0" stroke-width="2" points="8511.6499,-2126.7702 8503.284,-2120.2693 8505.7699,-2130.5684 8511.6499,-2126.7702"/>
</g>
<!-- 33 -->
<g id="node34" class="node">
<title>33</title>
<path fill="none" stroke="#97d856" stroke-width="2" d="M6235,-690C6235,-690 4829,-690 4829,-690 4823,-690 4817,-684 4817,-678 4817,-678 4817,-474 4817,-474 4817,-468 4823,-462 4829,-462 4829,-462 6235,-462 6235,-462 6241,-462 6247,-468 6247,-474 6247,-474 6247,-678 6247,-678 6247,-684 6241,-690 6235,-690"/>
<text text-anchor="middle" x="5532" y="-606" font-family="sans" font-size="100.00" fill="#000000">calculate_umap_and_cluster</text>
<text text-anchor="middle" x="5532" y="-496" font-family="sans" font-size="100.00" fill="#000000">dims: 50</text>
</g>
<!-- 33&#45;&gt;23 -->
<g id="edge48" class="edge">
<title>33&#45;&gt;23</title>
<path fill="none" stroke="#c0c0c0" stroke-width="2" d="M4816.9879,-463.3361C4813.9854,-462.8892 4810.9893,-462.4438 4808,-462 4705.0492,-446.7151 4593.233,-430.8223 4490.5315,-416.5086"/>
<polygon fill="#c0c0c0" stroke="#c0c0c0" stroke-width="2" points="4491.0089,-413.0414 4480.6217,-415.1284 4490.0433,-419.9745 4491.0089,-413.0414"/>
</g>
<!-- 34 -->
<g id="node35" class="node">
<title>34</title>
<path fill="none" stroke="#d88556" stroke-width="2" d="M4836.5,-899C4836.5,-899 3417.5,-899 3417.5,-899 3411.5,-899 3405.5,-893 3405.5,-887 3405.5,-887 3405.5,-793 3405.5,-793 3405.5,-787 3411.5,-781 3417.5,-781 3417.5,-781 4836.5,-781 4836.5,-781 4842.5,-781 4848.5,-787 4848.5,-793 4848.5,-793 4848.5,-887 4848.5,-887 4848.5,-893 4842.5,-899 4836.5,-899"/>
<text text-anchor="middle" x="4127" y="-815" font-family="sans" font-size="100.00" fill="#000000">label_known_cells_with_type</text>
</g>
<!-- 34&#45;&gt;23 -->
<g id="edge49" class="edge">
<title>34&#45;&gt;23</title>
<path fill="none" stroke="#c0c0c0" stroke-width="2" d="M3625.7037,-780.977C3527.6556,-759.1038 3445.1311,-729.5827 3413,-690 3349.1357,-611.3247 3346.2387,-538.2324 3413,-462 3438.0036,-433.4493 3599.8493,-410.6137 3763.133,-394.4932"/>
<polygon fill="#c0c0c0" stroke="#c0c0c0" stroke-width="2" points="3763.7782,-397.9469 3773.3897,-393.4895 3763.0964,-390.9802 3763.7782,-397.9469"/>
</g>
<!-- 34&#45;&gt;24 -->
<g id="edge52" class="edge">
<title>34&#45;&gt;24</title>
<path fill="none" stroke="#c0c0c0" stroke-width="2" d="M3658.3375,-780.9296C3560.6225,-758.8739 3477.5687,-729.2789 3446,-690 3414.2596,-650.5075 3410.6519,-498.2991 3446,-462 3459.9055,-447.7204 5752.2374,-395.2551 6659.9793,-375.0272"/>
<polygon fill="#c0c0c0" stroke="#c0c0c0" stroke-width="2" points="6660.344,-378.5201 6670.2635,-374.7981 6660.188,-371.5218 6660.344,-378.5201"/>
</g>
<!-- 35 -->
<g id="node36" class="node">
<title>35</title>
<path fill="none" stroke="#56d863" stroke-width="2" d="M4787,-635C4787,-635 3467,-635 3467,-635 3461,-635 3455,-629 3455,-623 3455,-623 3455,-529 3455,-529 3455,-523 3461,-517 3467,-517 3467,-517 4787,-517 4787,-517 4793,-517 4799,-523 4799,-529 4799,-529 4799,-623 4799,-623 4799,-629 4793,-635 4787,-635"/>
<text text-anchor="middle" x="4127" y="-551" font-family="sans" font-size="100.00" fill="#000000">predict_missing_cell_types</text>
</g>
<!-- 34&#45;&gt;35 -->
<g id="edge72" class="edge">
<title>34&#45;&gt;35</title>
<path fill="none" stroke="#c0c0c0" stroke-width="2" d="M4127,-780.7532C4127,-740.5864 4127,-687.3491 4127,-645.2278"/>
<polygon fill="#c0c0c0" stroke="#c0c0c0" stroke-width="2" points="4130.5001,-645.049 4127,-635.049 4123.5001,-645.049 4130.5001,-645.049"/>
</g>
<!-- 37 -->
<g id="node38" class="node">
<title>37</title>
<path fill="none" stroke="#56d863" stroke-width="2" d="M7597,-635C7597,-635 6277,-635 6277,-635 6271,-635 6265,-629 6265,-623 6265,-623 6265,-529 6265,-529 6265,-523 6271,-517 6277,-517 6277,-517 7597,-517 7597,-517 7603,-517 7609,-523 7609,-529 7609,-529 7609,-623 7609,-623 7609,-629 7603,-635 7597,-635"/>
<text text-anchor="middle" x="6937" y="-551" font-family="sans" font-size="100.00" fill="#000000">predict_missing_cell_types</text>
</g>
<!-- 34&#45;&gt;37 -->
<g id="edge75" class="edge">
<title>34&#45;&gt;37</title>
<path fill="none" stroke="#c0c0c0" stroke-width="2" d="M4551.0964,-780.9972C4715.3505,-760.2896 4905.133,-738.9768 5078,-726 5600.3303,-686.7896 5734.7239,-741.3581 6256,-690 6378.2937,-677.9512 6511.8441,-657.272 6628.0262,-636.8063"/>
<polygon fill="#c0c0c0" stroke="#c0c0c0" stroke-width="2" points="6628.9022,-640.2058 6638.1398,-635.0176 6627.6831,-633.3127 6628.9022,-640.2058"/>
</g>
<!-- 35&#45;&gt;23 -->
<g id="edge50" class="edge">
<title>35&#45;&gt;23</title>
<path fill="none" stroke="#c0c0c0" stroke-width="2" d="M4127,-516.947C4127,-491.9044 4127,-462.5371 4127,-436.4615"/>
<polygon fill="#c0c0c0" stroke="#c0c0c0" stroke-width="2" points="4130.5001,-436.2692 4127,-426.2693 4123.5001,-436.2693 4130.5001,-436.2692"/>
</g>
<!-- 36 -->
<g id="node37" class="node">
<title>36</title>
<path fill="none" stroke="#97d856" stroke-width="2" d="M9045,-690C9045,-690 7639,-690 7639,-690 7633,-690 7627,-684 7627,-678 7627,-678 7627,-474 7627,-474 7627,-468 7633,-462 7639,-462 7639,-462 9045,-462 9045,-462 9051,-462 9057,-468 9057,-474 9057,-474 9057,-678 9057,-678 9057,-684 9051,-690 9045,-690"/>
<text text-anchor="middle" x="8342" y="-606" font-family="sans" font-size="100.00" fill="#000000">calculate_umap_and_cluster</text>
<text text-anchor="middle" x="8342" y="-496" font-family="sans" font-size="100.00" fill="#000000">dims: 50</text>
</g>
<!-- 36&#45;&gt;24 -->
<g id="edge51" class="edge">
<title>36&#45;&gt;24</title>
<path fill="none" stroke="#c0c0c0" stroke-width="2" d="M7626.5895,-462.5548C7544.1075,-449.4753 7462.8129,-436.5841 7387.9249,-424.7089"/>
<polygon fill="#c0c0c0" stroke="#c0c0c0" stroke-width="2" points="7388.302,-421.225 7377.8772,-423.1156 7387.2056,-428.1386 7388.302,-421.225"/>
</g>
<!-- 37&#45;&gt;24 -->
<g id="edge53" class="edge">
<title>37&#45;&gt;24</title>
<path fill="none" stroke="#c0c0c0" stroke-width="2" d="M6961.5819,-516.947C6972.0986,-491.6827 6984.4475,-462.017 6995.3732,-435.77"/>
<polygon fill="#c0c0c0" stroke="#c0c0c0" stroke-width="2" points="6998.7163,-436.8464 6999.3281,-426.2693 6992.2538,-434.1563 6998.7163,-436.8464"/>
</g>
<!-- 38&#45;&gt;29 -->
<g id="edge57" class="edge">
<title>38&#45;&gt;29</title>
<path fill="none" stroke="#c0c0c0" stroke-width="2" d="M4547.0998,-2474.9176C4670.6173,-2432.5137 4836.7492,-2375.4801 4962.383,-2332.3497"/>
<polygon fill="#c0c0c0" stroke="#c0c0c0" stroke-width="2" points="4963.7965,-2335.565 4972.1182,-2329.0076 4961.5235,-2328.9443 4963.7965,-2335.565"/>
</g>
<!-- 39&#45;&gt;30 -->
<g id="edge60" class="edge">
<title>39&#45;&gt;30</title>
<path fill="none" stroke="#c0c0c0" stroke-width="2" d="M1463.0653,-2474.7532C1499.1097,-2433.7372 1547.1311,-2379.0922 1584.4979,-2336.5714"/>
<polygon fill="#c0c0c0" stroke="#c0c0c0" stroke-width="2" points="1587.1363,-2338.8711 1591.1084,-2329.049 1581.8782,-2334.2503 1587.1363,-2338.8711"/>
</g>
<!-- 40&#45;&gt;31 -->
<g id="edge63" class="edge">
<title>40&#45;&gt;31</title>
<path fill="none" stroke="#c0c0c0" stroke-width="2" d="M7193.8625,-2474.7532C7136.2929,-2433.2277 7059.3564,-2377.7325 7000.1031,-2334.9924"/>
<polygon fill="#c0c0c0" stroke="#c0c0c0" stroke-width="2" points="7002.0213,-2332.0605 6991.8634,-2329.049 6997.9262,-2337.7377 7002.0213,-2332.0605"/>
</g>
<!-- 41&#45;&gt;32 -->
<g id="edge66" class="edge">
<title>41&#45;&gt;32</title>
<path fill="none" stroke="#c0c0c0" stroke-width="2" d="M8683.7627,-2474.7532C8667.2266,-2434.3317 8645.2754,-2380.6733 8627.9931,-2338.4277"/>
<polygon fill="#c0c0c0" stroke="#c0c0c0" stroke-width="2" points="8631.1822,-2336.9793 8624.1564,-2329.049 8624.7034,-2339.6297 8631.1822,-2336.9793"/>
</g>
<!-- 42 -->
<g id="node43" class="node">
<title>42</title>
<path fill="none" stroke="#78d856" stroke-width="2" d="M5964.5,-954C5964.5,-954 5099.5,-954 5099.5,-954 5093.5,-954 5087.5,-948 5087.5,-942 5087.5,-942 5087.5,-738 5087.5,-738 5087.5,-732 5093.5,-726 5099.5,-726 5099.5,-726 5964.5,-726 5964.5,-726 5970.5,-726 5976.5,-732 5976.5,-738 5976.5,-738 5976.5,-942 5976.5,-942 5976.5,-948 5970.5,-954 5964.5,-954"/>
<text text-anchor="middle" x="5532" y="-870" font-family="sans" font-size="100.00" fill="#000000">integrate</text>
<text text-anchor="middle" x="5532" y="-760" font-family="sans" font-size="100.00" fill="#000000">method: fastMNN</text>
</g>
<!-- 42&#45;&gt;33 -->
<g id="edge69" class="edge">
<title>42&#45;&gt;33</title>
<path fill="none" stroke="#c0c0c0" stroke-width="2" d="M5532,-725.7412C5532,-717.2276 5532,-708.6136 5532,-700.0446"/>
<polygon fill="#c0c0c0" stroke="#c0c0c0" stroke-width="2" points="5535.5001,-700.0146 5532,-690.0146 5528.5001,-700.0146 5535.5001,-700.0146"/>
</g>
<!-- 42&#45;&gt;35 -->
<g id="edge71" class="edge">
<title>42&#45;&gt;35</title>
<path fill="none" stroke="#c0c0c0" stroke-width="2" d="M5087.4492,-756.4688C4881.0112,-717.679 4640.0619,-672.4045 4451.1425,-636.9065"/>
<polygon fill="#c0c0c0" stroke="#c0c0c0" stroke-width="2" points="4451.5266,-633.4175 4441.0522,-635.0105 4450.2338,-640.2971 4451.5266,-633.4175"/>
</g>
<!-- 43&#45;&gt;34 -->
<g id="edge70" class="edge">
<title>43&#45;&gt;34</title>
<path fill="none" stroke="#c0c0c0" stroke-width="2" d="M5898.4358,-1635.0711C5500.9571,-1623.1317 4857.5634,-1596.5864 4758,-1548 4463.4176,-1404.2452 4245.4034,-1055.9059 4163.0205,-908.1149"/>
<polygon fill="#c0c0c0" stroke="#c0c0c0" stroke-width="2" points="4165.9331,-906.1499 4158.0248,-899.0994 4159.8103,-909.5427 4165.9331,-906.1499"/>
</g>
<!-- 43&#45;&gt;45 -->
<g id="edge85" class="edge">
<title>43&#45;&gt;45</title>
<path fill="none" stroke="#c0c0c0" stroke-width="2" d="M6241.2539,-1583.7386C6244.9837,-1575.6284 6248.9959,-1566.9042 6253.225,-1557.7084"/>
<polygon fill="#c0c0c0" stroke="#c0c0c0" stroke-width="2" points="6256.5255,-1558.9083 6257.524,-1548.3606 6250.1658,-1555.9835 6256.5255,-1558.9083"/>
</g>
<!-- 44 -->
<g id="node45" class="node">
<title>44</title>
<path fill="none" stroke="#78d856" stroke-width="2" d="M7262,-954C7262,-954 6612,-954 6612,-954 6606,-954 6600,-948 6600,-942 6600,-942 6600,-738 6600,-738 6600,-732 6606,-726 6612,-726 6612,-726 7262,-726 7262,-726 7268,-726 7274,-732 7274,-738 7274,-738 7274,-942 7274,-942 7274,-948 7268,-954 7262,-954"/>
<text text-anchor="middle" x="6937" y="-870" font-family="sans" font-size="100.00" fill="#000000">integrate</text>
<text text-anchor="middle" x="6937" y="-760" font-family="sans" font-size="100.00" fill="#000000">method: CCA</text>
</g>
<!-- 44&#45;&gt;36 -->
<g id="edge73" class="edge">
<title>44&#45;&gt;36</title>
<path fill="none" stroke="#c0c0c0" stroke-width="2" d="M7274.4261,-776.5975C7409.7834,-751.1638 7570.1814,-721.025 7724.9617,-691.9417"/>
<polygon fill="#c0c0c0" stroke="#c0c0c0" stroke-width="2" points="7725.9667,-695.3142 7735.1483,-690.0276 7724.6739,-688.4346 7725.9667,-695.3142"/>
</g>
<!-- 44&#45;&gt;37 -->
<g id="edge74" class="edge">
<title>44&#45;&gt;37</title>
<path fill="none" stroke="#c0c0c0" stroke-width="2" d="M6937,-725.7412C6937,-698.4279 6937,-670.0824 6937,-645.4977"/>
<polygon fill="#c0c0c0" stroke="#c0c0c0" stroke-width="2" points="6940.5001,-645.2056 6937,-635.2056 6933.5001,-645.2057 6940.5001,-645.2056"/>
</g>
<!-- 45&#45;&gt;42 -->
<g id="edge80" class="edge">
<title>45&#45;&gt;42</title>
<path fill="none" stroke="#c0c0c0" stroke-width="2" d="M5830.3879,-989.8928C5809.1327,-979.2154 5788.3463,-968.7735 5768.2682,-958.6874"/>
<polygon fill="#c0c0c0" stroke="#c0c0c0" stroke-width="2" points="5769.6008,-955.4401 5759.0937,-954.0787 5766.4585,-961.6952 5769.6008,-955.4401"/>
</g>
<!-- 45&#45;&gt;44 -->
<g id="edge84" class="edge">
<title>45&#45;&gt;44</title>
<path fill="none" stroke="#c0c0c0" stroke-width="2" d="M6744.6738,-989.7422C6757.5515,-979.7158 6770.1618,-969.8976 6782.3766,-960.3874"/>
<polygon fill="#c0c0c0" stroke="#c0c0c0" stroke-width="2" points="6784.6049,-963.0882 6790.3452,-954.1831 6780.3046,-957.5649 6784.6049,-963.0882"/>
</g>
</g>
</svg>
