<?xml version="1.0" encoding="UTF-8" standalone="no"?>
<!DOCTYPE svg PUBLIC "-//W3C//DTD SVG 1.1//EN"
 "http://www.w3.org/Graphics/SVG/1.1/DTD/svg11.dtd">
<!-- Generated by graphviz version 2.40.1 (20161225.0304)
 -->
<!-- Title: snakemake_dag Pages: 1 -->
<svg width="2419pt" height="1754pt"
 viewBox="0.00 0.00 2419.34 1754.00" xmlns="http://www.w3.org/2000/svg" xmlns:xlink="http://www.w3.org/1999/xlink">
<g id="graph0" class="graph" transform="scale(1 1) rotate(0) translate(4 1750)">
<title>snakemake_dag</title>
<polygon fill="#ffffff" stroke="transparent" points="-4,4 -4,-1750 2415.3374,-1750 2415.3374,4 -4,4"/>
<!-- 0 -->
<g id="node1" class="node">
<title>0</title>
<path fill="none" stroke="#afd856" stroke-width="2" d="M753,-63C753,-63 701,-63 701,-63 695,-63 689,-57 689,-51 689,-51 689,-12 689,-12 689,-6 695,0 701,0 701,0 753,0 753,0 759,0 765,-6 765,-12 765,-12 765,-51 765,-51 765,-57 759,-63 753,-63"/>
<text text-anchor="middle" x="727" y="-19" font-family="sans" font-size="50.00" fill="#000000">all</text>
</g>
<!-- 1 -->
<g id="node2" class="node">
<title>1</title>
<path fill="none" stroke="#56d8d0" stroke-width="2" d="M1839,-1053C1839,-1053 1585,-1053 1585,-1053 1579,-1053 1573,-1047 1573,-1041 1573,-1041 1573,-1002 1573,-1002 1573,-996 1579,-990 1585,-990 1585,-990 1839,-990 1839,-990 1845,-990 1851,-996 1851,-1002 1851,-1002 1851,-1041 1851,-1041 1851,-1047 1845,-1053 1839,-1053"/>
<text text-anchor="middle" x="1712" y="-1009" font-family="sans" font-size="50.00" fill="#000000">mito_stats</text>
</g>
<!-- 1&#45;&gt;0 -->
<g id="edge3" class="edge">
<title>1&#45;&gt;0</title>
<path fill="none" stroke="#c0c0c0" stroke-width="2" d="M1712,-989.9511C1712,-950.8785 1712,-882.2813 1712,-823.5 1712,-823.5 1712,-823.5 1712,-229.5 1712,-132.7878 972.7219,-55.0398 775.0905,-35.9832"/>
<polygon fill="#c0c0c0" stroke="#c0c0c0" stroke-width="2" points="775.298,-32.4872 765.0096,-35.0169 774.63,-39.4552 775.298,-32.4872"/>
</g>
<!-- 2 -->
<g id="node3" class="node">
<title>2</title>
<path fill="none" stroke="#d87556" stroke-width="2" d="M978.5,-855C978.5,-855 533.5,-855 533.5,-855 527.5,-855 521.5,-849 521.5,-843 521.5,-843 521.5,-804 521.5,-804 521.5,-798 527.5,-792 533.5,-792 533.5,-792 978.5,-792 978.5,-792 984.5,-792 990.5,-798 990.5,-804 990.5,-804 990.5,-843 990.5,-843 990.5,-849 984.5,-855 978.5,-855"/>
<text text-anchor="middle" x="756" y="-811" font-family="sans" font-size="50.00" fill="#000000">make_seurat_objs</text>
</g>
<!-- 2&#45;&gt;0 -->
<g id="edge2" class="edge">
<title>2&#45;&gt;0</title>
<path fill="none" stroke="#c0c0c0" stroke-width="2" d="M521.4577,-807.1107C299.4799,-784.953 0,-734.8046 0,-625.5 0,-625.5 0,-625.5 0,-229.5 0,-88.3776 516.4249,-44.4882 678.7651,-34.1777"/>
<polygon fill="#c0c0c0" stroke="#c0c0c0" stroke-width="2" points="679.1729,-37.6593 688.9369,-33.5465 678.7393,-30.6727 679.1729,-37.6593"/>
</g>
<!-- 21 -->
<g id="node22" class="node">
<title>21</title>
<path fill="none" stroke="#56d8a9" stroke-width="2" d="M912.5,-756C912.5,-756 599.5,-756 599.5,-756 593.5,-756 587.5,-750 587.5,-744 587.5,-744 587.5,-705 587.5,-705 587.5,-699 593.5,-693 599.5,-693 599.5,-693 912.5,-693 912.5,-693 918.5,-693 924.5,-699 924.5,-705 924.5,-705 924.5,-744 924.5,-744 924.5,-750 918.5,-756 912.5,-756"/>
<text text-anchor="middle" x="756" y="-712" font-family="sans" font-size="50.00" fill="#000000">integrate_00</text>
</g>
<!-- 2&#45;&gt;21 -->
<g id="edge40" class="edge">
<title>2&#45;&gt;21</title>
<path fill="none" stroke="#c0c0c0" stroke-width="2" d="M756,-791.9036C756,-783.777 756,-774.9064 756,-766.3485"/>
<polygon fill="#c0c0c0" stroke="#c0c0c0" stroke-width="2" points="759.5001,-766.1358 756,-756.1358 752.5001,-766.1358 759.5001,-766.1358"/>
</g>
<!-- 3 -->
<g id="node4" class="node">
<title>3</title>
<path fill="none" stroke="#567bd8" stroke-width="2" d="M878.5,-162C878.5,-162 575.5,-162 575.5,-162 569.5,-162 563.5,-156 563.5,-150 563.5,-150 563.5,-111 563.5,-111 563.5,-105 569.5,-99 575.5,-99 575.5,-99 878.5,-99 878.5,-99 884.5,-99 890.5,-105 890.5,-111 890.5,-111 890.5,-150 890.5,-150 890.5,-156 884.5,-162 878.5,-162"/>
<text text-anchor="middle" x="727" y="-118" font-family="sans" font-size="50.00" fill="#000000">merge_stats</text>
</g>
<!-- 3&#45;&gt;0 -->
<g id="edge1" class="edge">
<title>3&#45;&gt;0</title>
<path fill="none" stroke="#c0c0c0" stroke-width="2" d="M727,-98.9036C727,-90.777 727,-81.9064 727,-73.3485"/>
<polygon fill="#c0c0c0" stroke="#c0c0c0" stroke-width="2" points="730.5001,-73.1358 727,-63.1358 723.5001,-73.1358 730.5001,-73.1358"/>
</g>
<!-- 4 -->
<g id="node5" class="node">
<title>4</title>
<path fill="none" stroke="#68d856" stroke-width="2" d="M1512.5,-1251C1512.5,-1251 623.5,-1251 623.5,-1251 617.5,-1251 611.5,-1245 611.5,-1239 611.5,-1239 611.5,-1200 611.5,-1200 611.5,-1194 617.5,-1188 623.5,-1188 623.5,-1188 1512.5,-1188 1512.5,-1188 1518.5,-1188 1524.5,-1194 1524.5,-1200 1524.5,-1200 1524.5,-1239 1524.5,-1239 1524.5,-1245 1518.5,-1251 1512.5,-1251"/>
<text text-anchor="middle" x="1068" y="-1207" font-family="sans" font-size="50.00" fill="#000000">merge_nonUMI_quant_by_organism</text>
</g>
<!-- 4&#45;&gt;1 -->
<g id="edge4" class="edge">
<title>4&#45;&gt;1</title>
<path fill="none" stroke="#c0c0c0" stroke-width="2" d="M1170.7558,-1187.9074C1287.8791,-1151.8974 1478.7025,-1093.2281 1599.6726,-1056.0355"/>
<polygon fill="#c0c0c0" stroke="#c0c0c0" stroke-width="2" points="1600.8142,-1059.3462 1609.3441,-1053.0619 1598.7571,-1052.6553 1600.8142,-1059.3462"/>
</g>
<!-- 13 -->
<g id="node14" class="node">
<title>13</title>
<path fill="none" stroke="#56d87b" stroke-width="2" d="M1355.5,-1053C1355.5,-1053 780.5,-1053 780.5,-1053 774.5,-1053 768.5,-1047 768.5,-1041 768.5,-1041 768.5,-1002 768.5,-1002 768.5,-996 774.5,-990 780.5,-990 780.5,-990 1355.5,-990 1355.5,-990 1361.5,-990 1367.5,-996 1367.5,-1002 1367.5,-1002 1367.5,-1041 1367.5,-1041 1367.5,-1047 1361.5,-1053 1355.5,-1053"/>
<text text-anchor="middle" x="1068" y="-1009" font-family="sans" font-size="50.00" fill="#000000">combine_well_and_umi</text>
</g>
<!-- 4&#45;&gt;13 -->
<g id="edge24" class="edge">
<title>4&#45;&gt;13</title>
<path fill="none" stroke="#c0c0c0" stroke-width="2" d="M1068,-1187.6879C1068,-1153.9142 1068,-1100.3878 1068,-1063.2449"/>
<polygon fill="#c0c0c0" stroke="#c0c0c0" stroke-width="2" points="1071.5001,-1063.2331 1068,-1053.2332 1064.5001,-1063.2332 1071.5001,-1063.2331"/>
</g>
<!-- 5 -->
<g id="node6" class="node">
<title>5</title>
<path fill="none" stroke="#d88d56" stroke-width="2" d="M2103.5,-1152C2103.5,-1152 1568.5,-1152 1568.5,-1152 1562.5,-1152 1556.5,-1146 1556.5,-1140 1556.5,-1140 1556.5,-1101 1556.5,-1101 1556.5,-1095 1562.5,-1089 1568.5,-1089 1568.5,-1089 2103.5,-1089 2103.5,-1089 2109.5,-1089 2115.5,-1095 2115.5,-1101 2115.5,-1101 2115.5,-1140 2115.5,-1140 2115.5,-1146 2109.5,-1152 2103.5,-1152"/>
<text text-anchor="middle" x="1836" y="-1108" font-family="sans" font-size="50.00" fill="#000000">create_sparse_matrix</text>
</g>
<!-- 5&#45;&gt;1 -->
<g id="edge5" class="edge">
<title>5&#45;&gt;1</title>
<path fill="none" stroke="#c0c0c0" stroke-width="2" d="M1796.4247,-1088.9036C1784.68,-1079.5268 1771.6946,-1069.1594 1759.5017,-1059.4247"/>
<polygon fill="#c0c0c0" stroke="#c0c0c0" stroke-width="2" points="1761.6232,-1056.6399 1751.6246,-1053.1358 1757.2557,-1062.1103 1761.6232,-1056.6399"/>
</g>
<!-- 5&#45;&gt;13 -->
<g id="edge26" class="edge">
<title>5&#45;&gt;13</title>
<path fill="none" stroke="#c0c0c0" stroke-width="2" d="M1591.4167,-1088.9717C1505.5865,-1077.9076 1409.0037,-1065.4575 1322.388,-1054.2922"/>
<polygon fill="#c0c0c0" stroke="#c0c0c0" stroke-width="2" points="1322.7847,-1050.8145 1312.4193,-1053.0072 1321.8897,-1057.757 1322.7847,-1050.8145"/>
</g>
<!-- 6 -->
<g id="node7" class="node">
<title>6</title>
<path fill="none" stroke="#d85656" stroke-width="2" d="M1385.5,-954C1385.5,-954 750.5,-954 750.5,-954 744.5,-954 738.5,-948 738.5,-942 738.5,-942 738.5,-903 738.5,-903 738.5,-897 744.5,-891 750.5,-891 750.5,-891 1385.5,-891 1385.5,-891 1391.5,-891 1397.5,-897 1397.5,-903 1397.5,-903 1397.5,-942 1397.5,-942 1397.5,-948 1391.5,-954 1385.5,-954"/>
<text text-anchor="middle" x="1068" y="-910" font-family="sans" font-size="50.00" fill="#000000">merge_across_references</text>
</g>
<!-- 6&#45;&gt;2 -->
<g id="edge6" class="edge">
<title>6&#45;&gt;2</title>
<path fill="none" stroke="#c0c0c0" stroke-width="2" d="M968.4234,-890.9036C935.5546,-880.4741 898.8235,-868.819 865.27,-858.1722"/>
<polygon fill="#c0c0c0" stroke="#c0c0c0" stroke-width="2" points="866.0235,-854.7394 855.4332,-855.0509 863.9063,-861.4115 866.0235,-854.7394"/>
</g>
<!-- 22 -->
<g id="node23" class="node">
<title>22</title>
<path fill="none" stroke="#bed856" stroke-width="2" d="M1671.5,-558C1671.5,-558 958.5,-558 958.5,-558 952.5,-558 946.5,-552 946.5,-546 946.5,-546 946.5,-507 946.5,-507 946.5,-501 952.5,-495 958.5,-495 958.5,-495 1671.5,-495 1671.5,-495 1677.5,-495 1683.5,-501 1683.5,-507 1683.5,-507 1683.5,-546 1683.5,-546 1683.5,-552 1677.5,-558 1671.5,-558"/>
<text text-anchor="middle" x="1315" y="-514" font-family="sans" font-size="50.00" fill="#000000">label_known_cells_with_type</text>
</g>
<!-- 6&#45;&gt;22 -->
<g id="edge41" class="edge">
<title>6&#45;&gt;22</title>
<path fill="none" stroke="#c0c0c0" stroke-width="2" d="M1087.7955,-890.7631C1132.383,-819.2786 1240.6157,-645.7558 1289.8584,-566.8079"/>
<polygon fill="#c0c0c0" stroke="#c0c0c0" stroke-width="2" points="1292.9593,-568.4499 1295.282,-558.1127 1287.0199,-564.7452 1292.9593,-568.4499"/>
</g>
<!-- 7 -->
<g id="node8" class="node">
<title>7</title>
<path fill="none" stroke="#d8bc56" stroke-width="2" d="M614,-360C614,-360 306,-360 306,-360 300,-360 294,-354 294,-348 294,-348 294,-309 294,-309 294,-303 300,-297 306,-297 306,-297 614,-297 614,-297 620,-297 626,-303 626,-309 626,-309 626,-348 626,-348 626,-354 620,-360 614,-360"/>
<text text-anchor="middle" x="460" y="-316" font-family="sans" font-size="50.00" fill="#000000">perf_metrics</text>
</g>
<!-- 7&#45;&gt;3 -->
<g id="edge7" class="edge">
<title>7&#45;&gt;3</title>
<path fill="none" stroke="#c0c0c0" stroke-width="2" d="M502.6022,-296.9074C549.7414,-261.9502 625.676,-205.6392 675.9579,-168.3514"/>
<polygon fill="#c0c0c0" stroke="#c0c0c0" stroke-width="2" points="678.16,-171.0758 684.1076,-162.3078 673.9904,-165.4531 678.16,-171.0758"/>
</g>
<!-- 8 -->
<g id="node9" class="node">
<title>8</title>
<path fill="none" stroke="#78d856" stroke-width="2" d="M903,-261C903,-261 659,-261 659,-261 653,-261 647,-255 647,-249 647,-249 647,-210 647,-210 647,-204 653,-198 659,-198 659,-198 903,-198 903,-198 909,-198 915,-204 915,-210 915,-210 915,-249 915,-249 915,-255 909,-261 903,-261"/>
<text text-anchor="middle" x="781" y="-217" font-family="sans" font-size="50.00" fill="#000000">scIB_stats</text>
</g>
<!-- 8&#45;&gt;3 -->
<g id="edge8" class="edge">
<title>8&#45;&gt;3</title>
<path fill="none" stroke="#c0c0c0" stroke-width="2" d="M763.7656,-197.9036C759.0894,-189.3305 753.9615,-179.9294 749.0586,-170.9408"/>
<polygon fill="#c0c0c0" stroke="#c0c0c0" stroke-width="2" points="752.1171,-169.2388 744.2559,-162.1358 745.9718,-172.5908 752.1171,-169.2388"/>
</g>
<!-- 9 -->
<g id="node10" class="node">
<title>9</title>
<path fill="none" stroke="#56d0d8" stroke-width="2" d="M1817.5,-1350C1817.5,-1350 894.5,-1350 894.5,-1350 888.5,-1350 882.5,-1344 882.5,-1338 882.5,-1338 882.5,-1299 882.5,-1299 882.5,-1293 888.5,-1287 894.5,-1287 894.5,-1287 1817.5,-1287 1817.5,-1287 1823.5,-1287 1829.5,-1293 1829.5,-1299 1829.5,-1299 1829.5,-1338 1829.5,-1338 1829.5,-1344 1823.5,-1350 1817.5,-1350"/>
<text text-anchor="middle" x="1356" y="-1306" font-family="sans" font-size="50.00" fill="#000000">separate_spliced_unspliced_welldata</text>
</g>
<!-- 9&#45;&gt;4 -->
<g id="edge11" class="edge">
<title>9&#45;&gt;4</title>
<path fill="none" stroke="#c0c0c0" stroke-width="2" d="M1264.0832,-1286.9036C1233.9475,-1276.5445 1200.2947,-1264.9763 1169.4922,-1254.388"/>
<polygon fill="#c0c0c0" stroke="#c0c0c0" stroke-width="2" points="1170.6261,-1251.0768 1160.0314,-1251.1358 1168.3505,-1257.6966 1170.6261,-1251.0768"/>
</g>
<!-- 10 -->
<g id="node11" class="node">
<title>10</title>
<path fill="none" stroke="#56d86b" stroke-width="2" d="M1434,-1647C1434,-1647 1008,-1647 1008,-1647 1002,-1647 996,-1641 996,-1635 996,-1635 996,-1596 996,-1596 996,-1590 1002,-1584 1008,-1584 1008,-1584 1434,-1584 1434,-1584 1440,-1584 1446,-1590 1446,-1596 1446,-1596 1446,-1635 1446,-1635 1446,-1641 1440,-1647 1434,-1647"/>
<text text-anchor="middle" x="1221" y="-1603" font-family="sans" font-size="50.00" fill="#000000">get_velocity_files</text>
</g>
<!-- 10&#45;&gt;4 -->
<g id="edge10" class="edge">
<title>10&#45;&gt;4</title>
<path fill="none" stroke="#c0c0c0" stroke-width="2" d="M1147.3104,-1583.9941C1063.4227,-1543.5923 930.6942,-1464.764 874,-1350 861.5985,-1324.8961 857.7771,-1309.8214 874,-1287 882.3864,-1275.2025 904.9618,-1264.0996 931.8841,-1254.4371"/>
<polygon fill="#c0c0c0" stroke="#c0c0c0" stroke-width="2" points="933.2688,-1257.6615 941.572,-1251.0806 930.9772,-1251.0472 933.2688,-1257.6615"/>
</g>
<!-- 12 -->
<g id="node13" class="node">
<title>12</title>
<path fill="none" stroke="#d86656" stroke-width="2" d="M2365,-1251C2365,-1251 1555,-1251 1555,-1251 1549,-1251 1543,-1245 1543,-1239 1543,-1239 1543,-1200 1543,-1200 1543,-1194 1549,-1188 1555,-1188 1555,-1188 2365,-1188 2365,-1188 2371,-1188 2377,-1194 2377,-1200 2377,-1200 2377,-1239 2377,-1239 2377,-1245 2371,-1251 2365,-1251"/>
<text text-anchor="middle" x="1960" y="-1207" font-family="sans" font-size="50.00" fill="#000000">bustools_whitelist_correct_count</text>
</g>
<!-- 10&#45;&gt;12 -->
<g id="edge23" class="edge">
<title>10&#45;&gt;12</title>
<path fill="none" stroke="#c0c0c0" stroke-width="2" d="M1446.111,-1591.9987C1720.6799,-1557.8057 2159.1222,-1483.3814 2246,-1350 2261.2819,-1326.538 2263.3769,-1308.9555 2246,-1287 2235.5008,-1273.7343 2211.2459,-1262.8117 2181.0675,-1253.9085"/>
<polygon fill="#c0c0c0" stroke="#c0c0c0" stroke-width="2" points="2181.6457,-1250.4351 2171.071,-1251.0884 2179.7451,-1257.1721 2181.6457,-1250.4351"/>
</g>
<!-- 24 -->
<g id="node25" class="node">
<title>24</title>
<path fill="none" stroke="#56c1d8" stroke-width="2" d="M1523.5,-1548C1523.5,-1548 1188.5,-1548 1188.5,-1548 1182.5,-1548 1176.5,-1542 1176.5,-1536 1176.5,-1536 1176.5,-1497 1176.5,-1497 1176.5,-1491 1182.5,-1485 1188.5,-1485 1188.5,-1485 1523.5,-1485 1523.5,-1485 1529.5,-1485 1535.5,-1491 1535.5,-1497 1535.5,-1497 1535.5,-1536 1535.5,-1536 1535.5,-1542 1529.5,-1548 1523.5,-1548"/>
<text text-anchor="middle" x="1356" y="-1504" font-family="sans" font-size="50.00" fill="#000000">kallisto_index</text>
</g>
<!-- 10&#45;&gt;24 -->
<g id="edge43" class="edge">
<title>10&#45;&gt;24</title>
<path fill="none" stroke="#c0c0c0" stroke-width="2" d="M1264.086,-1583.9036C1276.9943,-1574.4375 1291.2793,-1563.9618 1304.6635,-1554.1468"/>
<polygon fill="#c0c0c0" stroke="#c0c0c0" stroke-width="2" points="1306.866,-1556.8719 1312.8603,-1548.1358 1302.7264,-1551.2271 1306.866,-1556.8719"/>
</g>
<!-- 11 -->
<g id="node12" class="node">
<title>11</title>
<path fill="none" stroke="#59d856" stroke-width="2" d="M1352.5,-1746C1352.5,-1746 819.5,-1746 819.5,-1746 813.5,-1746 807.5,-1740 807.5,-1734 807.5,-1734 807.5,-1695 807.5,-1695 807.5,-1689 813.5,-1683 819.5,-1683 819.5,-1683 1352.5,-1683 1352.5,-1683 1358.5,-1683 1364.5,-1689 1364.5,-1695 1364.5,-1695 1364.5,-1734 1364.5,-1734 1364.5,-1740 1358.5,-1746 1352.5,-1746"/>
<text text-anchor="middle" x="1086" y="-1702" font-family="sans" font-size="50.00" fill="#000000">download_annotation</text>
</g>
<!-- 11&#45;&gt;4 -->
<g id="edge9" class="edge">
<title>11&#45;&gt;4</title>
<path fill="none" stroke="#c0c0c0" stroke-width="2" d="M979.2977,-1682.9879C904.1946,-1653.4783 817,-1601.0182 817,-1516.5 817,-1516.5 817,-1516.5 817,-1417.5 817,-1356.4325 816.7217,-1330.0839 860,-1287 871.5516,-1275.5003 898.7551,-1264.1209 929.8111,-1254.0749"/>
<polygon fill="#c0c0c0" stroke="#c0c0c0" stroke-width="2" points="931.0749,-1257.3463 939.5597,-1251.0013 928.9701,-1250.6703 931.0749,-1257.3463"/>
</g>
<!-- 11&#45;&gt;5 -->
<g id="edge13" class="edge">
<title>11&#45;&gt;5</title>
<path fill="none" stroke="#c0c0c0" stroke-width="2" d="M1364.5169,-1700.1349C1751.5473,-1676.3735 2405,-1620.81 2405,-1516.5 2405,-1516.5 2405,-1516.5 2405,-1318.5 2405,-1259.8885 2427.9074,-1228.9765 2386,-1188 2365.7405,-1168.1906 2247.6434,-1152.3182 2126.0505,-1140.9545"/>
<polygon fill="#c0c0c0" stroke="#c0c0c0" stroke-width="2" points="2126.0691,-1137.4414 2115.7895,-1140.0069 2125.4252,-1144.4118 2126.0691,-1137.4414"/>
</g>
<!-- 11&#45;&gt;10 -->
<g id="edge20" class="edge">
<title>11&#45;&gt;10</title>
<path fill="none" stroke="#c0c0c0" stroke-width="2" d="M1129.086,-1682.9036C1141.9943,-1673.4375 1156.2793,-1662.9618 1169.6635,-1653.1468"/>
<polygon fill="#c0c0c0" stroke="#c0c0c0" stroke-width="2" points="1171.866,-1655.8719 1177.8603,-1647.1358 1167.7264,-1650.2271 1171.866,-1655.8719"/>
</g>
<!-- 11&#45;&gt;13 -->
<g id="edge25" class="edge">
<title>11&#45;&gt;13</title>
<path fill="none" stroke="#c0c0c0" stroke-width="2" d="M924.4256,-1682.9756C777.3412,-1649.5117 583,-1591.1682 583,-1516.5 583,-1516.5 583,-1516.5 583,-1219.5 583,-1148.1694 765.0909,-1089.9143 906.1254,-1055.4918"/>
<polygon fill="#c0c0c0" stroke="#c0c0c0" stroke-width="2" points="907.3084,-1058.8067 916.2059,-1053.0547 905.6634,-1052.0027 907.3084,-1058.8067"/>
</g>
<!-- 12&#45;&gt;5 -->
<g id="edge12" class="edge">
<title>12&#45;&gt;5</title>
<path fill="none" stroke="#c0c0c0" stroke-width="2" d="M1920.4247,-1187.9036C1908.68,-1178.5268 1895.6946,-1168.1594 1883.5017,-1158.4247"/>
<polygon fill="#c0c0c0" stroke="#c0c0c0" stroke-width="2" points="1885.6232,-1155.6399 1875.6246,-1152.1358 1881.2557,-1161.1103 1885.6232,-1155.6399"/>
</g>
<!-- 13&#45;&gt;6 -->
<g id="edge14" class="edge">
<title>13&#45;&gt;6</title>
<path fill="none" stroke="#c0c0c0" stroke-width="2" d="M1068,-989.9036C1068,-981.777 1068,-972.9064 1068,-964.3485"/>
<polygon fill="#c0c0c0" stroke="#c0c0c0" stroke-width="2" points="1071.5001,-964.1358 1068,-954.1358 1064.5001,-964.1358 1071.5001,-964.1358"/>
</g>
<!-- 14 -->
<g id="node15" class="node">
<title>14</title>
<path fill="none" stroke="#56a9d8" stroke-width="2" d="M840,-459C840,-459 500,-459 500,-459 494,-459 488,-453 488,-447 488,-447 488,-408 488,-408 488,-402 494,-396 500,-396 500,-396 840,-396 840,-396 846,-396 852,-402 852,-408 852,-408 852,-447 852,-447 852,-453 846,-459 840,-459"/>
<text text-anchor="middle" x="670" y="-415" font-family="sans" font-size="50.00" fill="#000000">extract_umap</text>
</g>
<!-- 14&#45;&gt;7 -->
<g id="edge16" class="edge">
<title>14&#45;&gt;7</title>
<path fill="none" stroke="#c0c0c0" stroke-width="2" d="M602.9773,-395.9036C581.7611,-385.9017 558.1541,-374.7727 536.3354,-364.4867"/>
<polygon fill="#c0c0c0" stroke="#c0c0c0" stroke-width="2" points="537.644,-361.2342 527.1062,-360.1358 534.659,-367.5659 537.644,-361.2342"/>
</g>
<!-- 17 -->
<g id="node18" class="node">
<title>17</title>
<path fill="none" stroke="#568ad8" stroke-width="2" d="M1120,-360C1120,-360 656,-360 656,-360 650,-360 644,-354 644,-348 644,-348 644,-309 644,-309 644,-303 650,-297 656,-297 656,-297 1120,-297 1120,-297 1126,-297 1132,-303 1132,-309 1132,-309 1132,-348 1132,-348 1132,-354 1126,-360 1120,-360"/>
<text text-anchor="middle" x="888" y="-316" font-family="sans" font-size="50.00" fill="#000000">make_h5ad_object</text>
</g>
<!-- 14&#45;&gt;17 -->
<g id="edge35" class="edge">
<title>14&#45;&gt;17</title>
<path fill="none" stroke="#c0c0c0" stroke-width="2" d="M739.5759,-395.9036C761.6987,-385.857 786.3255,-374.6733 809.0598,-364.349"/>
<polygon fill="#c0c0c0" stroke="#c0c0c0" stroke-width="2" points="810.6795,-367.4575 818.3373,-360.1358 807.785,-361.084 810.6795,-367.4575"/>
</g>
<!-- 15 -->
<g id="node16" class="node">
<title>15</title>
<path fill="none" stroke="#56d88a" stroke-width="2" d="M429.5,-558C429.5,-558 40.5,-558 40.5,-558 34.5,-558 28.5,-552 28.5,-546 28.5,-546 28.5,-507 28.5,-507 28.5,-501 34.5,-495 40.5,-495 40.5,-495 429.5,-495 429.5,-495 435.5,-495 441.5,-501 441.5,-507 441.5,-507 441.5,-546 441.5,-546 441.5,-552 435.5,-558 429.5,-558"/>
<text text-anchor="middle" x="235" y="-514" font-family="sans" font-size="50.00" fill="#000000">calculate_umap</text>
</g>
<!-- 15&#45;&gt;7 -->
<g id="edge17" class="edge">
<title>15&#45;&gt;7</title>
<path fill="none" stroke="#c0c0c0" stroke-width="2" d="M271.1501,-494.6879C310.6774,-459.9039 374.014,-404.1677 416.2994,-366.9565"/>
<polygon fill="#c0c0c0" stroke="#c0c0c0" stroke-width="2" points="418.7446,-369.467 423.9396,-360.2332 414.1202,-364.212 418.7446,-369.467"/>
</g>
<!-- 15&#45;&gt;14 -->
<g id="edge30" class="edge">
<title>15&#45;&gt;14</title>
<path fill="none" stroke="#c0c0c0" stroke-width="2" d="M373.5335,-494.9717C420.7678,-484.2218 473.7513,-472.1635 521.7201,-461.2465"/>
<polygon fill="#c0c0c0" stroke="#c0c0c0" stroke-width="2" points="522.5855,-464.6391 531.5594,-459.0072 521.032,-457.8136 522.5855,-464.6391"/>
</g>
<!-- 16 -->
<g id="node17" class="node">
<title>16</title>
<path fill="none" stroke="#56d89a" stroke-width="2" d="M840,-558C840,-558 472,-558 472,-558 466,-558 460,-552 460,-546 460,-546 460,-507 460,-507 460,-501 466,-495 472,-495 472,-495 840,-495 840,-495 846,-495 852,-501 852,-507 852,-507 852,-546 852,-546 852,-552 846,-558 840,-558"/>
<text text-anchor="middle" x="656" y="-514" font-family="sans" font-size="50.00" fill="#000000">extract_cluster</text>
</g>
<!-- 16&#45;&gt;7 -->
<g id="edge15" class="edge">
<title>16&#45;&gt;7</title>
<path fill="none" stroke="#c0c0c0" stroke-width="2" d="M523.9854,-494.772C506.8055,-485.691 491.0305,-474.0141 479,-459 459.2598,-434.3642 455.2723,-398.4083 455.795,-370.4734"/>
<polygon fill="#c0c0c0" stroke="#c0c0c0" stroke-width="2" points="459.3031,-370.3281 456.1927,-360.2001 452.3084,-370.0572 459.3031,-370.3281"/>
</g>
<!-- 16&#45;&gt;14 -->
<g id="edge27" class="edge">
<title>16&#45;&gt;14</title>
<path fill="none" stroke="#c0c0c0" stroke-width="2" d="M660.4682,-494.9036C661.63,-486.6877 662.8994,-477.7114 664.1219,-469.0665"/>
<polygon fill="#c0c0c0" stroke="#c0c0c0" stroke-width="2" points="667.5915,-469.5274 665.5263,-459.1358 660.6604,-468.5472 667.5915,-469.5274"/>
</g>
<!-- 16&#45;&gt;17 -->
<g id="edge34" class="edge">
<title>16&#45;&gt;17</title>
<path fill="none" stroke="#c0c0c0" stroke-width="2" d="M785.6598,-494.9808C819.3386,-484.3991 849.4332,-471.9676 861,-459 882.4657,-434.9347 888.5607,-398.3892 889.6593,-370.0875"/>
<polygon fill="#c0c0c0" stroke="#c0c0c0" stroke-width="2" points="893.1588,-370.1391 889.8572,-360.0719 886.1602,-370.0008 893.1588,-370.1391"/>
</g>
<!-- 17&#45;&gt;8 -->
<g id="edge18" class="edge">
<title>17&#45;&gt;8</title>
<path fill="none" stroke="#c0c0c0" stroke-width="2" d="M853.8503,-296.9036C843.9089,-287.7054 832.9371,-277.554 822.5913,-267.9817"/>
<polygon fill="#c0c0c0" stroke="#c0c0c0" stroke-width="2" points="824.9094,-265.3581 815.1922,-261.1358 820.1554,-270.4962 824.9094,-265.3581"/>
</g>
<!-- 18 -->
<g id="node19" class="node">
<title>18</title>
<path fill="none" stroke="#ced856" stroke-width="2" d="M1527,-1449C1527,-1449 1185,-1449 1185,-1449 1179,-1449 1173,-1443 1173,-1437 1173,-1437 1173,-1398 1173,-1398 1173,-1392 1179,-1386 1185,-1386 1185,-1386 1527,-1386 1527,-1386 1533,-1386 1539,-1392 1539,-1398 1539,-1398 1539,-1437 1539,-1437 1539,-1443 1533,-1449 1527,-1449"/>
<text text-anchor="middle" x="1356" y="-1405" font-family="sans" font-size="50.00" fill="#000000">kallisto_quant</text>
</g>
<!-- 18&#45;&gt;9 -->
<g id="edge19" class="edge">
<title>18&#45;&gt;9</title>
<path fill="none" stroke="#c0c0c0" stroke-width="2" d="M1356,-1385.9036C1356,-1377.777 1356,-1368.9064 1356,-1360.3485"/>
<polygon fill="#c0c0c0" stroke="#c0c0c0" stroke-width="2" points="1359.5001,-1360.1358 1356,-1350.1358 1352.5001,-1360.1358 1359.5001,-1360.1358"/>
</g>
<!-- 19 -->
<g id="node20" class="node">
<title>19</title>
<path fill="none" stroke="#56d8c1" stroke-width="2" d="M2224.5,-1350C2224.5,-1350 1897.5,-1350 1897.5,-1350 1891.5,-1350 1885.5,-1344 1885.5,-1338 1885.5,-1338 1885.5,-1299 1885.5,-1299 1885.5,-1293 1891.5,-1287 1897.5,-1287 1897.5,-1287 2224.5,-1287 2224.5,-1287 2230.5,-1287 2236.5,-1293 2236.5,-1299 2236.5,-1299 2236.5,-1338 2236.5,-1338 2236.5,-1344 2230.5,-1350 2224.5,-1350"/>
<text text-anchor="middle" x="2061" y="-1306" font-family="sans" font-size="50.00" fill="#000000">bustools_sort</text>
</g>
<!-- 19&#45;&gt;12 -->
<g id="edge22" class="edge">
<title>19&#45;&gt;12</title>
<path fill="none" stroke="#c0c0c0" stroke-width="2" d="M2028.7653,-1286.9036C2019.4724,-1277.7947 2009.2258,-1267.751 1999.5437,-1258.2606"/>
<polygon fill="#c0c0c0" stroke="#c0c0c0" stroke-width="2" points="2001.8664,-1255.6363 1992.2749,-1251.1358 1996.9663,-1260.6353 2001.8664,-1255.6363"/>
</g>
<!-- 20 -->
<g id="node21" class="node">
<title>20</title>
<path fill="none" stroke="#d8d356" stroke-width="2" d="M2000.5,-1449C2000.5,-1449 1713.5,-1449 1713.5,-1449 1707.5,-1449 1701.5,-1443 1701.5,-1437 1701.5,-1437 1701.5,-1398 1701.5,-1398 1701.5,-1392 1707.5,-1386 1713.5,-1386 1713.5,-1386 2000.5,-1386 2000.5,-1386 2006.5,-1386 2012.5,-1392 2012.5,-1398 2012.5,-1398 2012.5,-1437 2012.5,-1437 2012.5,-1443 2006.5,-1449 2000.5,-1449"/>
<text text-anchor="middle" x="1857" y="-1405" font-family="sans" font-size="50.00" fill="#000000">kallisto_bus</text>
</g>
<!-- 20&#45;&gt;12 -->
<g id="edge21" class="edge">
<title>20&#45;&gt;12</title>
<path fill="none" stroke="#c0c0c0" stroke-width="2" d="M1855.6445,-1385.9024C1855.8333,-1358.1023 1859.5735,-1317.4325 1877,-1287 1883.1903,-1276.1897 1891.8341,-1266.4106 1901.2209,-1257.8645"/>
<polygon fill="#c0c0c0" stroke="#c0c0c0" stroke-width="2" points="1903.5777,-1260.4539 1908.8756,-1251.2788 1899.0123,-1255.1475 1903.5777,-1260.4539"/>
</g>
<!-- 20&#45;&gt;19 -->
<g id="edge38" class="edge">
<title>20&#45;&gt;19</title>
<path fill="none" stroke="#c0c0c0" stroke-width="2" d="M1922.1078,-1385.9036C1942.6258,-1375.9463 1965.4456,-1364.872 1986.5616,-1354.6245"/>
<polygon fill="#c0c0c0" stroke="#c0c0c0" stroke-width="2" points="1988.3426,-1357.6506 1995.8111,-1350.1358 1985.2864,-1351.353 1988.3426,-1357.6506"/>
</g>
<!-- 21&#45;&gt;14 -->
<g id="edge28" class="edge">
<title>21&#45;&gt;14</title>
<path fill="none" stroke="#c0c0c0" stroke-width="2" d="M826.7579,-692.9421C840.4833,-683.4331 853.0559,-671.551 861,-657 895.5015,-593.8047 902.5731,-553.785 861,-495 852.6894,-483.2487 830.1682,-472.1116 803.3729,-462.3973"/>
<polygon fill="#c0c0c0" stroke="#c0c0c0" stroke-width="2" points="804.328,-459.0234 793.7331,-459.0219 802.0146,-465.6301 804.328,-459.0234"/>
</g>
<!-- 21&#45;&gt;15 -->
<g id="edge31" class="edge">
<title>21&#45;&gt;15</title>
<path fill="none" stroke="#c0c0c0" stroke-width="2" d="M587.1861,-708.713C527.1476,-698.8704 460.2789,-682.9015 403,-657 353.465,-634.6003 305.3505,-594.814 273.4003,-565.0414"/>
<polygon fill="#c0c0c0" stroke="#c0c0c0" stroke-width="2" points="275.7095,-562.4081 266.0354,-558.0881 270.904,-567.4981 275.7095,-562.4081"/>
</g>
<!-- 21&#45;&gt;17 -->
<g id="edge36" class="edge">
<title>21&#45;&gt;17</title>
<path fill="none" stroke="#c0c0c0" stroke-width="2" d="M851.263,-692.8317C866.2871,-683.6287 879.8557,-671.8954 889,-657 944.0586,-567.3131 919.2241,-436.2429 901.0653,-370.0467"/>
<polygon fill="#c0c0c0" stroke="#c0c0c0" stroke-width="2" points="904.421,-369.0507 898.3333,-360.3795 897.6848,-370.9544 904.421,-369.0507"/>
</g>
<!-- 23 -->
<g id="node24" class="node">
<title>23</title>
<path fill="none" stroke="#9fd856" stroke-width="2" d="M840,-657C840,-657 424,-657 424,-657 418,-657 412,-651 412,-645 412,-645 412,-606 412,-606 412,-600 418,-594 424,-594 424,-594 840,-594 840,-594 846,-594 852,-600 852,-606 852,-606 852,-645 852,-645 852,-651 846,-657 840,-657"/>
<text text-anchor="middle" x="632" y="-613" font-family="sans" font-size="50.00" fill="#000000">calculate_cluster</text>
</g>
<!-- 21&#45;&gt;23 -->
<g id="edge42" class="edge">
<title>21&#45;&gt;23</title>
<path fill="none" stroke="#c0c0c0" stroke-width="2" d="M716.4247,-692.9036C704.68,-683.5268 691.6946,-673.1594 679.5017,-663.4247"/>
<polygon fill="#c0c0c0" stroke="#c0c0c0" stroke-width="2" points="681.6232,-660.6399 671.6246,-657.1358 677.2557,-666.1103 681.6232,-660.6399"/>
</g>
<!-- 22&#45;&gt;14 -->
<g id="edge29" class="edge">
<title>22&#45;&gt;14</title>
<path fill="none" stroke="#c0c0c0" stroke-width="2" d="M1109.5883,-494.9717C1030.2815,-482.799 940.0441,-468.9486 862.0495,-456.9774"/>
<polygon fill="#c0c0c0" stroke="#c0c0c0" stroke-width="2" points="862.5263,-453.5096 852.111,-455.4519 861.4642,-460.4286 862.5263,-453.5096"/>
</g>
<!-- 22&#45;&gt;17 -->
<g id="edge33" class="edge">
<title>22&#45;&gt;17</title>
<path fill="none" stroke="#c0c0c0" stroke-width="2" d="M1246.8684,-494.9074C1170.1241,-459.321 1045.6562,-401.6052 965.3275,-364.3568"/>
<polygon fill="#c0c0c0" stroke="#c0c0c0" stroke-width="2" points="966.7865,-361.1754 956.2419,-360.1438 963.8417,-367.5259 966.7865,-361.1754"/>
</g>
<!-- 23&#45;&gt;16 -->
<g id="edge32" class="edge">
<title>23&#45;&gt;16</title>
<path fill="none" stroke="#c0c0c0" stroke-width="2" d="M639.6597,-593.9036C641.6515,-585.6877 643.8275,-576.7114 645.9233,-568.0665"/>
<polygon fill="#c0c0c0" stroke="#c0c0c0" stroke-width="2" points="649.3761,-568.6789 648.3307,-558.1358 642.5732,-567.0297 649.3761,-568.6789"/>
</g>
<!-- 24&#45;&gt;18 -->
<g id="edge37" class="edge">
<title>24&#45;&gt;18</title>
<path fill="none" stroke="#c0c0c0" stroke-width="2" d="M1356,-1484.9036C1356,-1476.777 1356,-1467.9064 1356,-1459.3485"/>
<polygon fill="#c0c0c0" stroke="#c0c0c0" stroke-width="2" points="1359.5001,-1459.1358 1356,-1449.1358 1352.5001,-1459.1358 1359.5001,-1459.1358"/>
</g>
<!-- 24&#45;&gt;20 -->
<g id="edge39" class="edge">
<title>24&#45;&gt;20</title>
<path fill="none" stroke="#c0c0c0" stroke-width="2" d="M1515.5524,-1484.9717C1571.6235,-1473.8918 1634.7291,-1461.4218 1691.2946,-1450.2442"/>
<polygon fill="#c0c0c0" stroke="#c0c0c0" stroke-width="2" points="1692.2779,-1453.6176 1701.4097,-1448.2454 1690.9209,-1446.7504 1692.2779,-1453.6176"/>
</g>
</g>
</svg>
